<svg width="401" height="400" viewBox="0 0 401 400" fill="none" xmlns="http://www.w3.org/2000/svg">
<path d="M217.616 47.0232C215.308 58.7155 187.254 69.8463 179 58.5617C173.823 51.4924 176.516 43.8924 185.47 41.3078C193.485 38.977 213.708 42.0386 217.616 47.0232Z" fill="#21467E"/>
<path d="M219.869 52.6001C216.069 57.3077 212.853 68.5077 221.253 69.5231C232.346 70.8231 233.561 63.3693 230.484 57.077C228.961 53.8462 221.084 50.2001 219.869 52.6001Z" fill="#21467E"/>
<path d="M179.138 43.5001C177.138 45.1486 175.777 47.4455 175.292 49.9924C175.082 51.2459 175.134 52.5294 175.446 53.7616C175.602 54.3877 175.816 54.998 176.085 55.5847L176.492 56.477L177.015 57.3078C178.027 58.9138 179.43 60.237 181.092 61.1539C184.015 62.8154 187.615 63.2385 191.092 62.9231C194.625 62.5787 198.085 61.6994 201.354 60.3154C204.276 59.1119 207.034 57.543 209.562 55.6462C211.163 54.4522 212.635 53.0935 213.954 51.5924C215.27 50.1623 216.297 48.4904 216.977 46.6693C217.277 45.5693 217.746 45.6924 217.946 46.9078C218.146 48.1231 217.623 50.4001 215.992 52.3308C213.147 55.6272 209.688 58.339 205.808 60.3154C201.984 62.3414 197.851 63.7215 193.577 64.4001C190.95 64.8174 188.278 64.8614 185.638 64.5308C182.91 64.1821 180.332 63.0822 178.192 61.3539C177.054 60.3612 176.084 59.1894 175.323 57.8847L175.023 57.4077C174.938 57.2462 174.862 57.0693 174.785 56.9001L174.308 55.877C174.164 55.5287 174.043 55.1716 173.946 54.8078C173.822 54.4488 173.724 54.0811 173.654 53.7078C173.367 52.2111 173.367 50.6736 173.654 49.177C173.979 47.7013 174.579 46.3 175.423 45.0462C176.44 43.5273 177.722 42.2037 179.208 41.1385C179.933 40.6027 180.691 40.112 181.477 39.6693L182.677 39.0693C183.072 38.8607 183.481 38.6783 183.9 38.5231C185.152 38.0131 186.437 37.589 187.746 37.2539C188.415 37.1308 189.077 36.9693 189.754 36.877C190.431 36.7847 191.1 36.7154 191.769 36.677C194.445 36.5445 197.127 36.6992 199.769 37.1385C201.786 37.4584 203.782 37.9002 205.746 38.4616C207.725 38.9992 209.66 39.6911 211.531 40.5308L212.762 41.1078C213.169 41.3078 213.531 41.5385 213.962 41.7693C215.043 42.3484 216.026 43.0933 216.877 43.977C217.293 44.3746 217.564 44.8999 217.646 45.4693C217.69 45.6557 217.711 45.847 217.708 46.0385C217.662 46.2693 217.354 46.1847 216.862 45.8616C216.369 45.5385 215.662 45.0001 214.708 44.3231C211.674 42.4381 208.372 41.0221 204.915 40.1231C201.388 39.1081 197.746 38.5497 194.077 38.4616C192.727 38.444 191.377 38.5237 190.038 38.7001C189.369 38.7847 188.731 38.9539 188.077 39.0693L186.123 39.6462C183.572 40.4532 181.215 41.7783 179.2 43.5385L179.138 43.5001Z" fill="#21467E"/>
<path d="M233.338 65.6386C232.686 67.3249 231.531 68.7697 230.03 69.7771C228.528 70.744 226.778 71.2544 224.992 71.2463H224.053C223.741 71.2494 223.429 71.2211 223.123 71.1617C222.511 71.0672 221.905 70.9413 221.307 70.7848C219.115 70.2127 217.216 68.8406 215.984 66.9386C214.894 65.0212 214.444 62.8062 214.7 60.6155C214.863 58.7474 215.261 56.9072 215.884 55.1386C216.584 52.8648 217.733 50.7541 219.261 48.9309C219.769 48.3771 220.03 48.7771 220.069 49.5309C220.033 50.568 219.748 51.5811 219.238 52.4848C218.164 54.416 217.364 56.4871 216.861 58.6386C216.307 60.7152 216.345 62.9051 216.969 64.9617C217.395 66.1598 218.206 67.1826 219.276 67.8694C220.407 68.5827 221.676 69.0469 223 69.2309C224.405 69.6046 225.889 69.5534 227.265 69.0838C228.641 68.6142 229.847 67.7472 230.73 66.5925C231.772 65.0842 232.33 63.2947 232.33 61.4617C232.364 60.0538 232.101 58.6545 231.561 57.354C231.436 57.0265 231.285 56.71 231.107 56.4078C230.958 56.1018 230.781 55.8108 230.576 55.5386C230.128 54.995 229.645 54.4811 229.13 54.0001C227.532 52.4706 225.752 51.1428 223.83 50.0463C223.425 49.8263 223.006 49.6311 222.576 49.4617C222.112 49.2639 221.627 49.1169 221.13 49.0232C220.911 48.9552 220.687 48.9012 220.461 48.8617C220.338 48.8617 220.176 48.8617 220.046 48.8617C219.915 48.8617 219.7 48.6463 219.946 48.1694C220.118 47.8734 220.391 47.6495 220.715 47.5386C221.11 47.4035 221.532 47.364 221.946 47.4232C223.077 47.631 224.16 48.0484 225.138 48.654C226.082 49.1998 226.984 49.8143 227.838 50.4925C228.704 51.1661 229.533 51.8851 230.323 52.6463C230.723 53.0309 231.092 53.4155 231.492 53.854C231.696 54.0748 231.888 54.3059 232.069 54.5463C232.174 54.68 232.269 54.8214 232.353 54.9694L232.576 55.3617C232.802 55.7444 233.005 56.14 233.184 56.5463L233.653 57.7924L233.961 59.0848C234.044 59.5193 234.101 59.9586 234.13 60.4001C234.272 62.1794 234.009 63.9677 233.361 65.6309L233.338 65.6386Z" fill="#21467E"/>
<path d="M194.7 101.815C194.915 101.986 195.147 102.133 195.393 102.254C195.623 102.383 195.865 102.492 196.116 102.577C196.362 102.677 196.685 102.723 196.962 102.808C197.247 102.887 197.537 102.944 197.831 102.977C198.983 103.179 200.164 103.139 201.3 102.862C203.627 102.183 205.694 100.819 207.231 98.9462C208.421 97.5332 209.487 96.0198 210.416 94.4231C212.147 91.6077 213.531 88.5847 215.254 85.6077C215.69 84.8258 216.206 84.0911 216.793 83.4154C216.966 83.234 217.148 83.062 217.339 82.9L217.754 82.6308L217.97 82.5001C218.052 82.4916 218.134 82.4916 218.216 82.5001L219.554 82.4539C221.137 82.3369 222.678 81.8888 224.077 81.1385C225.303 80.4784 226.356 79.5405 227.154 78.4001C227.544 77.8434 227.847 77.2315 228.054 76.5847C228.244 75.9624 228.314 75.31 228.262 74.6616C228.21 73.8928 227.86 73.1749 227.285 72.6616C226.967 72.4594 226.613 72.3226 226.242 72.2592C225.87 72.1958 225.49 72.2071 225.124 72.2924C224.282 72.4346 223.466 72.6989 222.7 73.077C221.923 73.452 221.203 73.9364 220.562 74.5154C220.216 74.8847 220.17 74.8385 219.962 74.8308C219.907 74.8199 219.857 74.794 219.816 74.7559C219.775 74.7179 219.746 74.6692 219.731 74.6154C219.686 74.3778 219.71 74.1321 219.8 73.9077C220.198 73.0419 220.789 72.2788 221.528 71.6773C222.266 71.0758 223.133 70.652 224.062 70.4385C225.273 70.076 226.572 70.1329 227.747 70.6C228.399 70.898 228.958 71.3688 229.362 71.9616C229.742 72.4895 230.004 73.0928 230.131 73.7308C230.382 74.9116 230.302 76.1387 229.9 77.277C229.518 78.3347 228.947 79.3145 228.216 80.1693C226.787 81.8139 224.919 83.0173 222.831 83.6385C222.327 83.8001 221.813 83.9286 221.293 84.0231C220.77 84.1231 220.247 84.1616 219.754 84.2308H218.593H218.524L218.324 84.4077C218.173 84.5417 218.032 84.6856 217.9 84.8385C217.213 85.7305 216.608 86.6832 216.093 87.6847C215.539 88.7077 215 89.777 214.454 90.8539C213.383 93.0424 212.181 95.1642 210.854 97.2077C209.378 99.5242 207.459 101.527 205.208 103.1C204.02 103.869 202.696 104.404 201.308 104.677C199.92 104.939 198.496 104.939 197.108 104.677L195.87 104.369C195.438 104.239 195.021 104.067 194.624 103.854C193.846 103.444 193.139 102.912 192.531 102.277C191.376 101.041 190.425 99.6283 189.716 98.0924C187.585 93.477 186.785 88.5154 186.377 83.6308C186.05 79.8638 186.045 76.0757 186.362 72.3077C186.447 71.477 186.524 70.6616 186.654 69.8231C187.154 66.7462 187.6 65.8001 188.231 65.2847C188.362 65.1568 188.507 65.0434 188.662 64.9462C189.116 64.7693 189.054 66.0462 188.708 68.2308C188.21 71.5412 187.953 74.8833 187.939 78.2308C187.896 81.6723 188.154 85.111 188.708 88.5077C188.924 89.7693 189.185 91.0231 189.516 92.2539C189.827 93.4807 190.217 94.6858 190.685 95.8616C191.616 98.1693 192.877 100.431 194.7 101.746V101.815Z" fill="#21467E"/>
<path d="M197.1 104.016C199.369 107.777 201.207 108.123 204.507 107.477C207.584 106.877 211.184 103.523 209.246 98.6079C207.207 101.677 202.623 105.977 197.1 104.016Z" fill="#21467E"/>
<path d="M209.092 96.8233L209.592 96.1387L209.731 96.5079C209.777 96.6233 209.831 96.831 209.884 96.9925L210.192 98.0002L210.469 98.9541C210.577 99.2728 210.647 99.6033 210.677 99.9387L210.808 100.985C210.823 101.169 210.823 101.354 210.808 101.539V101.939C210.649 103.163 210.195 104.33 209.484 105.339C208.285 106.873 206.552 107.9 204.631 108.216C204.037 108.306 203.438 108.366 202.838 108.393C201.688 108.482 200.537 108.236 199.523 107.685C198.29 106.98 197.313 105.903 196.731 104.608C196.561 104.223 197.008 104.031 197.577 104.069C198.213 104.103 198.813 104.378 199.254 104.839C199.587 105.254 199.975 105.621 200.408 105.931C200.799 106.204 201.245 106.387 201.715 106.469C202.265 106.557 202.822 106.578 203.377 106.531C203.677 106.531 203.984 106.485 204.3 106.446C204.58 106.42 204.857 106.373 205.131 106.308C205.812 106.112 206.449 105.784 207.003 105.342C207.557 104.899 208.019 104.352 208.361 103.731C208.726 103.055 208.931 102.306 208.961 101.539C209.009 101.144 208.975 100.743 208.861 100.362L208.815 100.185L208.723 100.293C208.615 100.431 208.484 100.577 208.354 100.723L208.138 100.946L207.808 101.277C206.576 102.51 205.132 103.51 203.546 104.231C202.308 104.828 200.964 105.173 199.592 105.246C199.285 105.277 198.976 105.277 198.669 105.246C198.384 105.208 198.146 105.169 197.954 105.123C197.793 105.073 197.64 105.001 197.5 104.908C197.396 104.841 197.309 104.751 197.248 104.643C197.186 104.536 197.151 104.416 197.146 104.293C197.122 104.173 197.109 104.052 197.108 103.931C197.146 103.546 197.638 103.362 198.323 103.439C200.399 103.544 202.454 102.987 204.192 101.846C204.878 101.409 205.522 100.91 206.115 100.354C206.269 100.216 206.423 100.069 206.561 99.9233L206.915 99.5541C207.059 99.3951 207.205 99.2182 207.354 99.0233L208.208 97.9156L209.069 96.7156L209.092 96.8233Z" fill="#21467E"/>
<path d="M181.154 73.5923C180.813 72.4744 180.726 71.2943 180.9 70.1385C180.9 69.9385 180.954 69.7231 180.984 69.5154C181.016 69.31 181.07 69.1087 181.146 68.9154L181.331 68.4C181.415 68.2002 181.516 68.0073 181.631 67.8231C181.753 67.6499 181.884 67.483 182.023 67.3231C182.169 67.1846 182.323 67.0462 182.469 66.9231C183.64 66.0737 185.084 65.6873 186.523 65.8385C187.018 65.9009 187.485 66.1037 187.869 66.4231C188.068 66.5952 188.228 66.8076 188.338 67.0462C188.454 67.2673 188.517 67.5121 188.523 67.7616C188.523 68.0693 188.046 68.0539 187.546 68.0077C187.3 68.0077 187.069 67.9539 186.869 67.9539C186.752 67.9747 186.632 67.9747 186.515 67.9539C186.461 67.8769 186.346 67.8462 186.184 67.7769C185.968 67.7257 185.745 67.7049 185.523 67.7154C184.958 67.7298 184.401 67.8553 183.884 68.0846C183.569 68.2101 183.3 68.4305 183.115 68.7154L183.023 68.9077C183.023 68.9769 182.969 69.1 182.938 69.1846C182.907 69.2693 182.831 69.5769 182.761 69.7616C182.544 70.6255 182.523 71.5269 182.7 72.4C182.816 72.9581 183.005 73.4985 183.261 74.0077C183.655 74.8149 184.16 75.5632 184.761 76.2308C185.265 76.7357 185.802 77.206 186.369 77.6385C186.492 77.7462 186.623 77.8462 186.746 77.9616C186.925 78.1181 187.054 78.3242 187.115 78.5539C187.128 78.6575 187.114 78.7628 187.075 78.8597C187.036 78.9566 186.973 79.0419 186.892 79.1077C186.813 79.1931 186.728 79.2728 186.638 79.3462C186.49 79.4442 186.316 79.4976 186.138 79.5C185.972 79.5084 185.807 79.4625 185.669 79.3693C184.533 78.6167 183.532 77.6779 182.707 76.5923C182.017 75.6917 181.47 74.6902 181.084 73.6231L181.154 73.5923Z" fill="#21467E"/>
<path d="M182.992 117.308C183.749 116.204 184.652 115.208 185.677 114.346C187.791 112.596 190.448 111.636 193.192 111.631C194.643 111.597 196.07 112.005 197.285 112.8C199.433 114.357 201.171 116.414 202.346 118.792C203.536 121.012 204.537 123.328 205.339 125.715C206.529 129.156 207.51 132.665 208.277 136.223C209.466 141.795 210.339 147.43 210.892 153.1C211.169 155.931 211.377 158.769 211.462 161.623C211.508 163.046 211.523 164.477 211.462 165.923C211.462 166.639 211.392 167.362 211.3 168.1C211.246 168.469 211.192 168.869 211.1 169.223C211.047 169.441 210.978 169.654 210.892 169.862L210.692 170.215C210.606 170.321 210.514 170.421 210.415 170.515L209.5 171.154C209.21 171.362 208.907 171.553 208.592 171.723C207.976 172.084 207.336 172.402 206.677 172.677L205.685 173.069L204.662 173.377C203.98 173.571 203.29 173.73 202.592 173.854C201.198 174.07 199.787 174.16 198.377 174.123C196.977 174.09 195.582 173.959 194.2 173.731C193.515 173.615 192.839 173.485 192.162 173.339L191.162 173.123C191.039 173.123 190.754 173.023 190.492 172.977L189.723 172.839C189.685 172.608 189.639 172.377 189.6 172.146C189.562 171.915 189.477 171.485 189.431 171.2L189.377 170.492C189.331 170.023 189.331 169.562 189.331 169.1C189.331 168.639 189.331 168.177 189.331 167.723C189.331 167.269 189.369 166.808 189.408 166.354C189.531 164.539 189.723 162.746 189.915 160.969C190.108 159.192 190.308 157.408 190.423 155.639C190.582 153.908 190.558 152.165 190.354 150.439C190.308 149.9 190.185 149.569 190.192 149.315C190.2 149.062 190.192 148.939 190.308 148.915C190.423 148.892 190.539 148.992 190.723 149.2C190.98 149.5 191.185 149.841 191.331 150.208C191.847 151.477 192.146 152.824 192.215 154.192C192.338 156.09 192.292 157.995 192.077 159.885C191.854 161.985 191.6 164.054 191.431 166.108C191.346 167.131 191.277 168.154 191.277 169.146V169.915L191.331 170.639V170.992C191.331 171.077 191.331 171.069 191.331 171.077V171.192H191.462L191.777 171.262L193 171.539C193.808 171.715 194.623 171.854 195.431 171.969C197.04 172.208 198.669 172.283 200.292 172.192C201.893 172.103 203.475 171.808 205 171.315C205.748 171.049 206.476 170.728 207.177 170.354C207.533 170.181 207.875 169.98 208.2 169.754L209.131 169.123C209.131 169.123 209.131 169.123 209.192 169.031C209.247 168.865 209.291 168.695 209.323 168.523C209.404 168.111 209.463 167.695 209.5 167.277C209.585 166.408 209.615 165.515 209.639 164.615C209.639 162.808 209.639 160.992 209.539 159.162C209.059 150.198 207.696 141.304 205.469 132.608C204.215 127.854 202.715 123.1 200.3 118.908C199.077 116.854 197.554 114.877 195.539 113.892C195.052 113.659 194.534 113.501 194 113.423C193.432 113.381 192.861 113.381 192.292 113.423C191.134 113.531 190.002 113.835 188.946 114.323C186.339 115.531 184.4 117.923 183.077 120.562C181.765 123.269 180.813 126.137 180.246 129.092C179.359 133.614 178.844 138.202 178.708 142.808C178.531 147.423 178.608 152.039 178.831 156.615C179.185 163.746 179.969 170.7 180.862 177.7C181.069 179.239 181.269 180.777 181.477 182.315C182.246 188.069 182.354 189.946 181.962 191.254C181.896 191.545 181.801 191.829 181.677 192.1C181.485 192.362 181.331 191.946 181.092 190.923C180.854 189.9 180.546 188.277 180.223 186.169C178.292 173.677 176.739 160.346 176.792 146.854C176.785 141.811 177.15 136.774 177.885 131.785C178.263 129.258 178.831 126.764 179.585 124.323C179.967 123.085 180.427 121.873 180.962 120.692C181.496 119.488 182.143 118.337 182.892 117.254L182.992 117.308Z" fill="#21467E"/>
<path d="M241.108 145.869C241.108 145.823 241.177 145.777 241.162 145.746L241.1 145.7L240.962 145.608C240.862 145.531 240.746 145.462 240.654 145.385C239.897 144.803 239.177 144.174 238.5 143.5C237.169 142.185 235.969 140.816 234.769 139.431C233.908 138.423 233.008 137.446 232.169 136.423C229.208 132.823 226.339 129.177 223.239 125.731C221.875 124.209 220.421 122.771 218.885 121.423C217.909 120.577 216.882 119.794 215.808 119.077C214.805 118.367 213.714 117.79 212.562 117.362C211.885 117.146 211.962 116.677 212.777 116.385C213.422 116.24 214.09 116.233 214.737 116.366C215.384 116.499 215.996 116.767 216.531 117.154C218.83 118.726 220.941 120.556 222.823 122.608C224.7 124.593 226.454 126.669 228.139 128.808C230.162 131.362 232.385 133.9 234.516 136.423C235.685 137.816 236.869 139.193 238.085 140.516C239.244 141.845 240.532 143.056 241.931 144.131C242.089 144.24 242.254 144.34 242.423 144.431L242.977 144.746L243.246 144.9L243.385 144.977C243.446 144.977 243.385 145.069 243.385 145.116L243.146 145.716C243.069 145.916 242.993 146.108 242.908 146.308L242.677 146.816L242.285 147.585C241.746 148.6 241.162 149.569 240.562 150.531C239.639 151.987 238.654 153.398 237.608 154.762C236.579 156.158 235.412 157.447 234.123 158.608C233.844 158.844 233.543 159.053 233.223 159.231C233.027 159.354 232.808 159.436 232.579 159.47C232.35 159.505 232.116 159.491 231.893 159.431C231.623 159.346 231.516 159.3 231.339 159.231C231.162 159.162 231.023 159.093 230.869 159.023C230.562 158.893 230.262 158.739 229.969 158.593C228.78 157.983 227.641 157.281 226.562 156.493C226.082 156.139 225.622 155.759 225.185 155.354C224.572 154.819 224.063 154.174 223.685 153.454C223.584 153.279 223.52 153.084 223.499 152.882C223.478 152.681 223.499 152.477 223.562 152.285C223.6 152.14 223.657 152 223.731 151.869C224.023 151.539 224.554 152.177 225.539 153.2C227.158 154.75 229.002 156.047 231.008 157.046C231.262 157.177 231.516 157.308 231.777 157.416L232.146 157.577L232.316 157.646L232.377 157.608C232.566 157.5 232.746 157.376 232.916 157.239C233.757 156.483 234.529 155.654 235.223 154.762C236.323 153.4 237.369 151.939 238.354 150.446C239.343 148.97 240.23 147.428 241.008 145.831L241.108 145.869Z" fill="#21467E"/>
<path d="M249.869 158.6C248.9 157.908 247.946 157.192 247.046 156.415C246.716 156.138 246.354 155.9 246.039 155.608C244.928 154.569 243.877 153.467 242.893 152.308C242.446 151.808 241.985 151.315 241.523 150.846C240.878 150.28 240.33 149.612 239.9 148.869C239.662 148.385 241.485 147.8 242.085 148.508C243.185 149.777 244.246 151.046 245.293 152.392C245.975 153.167 246.73 153.875 247.546 154.508C248.416 155.238 249.293 155.969 250.231 156.623C250.793 157.046 251.393 157.392 251.985 157.808C252.889 158.376 253.827 158.89 254.793 159.346C255.545 159.65 256.316 159.906 257.1 160.115C257.269 160.169 257.454 160.2 257.623 160.262C258.254 160.485 258.393 160.677 258.393 161.192C258.393 161.308 258.393 161.431 258.393 161.538C258.316 161.923 257.939 162.108 257.431 162.023C255.876 161.733 254.376 161.201 252.985 160.446C251.928 159.893 250.901 159.284 249.908 158.623L249.869 158.6Z" fill="#21467E"/>
<path d="M275.308 133.685C277.1 129.939 278.8 126.154 280.5 122.339L281.446 120.231C281.596 119.934 281.722 119.625 281.823 119.308C281.912 118.995 281.979 118.676 282.023 118.354C282.156 117.076 282.171 115.789 282.069 114.508C282 113.185 281.869 111.846 281.885 110.439C281.885 110.073 281.908 109.709 281.954 109.346C281.97 109.143 282.006 108.942 282.062 108.746C282.109 108.557 282.171 108.372 282.246 108.192C282.516 107.518 282.859 106.876 283.269 106.277C284.05 105.02 285.156 103.996 286.469 103.315C287.143 102.999 287.902 102.91 288.631 103.062C289.337 103.244 289.975 103.626 290.469 104.162C290.898 104.634 291.277 105.15 291.6 105.7C291.908 106.231 292.2 106.769 292.462 107.339C292.632 107.709 292.781 108.089 292.908 108.477C292.962 108.685 293.031 108.885 293.069 109.108C293.122 109.397 293.14 109.691 293.123 109.985C293.128 110.269 293.061 110.55 292.927 110.8C292.794 111.051 292.598 111.264 292.359 111.418C292.12 111.572 291.846 111.662 291.563 111.681C291.279 111.699 290.995 111.645 290.739 111.523L290.331 111.354C290.2 111.292 290.054 111.185 289.962 111.131C289.78 111.013 289.606 110.884 289.439 110.746C289.123 110.481 288.825 110.196 288.546 109.892C288.001 109.302 287.521 108.655 287.116 107.962C286.862 107.523 286.877 107.192 287.054 107.146C287.369 107.147 287.678 107.235 287.946 107.4C288.45 107.653 288.936 107.941 289.4 108.262C289.939 108.623 290.554 109.1 291.085 109.439C291.131 109.439 291.085 109.439 291.085 109.439C291.085 109.439 291.085 109.485 291.085 109.385C291.021 109.08 290.931 108.782 290.816 108.492C290.554 107.836 290.243 107.201 289.885 106.592C289.611 106.042 289.235 105.548 288.777 105.139C288.621 104.996 288.432 104.893 288.227 104.839C288.022 104.786 287.807 104.783 287.6 104.831C287.037 104.986 286.521 105.28 286.1 105.685C285.09 106.61 284.302 107.751 283.793 109.023C283.684 109.396 283.627 109.781 283.623 110.169C283.623 110.6 283.623 111.054 283.623 111.515C283.662 112.439 283.754 113.392 283.823 114.354C283.893 115.315 283.946 116.308 283.923 117.315C283.928 118.391 283.724 119.456 283.323 120.454C281.562 124.223 279.908 128.146 278.123 131.915C277.041 134.269 275.921 136.605 274.762 138.923C273.016 142.439 271.146 145.915 269.162 149.277C267.684 151.926 265.988 154.447 264.093 156.815C263.661 157.352 263.202 157.866 262.716 158.354C262.051 159.009 261.268 159.531 260.408 159.892C260.16 159.983 259.902 160.04 259.639 160.062C259.436 160.053 259.237 160.004 259.054 159.915C258.905 159.863 258.765 159.788 258.639 159.692C258.492 159.539 258.639 159.308 258.969 159.062C259.139 158.962 259.346 158.792 259.593 158.608C259.839 158.423 260.123 158.208 260.439 157.954C262.364 156.186 264.033 154.159 265.4 151.931C266.939 149.662 268.3 147.254 269.639 144.8C271.639 141.162 273.485 137.408 275.285 133.623L275.308 133.685Z" fill="#21467E"/>
<path d="M299.731 102.008C299.877 101.98 300.006 101.898 300.093 101.777C300.093 101.654 300.031 101.631 299.931 101.608C299.831 101.585 299.708 101.662 299.623 101.654H299.477C299.439 101.65 299.4 101.65 299.362 101.654L299.085 101.708C298.731 101.777 298.316 101.869 297.962 101.962C297.193 102.139 296.423 102.339 295.693 102.569C295.029 102.781 294.382 103.038 293.754 103.339C293.01 103.743 292.239 104.095 291.446 104.392C291.377 104.392 291.393 104.392 291.331 104.331L291.146 104.177C291.06 104.099 290.992 104.005 290.946 103.898C290.899 103.792 290.876 103.678 290.877 103.562C290.857 103.283 290.912 103.004 291.038 102.755C291.165 102.505 291.356 102.295 291.593 102.146C293.305 101.344 295.115 100.77 296.977 100.439C297.539 100.339 298.085 100.192 298.662 100.039L299.146 99.9078L299.839 99.7463C300.274 99.6421 300.716 99.5676 301.162 99.5232C301.859 99.4114 302.574 99.4994 303.223 99.7771C303.368 99.8376 303.497 99.9309 303.6 100.05C303.703 100.169 303.777 100.31 303.816 100.462C303.861 100.792 303.787 101.127 303.608 101.408C303.381 101.753 303.098 102.057 302.77 102.308C302.353 102.626 301.907 102.904 301.439 103.139C300.803 103.471 300.151 103.772 299.485 104.039L297.862 104.708C297.023 105.054 296.239 105.477 295.377 105.816C295.185 105.885 295.008 105.977 294.8 106.039C294.031 106.254 293.654 106.146 293.477 105.639C293.439 105.53 293.415 105.416 293.408 105.3C293.43 105.124 293.488 104.954 293.577 104.8C293.666 104.637 293.811 104.511 293.985 104.446C295.293 103.823 296.816 103.185 298.293 102.562L299.516 102.039C299.559 102.048 299.603 102.048 299.646 102.039L299.731 102.008Z" fill="#21467E"/>
<path d="M296.708 104.838C297.339 104.577 298.016 104.441 298.7 104.438C299.193 104.431 299.677 104.576 300.084 104.854C300.422 105.07 300.662 105.409 300.754 105.8C300.765 105.882 300.765 105.965 300.754 106.046C300.677 106.309 300.582 106.566 300.469 106.815L300.184 107.208C300.077 107.346 299.915 107.485 299.784 107.623C299.185 108.189 298.539 108.704 297.854 109.162L296.538 110C295.965 110.505 295.225 110.78 294.461 110.769C294.169 110.731 294.277 110.246 294.384 109.769C294.492 109.292 294.515 108.831 294.777 108.723C295.231 108.523 295.754 108.238 296.315 107.954C296.561 107.815 296.923 107.592 296.892 107.669C296.999 107.675 297.106 107.659 297.207 107.623C297.429 107.559 297.621 107.417 297.746 107.223C297.792 107.162 297.746 107.092 297.746 107.023C297.638 106.715 297.315 106.762 296.977 106.831C296.859 106.858 296.743 106.894 296.631 106.938C296.566 106.957 296.505 106.983 296.446 107.015L296.108 107.185C295.408 107.511 294.762 107.941 294.192 108.462C294.002 108.658 293.848 108.888 293.738 109.138V109.285C293.734 109.32 293.734 109.357 293.738 109.392C293.684 109.388 293.63 109.388 293.577 109.392C293.554 109.386 293.53 109.386 293.508 109.392C293.461 109.392 293.508 109.392 293.508 109.392C293.508 109.392 293.508 109.392 293.554 109.346C293.597 109.304 293.635 109.258 293.669 109.208C293.715 109.138 293.669 109.138 293.669 109.138H293.708C293.915 109.138 294.115 109.292 294.184 109.792C294.184 109.908 294.238 110.015 294.246 110.131C294.266 110.229 294.262 110.331 294.235 110.428C294.209 110.525 294.16 110.614 294.092 110.689C294.025 110.763 293.942 110.821 293.848 110.858C293.754 110.895 293.654 110.909 293.554 110.9C293.449 110.911 293.343 110.911 293.238 110.9L292.854 110.815C292.695 110.741 292.543 110.654 292.4 110.554C292.161 110.351 291.987 110.082 291.9 109.782C291.812 109.481 291.815 109.161 291.907 108.862C291.97 108.611 292.066 108.371 292.192 108.146C292.575 107.522 293.07 106.974 293.654 106.531C294.042 106.227 294.451 105.949 294.877 105.7L295.531 105.338C295.9 105.154 296.3 104.954 296.684 104.808L296.708 104.838Z" fill="#21467E"/>
<path d="M297.423 112.862C296.735 113.095 296.034 113.285 295.323 113.431L294.746 113.562C294.541 113.604 294.332 113.625 294.123 113.623C293.76 113.622 293.404 113.524 293.092 113.339C292.946 113.241 292.821 113.115 292.724 112.969C292.628 112.822 292.562 112.657 292.53 112.485C292.405 111.903 292.478 111.297 292.738 110.762C292.865 110.503 293.023 110.26 293.207 110.039C293.351 109.85 293.513 109.678 293.692 109.523C294.071 109.103 294.586 108.831 295.146 108.754C295.5 108.754 295.73 110.562 295.4 110.754C295.132 110.916 294.875 111.096 294.63 111.292C294.584 111.292 294.453 111.292 294.323 111.485C294.319 111.502 294.319 111.521 294.323 111.539C294.307 111.558 294.298 111.581 294.294 111.605C294.291 111.63 294.294 111.654 294.304 111.677C294.313 111.7 294.328 111.72 294.348 111.734C294.367 111.749 294.391 111.759 294.415 111.762C294.505 111.769 294.595 111.769 294.684 111.762C294.766 111.771 294.849 111.771 294.93 111.762L295.392 111.662C295.7 111.577 296.015 111.492 296.33 111.385C296.646 111.277 297.1 111.131 297.477 110.969C298.06 110.757 298.625 110.499 299.169 110.2C299.562 109.934 299.93 109.633 300.269 109.3C300.346 109.231 300.407 109.146 300.484 109.085C300.777 108.854 300.892 108.915 301.253 109.239L301.53 109.439C301.603 109.489 301.665 109.553 301.711 109.629C301.757 109.704 301.788 109.788 301.8 109.875C301.812 109.963 301.806 110.052 301.782 110.137C301.759 110.222 301.717 110.301 301.661 110.369C301.063 111.123 300.296 111.727 299.423 112.131C298.792 112.454 298.138 112.723 297.477 112.985L297.423 112.862Z" fill="#21467E"/>
<path d="M297.985 116.1C297.158 116.246 296.312 116.246 295.485 116.1C295.294 116.073 295.107 116.029 294.924 115.969C294.536 115.903 294.186 115.697 293.938 115.392C293.691 115.086 293.562 114.701 293.577 114.308C293.696 113.722 294.021 113.198 294.493 112.831C294.947 112.469 295.308 112.177 295.624 111.969C296.005 111.61 296.494 111.388 297.016 111.339C297.185 111.339 297.308 111.808 297.354 112.285C297.4 112.762 297.354 113.246 297.193 113.346L296.239 113.839C296.094 113.817 295.946 113.842 295.816 113.908C295.677 113.969 295.639 114.1 295.716 114.169C295.79 114.222 295.874 114.261 295.962 114.285C296.083 114.342 296.213 114.376 296.347 114.385C296.618 114.408 296.891 114.408 297.162 114.385C298.091 114.295 298.992 114.015 299.808 113.562C300.164 113.313 300.481 113.012 300.747 112.669C300.816 112.6 300.862 112.523 300.924 112.454C301.17 112.223 301.308 112.231 301.693 112.539C301.777 112.608 301.877 112.669 301.962 112.746C302.101 112.839 302.201 112.979 302.245 113.14C302.289 113.301 302.273 113.473 302.2 113.623C301.689 114.45 300.934 115.097 300.039 115.477C299.375 115.79 298.675 116.017 297.954 116.154L297.985 116.1Z" fill="#21467E"/>
<path d="M268.43 168.677C270.28 166.988 271.923 165.085 273.323 163.008C274.758 160.899 276.056 158.7 277.207 156.423C278.061 154.754 278.807 153.039 279.576 151.323C282.261 145.277 284.492 139.016 286.661 132.7C287.646 129.9 288.538 127.062 289.638 124.285C289.987 123.358 290.419 122.464 290.93 121.616C291.083 121.374 291.261 121.15 291.461 120.946C291.694 120.71 291.974 120.526 292.284 120.408C292.76 120.203 293.254 120.046 293.761 119.939C294.618 119.818 295.45 119.558 296.223 119.169C296.945 118.722 297.578 118.146 298.092 117.469C298.769 116.592 299.115 116.931 298.915 118.046C298.743 118.808 298.386 119.516 297.876 120.108C297.506 120.535 297.063 120.895 296.569 121.169C296.031 121.451 295.456 121.653 294.861 121.769C294.369 121.869 293.946 121.962 293.561 122.077C293.375 122.135 293.192 122.204 293.015 122.285C292.884 122.331 292.923 122.331 292.915 122.323L292.846 122.392C292.609 122.676 292.405 122.986 292.238 123.316C292.038 123.7 291.838 124.085 291.653 124.523C290.884 126.216 290.269 128.023 289.623 129.831C288.338 133.446 287.069 137.108 285.669 140.746C283.992 145.1 282.361 149.677 280.353 154.031C279.254 156.433 278.032 158.777 276.692 161.054C275.354 163.354 273.809 165.527 272.076 167.546C269.963 170.138 267.23 172.154 264.13 173.408C261.719 174.245 259.131 174.438 256.623 173.969C254.179 173.483 251.824 172.627 249.638 171.431C246.339 169.621 243.202 167.531 240.261 165.185C239.615 164.685 238.976 164.2 238.33 163.646C235.953 161.723 235.253 161.069 235.053 160.277C234.984 160.107 234.935 159.928 234.907 159.746C234.907 159.262 236.115 159.746 237.938 161.085C240.623 163.069 243.269 165.192 246.069 167.1C248.794 169.074 251.806 170.618 255 171.677C257.295 172.409 259.741 172.533 262.1 172.039C264.453 171.451 266.617 170.27 268.384 168.608L268.43 168.677Z" fill="#21467E"/>
<path d="M222.038 171.285L221.269 161.538L220.915 157.992C220.576 153.823 220.246 149.654 219.807 145.5C219.623 143.654 219.353 141.808 219.038 140C218.846 138.838 218.623 137.692 218.4 136.523C218.176 135.354 217.961 134.215 217.707 133.162C217.546 132.577 217.969 132.346 218.646 132.8C219.536 133.544 220.126 134.585 220.307 135.731C221.186 140.536 221.765 145.392 222.038 150.269C222.215 153.192 222.615 156.2 222.876 159.177L223.7 168.985C223.869 171 224.038 173.008 224.2 175.023C224.469 178.1 224.707 181.131 225.046 184.138C225.3 186.485 225.669 188.754 226.03 191.062C226.115 191.569 226.192 192.062 226.276 192.6C226.561 194.492 226.569 195.038 226.184 195.531C226.107 195.631 226.038 195.792 225.961 195.9C225.884 196.008 225.607 196.038 225.338 195.623C225.05 195.133 224.847 194.597 224.738 194.038C223.876 189.778 223.264 185.471 222.907 181.138C222.584 177.877 222.307 174.592 222.015 171.323L222.038 171.285Z" fill="#21467E"/>
<path d="M234.831 266.616C234.262 272.508 219.808 275.623 215.108 272.454C207.87 280.577 189.57 279.377 185.677 276.831C180.908 265.092 182.116 199.977 183.047 196.146C183.047 196.146 196.347 198.754 199.2 198.369C199.2 198.369 207.124 225.977 206.124 230.723C204.816 236.669 200.093 233.462 199.2 234.892C198.431 236.208 200.885 237.8 203.87 237.808C204.885 237.808 199.554 239.754 200.277 241.046C200.671 241.415 201.144 241.689 201.66 241.847C202.176 242.004 202.722 242.041 203.254 241.954C203.254 241.954 200.039 245.346 204.793 244.685L208.3 242.869C208.3 242.869 207.254 245.662 208.423 246.077C209.085 246.316 210.408 245.877 211.777 244.823C214.096 243.008 215.618 240.363 216.024 237.446C216.562 233.639 210.924 203.531 209.393 197.808C209.393 197.808 218.377 199.1 226.077 194.323C228.731 215.077 233.254 261.777 234.831 266.616Z" fill="#21467E"/>
<path d="M210 246.923C209.739 247.017 209.467 247.079 209.192 247.108C208.813 247.159 208.427 247.127 208.061 247.015C207.946 246.969 207.846 246.892 207.738 246.839C207.623 246.79 207.521 246.717 207.438 246.623C207.347 246.541 207.269 246.445 207.207 246.339C207.135 246.239 207.076 246.13 207.03 246.015C206.932 245.769 206.868 245.51 206.838 245.246C206.838 245.123 206.838 244.985 206.838 244.9C206.834 244.846 206.834 244.792 206.838 244.739H206.776L206.661 244.792L205.753 245.262L205.046 245.623L204.215 245.708C203.977 245.724 203.738 245.724 203.5 245.708C203.241 245.703 202.983 245.672 202.73 245.615C202.565 245.581 202.405 245.527 202.253 245.454L202.038 245.385C201.943 245.32 201.853 245.248 201.769 245.169C201.681 245.09 201.599 245.006 201.523 244.915C201.457 244.809 201.398 244.698 201.346 244.585C201.257 244.373 201.212 244.145 201.215 243.915C201.216 243.579 201.286 243.246 201.423 242.939C201.423 242.939 201.423 242.939 201.423 242.9C201.423 242.862 201.523 242.792 201.484 242.792C201.414 242.811 201.339 242.811 201.269 242.792L200.946 242.669C200.815 242.6 200.7 242.562 200.484 242.431C200.111 242.224 199.769 241.965 199.469 241.662L199.323 241.354C199.281 241.236 199.25 241.115 199.23 240.992C199.207 240.745 199.238 240.495 199.323 240.262C199.545 239.77 199.892 239.346 200.33 239.031C200.469 238.923 200.607 238.815 200.746 238.723L200.961 238.577L201.076 238.515C201.16 238.477 201.24 238.431 201.315 238.377C201.238 238.377 201.146 238.377 201.053 238.339H200.969H200.923L200.753 238.277C200.324 238.119 199.914 237.912 199.53 237.662C199.319 237.527 199.12 237.372 198.938 237.2C198.693 236.964 198.49 236.689 198.338 236.385C198.181 236.09 198.102 235.76 198.109 235.426C198.115 235.092 198.208 234.765 198.376 234.477C198.506 234.28 198.673 234.11 198.869 233.978C199.064 233.846 199.284 233.754 199.515 233.708C199.768 233.654 200.026 233.626 200.284 233.623H200.776C201.361 233.623 201.869 233.685 202.315 233.623C202.734 233.626 203.147 233.525 203.517 233.327C203.886 233.13 204.2 232.843 204.43 232.492C204.68 232.098 204.874 231.671 205.007 231.223C205.081 230.988 205.143 230.749 205.192 230.508L205.238 230.192V229.831C205.234 228.767 205.151 227.705 204.992 226.654C204.369 222.323 203.361 217.985 202.33 213.677C201.561 210.4 200.684 207.139 199.8 203.885L198.553 199.385C198.553 199.331 198.553 199.277 198.469 199.3C198.405 199.304 198.341 199.304 198.276 199.3C197.823 199.3 197.376 199.3 196.953 199.239C196.084 199.169 195.238 199.062 194.392 198.954C192.453 198.7 190.546 198.385 188.63 198.054L185.769 197.539L183.738 197.146C183.713 197.247 183.697 197.35 183.692 197.454V197.646V198.085C183.638 198.692 183.6 199.315 183.561 199.931L183.384 203.654C183.284 206.146 183.207 208.631 183.146 211.123C183.023 216.108 182.953 221.092 182.938 226.077C182.9 236.077 183.023 246.023 183.53 255.969C183.669 258.6 183.838 261.239 184.076 263.862C184.315 266.485 184.592 269.115 185.038 271.7C185.25 272.981 185.53 274.249 185.876 275.5L186.161 276.339C186.161 276.431 186.207 276.5 186.3 276.523L186.4 276.585L186.6 276.677C187.167 276.935 187.757 277.141 188.361 277.292C190.88 277.898 193.463 278.196 196.053 278.177C199.375 278.216 202.686 277.809 205.9 276.969C207.495 276.543 209.041 275.953 210.515 275.208C211.237 274.835 211.931 274.411 212.592 273.939C212.9 273.692 213.246 273.469 213.53 273.169L213.984 272.769C214.146 272.615 214.4 272.339 214.607 272.131L214.93 271.792C214.981 271.733 215.038 271.679 215.1 271.631L215.315 271.754C215.607 271.915 215.9 272.1 216.207 272.246C216.554 272.408 216.915 272.539 217.284 272.639C218.055 272.839 218.843 272.965 219.638 273.015C221.269 273.106 222.906 273.008 224.515 272.723C226.133 272.455 227.716 272.012 229.238 271.4C230.736 270.838 232.101 269.971 233.246 268.854C233.716 268.364 234.089 267.79 234.346 267.162C234.492 266.762 234.576 266.577 234.661 266.608C234.746 266.639 234.823 266.915 234.769 267.377C234.678 268.098 234.399 268.782 233.961 269.362C232.892 270.9 230.63 272.485 227.646 273.531C226.024 274.095 224.344 274.477 222.638 274.669C220.659 274.928 218.649 274.808 216.715 274.315C216.477 274.255 216.244 274.181 216.015 274.092C215.9 274.046 215.784 274.008 215.669 273.954L215.492 273.869H215.423L215.338 273.962C215.407 273.915 214.892 274.369 214.569 274.646C214.246 274.923 213.838 275.215 213.469 275.492C211.964 276.52 210.333 277.347 208.615 277.954C201.816 280.208 194.52 280.504 187.561 278.808C187.123 278.669 186.676 278.515 186.23 278.331L185.884 278.177C185.769 278.115 185.684 278.085 185.469 277.954L184.923 277.631C184.861 277.631 184.846 277.562 184.83 277.508L184.776 277.362L184.676 277.069L184.423 276.3C184.346 276.085 184.269 275.862 184.215 275.646L183.884 274.339C183.523 272.6 183.23 270.869 183.023 269.139C182.176 262.215 181.861 255.292 181.646 248.369C181.43 241.446 181.384 234.523 181.43 227.6C181.461 222.436 181.53 217.221 181.638 211.954C181.7 209.323 181.761 206.677 181.861 204.031L182.03 200.054L182.161 198.054L182.2 197.554L182.284 196.785C182.338 196.3 182.415 195.754 182.523 195.246L185.684 195.854L188.061 196.277C189.646 196.554 191.238 196.815 192.823 197.046C194.407 197.277 196 197.492 197.561 197.6C197.761 197.6 197.953 197.6 198.138 197.6H198.423C198.561 197.6 198.769 197.6 198.923 197.6H199.423H199.676C199.761 197.6 199.869 197.562 199.861 197.677L200.138 198.646L200.83 201.123C202.546 207.439 204.192 213.769 205.553 220.192C205.884 221.792 206.2 223.408 206.461 225.039C206.592 225.854 206.715 226.669 206.8 227.5C206.911 228.347 206.952 229.201 206.923 230.054C206.858 230.962 206.621 231.85 206.223 232.669C205.828 233.56 205.141 234.29 204.276 234.739C203.424 235.115 202.49 235.271 201.561 235.192C201.146 235.192 200.7 235.139 200.392 235.146C200.309 235.134 200.225 235.144 200.147 235.173C200.069 235.203 200 235.252 199.946 235.315C199.904 235.384 199.882 235.462 199.882 235.542C199.882 235.622 199.904 235.701 199.946 235.769C199.988 235.847 200.046 235.915 200.115 235.969C200.228 236.079 200.352 236.177 200.484 236.262C200.771 236.442 201.075 236.594 201.392 236.715L201.515 236.762L201.738 236.831L202.2 236.946C202.54 237.017 202.884 237.066 203.23 237.092C203.581 237.167 203.92 237.288 204.238 237.454L204.4 237.539L204.5 237.592C204.561 237.646 204.638 237.639 204.684 237.746C204.684 237.985 204.484 238.108 204.338 238.323C204.091 238.599 203.797 238.829 203.469 239C203.061 239.231 202.623 239.462 202.223 239.708L201.915 239.9L201.73 240.023C201.623 240.1 201.507 240.177 201.407 240.262C201.303 240.338 201.212 240.432 201.138 240.539C201.069 240.646 201.053 240.823 201.184 240.885C201.264 240.951 201.349 241.01 201.438 241.062L201.661 241.169C201.774 241.215 201.89 241.253 202.007 241.285C202.444 241.367 202.893 241.367 203.33 241.285L204.146 241.185L204.915 241.069C204.915 241.177 204.607 241.462 204.407 241.708L203.738 242.477C203.529 242.719 203.339 242.976 203.169 243.246C203.092 243.365 203.023 243.488 202.961 243.615L202.9 243.792V243.915C202.9 243.954 202.9 243.962 202.9 243.992C202.9 244.023 202.9 243.992 202.9 244.039C202.9 244.085 203.023 244.085 203.076 244.131L203.43 244.192C203.712 244.211 203.995 244.211 204.276 244.192L204.638 244.154L204.738 244.108L204.946 244L207 242.946L208.3 242.277C208.715 242.077 209.238 241.731 209.384 241.823C209.016 242.76 208.733 243.728 208.538 244.715V244.869C208.53 244.918 208.53 244.967 208.538 245.015V245.139C208.534 245.2 208.534 245.262 208.538 245.323C208.556 245.385 208.59 245.442 208.635 245.487C208.681 245.533 208.738 245.567 208.8 245.585C208.921 245.612 209.047 245.612 209.169 245.585C209.371 245.541 209.569 245.482 209.761 245.408C210.179 245.239 210.579 245.028 210.953 244.777C211.726 244.261 212.422 243.639 213.023 242.931C214.236 241.498 215.057 239.775 215.407 237.931C215.487 237.484 215.525 237.031 215.523 236.577C215.523 236.108 215.461 235.623 215.438 235.146C215.346 234.177 215.261 233.208 215.123 232.239C214.884 230.3 214.6 228.392 214.3 226.423C213.53 221.646 212.723 216.877 211.846 212.115C211.4 209.739 210.953 207.369 210.476 205L209.746 201.462L209.353 199.708L209.076 198.531C208.984 198.123 208.846 197.662 208.792 197.292C209.507 197.392 210.23 197.462 210.923 197.508C211.43 197.508 211.884 197.508 212.369 197.508C215.221 197.502 218.057 197.074 220.784 196.239C221.23 196.1 221.684 195.954 222.115 195.777C222.546 195.6 223 195.446 223.423 195.231L224.061 194.931L224.376 194.777C224.484 194.731 224.661 194.623 224.8 194.546L225.692 194.039L226.138 193.785L226.361 193.662C226.43 193.623 226.53 193.531 226.515 193.662C226.776 195.8 227.033 197.933 227.284 200.062C228.823 213.4 230.361 226.469 231.946 239.646C232.3 242.546 232.638 245.385 233 248.308C234.307 259.146 234.715 262.577 234.715 264.939C234.715 265.485 234.792 266.177 234.761 266.515C234.73 266.854 234.646 266.746 234.484 266.377C234.206 265.717 233.992 265.032 233.846 264.331C233.369 262.377 232.853 259.3 232.307 255.331C230.692 243.569 229.323 231.485 227.907 219.177C227.184 213.023 226.461 206.851 225.738 200.662L225.115 196.154L224.815 196.3L223.7 196.823C222.194 197.473 220.634 197.987 219.038 198.362C217.446 198.716 215.828 198.945 214.2 199.046C213.384 199.108 212.569 199.115 211.746 199.108H210.83L211.184 200.646L211.846 203.8C212.276 205.9 212.684 208 213.084 210.108C213.874 214.318 214.623 218.541 215.33 222.777C215.676 224.892 216.015 227.015 216.315 229.146C216.615 231.277 216.907 233.4 217.084 235.615C217.084 235.9 217.123 236.169 217.13 236.462V237.408C217.069 237.996 216.956 238.578 216.792 239.146C216.483 240.277 216.017 241.36 215.407 242.362C214.796 243.363 214.045 244.273 213.176 245.062C212.291 245.901 211.244 246.553 210.1 246.977L210 246.923Z" fill="#21467E"/>
<path d="M207.846 246.992C207.635 246.955 207.432 246.876 207.252 246.76C207.071 246.643 206.915 246.492 206.793 246.315C206.688 246.139 206.626 245.942 206.61 245.738C206.594 245.534 206.625 245.329 206.7 245.139C206.906 244.649 207.213 244.209 207.6 243.846L207.923 243.523L208.216 243.239L208.593 242.869C209.466 242.125 210.182 241.216 210.7 240.192C210.782 240.005 210.823 239.804 210.823 239.6V239.515C212.746 239.346 211.362 239.477 211.8 239.454C211.825 239.508 211.862 239.555 211.908 239.592C212.016 239.715 212.185 239.915 212.339 240.062L212.439 240.154L212.3 240.3L211.977 240.662C211.531 241.146 211.077 241.639 210.608 242.108C209.654 243.081 208.599 243.95 207.462 244.7C206.85 245.106 206.185 245.425 205.485 245.646C204.672 245.926 203.79 245.926 202.977 245.646L202.662 245.5C202.283 245.296 201.946 245.022 201.669 244.692C201.475 244.529 201.332 244.313 201.258 244.07C201.184 243.826 201.183 243.567 201.254 243.323C201.505 242.836 201.875 242.42 202.331 242.115C202.639 241.877 202.893 241.7 203.169 241.508C204.262 240.739 205.362 240.069 206.439 239.369C206.954 239.05 207.452 238.703 207.931 238.331L208.023 238.246L208.169 238.369L208.293 238.485C208.378 238.553 208.474 238.608 208.577 238.646C208.596 238.661 208.619 238.668 208.643 238.668C208.666 238.668 208.689 238.661 208.708 238.646C208.67 238.646 208.67 238.723 208.708 238.646C208.736 238.871 208.809 239.089 208.923 239.285C208.942 239.316 208.958 239.35 208.97 239.385L208.808 239.485L208.039 240.023C206.966 240.826 205.814 241.516 204.6 242.085C203.935 242.388 203.227 242.585 202.5 242.669C202.303 242.685 202.105 242.685 201.908 242.669C201.808 242.669 201.616 242.669 201.493 242.631L201.093 242.539C200.593 242.408 200.13 242.166 199.739 241.831C199.593 241.68 199.467 241.512 199.362 241.331C199.284 241.135 199.27 240.919 199.323 240.715C199.463 240.282 199.731 239.9 200.093 239.623C200.292 239.454 200.5 239.295 200.716 239.146L201.177 238.839L201.4 238.7L201.5 238.639L202.077 238.331C202.183 238.278 202.286 238.219 202.385 238.154C202.431 238.154 202.385 238.154 202.385 238.154H202.316H202.154C201.946 238.154 201.723 238.154 201.493 238.154H201.316H201.123C201 238.154 200.893 238.154 200.769 238.115C200.209 238.05 199.676 237.832 199.231 237.485C198.997 237.268 198.809 237.006 198.677 236.715L198.416 236.139C198.253 235.853 198.157 235.535 198.133 235.208C198.109 234.881 198.158 234.552 198.277 234.246C198.447 233.961 198.699 233.733 199 233.592C199.302 233.456 199.624 233.373 199.954 233.346C200.432 233.317 200.912 233.34 201.385 233.415C201.823 233.477 202.323 233.615 202.608 233.662C202.777 233.662 202.923 233.662 203.077 233.7C203.218 233.688 203.358 233.66 203.493 233.615C203.746 233.484 203.967 233.299 204.141 233.073C204.315 232.847 204.438 232.586 204.5 232.308C204.903 230.786 205.035 229.206 204.893 227.639C204.806 226.002 204.631 224.372 204.369 222.754C203.877 219.492 203.185 216.254 202.439 213.023C201.108 207.292 199.523 201.577 197.962 195.939C196.962 192.315 195.923 188.692 194.985 185.031C194.523 183.2 194.077 181.362 193.7 179.508C193.295 177.639 193.038 175.74 192.931 173.831C192.885 172.608 193.154 172.039 193.293 172.108C193.431 172.177 193.546 172.785 193.816 173.739C194.316 175.654 195.354 179.085 196.431 183.269C198.285 190.685 200.423 198.062 202.323 205.531C203.277 209.269 204.185 213.023 204.962 216.823C205.815 220.653 206.33 224.55 206.5 228.469C206.532 229.669 206.431 230.869 206.2 232.046C206.047 232.702 205.787 233.328 205.431 233.9C205.223 234.229 204.952 234.514 204.634 234.738C204.316 234.963 203.957 235.122 203.577 235.208C203.389 235.242 203.199 235.265 203.008 235.277H202.462C202.139 235.231 201.746 235.146 201.539 235.092C201.052 234.982 200.553 234.933 200.054 234.946C199.944 234.945 199.836 234.972 199.739 235.023C199.697 235.042 199.663 235.074 199.641 235.115C199.619 235.155 199.61 235.201 199.616 235.246C199.612 235.292 199.612 235.339 199.616 235.385L199.7 235.585C199.8 235.817 199.913 236.043 200.039 236.262C200.128 236.371 200.245 236.453 200.377 236.5C200.595 236.57 200.819 236.619 201.046 236.646H201.239H201.385H202.323C202.831 236.646 203.4 236.569 203.908 236.546L204.677 236.508C204.9 236.508 205.254 236.462 205.293 236.508L205.908 236.7L206.246 236.839C206.293 236.877 206.393 236.839 206.377 236.992C206.354 237.065 206.323 237.134 206.285 237.2C206.087 237.59 205.803 237.929 205.454 238.192C205.139 238.423 204.685 238.669 204.246 238.915L202.946 239.646L202.316 240.023L201.893 240.285L201.662 240.439L201.546 240.523C201.472 240.582 201.405 240.649 201.346 240.723C201.277 240.823 201.4 240.892 201.462 240.939C201.526 240.981 201.596 241.015 201.669 241.039L201.823 241.077H202.093C202.365 241.072 202.637 241.033 202.9 240.962C203.472 240.812 204.025 240.595 204.546 240.315C205.662 239.701 206.734 239.009 207.754 238.246C207.918 238.129 208.09 238.024 208.269 237.931L208.416 237.877H208.493C208.574 237.866 208.657 237.866 208.739 237.877C208.836 237.883 208.932 237.903 209.023 237.939C209.153 238.005 209.264 238.103 209.346 238.223C209.418 238.319 209.461 238.434 209.469 238.554C209.489 238.653 209.489 238.755 209.469 238.854C209.402 239.062 209.28 239.248 209.116 239.392C208.844 239.63 208.556 239.848 208.254 240.046C207.708 240.431 207.154 240.815 206.608 241.139C205.516 241.846 204.408 242.539 203.408 243.285C203.294 243.36 203.19 243.451 203.1 243.554C202.962 243.654 203.1 243.777 203.177 243.862C203.22 243.911 203.269 243.955 203.323 243.992C203.39 244.039 203.462 244.078 203.539 244.108C203.755 244.201 203.988 244.249 204.223 244.246C205.379 244.102 206.466 243.617 207.346 242.854C208.35 242.083 209.287 241.229 210.146 240.3L210.8 239.592L211.123 239.223L211.308 239.023L211.354 238.985C211.406 238.935 211.466 238.893 211.531 238.862C211.808 238.408 212.793 239.631 212.439 239.377V239.592C212.408 240.368 212.154 241.119 211.708 241.754C211.228 242.449 210.682 243.096 210.077 243.685L209.308 244.454C209.169 244.582 209.038 244.718 208.916 244.862C208.852 244.932 208.8 245.013 208.762 245.1C208.753 245.122 208.75 245.146 208.751 245.17C208.753 245.193 208.759 245.216 208.77 245.237C208.781 245.258 208.796 245.277 208.814 245.292C208.833 245.306 208.854 245.317 208.877 245.323C209.057 245.387 209.25 245.406 209.439 245.377C209.533 245.377 209.627 245.362 209.716 245.331L209.854 245.292C209.916 245.279 209.976 245.255 210.031 245.223L210.485 244.992L210.939 244.685C212.146 243.742 213.168 242.584 213.954 241.269C214.364 240.618 214.719 239.933 215.016 239.223C215.162 238.881 215.283 238.529 215.377 238.169C215.472 237.816 215.503 237.449 215.469 237.085V235.308C215.469 234.715 215.369 234.115 215.323 233.515C215.239 232.315 215.069 231.123 214.9 229.923C214.731 228.723 214.554 227.531 214.346 226.339C214.139 225.146 213.954 223.946 213.723 222.754C212.862 217.985 211.862 213.239 210.87 208.531C209.331 201.2 207.669 194.046 206.293 186.746C205.969 185.146 205.723 183.562 205.446 181.931C205.084 179.786 204.868 177.62 204.8 175.446C204.725 174.458 204.848 173.464 205.162 172.523C205.238 172.23 205.341 171.944 205.469 171.669C205.639 171.392 205.785 171.877 205.9 172.962C206.016 174.046 206.216 175.739 206.47 177.923C207.393 184.423 208.777 191.062 210.231 197.8C211.685 204.539 213.154 211.369 214.523 218.262C215.508 223.385 216.508 228.515 217 233.823C217.078 234.492 217.116 235.165 217.116 235.839V236.862V237.631C217.116 237.723 217.116 237.839 217.116 237.946C217.004 238.698 216.781 239.429 216.454 240.115C216.171 240.759 215.847 241.383 215.485 241.985C214.757 243.187 213.875 244.288 212.862 245.262C212.317 245.79 211.698 246.236 211.023 246.585C210.83 246.688 210.629 246.778 210.423 246.854L209.531 247.069L209.308 247.123H208.193L207.816 247.046L207.846 246.992Z" fill="#21467E"/>
<path d="M215.546 257.616L215.677 261.577C215.677 262.062 215.769 262.539 215.785 263.016C215.846 264.716 215.892 266.416 215.977 268.116C215.977 268.885 216.1 269.654 216.192 270.369C216.381 271.316 216.466 272.281 216.446 273.246C216.392 273.846 214.738 273.246 214.623 272.146C214.396 270.181 214.303 268.202 214.346 266.223C214.346 265.031 214.208 263.808 214.138 262.6L213.961 258.592L213.861 256.131C213.808 254.892 213.777 253.639 213.692 252.408C213.623 251.446 213.461 250.508 213.361 249.562C213.361 249.346 213.3 249.146 213.285 248.931C213.246 248.162 213.354 247.892 213.792 247.723C213.89 247.678 213.99 247.64 214.092 247.608C214.423 247.539 214.708 247.854 214.815 248.416C215.115 250.137 215.303 251.877 215.377 253.623L215.585 257.608L215.546 257.616Z" fill="#21467E"/>
<path d="M223.416 197.3C222.515 197.66 221.592 197.966 220.654 198.216C220.316 198.316 219.985 198.439 219.647 198.508C218.441 198.752 217.22 198.914 215.993 198.992C215.447 199.031 214.916 199.116 214.377 199.169C213.698 199.323 212.996 199.347 212.308 199.239C211.885 199.139 212.431 197.539 213.162 197.508C214.485 197.423 215.8 197.377 217.154 197.339C217.978 197.269 218.79 197.106 219.577 196.854C220.016 196.754 220.447 196.616 220.885 196.5C221.324 196.385 221.754 196.223 222.17 196.054C222.694 195.858 223.207 195.634 223.708 195.385C224.474 195.024 225.201 194.586 225.877 194.077C226.376 193.664 226.827 193.197 227.224 192.685C227.304 192.572 227.391 192.464 227.485 192.362C227.816 191.969 228.008 191.923 228.416 192.123C228.512 192.164 228.605 192.213 228.693 192.269C228.764 192.318 228.824 192.381 228.87 192.454C228.915 192.527 228.945 192.609 228.957 192.695C228.97 192.78 228.964 192.867 228.941 192.95C228.918 193.033 228.878 193.11 228.824 193.177C228.12 194.3 227.167 195.245 226.039 195.939C225.208 196.477 224.333 196.946 223.424 197.339L223.416 197.3Z" fill="#21467E"/>
<path d="M198.192 333.123L197.423 319.531L197.092 314.577L196.169 297.1C196.023 294.516 195.854 291.915 195.669 289.354C195.345 286.031 195.211 282.692 195.269 279.354C195.33 278.292 195.746 278.492 196.161 279.354C196.73 280.722 197.047 282.181 197.1 283.662C197.454 290.369 197.869 297.092 198.077 303.885C198.207 307.946 198.569 312.162 198.846 316.308C199.113 320.867 199.384 325.431 199.661 330C199.82 332.81 199.987 335.618 200.161 338.423C200.415 342.677 200.646 346.946 200.93 351.169C201.154 354.446 201.461 357.662 201.7 360.908C201.754 361.623 201.823 362.323 201.854 363.046C201.925 363.999 201.925 364.955 201.854 365.908C201.827 366.368 201.67 366.811 201.4 367.185C201.315 367.317 201.215 367.439 201.1 367.546C200.93 367.662 200.777 367.439 200.654 366.962C200.515 366.242 200.42 365.515 200.369 364.785C199.884 359.023 199.438 352.908 199.046 346.777C198.761 342.223 198.477 337.646 198.192 333.077V333.123Z" fill="#21467E"/>
<path d="M206.062 330.5L206.431 317.069L206.515 312.169L207.008 294.9C207.069 292.346 207.077 289.777 207.077 287.208C207.077 283.954 206.977 280.685 207.154 277.431C207.269 275.4 208.854 277.977 208.854 281.739C208.854 288.392 208.692 295.046 208.369 301.739C208.185 305.746 208.192 309.923 208.092 314.046C207.985 318.554 207.872 323.064 207.754 327.577L207.546 335.908C207.462 340.108 207.346 344.369 207.323 348.508C207.323 351.754 207.385 354.931 207.446 358.139C207.446 358.839 207.485 359.531 207.5 360.239C207.532 361.185 207.507 362.133 207.423 363.077C207.411 363.521 207.275 363.953 207.031 364.323C206.95 364.463 206.854 364.595 206.746 364.715C206.431 365.008 206.069 363.908 205.977 361.962C205.639 356.208 205.692 350.162 205.762 344.085C205.846 339.577 205.931 335.046 206.015 330.531L206.062 330.5Z" fill="#21467E"/>
<path d="M220.7 329.354L219.216 315.385C219.039 313.685 218.808 311.992 218.646 310.292C218.077 304.3 217.539 298.308 217.108 292.308C216.9 289.638 216.685 286.962 216.477 284.323L216.131 279.208C216.023 277.508 216.046 275.785 216.085 274.077C216.162 271.954 217.785 274.654 217.9 278.515C218.208 285.438 218.777 292.362 219.216 299.285C219.485 303.462 220.031 307.785 220.469 312.046C220.982 316.723 221.495 321.405 222.008 326.092L222.977 334.731C223.493 339.092 224.008 343.477 224.516 347.808C224.931 351.169 225.439 354.454 225.846 357.808C225.939 358.577 226.023 359.262 226.116 360C226.219 360.981 226.265 361.967 226.254 362.954C226.235 363.433 226.086 363.899 225.823 364.3C225.741 364.435 225.643 364.559 225.531 364.669C225.362 364.792 225.208 364.562 225.077 364.077C224.946 363.592 224.862 362.862 224.716 361.854C223.946 355.969 223.1 349.7 222.354 343.392C221.8 338.715 221.249 334.028 220.7 329.331V329.354Z" fill="#21467E"/>
<path d="M228.116 326.662L227.793 312.916L227.631 307.908L227.316 290.216C227.27 287.6 227.177 284.977 227.07 282.385C226.946 279.054 226.723 275.716 226.839 272.385C226.931 270.3 228.523 272.923 228.654 276.746C228.862 283.539 229 290.339 228.993 297.208C228.993 301.308 229.2 305.577 229.308 309.769L229.654 323.616C229.731 326.454 229.816 329.292 229.893 332.131C230.031 336.431 230.146 340.746 230.354 345.016C230.516 348.331 230.777 351.569 231.023 354.839C231.077 355.562 231.139 356.262 231.2 356.985C231.385 359.677 231.362 360.516 231 361.123C230.915 361.267 230.846 361.419 230.793 361.577C230.793 361.7 230.746 361.839 230.531 361.577C230.396 361.42 230.294 361.236 230.231 361.039C229.992 360.31 229.837 359.556 229.77 358.792C229.1 352.931 228.808 346.754 228.546 340.546C228.354 335.931 228.223 331.316 228.077 326.7L228.116 326.662Z" fill="#21467E"/>
<path d="M201.147 366.385C208.754 363.669 222.485 366.646 226.231 367.646C237.747 370.723 197.262 373.077 201.147 366.385Z" fill="#21467E"/>
<path d="M221.193 369.438C222.623 369.366 224.048 369.215 225.462 368.985L225.9 368.908H226.016C226.092 368.893 226.166 368.873 226.239 368.846C226.308 368.846 226.423 368.754 226.37 368.677C226.315 368.621 226.249 368.577 226.177 368.546C226.27 368.546 224.9 368.215 223.931 367.977C220.302 367.058 216.61 366.41 212.885 366.038C211.238 365.885 209.583 365.846 207.931 365.923C205.858 366.048 203.799 366.352 201.777 366.831C201.147 366.954 201.07 366.538 201.485 365.985C201.768 365.633 202.112 365.336 202.5 365.108C203.02 364.824 203.58 364.624 204.162 364.515C206.392 364.182 208.651 364.09 210.9 364.238C213.124 364.375 215.336 364.655 217.523 365.077C220.139 365.585 222.854 366.015 225.5 366.692L226.07 366.846C226.285 366.908 226.408 366.931 226.739 367.038C227.023 367.119 227.3 367.219 227.57 367.338C227.7 367.392 227.839 367.446 227.954 367.508L228.27 367.7C228.458 367.806 228.62 367.952 228.747 368.127C228.873 368.303 228.959 368.503 229 368.715C228.984 368.931 228.912 369.139 228.792 369.32C228.672 369.5 228.508 369.647 228.316 369.746C227.856 370.029 227.351 370.232 226.823 370.346L226.4 370.446L226.085 370.515L225.5 370.623C224.731 370.746 224 370.838 223.254 370.908C221.423 371.092 219.585 371.177 217.754 371.215C214.977 371.277 212.193 371.215 209.439 370.977C207.281 370.888 205.138 370.571 203.047 370.031C202.557 369.892 202.085 369.698 201.639 369.454C201.23 369.238 200.875 368.933 200.6 368.562C200.375 368.261 200.249 367.898 200.239 367.523C200.217 367.321 200.261 367.117 200.365 366.942C200.47 366.767 200.628 366.631 200.816 366.554C200.934 366.498 201.062 366.464 201.193 366.454C201.377 366.454 201.447 366.669 201.47 366.931C201.473 366.995 201.473 367.059 201.47 367.123C201.47 367.185 201.508 367.246 201.539 367.3C201.597 367.426 201.681 367.539 201.785 367.631C202.408 368.103 203.132 368.424 203.9 368.569C204.797 368.794 205.706 368.963 206.623 369.077C208.5 369.331 210.47 369.462 212.4 369.538C215.318 369.651 218.24 369.61 221.154 369.415L221.193 369.438Z" fill="#21467E"/>
<path d="M226.354 364.492C233.746 361.231 245.177 362.523 249.016 363.038C261.716 364.723 222.969 371.477 226.354 364.492Z" fill="#21467E"/>
<path d="M244.992 365.385C246.304 365.166 247.603 364.879 248.885 364.523L249.254 364.408H249.346L249.554 364.338C249.615 364.338 249.715 364.246 249.685 364.169C249.654 364.092 249.585 364.085 249.515 364.054C249.462 364.03 249.405 364.015 249.346 364.008L249 363.954L247.585 363.769C244.142 363.256 240.665 363.014 237.185 363.046C235.651 363.078 234.121 363.22 232.608 363.469C230.703 363.832 228.825 364.32 226.985 364.931C226.408 365.092 226.292 364.685 226.631 364.108C226.857 363.751 227.143 363.436 227.477 363.177C227.926 362.86 228.422 362.616 228.946 362.454C233.006 361.434 237.212 361.125 241.377 361.538C243.846 361.754 246.415 361.908 248.915 362.269L249.523 362.369L249.854 362.423L250.262 362.515C250.753 362.607 251.224 362.784 251.654 363.038C251.829 363.134 251.978 363.271 252.088 363.437C252.198 363.603 252.265 363.794 252.285 363.992C252.26 364.192 252.192 364.384 252.085 364.556C251.979 364.727 251.837 364.873 251.669 364.985C251.269 365.29 250.822 365.529 250.346 365.692C250.085 365.785 249.808 365.892 249.654 365.938L249.115 366.1C248.438 366.292 247.754 366.454 247.077 366.6C245.392 366.962 243.708 367.231 242.015 367.454C239.463 367.791 236.896 367.999 234.323 368.077C232.312 368.216 230.292 368.128 228.3 367.815C227.825 367.73 227.362 367.585 226.923 367.385C226.514 367.197 226.156 366.915 225.877 366.562C225.66 366.273 225.538 365.923 225.531 365.562C225.514 365.372 225.558 365.182 225.656 365.019C225.754 364.856 225.902 364.728 226.077 364.654C226.191 364.599 226.313 364.563 226.438 364.546C226.831 364.546 226.662 365.377 227.077 365.615C227.659 365.991 228.325 366.218 229.015 366.277C229.859 366.398 230.709 366.468 231.562 366.485C233.315 366.531 235.123 366.485 236.946 366.331C239.652 366.141 242.346 365.805 245.015 365.323L244.992 365.385Z" fill="#21467E"/>
<path d="M92.2308 192.639C93.962 192.949 95.712 193.145 97.4692 193.223C98.3385 193.3 99.2 193.323 100.069 193.354C100.938 193.385 101.808 193.423 102.669 193.431C106.131 193.508 109.592 193.477 113.046 193.431C119.969 193.308 126.892 193.031 133.762 192.662L138.931 192.346L141.523 192.162L142.815 192.046V192.162L142.977 193.277L143.138 194.546L143.4 197.1C143.554 198.816 143.685 200.531 143.815 202.246L144.208 207.416L144.438 210.008L144.492 210.454L143.577 210.769C140.293 211.754 136.954 212.546 133.577 213.139C126.823 214.4 119.992 215.346 113.154 216.215C109.738 216.623 106.315 216.985 102.885 217.308C101.177 217.462 99.4615 217.608 97.7538 217.708C97.3231 217.708 96.9 217.762 96.4769 217.762H95.8461H95.5308H95.2846C95.1154 217.762 94.9461 217.762 94.7923 217.7C94.6385 217.639 94.4692 217.577 94.2923 217.485C93.9231 217.285 93.5615 217.116 93.1923 216.892C90.2538 215.192 87.3846 213.254 84.5231 211.354C81.6615 209.454 78.8154 207.508 75.9923 205.516L75.4308 205.123L75.5308 205.062L76.3538 204.523C76.7077 204.285 77.0769 204.069 77.4385 203.846C78.9 202.962 80.4077 202.116 81.9 201.231C84.8692 199.462 87.8769 197.469 90.1461 194.654C91.3615 193.039 90.0769 192.3 89.0231 193.746C86.9385 196.331 84.0923 198.239 81.1538 199.985C79.6846 200.862 78.1769 201.7 76.6923 202.608C76.3154 202.839 75.9231 203.062 75.5769 203.3L75.0231 203.662L74.7461 203.839L74.2538 204.192L73.2615 204.885L73.0154 205.054C73.0154 205.054 72.8846 205.116 72.9308 205.146L73.0692 205.239L73.6 205.608L75.1385 206.7C77.9744 208.674 80.8256 210.626 83.6923 212.554C86.5692 214.469 89.4308 216.4 92.4538 218.154C92.8308 218.377 93.2231 218.577 93.6385 218.792C93.8461 218.892 94.1 218.985 94.3308 219.077C94.5796 219.156 94.8389 219.198 95.1 219.2H95.4923H95.8846H96.5538C96.9923 219.2 97.4308 219.162 97.8615 219.139C99.6 219.039 101.323 218.892 103.046 218.739C106.492 218.431 109.931 218.046 113.362 217.639C120.223 216.8 127.069 215.854 133.877 214.562C137.307 213.957 140.698 213.148 144.031 212.139L145.569 211.623L145.877 211.516C145.969 211.477 146.123 211.477 146.062 211.339L145.992 210.692L145.892 209.862L145.669 207.3L145.277 202.139C145.146 200.416 145.015 198.692 144.854 196.969L144.592 194.377L144.431 193.077L144.331 192.431L144.285 192.1V191.931L144.231 191.639C144.154 191.254 144.085 190.869 144.008 190.492L142.715 190.608L141.431 190.716L138.862 190.9L133.7 191.216C126.823 191.577 119.931 191.854 113.046 191.985C109.6 192.039 106.162 192.069 102.723 191.985C101.862 191.985 101.008 191.939 100.146 191.908C99.2846 191.877 98.4308 191.854 97.5846 191.785C95.8952 191.701 94.2125 191.514 92.5461 191.223C91.1538 190.939 90.6538 192.308 92.2308 192.639Z" fill="#21467E"/>
<path d="M93.8693 220.477C87.0924 216.5 80.5386 212.154 73.9385 207.846C73.7155 207.685 72.9155 208.916 73.1693 209.054C79.7539 213.362 86.3386 217.723 93.1693 221.723C93.3155 221.839 94.0539 220.585 93.8693 220.477Z" fill="#21467E"/>
<path d="M144.638 213.008C144.177 213.185 143.723 213.377 143.254 213.546L141.808 214C140.846 214.308 139.854 214.539 138.869 214.808L135.892 215.516L132.892 216.154C128.877 216.969 124.838 217.692 120.784 218.277C116.731 218.862 112.669 219.423 108.592 219.816C104.542 220.28 100.468 220.501 96.3922 220.477C95.846 220.477 95.7537 221.923 96.3383 221.923C100.481 221.952 104.622 221.728 108.738 221.254C112.841 220.833 116.928 220.308 121 219.677C125.077 219.054 129.138 218.362 133.177 217.546L136.208 216.9L139.223 216.185C140.231 215.908 141.231 215.677 142.231 215.354L143.723 214.885C144.223 214.708 144.723 214.5 145.215 214.308C145.708 214.116 145.031 212.854 144.638 213.008Z" fill="#21467E"/>
<path d="M133.308 296.769C137.069 295.277 140.884 293.885 144.584 292.1C145.5 291.646 146.415 291.177 147.308 290.692L148.646 289.923L149.823 289.246L150.154 289.062C150.154 289.023 150.292 289 150.277 288.954L150.161 288.816L149.669 288.231L145.531 283.285L137.738 273.962L137.177 273.3C137.061 273.046 136.746 273.054 136.538 272.985L136.169 272.893L134.715 272.523C133.746 272.254 132.777 271.992 131.815 271.7C129.884 271.123 127.969 270.493 126.069 269.831C118.446 267.177 110.969 264.046 103.315 261.331C102.361 260.985 101.4 260.654 100.438 260.331L99.2306 259.916L98.8691 259.793L98.6845 259.731H98.5998V259.823L98.4691 260.592L98.1383 262.492C97.7768 264.469 97.3691 266.446 96.9152 268.4C95.9921 272.316 94.8537 276.185 93.6537 280.046C93.5779 280.144 93.5269 280.26 93.5051 280.382C93.4833 280.504 93.4914 280.629 93.5286 280.748C93.5659 280.866 93.6312 280.973 93.7189 281.061C93.8067 281.149 93.9144 281.214 94.0327 281.251C94.1511 281.288 94.2767 281.296 94.3987 281.274C94.5208 281.252 94.6357 281.201 94.7337 281.125C94.8317 281.049 94.9099 280.95 94.9616 280.837C95.0133 280.725 95.037 280.601 95.0306 280.477C96.2383 276.631 97.3921 272.7 98.3229 268.731C98.7921 266.746 99.1998 264.754 99.5614 262.746L99.7537 261.662L99.9845 261.739C100.946 262.054 101.892 262.392 102.846 262.731C110.454 265.431 117.931 268.562 125.608 271.239C127.531 271.9 129.454 272.539 131.415 273.123C132.384 273.423 133.377 273.685 134.354 273.962L135.838 274.339L136.223 274.431L136.638 274.931L144.423 284.231L148.077 288.6L146.615 289.416C145.738 289.9 144.846 290.354 143.946 290.793C140.354 292.539 136.546 293.923 132.784 295.408C131.954 295.739 132.492 297.092 133.308 296.769Z" fill="#21467E"/>
<path d="M130.723 295.546C118.808 290.992 107.147 285.739 95.1619 281.2C94.7465 281.031 94.2311 282.408 94.6465 282.554C106.577 287.069 118.239 292.323 130.208 296.9C130.5 297.023 131.047 295.669 130.723 295.546Z" fill="#21467E"/>
<path d="M135.554 273.846L141.162 270.831L137.423 269.708L135.277 269.046C133.882 268.6 132.493 268.146 131.108 267.685C128.331 266.746 125.577 265.754 122.831 264.738C120.085 263.723 117.346 262.662 114.608 261.6L106.146 258.346L99.3695 259.885C98.8387 259.992 99.1695 261.423 99.6848 261.292L106.039 259.854L114.046 262.931C116.785 263.992 119.531 265.046 122.285 266.069C125.039 267.092 127.816 268.092 130.6 269.031C132 269.5 133.4 269.962 134.8 270.4L137.346 271.169L134.831 272.523C134.5 272.762 135.185 274.046 135.554 273.846Z" fill="#21467E"/>
<path d="M150.608 288.462L151.846 287.692L152.992 286.969L152.169 285.885L150.454 283.638L147.177 279.346L140.623 270.769C140.485 270.569 139.308 271.446 139.469 271.638L146.039 280.246L149.323 284.546L150.862 286.6L149.815 287.262C149.669 287.331 150.446 288.562 150.608 288.462Z" fill="#21467E"/>
<path d="M120.231 264.531L118.839 220.562L114.146 221.223L115.123 262.577L120.231 264.531Z" fill="#21467E"/>
<path d="M119.892 263.631L115.838 262.092L114.885 221.862L118.138 221.4L119.485 263.762C119.446 263.879 119.437 264.004 119.457 264.126C119.477 264.248 119.527 264.363 119.601 264.462C119.675 264.561 119.772 264.64 119.883 264.693C119.995 264.747 120.117 264.773 120.241 264.769C120.364 264.765 120.485 264.731 120.592 264.671C120.7 264.61 120.792 264.525 120.859 264.422C120.927 264.318 120.969 264.2 120.981 264.077C120.994 263.954 120.976 263.83 120.931 263.716L119.531 219.746L113.377 220.608L114.415 263.077L119.377 264.977C120.169 265.292 120.692 263.931 119.892 263.631Z" fill="#21467E"/>
<path d="M115.407 290.015L116.63 336.162L121.223 336.392L120.353 292.677L115.407 290.015Z" fill="#21467E"/>
<path d="M115.653 290.969L119.638 293.115L120.484 335.631L117.338 335.477L116.153 290.862C116.193 290.746 116.205 290.622 116.188 290.501C116.17 290.379 116.124 290.264 116.053 290.164C115.982 290.064 115.888 289.983 115.779 289.926C115.67 289.87 115.549 289.841 115.426 289.841C115.304 289.841 115.183 289.87 115.074 289.926C114.965 289.983 114.871 290.064 114.8 290.164C114.729 290.264 114.683 290.379 114.665 290.501C114.648 290.622 114.659 290.746 114.7 290.862L115.923 336.831L121.961 337.131L121.069 292.215L116.338 289.669C115.553 289.231 114.861 290.546 115.653 290.969Z" fill="#21467E"/>
<path d="M114.807 192.562L114.423 162.308L119.346 161.162L120.184 191.915L114.807 192.562Z" fill="#21467E"/>
<path d="M115.369 193.223L120.923 192.562L120.046 160.254L113.692 161.731L114.077 191.969C114.077 192.777 115.539 192.739 115.523 191.969L115.154 162.9L118.646 162.092L119.415 191.323L115.169 191.831C114.562 191.862 114.731 193.308 115.369 193.223Z" fill="#21467E"/>
<path d="M97.6154 205.608C97.7616 205.608 98.0462 205.569 98.2847 205.562H99.0539H100.592H103.715C105.8 205.562 107.885 205.462 109.969 205.339C114.171 205.15 118.346 204.568 122.439 203.6C122.731 203.539 122.346 202.116 122.077 202.2C118.074 203.14 113.992 203.707 109.885 203.892C107.833 204.005 105.769 204.077 103.692 204.108L100.615 204.146H99.077H98.3078C98.0117 204.15 97.7161 204.173 97.4231 204.216C97.3231 204.216 97.2616 204.331 97.1616 204.539C97.1506 204.589 97.1506 204.642 97.1616 204.692C97.1616 204.746 97.1616 204.854 97.1616 204.9C97.1616 204.946 97.3231 205 97.4078 204.992C97.4924 204.985 97.4077 204.954 97.5001 205.069C97.5924 205.185 97.5847 205.254 97.6231 205.4V205.523V205.616L97.6154 205.608Z" fill="#21467E"/>
<path d="M101.061 204.462L100.6 198.392L89.5537 204.785L102.069 210.169L101.061 204.462Z" fill="#21467E" stroke="#21467E" stroke-width="2" stroke-miterlimit="10"/>
<path d="M130.993 284.154C126.813 282.967 122.704 281.545 118.685 279.892C114.654 278.254 110.67 276.454 106.8 274.508C106.539 274.362 105.854 275.654 106.131 275.792C110.062 277.792 114.062 279.6 118.139 281.254C122.215 282.928 126.383 284.369 130.623 285.569C130.839 285.616 131.216 284.216 130.993 284.154Z" fill="#21467E"/>
<path d="M128.192 288.638C129.077 286.762 128.339 289.008 129.769 285.738L131.254 281.123L137.208 286.338L128.192 288.638Z" fill="#21467E" stroke="#21467E" stroke-width="2" stroke-miterlimit="10"/>
<path d="M277.477 291.008H272.731L260.323 315.046H267.154L279.892 292.839L280.846 292.431L282.323 291.823L285.292 290.6L291.208 288.108C295.146 286.416 299.069 284.685 302.946 282.862C306.823 281.039 310.685 279.146 314.485 277.1C318.312 275.087 321.972 272.772 325.431 270.177C326.469 269.362 325.508 268.254 324.539 269.039C321.134 271.572 317.533 273.831 313.769 275.792C310.023 277.823 306.2 279.708 302.331 281.523C298.462 283.339 294.569 285.062 290.639 286.739L284.739 289.231L281.769 290.454L280.285 291.062L279.516 291.377L279.323 291.469C279.285 291.469 279.1 291.531 279.046 291.662L278.939 291.816C278.992 291.892 278.846 291.739 278.854 291.762H278.816L278.754 291.831C278.705 291.88 278.669 291.939 278.647 292.005C278.626 292.07 278.62 292.14 278.631 292.208L266.323 313.508H262.708L273.623 292.369H277.469C277.578 292.409 277.695 292.422 277.81 292.407C277.925 292.392 278.035 292.35 278.13 292.284C278.225 292.217 278.303 292.129 278.357 292.027C278.411 291.924 278.439 291.81 278.44 291.694C278.441 291.578 278.413 291.464 278.361 291.361C278.308 291.257 278.231 291.168 278.137 291.101C278.042 291.034 277.933 290.99 277.818 290.974C277.703 290.958 277.586 290.969 277.477 291.008Z" fill="#21467E"/>
<path d="M327.207 296.777C327.138 291.931 327.207 287.077 327.446 282.223C327.548 279.803 327.672 277.38 327.815 274.954L328.054 271.323L328.346 267.415C328.277 267.162 328.261 266.862 327.992 266.731C327.731 266.586 327.448 266.484 327.154 266.431C326.807 266.354 326.484 266.308 326.177 266.269L324.284 266.008L322.392 265.746L322.007 265.692H321.777H321.661L321.569 265.762L321.038 266.246C320.8 266.423 320.577 266.6 320.323 266.769C318.284 268.139 316.046 269.354 313.846 270.562C309.415 272.969 304.923 275.269 300.407 277.539C291.382 282.077 282.3 286.505 273.161 290.823C273.039 290.836 272.922 290.877 272.819 290.944C272.716 291.011 272.63 291.102 272.57 291.209C272.509 291.316 272.475 291.436 272.47 291.558C272.466 291.681 272.49 291.803 272.542 291.914C272.594 292.026 272.672 292.123 272.77 292.198C272.867 292.273 272.981 292.323 273.102 292.345C273.222 292.367 273.347 292.36 273.464 292.324C273.582 292.288 273.689 292.224 273.777 292.139C282.931 287.81 292.025 283.377 301.061 278.839C305.577 276.531 310.084 274.223 314.538 271.839C316.769 270.608 318.984 269.415 321.146 267.992C321.415 267.815 321.684 267.6 321.961 267.4L322.123 267.246H322.215L324.077 267.5L325.946 267.762C326.246 267.795 326.543 267.844 326.838 267.908L326.592 271.277L326.346 274.931C326.202 277.362 326.079 279.795 325.977 282.231C325.777 287.1 325.669 291.977 325.738 296.846C325.769 297.615 327.223 297.585 327.207 296.777Z" fill="#21467E"/>
<path d="M325.716 298.392C318.923 302.485 312.3 306.854 305.716 311.192L295.785 317.692L290.808 320.9L286.139 323.846L267.6 313.962C266.908 313.577 266.216 314.877 266.916 315.239L286.193 325.523L291.577 322.139L296.57 318.923L306.493 312.4C313.085 308.046 319.693 303.708 326.454 299.639C327 299.315 326.254 298.069 325.716 298.392Z" fill="#21467E"/>
<path d="M285.115 326.346C283.036 325.55 281 324.646 279.015 323.638C277.008 322.638 275.031 321.592 273.069 320.5C271.108 319.408 269.154 318.3 267.208 317.169C265.262 316.038 263.362 314.862 261.3 313.769C260.992 313.608 260.431 314.962 260.677 315.077C262.569 316.092 264.523 317.308 266.477 318.423C268.431 319.538 270.392 320.677 272.369 321.769C274.346 322.862 276.338 323.923 278.369 324.938C280.39 325.963 282.462 326.882 284.577 327.692C284.808 327.8 285.308 326.431 285.115 326.346Z" fill="#21467E"/>
<path d="M301.354 238.208H307.223L307.907 274.385L302.123 276.746L301.354 238.208Z" fill="#21467E"/>
<path d="M300.639 238.8L301.408 277.815L308.631 274.869L307.924 237.485H302.077C301.886 237.485 301.702 237.561 301.566 237.696C301.431 237.832 301.354 238.016 301.354 238.208C301.354 238.399 301.431 238.583 301.566 238.719C301.702 238.855 301.886 238.931 302.077 238.931H306.5L307.162 273.908L302.816 275.677L302.047 238.754C302.077 238 300.616 238.023 300.639 238.8Z" fill="#21467E"/>
<path d="M303.454 314.315V349.946L309.323 349.3V310.592L303.454 314.315Z" fill="#21467E"/>
<path d="M304.346 314.616L308.608 311.908V348.654L304.184 349.139V315.054C304.184 314.862 304.108 314.678 303.973 314.543C303.837 314.407 303.653 314.331 303.461 314.331C303.27 314.331 303.086 314.407 302.95 314.543C302.814 314.678 302.738 314.862 302.738 315.054V350.769L310.054 349.962V309.277L303.577 313.392C302.9 313.8 303.677 315.031 304.346 314.616Z" fill="#21467E"/>
<path d="M314.485 289.477C306.023 293.954 298.685 300.039 290.277 304.169C289.985 304.3 290.631 305.623 290.916 305.462C299.516 301.231 306.885 295.131 315.162 290.762C315.385 290.639 314.716 289.354 314.485 289.477Z" fill="#21467E"/>
<path d="M288.316 298.769C288.562 299.823 289.808 305.692 289.808 305.692L293.823 310.592L280.016 309.823L288.316 298.769Z" fill="#21467E" stroke="#21467E" stroke-width="2" stroke-miterlimit="10"/>
<path d="M196.046 74.3539C195.9 74.4189 195.748 74.4704 195.592 74.5078L195.192 74.5539C194.899 74.5707 194.605 74.5369 194.323 74.4539C194.19 74.4265 194.063 74.3771 193.946 74.3078C193.809 74.2491 193.688 74.1596 193.592 74.0462C193.441 73.8696 193.335 73.6592 193.283 73.4329C193.231 73.2066 193.234 72.9711 193.292 72.7462C193.376 72.4183 193.537 72.115 193.761 71.8616C193.95 71.6257 194.179 71.4251 194.438 71.2693C194.602 71.1427 194.804 71.074 195.011 71.074C195.219 71.074 195.42 71.1427 195.584 71.2693C195.7 71.3616 195.5 71.7693 195.354 72.1155C195.233 72.3557 195.16 72.6168 195.138 72.8847C195.184 72.9616 195.069 72.777 195.077 72.7924C195.123 72.8616 195.123 72.8462 195.077 72.7924C194.977 72.7936 194.879 72.8201 194.792 72.8693C194.7 72.9078 194.715 72.9462 194.684 72.9539C194.634 72.9634 194.587 72.9845 194.546 73.0155V72.9693C194.6 72.877 194.546 72.9001 194.6 72.9155C194.614 72.9229 194.63 72.9267 194.646 72.9267C194.662 72.9267 194.678 72.9229 194.692 72.9155C194.802 72.9313 194.913 72.9313 195.023 72.9155C195.123 72.9155 195.23 72.9155 195.246 72.8539C195.261 72.7924 195.346 72.6232 195.246 72.4616C195.224 72.4334 195.196 72.4104 195.164 72.3945C195.132 72.3785 195.097 72.3699 195.061 72.3693C195.061 72.3693 195.015 72.3693 195 72.3693C195 72.2693 195.061 72.2462 195.054 72.1539C195.058 72.1469 195.06 72.1389 195.06 72.1308C195.06 72.1227 195.058 72.1148 195.054 72.1078C195.066 72.1369 195.084 72.1632 195.107 72.1847C195.107 72.1847 195.177 72.2616 195.207 72.277C195.238 72.2924 195.207 72.277 195.13 72.2308L194.892 72.0924L194.615 71.9693C194.307 71.8385 194.092 71.5847 194.292 71.2001C194.406 71.0619 194.547 70.9492 194.707 70.8693C194.882 70.7938 195.071 70.757 195.261 70.7616C195.421 70.7617 195.58 70.7903 195.73 70.8462C195.86 70.8872 195.983 70.9496 196.092 71.0308C196.468 71.2937 196.741 71.6803 196.861 72.1232C196.976 72.5233 196.957 72.9501 196.807 73.3385C196.721 73.5522 196.596 73.7479 196.438 73.9155C196.294 74.0499 196.134 74.1661 195.961 74.2616L196.046 74.3539Z" fill="#21467E"/>
<path d="M207.37 75.4847C207.22 75.5486 207.066 75.6 206.908 75.6385L206.516 75.6847C206.22 75.7087 205.923 75.6774 205.639 75.5924C205.509 75.5567 205.382 75.5077 205.262 75.4462C205.124 75.3872 205.002 75.2947 204.908 75.177C204.759 75.0008 204.654 74.7918 204.602 74.567C204.55 74.3423 204.552 74.1084 204.608 73.8847C204.701 73.5523 204.876 73.2483 205.116 73.0001C205.305 72.762 205.538 72.5612 205.8 72.4078C205.965 72.2811 206.166 72.2125 206.374 72.2125C206.581 72.2125 206.782 72.2811 206.947 72.4078C207.054 72.4924 206.862 72.9001 206.708 73.2462C206.597 73.4898 206.524 73.7494 206.493 74.0154C206.539 74.1001 206.423 73.9078 206.439 73.9308C206.477 74.0001 206.477 73.9847 206.439 73.977C206.338 73.9781 206.238 74.0018 206.147 74.0462C206.054 74.0847 206.07 74.1308 206.039 74.1308C205.989 74.1422 205.942 74.1631 205.9 74.1924V74.1462C205.954 74.0539 205.9 74.0693 205.954 74.0847C206.008 74.1001 205.993 74.0847 206.047 74.0847C206.156 74.0969 206.267 74.0969 206.377 74.0847C206.454 74.0755 206.53 74.0548 206.6 74.0231C206.677 74.0231 206.708 73.7847 206.6 73.6308C206.579 73.6022 206.551 73.5789 206.519 73.5629C206.487 73.5469 206.452 73.5385 206.416 73.5385C206.377 73.5385 206.362 73.5385 206.347 73.5385C206.381 73.4715 206.402 73.3983 206.408 73.3231C206.408 73.3231 206.408 73.3231 206.408 73.277C206.416 73.3084 206.435 73.3358 206.462 73.3539C206.462 73.3539 206.531 73.4385 206.562 73.4539C206.593 73.4693 206.562 73.4539 206.485 73.4001C206.408 73.3513 206.329 73.3076 206.247 73.2693L205.97 73.1385C205.662 73.0154 205.447 72.7616 205.654 72.3693C205.761 72.2275 205.901 72.114 206.062 72.0385C206.235 71.957 206.425 71.9175 206.616 71.9231C206.779 71.9263 206.94 71.9576 207.093 72.0154C207.222 72.0556 207.343 72.1153 207.454 72.1924C207.83 72.459 208.102 72.8478 208.224 73.2924C208.339 73.6925 208.32 74.1194 208.17 74.5078C208.085 74.7182 207.963 74.9112 207.808 75.077C207.661 75.2139 207.499 75.3327 207.323 75.4308L207.37 75.4847Z" fill="#21467E"/>
<path d="M197.9 69.3693C197.715 69.7309 197.561 69.9693 197.484 69.8463C197.407 69.7232 197.346 69.8463 197.277 69.8463C196.83 69.7847 196.415 69.6616 196 69.6001C195.828 69.5886 195.656 69.5886 195.484 69.6001C195.222 69.6191 194.964 69.6708 194.715 69.754C194.584 69.7737 194.456 69.8045 194.33 69.8463C194.098 69.9802 193.883 70.143 193.692 70.3309C193.6 70.4386 193.461 70.5001 193.361 70.6232C193.261 70.7463 193.323 70.7309 193.292 70.777C193.261 70.8232 193.292 70.777 193.215 70.777C192.931 70.6542 192.67 70.4824 192.446 70.2693C192.223 70.077 192.092 69.9155 192.138 69.8616C192.342 69.5866 192.568 69.3293 192.815 69.0924C192.923 69.0078 192.984 68.8693 193.115 68.7924C193.297 68.6604 193.496 68.5543 193.707 68.477C194.012 68.3566 194.326 68.2614 194.646 68.1924C194.998 68.1161 195.355 68.0698 195.715 68.054H196.046C196.376 68.0771 196.705 68.1208 197.03 68.1847C197.356 68.2599 197.673 68.3681 197.977 68.5078C198.001 68.5171 198.022 68.5331 198.038 68.554C198.054 68.7155 198.046 68.8001 197.9 69.3693Z" fill="#21467E"/>
<path d="M206.085 70.3154C205.969 69.9924 205.954 69.7539 206.085 69.7693C206.215 69.7847 206.223 69.6693 206.3 69.6385C206.799 69.405 207.341 69.2792 207.892 69.2693C208.13 69.254 208.369 69.254 208.608 69.2693C209.017 69.3044 209.418 69.4084 209.792 69.577C209.981 69.6858 210.161 69.8093 210.331 69.9462C210.722 70.2021 211.045 70.551 211.269 70.9616C211.367 71.1896 211.432 71.4305 211.462 71.677C211.48 71.7686 211.506 71.8586 211.538 71.9462C211.544 71.9671 211.544 71.9893 211.537 72.0099C211.53 72.0304 211.517 72.0485 211.5 72.0616C211.2 72.1701 210.876 72.1966 210.561 72.1385C210.261 72.1385 210.061 72.1385 210.061 72.0616C210.06 71.8808 210.012 71.7034 209.923 71.5462C209.869 71.4847 209.792 71.4462 209.746 71.3847C209.7 71.3231 209.6 71.177 209.5 71.077C209.353 70.9293 209.184 70.8047 209 70.7078C208.769 70.6146 208.525 70.555 208.277 70.5308H208.038C207.783 70.4974 207.525 70.4974 207.269 70.5308C207.002 70.5685 206.742 70.649 206.5 70.7693C206.492 70.7749 206.483 70.778 206.473 70.778C206.463 70.778 206.454 70.7749 206.446 70.7693C206.415 70.7693 206.377 70.7693 206.085 70.3154Z" fill="#21467E"/>
<path d="M207.423 65.2309C207.361 64.9771 207.384 64.8002 207.484 64.7463C207.775 64.5978 208.076 64.4693 208.384 64.3617C208.631 64.2578 208.889 64.183 209.153 64.1386C209.455 64.1203 209.757 64.1568 210.046 64.2463C210.046 64.2463 210.046 64.2463 210.1 64.2463C210.361 64.0925 210.561 64.3232 210.769 64.3771C211.063 64.4398 211.34 64.5629 211.584 64.7386C211.75 64.8634 211.902 65.0052 212.038 65.1617C212.038 65.1617 212.092 65.2309 212.169 65.1617C212.209 65.1299 212.259 65.1126 212.311 65.1126C212.363 65.1126 212.413 65.1299 212.453 65.1617C212.592 65.2771 212.707 65.4156 212.846 65.5309C213.077 65.7405 213.295 65.964 213.5 66.2002C213.627 66.3521 213.745 66.5114 213.853 66.6771C214.03 66.9079 214.184 67.1309 214.338 67.3694C214.338 67.3694 214.338 67.4925 214.338 67.5386C214.342 67.605 214.357 67.6702 214.384 67.7309C214.414 67.7719 214.44 67.8157 214.461 67.8617C214.461 67.8617 214.323 68.0309 214.176 68.1463C214.038 68.2537 213.885 68.3417 213.723 68.4079C213.438 68.5309 213.307 68.5463 213.276 68.5002C213.246 68.454 213.223 68.4002 213.176 68.3617C213.082 68.2831 212.981 68.2111 212.876 68.1463C212.876 68.1463 212.876 68.1463 212.876 68.0925C212.769 67.9463 212.669 67.7925 212.561 67.6386C212.453 67.4848 212.446 67.4002 212.369 67.3002C212.292 67.2002 212.23 67.1694 212.169 67.0925C212.107 67.0156 212.046 66.9079 211.969 66.8232C211.892 66.7386 211.838 66.6309 211.715 66.6002C211.592 66.5694 211.507 66.4463 211.407 66.3771C211.307 66.3079 211.307 66.3771 211.276 66.3771C211.215 66.3293 211.158 66.2752 211.107 66.2156C211.008 66.0992 210.894 65.9959 210.769 65.9079C210.648 65.852 210.517 65.8206 210.384 65.8156C210.253 65.7617 210.123 65.754 210 65.7079C209.876 65.6617 209.723 65.754 209.592 65.7079H209.453C209.316 65.6891 209.176 65.6891 209.038 65.7079C208.898 65.7084 208.759 65.7239 208.623 65.754C208.525 65.7563 208.429 65.7745 208.338 65.8079C208.261 65.8079 208.215 65.9309 208.153 65.9771C208.092 66.0232 208.076 65.9771 208.038 65.9771C207.803 65.7544 207.597 65.5039 207.423 65.2309Z" fill="#21467E"/>
<path d="M199.261 66.8385C199.177 67.0462 199.069 67.1769 198.954 67.1692C198.638 67.1578 198.324 67.1192 198.015 67.0539C197.768 67.0104 197.524 66.9513 197.284 66.8769C197.045 66.7625 196.818 66.6233 196.607 66.4615C196.607 66.4615 196.607 66.4615 196.569 66.4615C196.292 66.5385 196.215 66.2692 196.03 66.2C195.799 66.0939 195.582 65.9595 195.384 65.8C195.246 65.7 195.123 65.5539 194.992 65.4462C194.861 65.3385 194.946 65.3846 194.877 65.4462C194.807 65.5077 194.684 65.5154 194.63 65.4462C194.577 65.3769 194.4 65.3077 194.284 65.2539C194.09 65.1811 193.889 65.1295 193.684 65.1C193.569 65.1 193.461 65.0462 193.346 65.1C193.177 65.1227 193.009 65.1587 192.846 65.2077C192.846 65.2077 192.754 65.1462 192.715 65.1385C192.667 65.1304 192.617 65.1304 192.569 65.1385C192.532 65.1533 192.496 65.1713 192.461 65.1923C192.461 65.1923 192.338 65.0846 192.215 64.9154C192.099 64.7619 192.003 64.5938 191.93 64.4154C191.815 64.1385 191.838 64.0385 191.892 63.9923C191.956 63.961 192.018 63.925 192.077 63.8846C192.189 63.7771 192.31 63.6793 192.438 63.5923H192.507L192.877 63.4846H193.269C193.45 63.4882 193.631 63.5114 193.807 63.5539C193.942 63.5594 194.076 63.5774 194.207 63.6077C194.35 63.6534 194.489 63.71 194.623 63.7769C194.756 63.8498 194.898 63.9042 195.046 63.9385C195.199 63.9807 195.347 64.0427 195.484 64.1231C195.523 64.1231 195.592 64.1231 195.63 64.1231C195.717 64.1724 195.8 64.229 195.877 64.2923C196.006 64.4281 196.144 64.5541 196.292 64.6692C196.434 64.75 196.583 64.8169 196.738 64.8692C196.886 64.9471 197.028 65.0372 197.161 65.1385C197.292 65.2539 197.484 65.2539 197.623 65.3385L197.761 65.4385C197.892 65.5308 198.038 65.5769 198.177 65.6692C198.315 65.7615 198.438 65.7769 198.569 65.8539C198.651 65.914 198.746 65.9536 198.846 65.9692C198.928 65.9771 199.01 65.9771 199.092 65.9692C199.092 65.9692 199.161 65.9692 199.2 66.0154C199.262 66.285 199.283 66.5626 199.261 66.8385Z" fill="#21467E"/>
<path d="M194.623 80.9463C194.373 80.8055 194.156 80.6143 193.985 80.3848L193.931 80.1925V80.0925H193.869V79.6309L194.023 79.1002L194.092 78.854L194.169 78.6925C194.269 78.4925 194.361 78.2771 194.477 78.0771C194.614 77.8079 194.774 77.5506 194.954 77.3079C195.618 76.5384 196.429 75.9083 197.338 75.454L198.477 74.8463C198.94 74.5475 199.467 74.3629 200.015 74.3079C200.215 74.3079 200.254 74.6771 200.215 75.0771C200.177 75.4771 200.061 75.8463 199.808 75.954C198.903 76.3 198.017 76.6928 197.154 77.1309C196.653 77.4393 196.231 77.8609 195.923 78.3617C195.778 78.5557 195.654 78.7646 195.554 78.9848L195.392 79.3079L195.323 79.4694C195.323 79.5386 195.246 79.6309 195.323 79.6771C195.399 79.7501 195.484 79.8122 195.577 79.8617C195.75 79.952 195.93 80.0291 196.115 80.0925C196.702 80.3107 197.328 80.4049 197.954 80.3694C198.422 80.3112 198.874 80.1623 199.285 79.9309C199.377 79.8771 199.454 79.8232 199.546 79.7771C199.877 79.6079 200.015 79.6309 200.315 79.9309C200.381 79.9939 200.442 80.0607 200.5 80.1309C200.545 80.189 200.577 80.2556 200.595 80.3268C200.612 80.3979 200.615 80.4719 200.603 80.5442C200.591 80.6165 200.564 80.6854 200.523 80.7467C200.483 80.8079 200.431 80.8602 200.369 80.9002C199.466 81.5787 198.339 81.8918 197.215 81.7771C196.795 81.7464 196.38 81.669 195.977 81.5463C195.769 81.4921 195.566 81.4227 195.369 81.3386L195.077 81.2156L194.638 80.9848L194.623 80.9463Z" fill="#21467E"/>
<path d="M201.592 90C201.677 90.3175 201.677 90.6517 201.592 90.9692C201.511 91.266 201.367 91.5416 201.169 91.7769C200.979 92.028 200.707 92.2048 200.4 92.2769C200.182 92.3199 199.957 92.3079 199.744 92.2421C199.532 92.1763 199.34 92.0587 199.184 91.9C198.955 91.6861 198.776 91.4232 198.661 91.1307C198.536 90.8888 198.448 90.6295 198.4 90.3615C198.36 90.1686 198.36 89.9698 198.4 89.7769C198.444 89.6922 198.493 89.61 198.546 89.5307C198.623 89.4678 198.708 89.416 198.8 89.3769C198.915 89.3154 199.261 89.6615 199.5 89.9C199.674 90.0777 199.873 90.2281 200.092 90.3461C200.092 90.3461 200.092 90.3461 200.092 90.3H199.877H199.992C200.1 90.3 200.061 90.3 200.061 90.3C200.019 90.3966 200.003 90.5028 200.015 90.6077C200.015 90.7077 200.054 90.7154 200.015 90.7615C199.977 90.8077 200.015 91.1077 199.969 90.9923C199.923 90.8769 199.969 90.9923 199.915 90.9307C199.861 90.8692 199.792 90.8154 199.815 90.8461C199.838 90.8769 199.815 90.8077 199.877 90.8C199.918 90.7526 199.949 90.6977 199.969 90.6384C199.999 90.5617 199.999 90.4767 199.969 90.4L199.861 90.2692C199.861 90.2692 199.861 90.1923 199.861 90.1692C199.861 90.1692 199.992 90.223 199.992 90.2384L200.038 90.2923L200.177 90.4769C200.177 90.4769 200.231 90.523 200.254 90.5615C200.277 90.6 200.254 90.7692 199.831 90.9538L199.554 91.0846C199.437 91.1521 199.304 91.1876 199.169 91.1876C199.034 91.1876 198.901 91.1521 198.784 91.0846C198.662 90.9841 198.567 90.8545 198.508 90.7077C198.421 90.5359 198.376 90.3461 198.377 90.1538C198.372 90.0189 198.387 89.884 198.423 89.7538C198.461 89.5719 198.54 89.4011 198.654 89.2538C198.79 89.0627 198.973 88.9092 199.184 88.8077C199.382 88.7158 199.597 88.6685 199.815 88.6692C200.034 88.6687 200.25 88.7112 200.452 88.7943C200.654 88.8775 200.837 88.9997 200.992 89.1538C201.246 89.3978 201.434 89.7022 201.538 90.0384L201.592 90Z" fill="#21467E"/>
<path d="M217.015 40.6001C217.405 41.044 217.739 41.535 218.007 42.0617C218.124 42.2475 218.224 42.4431 218.307 42.6463C218.571 43.3851 218.658 44.1755 218.561 44.954C218.542 45.1226 218.511 45.2897 218.469 45.454C218.447 45.6173 218.406 45.7774 218.346 45.9309C218.266 46.124 218.173 46.3115 218.069 46.4924C217.948 46.6565 217.814 46.8108 217.669 46.954C217.577 47.0463 217.615 47.0463 217.669 46.954C217.679 46.7695 217.679 46.5846 217.669 46.4001C217.607 45.577 217.446 45.0155 217.377 44.354C217.356 44.1474 217.29 43.9478 217.184 43.7694C217.1 43.5771 216.977 43.4001 216.877 43.2078C216.648 42.7735 216.391 42.3546 216.107 41.954C215.932 41.6873 215.742 41.4305 215.538 41.1847C215.238 40.8054 214.901 40.4574 214.53 40.1463C214.39 40.0275 214.241 39.9195 214.084 39.8232L213.638 39.4847L213.446 39.3309C213.2 39.1386 213.13 39.0232 213.077 38.9924H213.038C213.153 39.0026 213.269 39.0026 213.384 38.9924C213.746 39.0309 214.153 39.0617 214.538 39.1309C214.926 39.2193 215.3 39.3563 215.653 39.5386C216.179 39.8041 216.658 40.1551 217.069 40.577L217.015 40.6001Z" fill="#21467E"/>
<path d="M203.33 280.692C202.738 280.762 202.154 280.8 201.577 280.846C201.361 280.846 201.161 280.931 200.946 280.939C200.177 280.939 199.446 280.939 198.707 280.992C198.379 281.006 198.052 281.047 197.73 281.116C197.325 281.256 196.891 281.291 196.469 281.216C196.2 281.123 196.4 279.523 196.861 279.462C197.701 279.35 198.552 279.35 199.392 279.462C199.908 279.478 200.424 279.436 200.93 279.339L202.63 279.177C202.977 279.131 203.323 279.1 203.669 279.031C204.191 278.959 204.705 278.843 205.207 278.685C205.569 278.533 205.91 278.336 206.223 278.1C206.286 278.047 206.353 277.998 206.423 277.954C206.654 277.785 206.784 277.846 207.077 278.185L207.284 278.408C207.387 278.517 207.443 278.662 207.443 278.812C207.443 278.962 207.387 279.106 207.284 279.216C206.673 279.813 205.905 280.224 205.069 280.4C204.489 280.551 203.901 280.669 203.307 280.754L203.33 280.692Z" fill="#21467E"/>
<path d="M223.577 275.939C223 275.939 222.423 275.939 221.861 275.9C221.654 275.9 221.446 275.9 221.246 275.9C220.523 275.815 219.815 275.669 219.115 275.531C218.805 275.477 218.491 275.446 218.177 275.439C217.768 275.485 217.354 275.413 216.984 275.231C216.754 275.069 217.377 273.585 217.754 273.631C218.528 273.718 219.289 273.893 220.023 274.154C220.486 274.265 220.962 274.312 221.438 274.292C221.961 274.292 222.485 274.362 222.977 274.346C223.298 274.347 223.619 274.329 223.938 274.292C224.415 274.254 224.884 274.148 225.331 273.977C225.653 273.826 225.948 273.621 226.2 273.369C226.261 273.315 226.292 273.246 226.354 273.2C226.554 273.023 226.684 273.069 227.015 273.369L227.246 273.577C227.36 273.666 227.437 273.793 227.463 273.935C227.488 274.077 227.46 274.224 227.385 274.346C226.872 275.028 226.133 275.506 225.3 275.692C224.717 275.844 224.123 275.944 223.523 275.992L223.577 275.939Z" fill="#21467E"/>
<path d="M124.431 337.539C123.203 337.285 121.954 337.151 120.7 337.139C120.231 337.139 119.762 337.177 119.292 337.139C117.629 337.127 115.967 337.219 114.315 337.416C113.588 337.509 112.87 337.664 112.169 337.877C111.277 338.146 110.438 338.531 109.662 338.808C109.415 338.885 109.169 338.546 109.177 338.039C109.192 337.768 109.271 337.504 109.408 337.269C109.572 337.021 109.804 336.826 110.077 336.708C112.01 336.011 114.052 335.662 116.108 335.677C117.315 335.677 118.546 335.5 119.777 335.508C121.135 335.488 122.492 335.568 123.838 335.746C124.267 335.805 124.691 335.892 125.108 336.008L125.431 336.085L125.762 336.216L126.092 336.354C126.169 336.397 126.242 336.449 126.308 336.508C126.428 336.649 126.488 336.831 126.477 337.016C126.46 337.151 126.401 337.277 126.308 337.377C126.267 337.431 126.218 337.478 126.162 337.516C125.839 337.704 125.489 337.839 125.123 337.916C124.808 338 124.5 338.062 124.185 338.123C123.569 338.246 122.946 338.346 122.331 338.446C121.377 338.592 120.438 338.8 119.454 338.885C119.234 338.897 119.013 338.897 118.792 338.885C117.954 338.885 117.631 338.654 117.592 338.185C117.577 338.078 117.577 337.969 117.592 337.862C117.669 337.523 117.954 337.362 118.446 337.316C119.985 337.162 121.692 336.9 123.354 336.6C123.941 336.495 124.521 336.356 125.092 336.185L125.215 336.131C125.215 336.131 125.215 336.185 125.262 336.239L125.362 336.392C125.415 336.492 125.531 336.608 125.562 336.669C125.606 336.739 125.663 336.799 125.731 336.846C125.808 336.892 125.785 336.908 125.838 336.908C125.892 336.908 125.838 336.908 125.838 336.908C125.785 336.95 125.741 337.003 125.708 337.062V337.108C125.569 337.385 126.008 336.492 125.4 337.723L125.238 337.669C124.991 337.567 124.733 337.492 124.469 337.446L124.431 337.539Z" fill="#21467E"/>
<path d="M297.969 349.008C299.31 348.682 300.677 348.479 302.054 348.4C302.546 348.354 303.031 348.292 303.515 348.277C305.238 348.231 306.961 348.285 308.677 348.439C309.446 348.508 310.215 348.539 310.985 348.623C312.016 348.629 313.029 348.893 313.931 349.392C314.223 349.585 313.931 349.923 313.554 350.2C313.358 350.343 313.143 350.457 312.915 350.539C312.696 350.637 312.45 350.661 312.215 350.608C310.492 350.239 308.569 350.085 306.654 349.839C305.474 349.764 304.291 349.79 303.115 349.916C301.825 349.98 300.541 350.126 299.269 350.354C298.891 350.427 298.519 350.525 298.154 350.646L297.885 350.723L297.662 350.839L297.423 350.946C297.423 350.946 297.269 350.708 297.346 350.816C297.349 350.798 297.349 350.78 297.346 350.762C297.316 350.729 297.283 350.701 297.246 350.677C297.2 350.677 297.246 350.677 297.208 350.677C297.169 350.677 297.154 350.677 297.208 350.677C297.333 350.587 297.431 350.465 297.492 350.323C297.719 350.416 297.957 350.481 298.2 350.516C298.485 350.569 298.785 350.608 299.085 350.646C299.685 350.714 300.288 350.748 300.892 350.746C301.811 350.731 302.725 350.626 303.623 350.431L304.185 350.292C304.885 350.139 305.046 350.169 305.362 350.508C305.431 350.585 305.523 350.654 305.592 350.739C305.838 350.985 305.592 351.454 304.977 351.7C303.216 352.292 301.349 352.502 299.5 352.316C298.772 352.274 298.049 352.171 297.339 352.008L296.992 351.9C296.911 351.868 296.831 351.833 296.754 351.792C296.701 351.768 296.649 351.74 296.6 351.708C296.516 351.652 296.439 351.588 296.369 351.516C296.301 351.447 296.241 351.369 296.192 351.285C296.125 351.176 296.075 351.056 296.046 350.931C295.991 350.638 296.042 350.335 296.192 350.077C296.265 349.958 296.355 349.852 296.462 349.762C296.502 349.724 296.546 349.691 296.592 349.662H296.631L296.923 349.516C297.28 349.334 297.654 349.187 298.038 349.077L297.969 349.008Z" fill="#21467E"/>
<path d="M240.185 153.608C239.785 153.977 239.369 154.331 238.954 154.677C238.808 154.8 238.7 154.969 238.539 155.085C237.992 155.508 237.423 155.854 236.869 156.292C236.631 156.474 236.41 156.678 236.208 156.9C235.946 157.185 235.746 157.538 235.323 157.669C235.054 157.723 234.154 156.131 234.454 155.877C235.007 155.346 235.644 154.909 236.339 154.585C236.735 154.339 237.095 154.039 237.408 153.692C237.8 153.354 238.177 153.023 238.562 152.677C238.8 152.462 239.016 152.246 239.239 152.023C239.562 151.689 239.849 151.32 240.092 150.923C240.244 150.625 240.323 150.296 240.323 149.962C240.319 149.897 240.319 149.833 240.323 149.769C240.323 149.585 240.446 149.569 240.954 149.523L241.292 149.485C241.677 149.485 241.985 149.6 242.062 149.954C242.135 150.825 241.874 151.692 241.331 152.377C240.993 152.832 240.626 153.263 240.231 153.669L240.185 153.608Z" fill="#21467E"/>
<path d="M241.538 49.2308C242.006 49.276 242.459 49.4159 242.87 49.6421C243.281 49.8682 243.642 50.1759 243.931 50.5462C244.854 51.6769 244.531 52.9846 243.646 54.0308C242.761 55.0769 244.923 55.1077 245.454 54.477C246.615 53.1077 247.269 51.4 246.138 49.8616C245.694 49.2778 245.127 48.7989 244.477 48.4586C243.827 48.1183 243.11 47.925 242.377 47.8923C241.915 47.8923 241.131 48.0462 240.915 48.5231C240.7 49 241.092 49.2385 241.538 49.2923V49.2308Z" fill="#21467E"/>
<path d="M242.738 45.3385C245.815 44.5693 249.592 49.1847 248.238 52.0385C247.969 52.6077 250.138 52.4 250.453 51.7231C251.392 49.7462 250.176 47.4385 248.738 46.0385C247.938 45.2249 246.935 44.6397 245.832 44.3435C244.73 44.0474 243.569 44.051 242.469 44.3539C241.146 44.7001 241.4 45.6924 242.738 45.3385Z" fill="#21467E"/>
<path d="M160.777 32.1846C159.926 32.699 159.237 33.4435 158.791 34.3322C158.345 35.221 158.158 36.2178 158.254 37.2077C158.3 37.9769 160.562 37.5 160.485 36.6154C160.403 35.9005 160.517 35.177 160.813 34.5214C161.11 33.8659 161.579 33.303 162.169 32.8923C162.523 32.6923 162.777 32.2539 162.354 31.9846C162.099 31.8977 161.828 31.8706 161.561 31.9053C161.295 31.9399 161.039 32.0355 160.815 32.1846H160.777Z" fill="#21467E"/>
<path d="M158.038 29.0232C155.577 30.5616 153.677 32.8155 154.192 35.9462C154.308 36.6155 156.554 36.1001 156.423 35.3462C156 32.8386 157.338 30.9155 159.385 29.6078C160.654 28.8001 158.692 28.6309 158.031 29.0539L158.038 29.0232Z" fill="#21467E"/>
</svg>
