<svg width="300" height="300" viewBox="0 0 300 300" fill="none" xmlns="http://www.w3.org/2000/svg">
<path d="M126.527 242.229C126.527 242.229 133.994 249.919 132.785 251.212C132.423 251.587 121.069 255.425 111.169 261.3C110.741 261.195 110.325 261.051 109.924 260.869C110.849 259.896 115.723 255.877 122.147 252.289C126.652 249.787 126.527 242.229 126.527 242.229Z" fill="#21467E"/>
<path d="M221.166 234.616C219.039 236.521 214.874 248.591 213.199 249.55C211.203 250.697 204.981 248.528 198.772 247.937C194.531 247.561 190.267 247.524 186.021 247.826C180.459 246.623 185.965 235.589 185.965 235.589C185.965 235.589 188.531 241.61 191.597 244.266C197.854 243.773 208.026 246.352 209.604 246.47C213.08 246.762 213.699 243.272 215.02 240.908C216.209 238.753 218.51 235.179 221.166 234.616Z" fill="#21467E"/>
<path d="M124.365 98.8378C123.929 98.0885 123.723 97.227 123.773 96.3614C123.824 95.4957 124.129 94.6642 124.65 93.9709C124.956 93.5399 125.936 93.6302 126.096 94.0683L126.326 94.7079C126.409 94.9234 126.513 95.1251 126.604 95.3267C126.764 95.7369 126.986 96.1262 127.167 96.5086C127.736 98.0095 128.591 99.386 129.684 100.562C130.506 101.406 131.459 102.11 132.507 102.648C133.269 103.046 134.091 103.321 134.94 103.461C135.708 103.652 136.521 103.537 137.207 103.141C137.364 102.982 137.481 102.786 137.547 102.571C137.547 102.488 137.596 102.404 137.624 102.321L137.665 102.008V101.848V101.661V101.285C137.58 100.011 137.289 98.7599 136.803 97.5793C136.373 96.4225 135.737 95.353 134.926 94.4229C134.273 93.6491 133.38 93.1145 132.39 92.9031C131.399 92.6916 130.367 92.8154 129.454 93.2548C128.532 93.6526 127.691 94.2157 126.972 94.9165C125.609 96.2248 124.769 97.9844 124.608 99.8668C124.507 100.847 124.559 101.837 124.761 102.801C124.804 103.036 124.862 103.268 124.935 103.496C124.986 103.733 125.056 103.965 125.144 104.191C125.234 104.379 125.29 104.574 125.387 104.768C125.484 104.963 125.603 105.13 125.7 105.318C125.797 105.505 126.034 105.79 126.221 106.013C126.427 106.225 126.661 106.408 126.917 106.555C127.473 106.949 128.059 107.3 128.669 107.605C128.898 107.73 129.169 107.793 129.427 107.911C129.684 108.029 129.99 108.057 130.275 108.147C130.875 108.262 131.488 108.29 132.096 108.231C133.239 108.13 134.322 107.678 135.197 106.938C135.762 106.441 136.27 105.884 136.713 105.276C137.761 103.875 138.475 102.253 138.799 100.534C139.149 98.7532 139.13 96.9193 138.743 95.1459L138.514 94.402C138.423 94.1636 138.369 93.9128 138.354 93.6581C138.192 92.5195 137.659 91.4662 136.838 90.6615C135.764 89.4451 134.478 88.4344 133.042 87.6788C132.68 87.4841 132.347 87.2547 131.964 87.0531C131.603 86.822 131.229 86.6108 130.845 86.4204C130.15 86.0588 130.671 85.5652 130.97 85.5791C131.818 85.5791 131.248 85.155 131.227 84.8838C131.227 84.7934 131.227 84.6753 131.276 84.6196C131.887 84.6452 132.494 84.7408 133.084 84.9047C134.435 85.2364 135.733 85.7535 136.942 86.4412C138.252 87.2113 139.426 88.1907 140.419 89.3405C141.016 90.0136 141.528 90.7587 141.941 91.5584C142.4 92.4462 142.768 93.3779 143.04 94.3394C144.227 98.6111 143.781 103.172 141.788 107.132C141.152 108.37 140.345 109.513 139.39 110.525C139.189 110.733 138.978 110.93 138.757 111.116C138.521 111.297 138.284 111.464 138.062 111.631C137.572 111.968 137.05 112.257 136.504 112.493C136.248 112.632 135.983 112.755 135.712 112.861L134.905 113.181C134.599 113.299 134.21 113.369 133.848 113.473C131.985 113.887 130.049 113.837 128.21 113.327C126.388 112.827 124.703 111.922 123.28 110.678C122.999 110.449 122.736 110.198 122.495 109.927C122.265 109.684 122.057 109.475 121.904 109.274C121.598 108.87 121.403 108.578 121.361 108.544C121.121 108.195 120.905 107.831 120.715 107.452C120.504 107.08 120.327 106.689 120.186 106.284L119.957 105.679C119.888 105.478 119.846 105.311 119.797 105.123C119.7 104.754 119.596 104.428 119.519 104.024C119.196 102.516 119.175 100.959 119.456 99.4427C119.526 99.1506 119.561 98.8447 119.602 98.5388C119.644 98.2329 119.707 97.927 119.762 97.6211C120.025 96.3089 120.477 95.0419 121.104 93.8597C121.755 92.6711 122.583 91.588 123.559 90.6476C125.571 88.6643 128.251 87.5018 131.074 87.3868C132.571 87.3416 134.058 87.6339 135.427 88.242C136.746 88.8387 137.93 89.7001 138.903 90.7727C139.246 91.1713 139.553 91.5994 139.821 92.052L140.3 92.8377C140.433 93.1019 140.565 93.366 140.718 93.6233C141.442 94.9372 141.994 96.3394 142.358 97.7949C142.801 99.341 142.947 100.957 142.79 102.557C142.742 103.015 142.649 103.467 142.511 103.906C142.442 104.136 142.372 104.358 142.282 104.602C142.192 104.845 142.066 105.06 141.948 105.297C141.443 106.227 140.702 107.009 139.8 107.563C138.953 108.079 138.004 108.404 137.019 108.516C136.143 108.624 135.256 108.61 134.384 108.474C134.189 108.439 133.911 108.384 133.57 108.3C133.23 108.217 132.875 108.071 132.43 107.904C131.51 107.516 130.634 107.031 129.816 106.458C128.485 105.484 127.284 104.344 126.242 103.065C126.041 102.802 125.862 102.523 125.707 102.231C125.526 101.848 125.318 101.417 125.151 100.979C124.789 100.061 124.574 99.1715 124.365 98.8378Z" fill="#21467E"/>
<path d="M104.946 135.93C104.946 135.93 105.085 136.41 105.28 137.098C105.475 137.786 105.697 138.725 105.906 139.678C106.337 141.583 106.601 143.641 106.344 144.044C106.291 144.1 106.221 144.136 106.145 144.146C106.069 144.156 105.992 144.14 105.926 144.1C105.683 143.814 105.016 141.958 104.286 140.178L102.853 136.66C102.742 136.34 104.835 135.603 104.946 135.93Z" fill="#21467E"/>
<path d="M145.918 79.718C145.888 79.7974 145.832 79.8638 145.758 79.9057C145.684 79.9576 145.598 79.9888 145.508 79.9961C145.212 79.9948 144.917 79.9551 144.632 79.8779C144.395 79.8292 143.867 79.4468 143.888 79.28C143.925 78.9436 143.999 78.6124 144.11 78.2927C144.223 78.1219 144.356 77.9655 144.507 77.8269C144.625 77.7087 144.764 77.5627 144.924 77.4167L145.473 77.0204L145.779 76.8118L146.099 76.6519L146.738 76.346L147.788 76.0122C148.731 75.804 149.705 75.771 150.66 75.9149C152.398 76.1882 154.105 76.6331 155.756 77.2429C156.1 77.3673 156.432 77.5208 156.75 77.7017C157.785 78.2932 158.907 78.7178 160.074 78.9602C160.26 79.0306 160.461 79.0498 160.658 79.0158C161.291 79.0594 161.921 79.1477 162.542 79.28C163.404 79.419 164.294 79.5511 164.495 79.6068C165.508 79.8972 166.536 80.1294 167.575 80.302C167.721 80.302 167.888 80.302 168.02 80.4202C168.299 80.6295 168.647 80.7262 168.994 80.6914C169.46 80.7211 169.925 80.7791 170.384 80.8652C170.63 80.9414 170.864 81.0514 171.08 81.192C171.281 81.3102 171.17 81.7134 171.08 81.7551C170.871 81.8872 171.038 82.0819 171.08 82.2488C171.086 82.3088 171.086 82.3695 171.08 82.4295C170.1 82.7795 169.09 83.0378 168.062 83.2013H167.367H165.914C164.843 83.2013 163.703 83.1456 163.473 83.1317C163.234 83.1121 163 83.0558 162.778 82.9649C162.722 82.9649 161.874 82.8814 161.026 82.7633C160.178 82.6451 159.33 82.4921 159.267 82.4712C158.587 82.3469 157.936 82.097 157.348 81.7343C157.235 81.6559 157.107 81.6015 156.973 81.5743C155.853 81.2406 154.887 80.7609 153.886 80.3646C153.383 80.1785 152.87 80.0207 152.349 79.8918C152.258 79.8534 152.17 79.8093 152.085 79.7597C151.982 79.7005 151.872 79.6538 151.758 79.6207C150.65 79.2769 149.483 79.168 148.331 79.3008C148.205 79.3008 147.886 79.3008 147.538 79.3008L147.065 79.3843C146.959 79.4029 146.86 79.4457 146.773 79.5094C146.718 79.5581 146.53 79.5094 146.342 79.5094C146.154 79.5094 145.953 79.6415 145.918 79.718Z" fill="#21467E"/>
<path d="M143.916 103.781C144.187 102.595 144.607 101.448 145.167 100.367C145.207 100.3 145.267 100.247 145.339 100.216C145.411 100.184 145.49 100.176 145.567 100.192C145.644 100.208 145.713 100.248 145.766 100.305C145.819 100.363 145.853 100.436 145.862 100.513C145.922 100.947 145.95 101.383 145.946 101.821V102.481L145.869 103.142C145.869 103.211 145.828 103.406 145.758 103.691C145.689 103.976 145.563 104.344 145.438 104.789C145.053 105.866 144.559 106.9 143.964 107.876C143.278 108.968 142.481 109.986 141.587 110.915C140.877 111.641 140.107 112.306 139.285 112.903C136.963 114.646 134.181 115.671 131.283 115.851C128.255 116.026 125.262 115.13 122.828 113.32C122.234 112.881 121.67 112.402 121.139 111.888C120.626 111.369 120.143 110.821 119.693 110.247C118.816 109.113 118.05 107.898 117.405 106.618C117.134 106.034 116.891 105.436 116.641 104.838C116.39 104.24 116.279 103.587 116.105 102.968C115.64 100.773 115.652 98.5039 116.14 96.3141C116.635 94.1491 117.57 92.1091 118.886 90.3209C119.338 89.7508 119.79 89.1528 120.277 88.6105C120.367 88.4923 120.569 88.249 120.868 87.9153C121.167 87.5815 121.563 87.22 122.091 86.7959C123.286 85.8259 124.585 84.9911 125.964 84.3068C127.385 83.6182 128.894 83.1292 130.448 82.8537C131.366 82.6902 132.298 82.618 133.23 82.6382C135.216 82.7076 137.161 83.2283 138.917 84.1608C139.783 84.637 140.588 85.216 141.315 85.8851C142.021 86.5597 142.653 87.3079 143.2 88.1169C143.516 88.5461 143.778 89.0132 143.978 89.5074C144.347 90.6129 144.813 91.6558 145.112 92.7613C145.538 94.28 145.785 95.8434 145.849 97.4195C145.849 97.8089 145.849 98.1913 145.849 98.5737C145.849 98.9561 145.765 99.3315 145.73 99.7069C145.661 100.402 145.341 100.02 145.306 99.7834C145.195 99.0881 145.056 99.6583 144.931 99.7208C144.806 99.7834 144.833 99.7695 144.799 99.7208C144.764 99.6722 144.729 99.1507 144.625 98.3303C144.493 97.3222 144.308 96.3219 144.069 95.3337C143.68 93.7333 143.084 92.1906 142.296 90.745C141.981 90.171 141.626 89.6203 141.232 89.0972C140.398 87.9995 139.338 87.0938 138.124 86.4413C137.462 86.0927 136.762 85.8198 136.038 85.6278C135.368 85.462 134.684 85.3573 133.994 85.315C133.141 85.2747 132.286 85.3236 131.443 85.461C130.747 85.5861 130.052 85.6765 129.392 85.8503C128.859 86.0132 128.336 86.2082 127.827 86.4344C126.8 86.9037 125.817 87.4669 124.893 88.1169C123.522 89.1145 122.306 90.3094 121.285 91.6627C120.13 93.192 119.259 94.9156 118.712 96.7521C118.622 97.1214 118.55 97.4949 118.497 97.8714C118.217 101.228 119.106 104.579 121.014 107.355C121.931 108.808 123.11 110.079 124.49 111.102C124.712 111.296 124.944 111.477 125.185 111.645C125.493 111.867 125.821 112.061 126.166 112.222C127.972 113.065 129.98 113.379 131.957 113.126C133.977 112.857 135.905 112.114 137.582 110.956C138.482 110.37 139.335 109.715 140.133 108.996C140.961 108.248 141.683 107.392 142.282 106.451C142.398 106.257 142.528 106.071 142.671 105.895L143.193 105.116C143.49 104.704 143.733 104.255 143.916 103.781V103.781Z" fill="#21467E"/>
<path d="M192.07 101.271C192.345 100.083 192.767 98.9337 193.328 97.8505C193.368 97.7832 193.428 97.7302 193.5 97.6987C193.572 97.6672 193.651 97.659 193.728 97.6751C193.805 97.6912 193.874 97.7308 193.927 97.7884C193.98 97.8461 194.014 97.9188 194.023 97.9965C194.083 98.4297 194.11 98.8665 194.107 99.3036C194.107 99.5192 194.107 99.7486 194.107 99.9989L194.03 100.694C194.03 100.764 193.996 100.958 193.926 101.243C193.857 101.528 193.738 101.939 193.599 102.349C193.213 103.428 192.717 104.465 192.118 105.443C190.878 107.404 189.264 109.102 187.37 110.442C185.002 112.145 182.185 113.112 179.27 113.223C176.243 113.306 173.277 112.36 170.857 110.539C169.681 109.66 168.629 108.626 167.729 107.466C167.249 106.91 166.887 106.291 166.47 105.707C166.053 105.123 165.733 104.49 165.413 103.837C165.125 103.257 164.867 102.663 164.642 102.057C163.66 99.3222 163.46 96.368 164.064 93.526C164.552 91.3492 165.485 89.2968 166.804 87.498C167.026 87.206 167.235 86.9001 167.499 86.622C167.763 86.3439 167.972 86.0589 168.194 85.7738C169.818 83.9851 171.804 82.563 174.021 81.6022C175.476 80.983 177.008 80.5598 178.575 80.3438C179.496 80.2161 180.426 80.1695 181.356 80.2047C183.336 80.2919 185.275 80.8015 187.043 81.6996C187.912 82.1755 188.721 82.7519 189.456 83.4169C190.166 84.091 190.802 84.8392 191.354 85.6486C191.672 86.0926 191.936 86.5735 192.139 87.0809C192.515 88.1864 192.98 89.2293 193.286 90.3417C193.713 91.8651 193.96 93.4331 194.023 95.0138C194.023 95.4032 194.023 95.7856 194.023 96.168C194.023 96.5504 193.947 96.9258 193.905 97.3082C193.836 98.0035 193.516 97.6141 193.481 97.3847C193.37 96.6894 193.238 97.2596 193.106 97.3221C192.974 97.3847 193.008 97.3708 192.974 97.3221C192.939 97.2735 192.911 96.752 192.8 95.9316C192.672 94.9206 192.486 93.9178 192.244 92.9281C191.855 91.3234 191.254 89.7778 190.457 88.3324C190.15 87.7498 189.792 87.196 189.386 86.6776C188.55 85.5785 187.485 84.6746 186.264 84.0287C185.602 83.6848 184.902 83.4189 184.178 83.2361C183.492 83.0804 182.795 82.9804 182.093 82.9371C181.225 82.8816 180.354 82.9119 179.492 83.0275C178.797 83.1179 178.102 83.2083 177.407 83.3334C177.33 83.3334 176.711 83.5142 175.814 83.8479C174.767 84.2554 173.773 84.7877 172.853 85.4331C171.444 86.3699 170.211 87.5465 169.209 88.9094C168.063 90.4449 167.201 92.1733 166.665 94.0127C166.552 94.376 166.484 94.752 166.463 95.132C166.308 96.767 166.454 98.4166 166.894 99.9989L167.284 101.188C167.436 101.584 167.624 101.96 167.798 102.349C167.965 102.743 168.16 103.124 168.382 103.489C168.575 103.86 168.788 104.22 169.022 104.567C169.942 106.024 171.12 107.301 172.498 108.335C172.748 108.509 172.971 108.724 173.193 108.891C173.512 109.106 173.841 109.303 174.181 109.482C175.079 109.91 176.027 110.223 177.003 110.414C177.99 110.569 178.991 110.607 179.986 110.525C180.994 110.405 181.985 110.171 182.941 109.83C183.894 109.459 184.807 108.993 185.666 108.439C186.576 107.867 187.438 107.223 188.246 106.514C189.079 105.768 189.808 104.915 190.415 103.976C190.533 103.785 190.663 103.601 190.804 103.427C190.971 103.197 191.138 102.919 191.326 102.648C191.637 102.226 191.888 101.763 192.07 101.271Z" fill="#21467E"/>
<path d="M177.678 112.215C177.863 112.103 178.078 112.049 178.295 112.058C178.511 112.068 178.72 112.142 178.894 112.27C179.047 112.347 179.221 112.715 179.124 112.827C178.938 113.041 178.736 113.241 178.519 113.424C178.365 113.509 178.208 113.586 178.046 113.654C177.727 113.805 177.397 113.933 177.059 114.036C176.389 114.261 175.704 114.436 175.008 114.558C174.162 114.711 173.301 114.765 172.442 114.718C170.736 114.634 169.04 114.402 167.374 114.022C167.008 113.94 166.648 113.833 166.296 113.703C165.087 113.265 163.877 112.882 162.667 112.5C162.469 112.421 162.26 112.37 162.048 112.347C161.377 112.179 160.719 111.96 160.081 111.693C159.191 111.346 158.301 110.949 158.106 110.838C157.147 110.282 156.18 109.747 155.235 109.176C155.09 109.113 154.958 109.023 154.845 108.912C154.618 108.653 154.335 108.449 154.018 108.314C153.608 108.078 153.204 107.835 152.815 107.556C152.631 107.403 152.463 107.23 152.315 107.042C152.169 106.875 152.398 106.708 152.467 106.722C152.69 106.757 152.607 106.562 152.641 106.465C152.652 106.428 152.668 106.393 152.69 106.361C153.146 106.477 153.597 106.616 154.039 106.778C154.734 107.007 155.429 107.237 155.541 107.299L156.138 107.57L157.418 108.127C158.363 108.523 159.365 108.905 159.573 108.968C159.788 109.054 159.995 109.159 160.192 109.281C160.282 109.35 163.202 110.303 163.321 110.317C163.929 110.5 164.522 110.732 165.093 111.012C165.207 111.071 165.329 111.113 165.455 111.137C166.505 111.415 167.541 111.742 168.591 111.985C169.126 112.103 169.668 112.187 170.211 112.256C170.31 112.275 170.407 112.301 170.503 112.333C170.62 112.372 170.741 112.397 170.864 112.409C172.136 112.589 173.425 112.612 174.702 112.479C175.369 112.469 176.035 112.401 176.69 112.277C176.871 112.215 177.532 112.298 177.678 112.215Z" fill="#21467E"/>
<path d="M111.551 103.176C111.564 103.384 111.521 103.591 111.426 103.777C111.332 103.963 111.191 104.12 111.016 104.233C110.905 104.323 110.578 104.282 110.543 104.15C110.467 103.9 110.411 103.644 110.376 103.385C110.417 102.234 110.529 101.087 110.71 99.9502C110.829 99.1476 111.008 98.3551 111.245 97.5793C111.701 95.9878 112.283 94.4349 112.983 92.935C113.141 92.5996 113.32 92.2745 113.519 91.9616C114.214 90.8909 114.909 89.8202 115.681 88.8051C115.819 88.6393 115.947 88.4652 116.063 88.2837C116.499 87.7153 117.006 87.2058 117.572 86.768C118.146 86.2728 118.782 85.8544 119.463 85.5235C120.534 85.0497 121.681 84.7719 122.849 84.703C123.013 84.6752 123.18 84.6752 123.343 84.703C123.685 84.7831 124.035 84.8228 124.386 84.8212C124.856 84.855 125.322 84.9365 125.776 85.0646C126 85.1456 126.216 85.2456 126.423 85.3636C126.611 85.4609 126.423 85.6416 126.374 85.6486C126.159 85.6486 126.298 85.7946 126.298 85.885C126.305 85.9124 126.305 85.9411 126.298 85.9684C126.159 85.9854 126.019 85.9854 125.881 85.9684C125.577 85.9506 125.273 85.9506 124.97 85.9684C124.658 85.9722 124.347 85.9954 124.038 86.038C123.774 86.038 123.579 86.0936 123.51 86.1005L122.926 86.17C122.512 86.2401 122.105 86.3447 121.709 86.4829C121.046 86.7009 120.418 87.0148 119.846 87.4146C119.679 87.5397 119.477 87.6092 119.303 87.7274C118.901 88.0323 118.524 88.3694 118.177 88.7356C117.822 89.1089 117.488 89.5012 117.176 89.9106C116.787 90.3625 116.481 90.877 116.05 91.3011C115.968 91.3921 115.898 91.4925 115.841 91.6001C115.313 92.497 114.791 93.4147 114.332 94.3811C114.103 94.8678 113.915 95.3823 113.72 95.8898C113.686 95.9802 113.637 96.0637 113.595 96.154C113.54 96.2644 113.491 96.3782 113.449 96.4947C113.001 97.7077 112.648 98.9536 112.392 100.221C112.33 100.513 111.913 101.883 111.885 102.231C111.85 102.432 111.53 103.023 111.551 103.176Z" fill="#21467E"/>
<path d="M111.885 88.9998C112.08 88.7356 112.413 88.7147 112.782 88.8955C112.848 88.9469 112.901 89.0123 112.938 89.0868C112.975 89.1614 112.996 89.2432 112.997 89.3266C112.922 89.4817 112.839 89.6325 112.747 89.7785C112.747 89.8202 112.42 90.0983 112.108 90.4737C111.795 90.8492 111.489 91.2385 111.329 91.4402C111.051 91.8712 110.738 92.2536 110.46 92.6777C110.182 93.1018 109.917 93.5607 109.639 93.9987C109.361 94.4367 109.167 94.9165 108.944 95.3893C108.861 95.6056 108.761 95.8148 108.645 96.015C108.449 96.3672 108.292 96.7403 108.179 97.1274C108.039 97.5043 107.932 97.8928 107.859 98.2885C107.822 98.4194 107.807 98.5559 107.818 98.6918C107.818 98.81 107.693 99.387 107.623 99.9989C107.554 100.611 107.442 101.216 107.408 101.389C107.241 102.085 107.15 102.78 107.018 103.475C107.018 103.579 107.018 103.691 106.963 103.781C106.861 103.985 106.817 104.214 106.837 104.442C106.837 104.754 106.803 105.06 106.761 105.373C106.727 105.532 106.673 105.686 106.601 105.832C106.545 105.978 106.337 105.909 106.316 105.832C106.295 105.756 106.156 105.832 106.066 105.832C106.036 105.839 106.005 105.839 105.975 105.832C105.793 105.161 105.656 104.478 105.565 103.788C105.556 103.635 105.556 103.482 105.565 103.329C105.565 103.065 105.565 102.71 105.565 102.349C105.565 101.987 105.565 101.654 105.565 101.32C105.565 100.986 105.607 100.791 105.614 100.715C105.631 100.552 105.666 100.391 105.718 100.235C105.718 100.2 105.767 99.6373 105.843 99.0742L106.045 97.8992C106.115 97.446 106.263 97.0084 106.483 96.606C106.525 96.5244 106.558 96.438 106.58 96.3487L106.747 95.7856L106.977 95.2363C107.136 94.8817 107.282 94.541 107.47 94.1656C107.658 93.7901 107.825 93.4703 108.006 93.081C108.046 93.0202 108.09 92.9621 108.138 92.9072C108.193 92.8307 108.256 92.7612 108.304 92.6847C108.535 92.266 108.797 91.8662 109.09 91.4888C109.361 91.0925 109.681 90.731 109.966 90.3416C110.098 90.1539 110.953 89.5004 111.141 89.3266C111.329 89.1527 111.809 89.111 111.885 88.9998Z" fill="#21467E"/>
<path d="M100.295 104.908C100.455 102.502 101.644 100.451 103.271 99.6027C103.764 99.3107 104.008 99.7695 103.653 100.242C102.975 101.205 102.521 102.307 102.325 103.468C102.156 104.223 102.047 104.991 101.998 105.763C101.919 107.367 102.008 108.974 102.262 110.56C102.408 111.464 102.589 112.382 102.805 113.306C103.02 114.231 103.215 115.204 103.396 116.087C103.75 117.874 104.001 119.466 104.174 120.537C104.796 124.695 105.144 128.89 105.217 133.094C105.336 141.616 104.817 150.136 103.667 158.582C103.43 160.459 103.138 162.322 102.819 164.144C101.688 170.499 100.557 176.844 99.4257 183.18C99.238 184.237 99.0155 185.315 98.8973 186.351C98.8069 187.206 97.8962 191.913 96.9506 196.682C96.005 201.452 95.1151 206.256 94.9274 207.362C93.8379 212.824 93.1063 218.351 92.7373 223.909C92.6608 224.694 92.7373 225.543 92.6122 226.266C92.4288 227.961 92.3986 229.669 92.5218 231.369C92.5635 232.565 92.6886 233.747 92.7651 234.936C92.8416 236.125 93.0502 237.3 93.1753 238.482L93.6342 241.958C93.7732 243.015 93.3561 242.528 93.2448 242.166C92.925 241.131 92.9667 242.02 92.8624 242.166C92.7582 242.312 92.779 242.264 92.7373 242.222C92.6956 242.18 92.6608 241.986 92.5565 241.603C92.4522 241.221 92.3062 240.679 92.1394 240.025C91.938 239.276 91.7755 238.517 91.6527 237.752C91.5067 236.91 91.2911 236.013 91.1799 235.096C91.0687 234.178 90.9435 233.239 90.8323 232.349C90.721 231.459 90.6932 230.597 90.6306 229.833C90.5055 228.303 90.4986 227.135 90.5055 226.752V225.744C90.5055 225.146 90.5055 224.305 90.5611 223.304C90.6237 221.295 90.7975 218.639 91.0687 215.934C91.6179 210.525 92.5565 204.942 92.7512 203.809C92.9459 202.675 93.2101 201.431 93.4465 200.256C93.5021 199.971 94.2738 195.855 95.0525 191.732C95.8312 187.609 96.5682 183.5 96.6238 183.173C97.2565 179.892 97.778 176.575 98.5288 173.335C98.6748 172.696 98.7861 172.028 98.8904 171.368C99.822 165.701 100.747 160.042 101.428 154.362C101.769 151.462 102.019 148.542 102.207 145.629C102.248 145.108 102.297 144.579 102.339 144.058C102.388 143.397 102.45 142.737 102.485 142.076C102.842 135.182 102.588 128.27 101.727 121.42C101.623 120.634 101.366 118.361 100.997 116.073C100.809 114.912 100.601 113.807 100.413 112.771C100.225 111.735 100.135 110.915 100.072 110.442C99.9794 109.506 99.9632 108.564 100.024 107.626C100.086 106.5 100.267 105.387 100.295 104.908Z" fill="#21467E"/>
<path d="M126.235 249.724C126.009 250.821 125.593 251.871 125.004 252.825C124.738 253.256 124.426 253.657 124.073 254.021C123.73 254.356 123.341 254.642 122.919 254.869C122.397 255.14 122.189 254.66 122.55 254.215C123.239 253.219 123.743 252.108 124.038 250.934C124.297 250.169 124.515 249.392 124.692 248.605C125.06 246.988 125.334 245.351 125.512 243.703C125.864 240.335 126.045 236.952 126.054 233.566C126.091 229.394 126.05 225.223 125.929 221.051C125.686 212.555 125.109 204.052 124.413 195.556C124.26 193.672 124.128 191.774 124.003 189.889C123.586 183.417 122.96 176.951 122.244 170.485C122.126 169.407 122.022 168.302 121.841 167.273C121.549 165.576 119.63 148.028 119.463 145.719C119.248 142.883 119.018 140.046 118.837 137.195C118.754 135.763 118.671 134.338 118.664 132.864C118.664 132.502 118.664 132.12 118.664 131.738C118.664 131.522 118.664 131.341 118.719 131.105L118.789 130.736C118.81 130.634 118.841 130.534 118.879 130.437C118.99 130.064 119.122 129.697 119.275 129.339C119.414 128.984 119.567 128.644 119.72 128.324C120.033 127.577 120.388 126.848 120.784 126.141C121.639 124.658 122.318 123.081 122.807 121.441C123.573 119.244 123.811 116.898 123.503 114.592C123.447 114.314 123.398 114.036 123.35 113.758C123.293 113.485 123.218 113.215 123.127 112.952C123.037 112.68 122.974 112.402 122.87 112.138L122.501 111.366C122.056 110.428 122.585 110.734 122.814 111.047C123.447 111.95 123.127 111.109 123.183 110.949C123.238 110.789 123.225 110.824 123.28 110.852C123.417 111.033 123.545 111.221 123.663 111.415C123.964 111.91 124.22 112.431 124.427 112.972C125.03 114.65 125.267 116.438 125.123 118.215C124.975 120.049 124.597 121.857 123.996 123.596C123.496 125.091 123.037 126.182 122.884 126.537C122.884 126.62 122.279 127.886 121.493 129.673C121.309 130.128 121.149 130.592 121.014 131.063L120.958 131.237V131.362C120.958 131.425 120.958 131.578 120.958 131.696C120.958 131.939 120.958 132.252 120.958 132.537C120.993 133.74 121.09 135.068 121.208 136.41C121.688 141.798 122.39 147.458 122.522 148.605C122.654 149.752 122.752 151.024 122.856 152.234C122.926 152.804 124.824 169.045 124.9 169.699C125.234 173.071 125.658 176.443 125.804 179.815C125.804 180.51 125.908 181.171 125.978 181.838C126.576 187.644 127.014 193.456 127.41 199.276L128.029 208.196C128.029 208.731 128.064 209.266 128.077 209.809C128.077 210.504 128.112 211.165 128.154 211.839C128.534 218.889 128.675 225.96 128.578 233.051C128.578 233.865 128.446 236.222 128.23 238.614C128.015 241.005 127.688 243.411 127.535 244.356C127.388 245.278 127.188 246.19 126.937 247.089C126.784 247.638 126.631 248.173 126.499 248.632C126.367 249.091 126.284 249.487 126.235 249.724Z" fill="#21467E"/>
<path d="M168.952 136.903C168.017 135.553 167.371 134.024 167.054 132.412C166.964 131.946 167.43 131.759 167.749 132.183C168.403 133.017 169.057 133.865 169.675 134.748C169.773 134.887 170.183 135.541 170.76 136.521C171.045 137.008 171.379 137.578 171.719 138.218C171.886 138.544 172.06 138.878 172.227 139.24C172.327 139.452 172.413 139.67 172.484 139.893C172.547 140.102 172.616 140.317 172.665 140.519C173.068 142.125 173.318 143.745 173.569 145.219C173.819 146.693 173.993 148 174.132 148.862C174.639 152.248 175.036 155.641 175.425 159.034C176.204 165.931 177.015 172.818 177.859 179.697C178.046 181.22 178.213 182.756 178.366 184.286C178.888 189.528 179.59 194.763 180.452 199.971C180.591 200.833 180.716 201.723 180.925 202.55C181.092 203.246 181.738 207.104 182.454 211.012C183.17 214.919 183.963 218.875 184.137 219.779C184.936 224.284 185.981 228.743 187.265 233.135C187.446 233.761 187.71 234.4 187.822 234.991C188.129 236.351 188.596 237.669 189.212 238.92C189.943 240.67 190.916 242.308 192.105 243.786C192.649 244.487 193.333 245.067 194.114 245.49C194.844 245.796 194.392 245.983 194.065 245.921C193.62 245.851 193.571 245.837 193.613 245.921C193.655 246.004 193.843 246.143 193.87 246.22C193.898 246.296 193.87 246.338 193.87 246.352C193.674 246.331 193.483 246.274 193.307 246.185C193.105 246.103 192.908 246.01 192.716 245.907C192.508 245.775 192.271 245.636 192.021 245.462C190.885 244.565 189.914 243.478 189.15 242.25C187.902 240.284 186.848 238.203 186 236.034C186 235.958 185.569 234.922 185.055 233.35C184.54 231.779 183.893 229.686 183.302 227.531C182.127 223.227 181.147 218.68 180.939 217.756C180.73 216.831 180.57 215.802 180.41 214.822C180.375 214.592 179.68 211.206 179.061 207.806C178.443 204.407 177.865 200.986 177.831 200.722C177.434 197.996 176.955 195.264 176.76 192.525C176.718 191.982 176.635 191.426 176.551 190.884C175.856 186.191 175.349 181.484 174.827 176.777L173.972 169.567C173.923 169.136 173.902 168.705 173.861 168.267C173.812 167.718 173.777 167.168 173.715 166.626C173.02 160.939 172.512 155.238 171.733 149.578C171.566 148.292 170.996 141.986 170.558 140.679L170.475 140.352C170.441 140.21 170.397 140.07 170.343 139.935C170.218 139.587 170.058 139.177 169.891 138.774C169.62 138.13 169.306 137.505 168.952 136.903V136.903Z" fill="#21467E"/>
<path d="M191.027 110.574C191.075 108.578 191.027 107.007 190.971 105.366C190.971 104.845 191.423 104.671 191.722 105.283C192.291 106.429 192.651 107.667 192.786 108.94C192.847 109.763 192.821 110.59 192.709 111.408C192.493 113.016 192.113 114.598 191.576 116.129C191.013 117.825 190.345 119.55 189.824 121.086C189.393 122.328 189.042 123.596 188.774 124.882L188.572 126.196C188.572 126.384 188.572 126.558 188.572 126.753V127.364C188.657 128.251 188.799 129.131 188.997 129.999C189.393 131.793 189.907 133.601 190.47 135.409C192.786 142.737 195.713 149.96 198.584 157.177C199.231 158.776 199.857 160.389 200.461 162.002C202.547 167.565 204.786 173.036 207.039 178.529C207.414 179.44 207.783 180.385 208.207 181.247C208.554 181.943 210.237 186.045 211.864 190.223C213.491 194.402 215.062 198.691 215.389 199.679C217.023 204.608 218.636 209.565 219.957 214.62C220.17 215.33 220.342 216.052 220.471 216.782C220.666 218.361 221.076 219.911 221.382 221.51C221.839 223.74 222.042 226.014 221.987 228.289C221.946 229.449 221.657 230.587 221.139 231.626C220.589 232.544 220.589 231.849 220.701 231.55C220.867 231.077 220.784 231 220.701 231.07C220.617 231.139 220.485 231.306 220.395 231.313C220.304 231.32 220.276 231.313 220.263 231.279C220.274 231.231 220.291 231.184 220.311 231.139C220.311 231.056 220.36 230.924 220.402 230.764C220.456 230.575 220.493 230.382 220.513 230.187C220.558 229.927 220.586 229.665 220.596 229.401C220.653 227.936 220.548 226.47 220.283 225.028C219.741 221.774 218.705 218.416 218.545 217.749C218.545 217.672 218.212 216.497 217.697 214.759C217.183 213.021 216.446 210.727 215.646 208.39C214.047 203.718 212.17 198.893 211.801 197.913C211.433 196.932 211.043 195.827 210.682 194.784C210.598 194.541 209.187 190.96 207.727 187.387C206.267 183.813 204.779 180.239 204.668 179.968C203.534 177.097 202.29 174.267 201.303 171.354C201.108 170.777 200.858 170.2 200.607 169.629C198.57 164.728 196.631 159.785 194.712 154.827L191.75 147.228C191.576 146.776 191.43 146.303 191.27 145.838C191.068 145.254 190.881 144.67 190.665 144.085C189.546 141.061 188.496 138.009 187.578 134.887C187.126 133.323 186.702 131.752 186.375 130.111C186.206 129.277 186.086 128.434 186.014 127.587C185.978 127.124 185.978 126.659 186.014 126.196V125.835L186.063 125.515L186.167 124.882C186.293 124.198 186.46 123.523 186.667 122.859C186.945 121.962 187.314 120.919 187.724 119.897C188.552 117.86 189.386 115.872 189.622 115.079C189.768 114.634 190.158 113.723 190.464 112.806C190.731 112.084 190.92 111.336 191.027 110.574V110.574Z" fill="#21467E"/>
<path d="M128.696 146.283C133.855 151.149 141.726 157.845 151.967 155.251C154.685 162.169 134.154 169.178 128.696 146.283Z" fill="#21467E"/>
<path d="M130.24 148.535C129.51 148.036 128.976 147.299 128.731 146.449C128.717 146.387 128.721 146.322 128.742 146.261C128.763 146.201 128.801 146.148 128.851 146.108C128.901 146.068 128.961 146.043 129.025 146.036C129.089 146.028 129.153 146.039 129.211 146.067C129.684 146.359 130.149 146.658 130.601 146.964C130.74 147.061 131.825 147.979 133.097 148.918C134.221 149.765 135.396 150.543 136.615 151.247C138.072 152.108 139.601 152.843 141.183 153.444C142.764 154.048 144.425 154.418 146.113 154.542C146.533 154.578 146.956 154.59 147.378 154.577C147.798 154.592 148.219 154.576 148.637 154.528L149.888 154.41L150.514 154.278C150.945 154.202 151.39 154.09 151.807 154.035L152.349 153.986H152.62H152.752C152.794 153.986 152.857 153.986 152.857 154.028L153.163 155.126C153.246 155.502 153.288 155.877 153.35 156.246C153.389 156.431 153.389 156.623 153.35 156.809C153.35 157.017 153.316 157.094 153.295 157.247C153.116 158.104 152.737 158.907 152.189 159.59C151.681 160.208 151.081 160.745 150.409 161.182C149.146 162.017 147.727 162.587 146.238 162.858L145.494 162.983C145.26 163.007 145.028 163.044 144.799 163.094C144.218 163.17 143.631 163.186 143.047 163.143C140.923 163.022 138.861 162.385 137.04 161.286L136.483 160.953L136.038 160.64L135.489 160.223C133.559 158.563 131.976 156.538 130.831 154.264C130.642 153.964 130.497 153.639 130.4 153.298C130.304 152.931 130.178 152.573 130.024 152.227C129.892 151.872 129.746 151.532 129.607 151.17C129.408 150.685 129.238 150.188 129.1 149.682C128.954 149.175 128.78 148.681 128.682 148.167C128.585 147.652 128.536 147.145 128.481 146.637C128.425 146.13 128.745 146.359 128.815 146.505C129.016 146.936 129.037 146.547 129.127 146.505C129.218 146.463 129.197 146.456 129.232 146.505C129.369 146.794 129.488 147.091 129.586 147.395L129.913 148.299L130.358 149.328C130.807 150.375 131.311 151.399 131.867 152.394C131.867 152.394 132.103 152.936 132.562 153.611C133.065 154.463 133.637 155.272 134.272 156.03C134.611 156.445 134.976 156.837 135.364 157.205C135.708 157.547 136.072 157.867 136.455 158.165C136.749 158.402 137.055 158.622 137.373 158.825C137.544 158.952 137.725 159.064 137.916 159.159C138.326 159.374 138.708 159.666 139.132 159.854C140.159 160.316 141.249 160.625 142.365 160.772C143.475 160.918 144.602 160.888 145.703 160.681C146.943 160.47 148.141 160.057 149.248 159.458C149.461 159.343 149.657 159.2 149.832 159.034C150.206 158.711 150.53 158.333 150.792 157.914C150.9 157.72 150.989 157.515 151.056 157.302C151.093 157.203 151.123 157.1 151.146 156.997C151.14 156.918 151.14 156.839 151.146 156.76C151.15 156.723 151.15 156.686 151.146 156.649V156.593C151.146 156.593 151.146 156.593 151.105 156.593H150.945H150.847C150.531 156.661 150.21 156.707 149.888 156.732C148.569 156.898 147.237 156.935 145.911 156.844C145.675 156.844 145.438 156.774 145.216 156.739C144.993 156.705 144.618 156.656 144.326 156.586C141.272 156.017 138.354 154.876 135.725 153.221C135.049 152.795 134.397 152.33 133.772 151.831C132.972 151.184 132.18 150.531 131.867 150.273C131.554 150.016 130.567 148.758 130.24 148.535Z" fill="#21467E"/>
<path d="M123.906 164.269C122.795 163.325 121.957 162.101 121.48 160.723C121.341 160.327 121.751 160.028 122.112 160.348C122.808 160.939 123.545 161.523 124.24 162.142C124.462 162.315 126.103 164.054 128.154 165.729C129.954 167.222 131.91 168.515 133.987 169.588C136.517 170.864 139.221 171.764 142.011 172.258L143.742 172.508C144.319 172.584 144.91 172.591 145.494 172.64L146.37 172.696H147.246L150.799 172.654L150.062 177.02L149.638 179.69L148.81 185.023C148.609 186.351 148.386 187.679 148.115 188.993C147.295 193.519 146.655 198.08 146.113 202.655C146.029 203.419 145.918 204.191 145.904 204.942C145.904 205.554 145.501 208.954 145.146 212.409C144.792 215.865 144.451 219.362 144.375 220.168C143.902 224.145 143.561 228.143 143.38 232.134C143.386 232.698 143.356 233.263 143.29 233.823C143.135 235.038 143.104 236.266 143.2 237.487C143.256 239.171 143.43 240.848 143.721 242.507C143.839 243.286 144.051 244.047 144.354 244.774C144.688 245.351 144.257 245.288 144.048 245.08C143.547 244.468 143.756 245.08 143.7 245.233C143.7 245.274 143.652 245.337 143.596 245.323C143.481 245.194 143.378 245.055 143.29 244.906C143.068 244.546 142.879 244.167 142.727 243.772C142.293 242.614 141.979 241.414 141.788 240.192C141.458 238.207 141.261 236.203 141.197 234.192C141.197 234.122 141.197 233.156 141.197 231.717C141.197 230.277 141.246 228.379 141.329 226.433C141.482 222.546 141.788 218.507 141.844 217.686C141.9 216.866 142.025 215.962 142.136 215.1C142.136 214.898 142.435 211.902 142.713 208.898C142.991 205.894 143.339 202.891 143.374 202.641C143.693 200.256 143.923 197.85 144.43 195.5C144.535 195.041 144.59 194.555 144.653 194.075C145.188 189.973 145.863 185.892 146.544 181.817L147.538 175.609C147.538 175.553 147.587 175.491 147.615 175.414L147.656 175.303C147.603 175.295 147.549 175.295 147.496 175.303H147.239C146.919 175.303 146.6 175.303 146.273 175.303L144.34 175.178C143.693 175.178 143.054 175.025 142.407 174.934C141.763 174.86 141.124 174.744 140.495 174.587C137.95 174.052 135.486 173.184 133.167 172.007C131.974 171.362 130.831 170.63 129.746 169.817C129.051 169.289 128.356 168.747 127.807 168.267L126.527 167.14C126.249 166.883 125.693 166.285 125.172 165.68C124.65 165.076 124.149 164.492 123.906 164.269Z" fill="#21467E"/>
<path d="M124.428 180.031C128.669 187.957 134.245 194.631 143.853 194.833C145.292 194.833 143.158 190.321 141.615 190.293C134.363 190.154 130.212 186.253 126.917 180.086C126.576 179.447 125.526 177.563 124.553 177.785C123.579 178.007 124.115 179.447 124.428 180.031V180.031Z" fill="#21467E"/>
<path d="M170.058 234.887C170.583 235.909 170.913 237.019 171.031 238.162C171.052 238.244 171.045 238.33 171.011 238.408C170.977 238.485 170.917 238.549 170.843 238.588C170.768 238.627 170.682 238.64 170.599 238.625C170.516 238.609 170.44 238.566 170.384 238.502L169.946 238.037L169.578 237.557C169.32 237.238 169.087 236.898 168.883 236.542C168.208 235.191 167.623 233.797 167.131 232.37C166.359 230.243 165.622 227.851 165.24 226.641C164.544 224.291 163.905 221.913 163.348 219.529C162.199 214.685 161.128 209.818 160.136 204.928C159.914 203.85 159.719 202.759 159.545 201.674C158.961 197.934 158.259 194.221 157.529 190.508C157.404 189.89 157.3 189.25 157.119 188.666C156.938 188.082 156.424 185.419 155.916 182.61C155.673 181.22 155.422 179.78 155.221 178.633C154.97 177.111 154.79 175.95 154.713 175.512L154.519 174.121C155.304 174.058 156.118 174.038 156.841 173.933L157.314 173.85C157.404 173.85 157.487 173.85 157.578 173.808L158.099 173.704C158.447 173.627 158.794 173.53 159.142 173.447L160.171 173.127C161.557 172.657 162.891 172.049 164.155 171.312C164.524 171.056 164.91 170.824 165.309 170.617C165.746 170.402 166.162 170.148 166.554 169.859C166.929 169.546 167.291 169.212 167.666 168.886C168.18 168.434 168.632 167.919 169.133 167.439C169.634 166.96 170.037 166.404 170.524 165.896C171.01 165.388 171.413 164.867 171.914 164.366C172.415 163.866 172.408 164.366 172.31 164.54C172.025 165.117 172.442 164.777 172.582 164.791C172.721 164.804 172.693 164.791 172.707 164.853C172.655 164.97 172.597 165.083 172.533 165.194L172.046 166.042C171.949 166.216 171.838 166.404 171.719 166.598L171.302 167.203C171.003 167.613 170.704 168.079 170.357 168.51C169.322 169.842 168.142 171.055 166.839 172.126C166.469 172.429 166.081 172.71 165.678 172.967C165.285 173.251 164.876 173.514 164.454 173.753C163.96 174.061 163.449 174.342 162.924 174.594C161.808 175.157 160.645 175.622 159.448 175.984C159.156 176.075 158.871 176.165 158.593 176.228C158.454 176.262 158.322 176.304 158.183 176.332L157.988 176.381H157.87L157.731 176.429C157.884 177.187 157.946 177.479 157.967 177.597C158.106 178.293 158.183 178.988 158.273 179.683C158.308 180.017 160.178 189.313 160.254 189.681C160.588 191.621 161.04 193.54 161.228 195.493C161.275 195.881 161.342 196.267 161.429 196.648C162.125 199.957 162.702 203.28 163.341 206.597C163.675 208.286 164.037 209.969 164.426 211.651C164.489 211.957 164.53 212.263 164.586 212.569C164.642 212.875 164.711 213.341 164.802 213.723C165.712 217.7 166.547 221.698 167.68 225.605C167.819 226.05 168.104 227.371 168.445 228.692C168.785 230.013 169.14 231.341 169.328 231.849C169.477 232.354 169.6 232.867 169.696 233.385C169.775 233.895 169.896 234.397 170.058 234.887V234.887Z" fill="#21467E"/>
<path d="M161.513 189.528H161.798C161.955 189.506 162.11 189.476 162.264 189.438C162.438 189.396 162.639 189.361 162.848 189.305L163.481 189.055C163.701 188.989 163.912 188.893 164.106 188.77L164.656 188.485C164.975 188.29 165.205 188.117 165.281 188.068C165.747 187.804 166.193 187.506 166.616 187.178L167.492 186.552C167.85 186.284 168.194 185.996 168.521 185.69C169.225 185.053 169.894 184.377 170.524 183.667C171.238 182.87 171.855 181.99 172.359 181.046C172.449 180.837 172.811 180.232 173.166 179.607C173.441 179.12 173.674 178.611 173.861 178.084C173.909 177.931 175.307 178.272 175.251 178.425C175.203 178.744 175.154 179.064 175.077 179.377C174.997 179.682 174.893 179.979 174.765 180.267C174.563 180.705 174.139 181.658 173.701 182.506C173.263 183.354 172.839 184.07 172.797 184.126L172.373 184.995L171.893 185.843C171.747 186.11 171.584 186.368 171.407 186.615C170.941 187.31 170.405 188.005 169.87 188.701C169.362 189.35 168.804 189.959 168.201 190.522C167.731 190.929 167.232 191.301 166.707 191.635C166.163 191.97 165.602 192.274 165.024 192.545L163.995 192.99C163.633 193.116 163.264 193.22 162.89 193.303C162.43 193.377 161.963 193.393 161.499 193.352C161.165 193.352 160.943 192.657 160.804 191.843C160.773 191.324 160.856 190.804 161.047 190.321C161.283 189.855 161.436 189.521 161.513 189.528Z" fill="#21467E"/>
<path d="M89.4071 241.061C89.2234 240.66 89.1308 240.223 89.1359 239.782C89.1671 239.365 89.2731 238.958 89.4488 238.579C89.5601 238.336 90.0537 238.287 90.1441 238.523C90.3874 238.982 90.589 239.441 90.8393 239.914C90.8393 239.983 90.9923 240.324 91.1661 240.818C91.3399 241.311 91.5972 241.944 91.917 242.605C92.4608 243.785 93.0905 244.923 93.8012 246.011C94.6772 247.339 95.588 248.653 96.5822 249.926C97.5852 251.222 98.6599 252.462 99.8013 253.638C100.948 254.813 102.144 255.995 103.361 257.031C103.903 257.497 104.439 257.942 104.974 258.366C105.43 258.729 105.916 259.053 106.427 259.333C106.687 259.472 106.944 259.597 107.199 259.708L107.595 259.868L107.922 259.958C108.99 260.128 110.083 260.022 111.099 259.652C111.483 259.549 111.854 259.402 112.205 259.214C112.483 259.068 114.158 258.352 115.841 257.462C117.524 256.572 119.241 255.634 119.651 255.439C121.674 254.473 123.684 253.423 125.79 252.505C126.079 252.347 126.388 252.228 126.708 252.15C127.407 251.996 128.089 251.775 128.745 251.49C129.708 251.131 130.717 250.913 131.742 250.843C132.003 250.831 132.264 250.85 132.52 250.899L132.91 250.982L133.285 251.115C133.73 251.268 133.403 251.525 133.285 251.539C132.847 251.539 133.174 251.768 133.181 251.9C133.198 251.943 133.198 251.99 133.181 252.032C133.181 252.032 132.861 252.032 132.388 252.102C131.793 252.206 131.21 252.374 130.65 252.602C129.679 253.013 128.732 253.477 127.813 253.993C127.779 253.993 127.313 254.229 126.625 254.591C125.936 254.952 125.039 255.453 124.115 255.981L119.943 258.464C119.521 258.703 119.087 258.922 118.643 259.117C118.539 259.166 117.072 260.014 115.521 260.793C114.424 261.352 113.288 261.83 112.121 262.225C111.399 262.448 110.66 262.611 109.91 262.712C109.088 262.825 108.251 262.758 107.456 262.517C107.129 262.399 106.761 262.315 106.511 262.211C104.216 261.268 102.149 259.846 100.448 258.039C99.5857 257.198 98.7167 256.378 97.8893 255.509C97.7364 255.349 97.6112 255.175 97.4721 255.008C97.3331 254.841 97.1245 254.584 96.9438 254.375C95.0258 252.244 93.306 249.943 91.8058 247.499C91.4349 246.839 91.1007 246.159 90.8046 245.462C90.4291 244.558 90.1093 243.634 89.9355 243.279C89.7617 242.924 89.567 241.409 89.4071 241.061Z" fill="#21467E"/>
<path d="M84.8947 251.003C84.6663 250.65 84.5279 250.246 84.4916 249.826C84.4552 249.407 84.522 248.985 84.6862 248.598C84.7835 248.333 85.3327 248.16 85.4996 248.361C85.8403 248.751 86.1949 249.147 86.4591 249.557C86.5425 249.689 87.0918 250.836 87.8496 252.06L88.385 253.006L88.9551 253.889C89.3305 254.445 89.6503 254.945 89.8798 255.279C90.3526 255.891 90.8045 256.51 91.2703 257.142C91.7361 257.775 92.2228 258.338 92.6608 258.943C94.6165 261.309 96.9837 263.302 99.6482 264.825C100.218 265.194 100.837 265.465 101.414 265.819C103.476 266.931 105.742 267.615 108.075 267.829C108.463 267.867 108.854 267.867 109.243 267.829C109.556 267.829 111.329 267.829 113.053 267.69C114.777 267.551 116.571 267.161 116.981 267.113C119.026 266.8 121.021 266.225 122.919 265.402C123.174 265.251 123.45 265.141 123.739 265.075C124.366 264.928 124.954 264.649 125.463 264.255C126.205 263.781 126.915 263.261 127.591 262.698C127.759 262.557 127.935 262.427 128.119 262.308L128.641 261.919C128.679 261.872 128.733 261.84 128.792 261.83C128.852 261.819 128.913 261.831 128.965 261.862C129.017 261.894 129.055 261.943 129.074 262.001C129.092 262.058 129.089 262.121 129.065 262.176C128.905 262.572 129.246 262.406 129.392 262.454C129.538 262.503 129.51 262.503 129.524 262.538C129.499 262.626 129.462 262.711 129.412 262.788C129.305 262.988 129.184 263.181 129.051 263.365C128.656 263.93 128.214 264.46 127.73 264.95C126.935 265.765 126.054 266.49 125.102 267.113C125.102 267.113 124.601 267.405 123.892 267.808C123.183 268.211 122.203 268.642 121.187 269.052C119.651 269.657 118.074 270.149 116.467 270.526C115.981 270.612 115.492 270.67 115 270.7C114.888 270.7 113.206 270.985 111.482 271.075C110.288 271.125 109.092 271.104 107.901 271.013C107.206 270.923 106.51 270.818 105.815 270.707C105.137 270.567 104.473 270.362 103.834 270.095C103.582 269.985 103.322 269.897 103.055 269.831C100.785 269.142 98.6359 268.103 96.6864 266.751C96.1997 266.396 95.7061 266.056 95.2124 265.715C94.7188 265.374 94.2738 264.971 93.8219 264.589C93.6554 264.45 93.5018 264.296 93.363 264.13C93.1753 263.928 93.0015 263.72 92.8068 263.539C90.7992 261.571 89.0196 259.384 87.502 257.017C87.1196 256.489 85.8403 253.708 85.5344 253.047C85.3188 252.658 85.0686 251.316 84.8947 251.003Z" fill="#21467E"/>
<path d="M186.689 249.182C186.111 249.605 185.428 249.862 184.714 249.926C184.457 249.967 184.088 249.647 184.22 249.39C184.477 248.89 184.818 248.439 185.229 248.055C185.507 247.837 185.805 247.644 186.118 247.478C186.734 247.147 187.381 246.879 188.051 246.679C189.356 246.307 190.696 246.074 192.049 245.983C193.674 245.88 195.306 245.95 196.916 246.192C198.536 246.409 200.14 246.728 201.72 247.144C203.361 247.576 204.835 248.187 206.26 248.625C206.893 248.82 207.512 249.029 208.103 249.182C209.035 249.513 210.048 249.545 210.999 249.272C211.951 248.999 212.793 248.435 213.408 247.659C213.655 247.404 213.864 247.113 214.026 246.797C214.089 246.665 214.346 246.275 214.673 245.705C215 245.135 215.368 244.391 215.751 243.619C216.446 242.041 217.19 240.324 217.398 239.948C218.333 237.932 219.55 236.059 221.014 234.386C221.221 234.133 221.467 233.914 221.744 233.74C222.383 233.406 222.926 232.961 223.545 232.606C224.406 232.127 225.349 231.811 226.326 231.675C226.789 231.628 227.256 231.642 227.716 231.717C228.126 231.765 227.925 232.092 227.793 232.141C227.396 232.273 227.737 232.384 227.793 232.509C227.806 232.552 227.806 232.598 227.793 232.641C227.793 232.641 227.466 232.725 227.021 232.871C226.474 233.024 225.944 233.237 225.443 233.503C224.646 233.936 223.923 234.492 223.301 235.151C223.034 235.407 222.786 235.681 222.557 235.972C222.042 236.622 221.59 237.32 221.208 238.057C220.556 239.368 219.974 240.711 219.463 242.083C219.293 242.502 219.098 242.91 218.879 243.307C218.824 243.397 218.26 244.878 217.489 246.359C217.132 247.055 216.732 247.728 216.293 248.375C215.653 249.324 214.85 250.152 213.922 250.822C213.603 251.037 213.268 251.227 212.921 251.393C212.564 251.547 212.191 251.661 211.808 251.733C211.509 251.782 211.217 251.886 210.912 251.928C209.682 252.131 208.424 252.072 207.22 251.754C206.131 251.476 205.06 251.13 204.015 250.718C203.495 250.523 202.981 250.343 202.471 250.176C201.977 250.009 201.484 249.87 200.976 249.731C200.795 249.682 200.622 249.606 200.434 249.55C200.206 249.469 199.974 249.399 199.739 249.341C197.305 248.744 194.805 248.456 192.299 248.486C192.021 248.486 191.201 248.486 190.38 248.486C189.733 248.503 189.089 248.594 188.461 248.757C187.854 248.815 187.257 248.957 186.689 249.182V249.182Z" fill="#21467E"/>
<path d="M191.562 256.461C191.217 256.318 190.92 256.077 190.707 255.769C190.495 255.46 190.377 255.097 190.366 254.723C190.366 254.473 190.714 254.028 190.93 254.09C191.352 254.193 191.768 254.323 192.174 254.48C192.306 254.48 193.217 255.064 194.302 255.564C194.83 255.842 195.428 256.058 195.942 256.259L197.25 256.739C198.487 257.115 199.69 257.539 200.934 257.824C202.188 258.137 203.468 258.33 204.758 258.401C205.398 258.463 206.038 258.401 206.677 258.401C207.317 258.401 207.957 258.331 208.582 258.227C209.208 258.123 209.709 258.074 210.272 257.998C212.205 257.735 214.048 257.021 215.653 255.912C215.94 255.748 216.202 255.545 216.432 255.307C216.592 255.084 217.753 254.195 218.851 253.159C219.95 252.123 220.993 250.955 221.257 250.704C222.557 249.474 223.76 248.097 224.991 246.714C225.142 246.496 225.328 246.303 225.54 246.143C226.022 245.813 226.443 245.401 226.784 244.927C227.312 244.287 227.901 243.7 228.543 243.175C228.713 243.042 228.894 242.926 229.086 242.827C229.294 242.737 229.51 242.66 229.711 242.584C230.08 242.445 230.08 242.883 230.01 242.98C229.788 243.286 230.115 243.258 230.219 243.369C230.257 243.403 230.286 243.446 230.302 243.494C230.178 243.675 230.039 243.845 229.885 244.002L229.461 244.558C229.308 244.767 229.155 245.017 228.995 245.253C228.37 246.227 227.737 247.339 227.605 247.513C227.563 247.562 226.562 248.904 225.519 250.385C224.476 251.865 223.225 253.312 222.967 253.617C222.7 253.931 222.399 254.216 222.07 254.466C221.994 254.528 221.035 255.599 219.985 256.552C219.449 257.045 218.858 257.504 218.42 257.866C217.982 258.227 217.621 258.436 217.579 258.47C217.08 258.806 216.563 259.112 216.029 259.388C215.504 259.688 214.937 259.906 214.346 260.035C214.107 260.094 213.875 260.176 213.651 260.278C211.741 261.008 209.722 261.412 207.679 261.474C207.157 261.474 206.643 261.537 206.128 261.53C205.611 261.546 205.093 261.534 204.578 261.495C204.39 261.495 204.209 261.432 204.028 261.411L203.333 261.293C200.935 260.969 198.584 260.357 196.332 259.472C195.757 259.211 195.198 258.919 194.656 258.596C193.961 258.178 193.266 257.747 192.995 257.594C192.74 257.417 192.507 257.212 192.299 256.983C192.082 256.772 191.833 256.596 191.562 256.461V256.461Z" fill="#21467E"/>
<path d="M169.522 83.7784C169.821 83.6045 170.12 83.7784 170.426 84.1538C170.478 84.2433 170.511 84.3426 170.523 84.4455C170.535 84.5484 170.526 84.6527 170.496 84.7517C170.346 84.8913 170.185 85.0192 170.016 85.1341C169.912 85.1967 168.222 85.6973 167.659 85.885C167.11 86.0638 166.551 86.2055 165.983 86.3091C164.836 86.5455 163.703 86.8097 162.57 87.0809C162.315 87.1361 162.057 87.1779 161.798 87.206C160.915 87.2985 160.046 87.4873 159.204 87.7692C159.058 87.7954 158.918 87.8523 158.794 87.936C158.586 88.089 156.312 88.7843 156.013 88.8607C155.269 89.0008 154.536 89.1889 153.816 89.4239C153.712 89.4587 153.628 89.5351 153.503 89.5073C153.268 89.4801 153.031 89.5449 152.843 89.6881C152.565 89.8272 152.294 89.9732 152.036 90.1192C151.891 90.1795 151.743 90.2306 151.591 90.2721C151.452 90.3208 151.292 90.1122 151.313 90.0496C151.334 89.9871 151.181 89.8967 151.084 89.8411C151.051 89.8219 151.02 89.7985 150.993 89.7715C151.04 89.6491 151.101 89.5325 151.174 89.4239C151.327 89.2071 151.497 89.0025 151.682 88.8121C151.971 88.4956 152.298 88.2154 152.655 87.9777C152.655 87.9777 152.843 87.8665 153.1 87.7344C153.357 87.6023 153.705 87.4215 154.066 87.2547C154.762 86.921 155.527 86.622 155.679 86.5594C155.84 86.4956 156.008 86.4558 156.18 86.4412C156.257 86.4412 158.419 85.5999 158.516 85.593C158.963 85.4336 159.432 85.3422 159.907 85.3218C160.002 85.3232 160.096 85.3067 160.185 85.2732C160.97 85.0628 161.766 84.8934 162.57 84.7656C162.98 84.6892 163.376 84.5779 163.779 84.4875C163.856 84.4875 163.932 84.4875 164.009 84.4875C164.101 84.4944 164.194 84.4944 164.287 84.4875C165.246 84.2581 166.22 84.1468 167.165 83.8896C167.381 83.827 168.472 83.8131 168.723 83.7436C168.889 83.6532 169.404 83.8479 169.522 83.7784Z" fill="#21467E"/>
<path d="M148.421 92.1772C148.399 92.1876 148.376 92.1931 148.352 92.1931C148.327 92.1931 148.304 92.1876 148.282 92.1772C148.243 92.1583 148.209 92.1295 148.185 92.0937C148.077 91.9551 147.955 91.8271 147.823 91.7113C147.705 91.607 147.503 91.2525 147.608 91.1482C147.708 91.0391 147.825 90.9475 147.955 90.877C148.091 90.8106 148.233 90.7593 148.379 90.7241C148.556 90.7214 148.733 90.7354 148.908 90.7658C149.211 90.8377 149.505 90.945 149.784 91.0856C150.284 91.3517 150.751 91.6761 151.174 92.052C151.655 92.4856 152.068 92.9896 152.398 93.5468C153.075 94.6274 153.597 95.7976 153.948 97.0232C154.022 97.3011 154.071 97.5849 154.094 97.8714C154.182 98.8631 154.202 99.8596 154.157 100.854C154.133 101.025 154.133 101.198 154.157 101.369C154.139 101.942 154.009 102.507 153.775 103.03C153.549 103.594 153.237 104.12 152.85 104.588C152.202 105.226 151.452 105.752 150.632 106.145C150.526 106.214 150.404 106.255 150.277 106.263C150.011 106.276 149.751 106.345 149.513 106.465C149.183 106.599 148.837 106.69 148.484 106.736C148.302 106.744 148.119 106.727 147.941 106.687C147.774 106.687 147.788 106.395 147.83 106.354C147.872 106.312 147.83 106.145 147.768 106.048C147.751 106.015 147.739 105.98 147.733 105.943C147.991 105.74 148.263 105.554 148.546 105.387L149.089 104.991C149.241 104.88 149.346 104.775 149.387 104.754L149.735 104.539C149.979 104.371 150.211 104.188 150.43 103.99C150.767 103.679 151.047 103.312 151.258 102.905C151.333 102.794 151.414 102.687 151.501 102.585C151.55 102.49 151.594 102.393 151.633 102.293C151.689 102.119 151.758 101.897 151.814 101.661C151.911 101.195 151.925 100.708 151.939 100.673C151.939 100.486 151.939 100.291 151.974 100.096C151.97 99.8932 152 99.691 152.064 99.4983C152.082 99.4158 152.082 99.3305 152.064 99.248C151.988 98.5449 151.862 97.8479 151.689 97.1622C151.585 96.8069 151.452 96.4605 151.293 96.1263C151.269 96.061 151.253 95.9934 151.244 95.9246C151.223 95.8412 151.195 95.7597 151.16 95.6813C150.806 94.8819 150.322 94.1466 149.728 93.5051C149.603 93.3591 149.068 92.6221 148.88 92.5735C148.692 92.5248 148.518 92.1354 148.421 92.1772Z" fill="#21467E"/>
<path d="M93.4258 98.4136C94.8801 100.816 96.1492 103.327 97.2219 105.922C97.5139 106.666 96.9786 106.91 96.3667 106.18C95.7549 105.45 95.1639 104.789 94.6077 103.997L93.7595 102.863L92.9599 101.681C90.9935 98.5505 89.3799 95.2114 88.1487 91.7252C87.2177 89.0645 86.5494 86.319 86.1533 83.528C86.0699 82.8328 86.0004 82.214 85.9239 81.5883C85.8474 80.9625 85.8613 80.3646 85.8335 79.8014C85.8335 79.5164 85.8335 79.2452 85.8335 78.9741C85.8335 78.7029 85.8335 78.4526 85.8335 78.2093C85.8335 77.7156 85.8335 77.2637 85.8683 76.8674C86.0192 73.7491 86.6138 70.6682 87.6342 67.7177C88.1133 66.2506 88.6798 64.8135 89.3307 63.4141C89.6644 62.7188 89.9634 62.0235 90.3179 61.3283L91.486 59.3051C91.6876 58.9644 91.8753 58.6098 92.0839 58.283L92.7792 57.3096C93.245 56.6631 93.69 56.0026 94.1697 55.3768C95.1793 54.1457 96.2711 52.9843 97.4374 51.9005L98.3204 51.0801L98.7654 50.6768L99.2451 50.3223L101.178 48.8831C101.873 48.4381 102.568 48.0557 103.264 47.6385C103.611 47.4439 103.959 47.2214 104.314 47.0476L105.405 46.547L106.504 46.0533C106.863 45.8776 107.235 45.7289 107.616 45.6084L109.897 44.8575C110.654 44.6141 111.447 44.489 112.219 44.3013L113.387 44.044C113.783 43.9745 114.172 43.9397 114.569 43.8841C115.354 43.7868 116.147 43.6825 116.933 43.599L119.303 43.5156C119.7 43.5156 120.096 43.4809 120.492 43.5156L121.667 43.5712L124.031 43.6964C125.422 43.8911 126.812 44.0232 128.161 44.2943L130.198 44.7323C130.894 44.8783 131.589 45.0313 132.166 45.1912C133.198 45.4537 134.248 45.635 135.308 45.7335C136.27 45.813 137.238 45.7067 138.159 45.4206C139.168 45.0643 140.147 44.6271 141.086 44.1135L144.152 42.5005C148.213 40.4147 152.266 38.0369 156.764 36.3614C158.282 35.8169 159.828 35.3528 161.395 34.9708C161.708 34.8943 162.375 34.7762 163.328 34.6023C163.8 34.512 164.343 34.4702 164.948 34.3868C165.552 34.3034 166.206 34.2338 166.915 34.1991C170.243 33.9606 173.587 34.0444 176.899 34.4494C180.287 34.8508 183.619 35.6393 186.827 36.7994C187.523 37.0775 188.183 37.293 188.767 37.5781L190.366 38.3359C191.312 38.8087 191.972 39.2467 192.348 39.4553C192.808 39.7268 193.252 40.0263 193.676 40.3522C194.107 40.672 194.552 40.9709 194.969 41.3116L196.179 42.3823C196.38 42.5701 196.589 42.7369 196.777 42.9316L197.326 43.5365C198.836 45.1118 200.053 46.9435 200.92 48.9456C202.586 52.8772 203.25 57.1604 202.853 61.4117C202.797 62.6002 202.627 63.7805 202.346 64.9367C201.721 67.4111 200.905 69.8332 199.905 72.1813C198.445 75.4622 196.272 78.3764 193.544 80.7122C192.183 81.8209 190.655 82.7078 189.018 83.3403C187.551 83.9035 188.197 83.2152 188.656 82.9579C190.012 82.2001 188.795 82.5894 188.607 82.506C188.545 82.506 188.461 82.4434 188.51 82.3809C188.559 82.3183 188.816 82.2349 189.275 81.9359L190.102 81.4283C190.401 81.2059 190.749 80.9625 191.124 80.6983C192.914 79.2854 194.463 77.5926 195.713 75.6855C197.029 73.6814 198.063 71.5056 198.786 69.2195C199.213 67.894 199.554 66.5424 199.808 65.1731C200.109 63.6445 200.282 62.0932 200.323 60.5357C200.45 57.2284 199.882 53.9312 198.654 50.8576C197.985 49.2176 197.044 47.7017 195.873 46.3732L194.99 45.4415C194.844 45.2885 194.712 45.1286 194.552 44.9896L194.079 44.5933L193.161 43.8146C192.869 43.5573 192.522 43.3696 192.223 43.1193C190.549 41.969 188.75 41.0105 186.862 40.2618C186.084 39.9976 185.333 39.6569 184.54 39.4066C183.747 39.1563 182.976 38.8504 182.169 38.6557C181.975 38.614 180.48 38.2038 178.276 37.8631C175.618 37.4665 172.933 37.2782 170.245 37.3C167.565 37.3189 164.891 37.5795 162.257 38.0787C160.973 38.3355 159.709 38.684 158.475 39.1216C154.129 40.5886 150.034 43.0498 145.675 45.1078C144.82 45.5041 143.978 45.9699 143.13 46.4288C142.282 46.8876 141.281 47.43 140.245 47.8819C139.145 48.3808 137.971 48.6933 136.769 48.8066C135.607 48.8934 134.439 48.8327 133.292 48.6258C132.208 48.4589 131.137 48.1808 130.15 47.9723C126.266 47.0163 122.272 46.5907 118.274 46.7069C114.235 46.8322 110.261 47.7635 106.587 49.4462L105.586 49.8773C105.266 50.0372 104.953 50.218 104.64 50.3918C103.829 50.7934 103.05 51.2583 102.311 51.7823C98.4387 54.6234 95.2723 58.318 93.0573 62.5797C92.4872 63.6435 92.0213 64.7629 91.4999 65.8544C90.9784 66.946 90.6586 68.128 90.2345 69.2612C89.4962 71.539 89.0294 73.8961 88.844 76.2834C88.8023 76.5615 88.7814 76.9787 88.7606 77.4653C88.7397 77.952 88.691 78.5708 88.6841 79.2383C88.6771 79.9057 88.6841 80.6288 88.7188 81.4214C88.7536 82.214 88.8509 82.9927 88.9274 83.7992C89.0039 84.6057 89.1569 85.4122 89.289 86.1909C89.4211 86.9696 89.6227 87.6996 89.7687 88.3879C90.1511 89.7298 90.464 90.8422 90.7003 91.4401C90.8255 91.7808 90.9993 92.3231 91.194 92.9628C91.3886 93.6024 91.6737 94.3533 91.924 95.0486C92.3428 96.205 92.8447 97.3296 93.4258 98.4136V98.4136Z" fill="#21467E"/>
<path d="M158.662 80.0518C156.966 79.4399 155.276 78.849 153.566 78.3345C152.94 78.1537 152.308 78.0216 151.682 77.8547C151.056 77.6879 150.583 77.5627 150.034 77.4237C149.541 77.2939 149.035 77.2239 148.525 77.2151C147.495 77.2162 146.484 77.4871 145.591 78.0007C144.788 78.4802 144.118 79.1545 143.645 79.9614C143.478 80.2325 143.325 80.4967 143.172 80.7888C143.007 81.0996 142.826 81.4013 142.629 81.6926C142.235 82.2549 141.767 82.7623 141.239 83.2013C140.578 83.7436 139.848 81.637 140.676 80.5454C140.857 80.2951 141.003 80.0865 141.162 79.8501C141.322 79.6138 141.524 79.2522 141.726 78.9533L142.039 78.5152L142.407 78.0425C142.67 77.7387 142.954 77.453 143.255 77.1873C144.466 76.1335 145.986 75.4995 147.587 75.3796C148.517 75.3055 149.454 75.364 150.368 75.5534C151.209 75.7203 152.043 75.8941 152.857 76.1096C154.637 76.6033 156.382 77.1803 158.12 77.7713L161.304 78.8768C162.917 79.433 164.516 80.017 166.129 80.5037C167.381 80.8791 168.646 81.1225 169.905 81.4006C170.183 81.4632 170.461 81.4979 170.739 81.5744C171.761 81.8316 172.046 82.0472 172.13 82.6312C172.153 82.7647 172.169 82.8993 172.178 83.0345C172.178 83.4655 171.657 83.688 170.864 83.5976C168.461 83.2456 166.096 82.6683 163.8 81.8734C162.069 81.3102 160.324 80.6984 158.621 80.1283L158.662 80.0518Z" fill="#21467E"/>
<path d="M168.326 116.518C168.257 115.955 168.257 115.385 168.326 114.822C168.381 114.31 168.493 113.807 168.66 113.32C168.68 113.251 168.723 113.19 168.783 113.148C168.842 113.107 168.914 113.088 168.986 113.093C169.058 113.099 169.126 113.13 169.178 113.18C169.23 113.23 169.264 113.297 169.272 113.369C169.461 114.055 169.612 114.752 169.724 115.455C169.856 116.841 169.905 118.234 169.87 119.626C169.831 121.502 169.694 123.375 169.46 125.237C169.176 127.519 168.728 129.778 168.118 131.995C166.91 136.522 165.193 140.897 163.001 145.038C162.504 145.959 161.959 146.852 161.367 147.715C160.357 149.213 159.244 150.64 158.037 151.984C156.814 153.396 155.37 154.601 153.761 155.551C153.479 155.716 153.186 155.862 152.885 155.989L152.433 156.19L151.946 156.364C150.001 156.973 147.958 157.209 145.925 157.059C143.822 156.918 141.758 156.422 139.821 155.592C136.941 154.26 134.299 152.465 131.999 150.28C131.66 149.994 131.347 149.68 131.06 149.342C130.49 148.577 129.809 147.917 129.162 147.207C128.272 146.222 127.437 145.189 126.659 144.113C126.296 143.58 125.962 143.028 125.658 142.459C125.387 142.014 125.742 142.042 125.901 142.195C126.319 142.612 126.131 142.16 126.18 142.049C126.228 141.937 126.221 141.965 126.256 141.972C126.291 141.979 126.604 142.341 127.083 142.883C127.563 143.425 128.203 144.141 128.884 144.843C130.275 146.234 131.776 147.625 132.068 147.882C132.103 147.917 132.625 148.403 133.424 149.078C134.403 149.903 135.434 150.665 136.511 151.358C137.63 152.082 138.807 152.712 140.029 153.242C141.086 153.687 141.92 153.938 142.198 154.021C142.796 154.167 143.373 154.376 143.978 154.515C145.419 154.793 146.892 154.859 148.352 154.709L149.144 154.626L149.902 154.48C150.355 154.401 150.803 154.294 151.244 154.16L151.529 154.084L151.661 154.049H151.598H151.64H151.689L152.064 153.882C152.197 153.83 152.324 153.767 152.447 153.694C153.895 152.853 155.219 151.814 156.382 150.607C156.628 150.363 156.86 150.105 157.077 149.835C158.961 147.448 160.593 144.871 161.944 142.146C162.639 140.755 163.265 139.295 163.828 137.835L164.162 137.05C164.301 136.723 164.44 136.354 164.558 136.055C165.836 132.553 166.768 128.935 167.339 125.251C167.402 124.827 167.631 123.61 167.798 122.373C167.965 121.135 168.083 119.87 168.097 119.376C168.097 119.098 168.18 118.514 168.257 117.93C168.313 117.462 168.337 116.99 168.326 116.518Z" fill="#21467E"/>
<path d="M173.068 88.6383C173.528 88.1403 174.111 87.7712 174.758 87.5676C175.294 87.3992 175.86 87.3424 176.419 87.4007C177.36 87.5113 178.241 87.9179 178.936 88.5618C179.025 88.6688 179.088 88.7952 179.119 88.9309C179.151 89.0666 179.15 89.2077 179.117 89.343C179.083 89.4782 179.019 89.6038 178.929 89.7097C178.838 89.8155 178.724 89.8986 178.595 89.9523C177.691 90.0453 176.815 90.3247 176.023 90.7727C175.723 90.9071 175.467 91.1241 175.286 91.3985C175.15 91.668 175.079 91.9656 175.077 92.2675C175.072 92.7983 175.152 93.3264 175.314 93.8319C175.723 95.0978 176.365 96.2765 177.205 97.3082C177.838 98.1186 178.596 98.8227 179.451 99.394C179.949 99.73 180.495 99.9901 181.071 100.166C181.474 100.291 181.902 100.312 182.315 100.228C182.707 100.127 183.067 99.9256 183.358 99.6443C183.799 99.242 184.175 98.7727 184.47 98.2538C184.847 97.6302 185.161 96.9712 185.409 96.2862C185.535 95.9651 185.638 95.6351 185.715 95.2989L185.84 94.8191L185.889 94.3464C185.923 94.051 185.937 93.7537 185.93 93.4564C185.906 93.1848 185.862 92.9153 185.798 92.6499C185.681 92.1377 185.442 91.661 185.103 91.2594C184.361 90.3579 183.333 89.7372 182.19 89.5004C181.562 89.3655 180.92 89.3072 180.278 89.3266C179.633 89.3528 178.995 89.465 178.38 89.6603C177.301 90.0021 176.308 90.5711 175.467 91.3289C173.942 92.8683 173.066 94.9337 173.019 97.0996C172.918 98.1646 173.034 99.239 173.359 100.258C173.684 101.277 174.212 102.22 174.911 103.03C175.352 103.571 175.911 104.004 176.544 104.296C177.253 104.675 177.996 104.987 178.762 105.227C179.399 105.398 180.051 105.501 180.709 105.533C181.366 105.546 182.021 105.443 182.642 105.227C183.111 105.085 183.531 104.814 183.854 104.445C184.177 104.077 184.39 103.625 184.47 103.141C184.598 102.356 184.598 101.556 184.47 100.771C184.335 99.7893 184.083 98.8277 183.72 97.9061C183.387 97.0354 182.918 96.2233 182.329 95.5005C181.772 94.836 181.065 94.3143 180.265 93.9793C179.466 93.6442 178.597 93.5055 177.733 93.5746C177.205 93.6303 176.67 93.7971 176.134 93.818C174.858 93.9447 173.669 94.5243 172.783 95.4518C171.408 96.6606 170.337 98.1752 169.654 99.8737C169.258 100.715 168.93 101.587 168.674 102.481C168.452 103.322 167.868 102.863 167.819 102.523C167.687 101.57 167.353 102.3 167.124 102.391C167.033 102.391 166.915 102.453 166.852 102.391C166.756 101.681 166.77 100.961 166.894 100.256C167.104 98.6641 167.601 97.1234 168.361 95.7091C169.195 94.1885 170.303 92.8354 171.629 91.7183C172.429 91.0454 173.318 90.4862 174.271 90.0566C175.39 89.5782 176.577 89.2757 177.789 89.1597C179.153 89.0317 180.529 89.1867 181.831 89.615C183.132 90.0433 184.332 90.7356 185.353 91.6487C186.423 92.5979 187.317 93.7275 187.995 94.986C188.309 95.5475 188.592 96.1254 188.844 96.7172C189.052 97.2943 189.289 97.8157 189.435 98.365C189.946 99.8889 190.169 101.494 190.095 103.1C190.009 104.59 189.494 106.024 188.614 107.23C188.559 107.299 188.322 107.626 187.919 108.12C187.71 108.356 187.432 108.613 187.119 108.905C186.764 109.198 186.391 109.468 186 109.712C185.048 110.272 184.009 110.671 182.927 110.894C181.798 111.108 180.643 111.16 179.499 111.047C177.403 110.826 175.386 110.126 173.603 109.003C172.704 108.441 171.882 107.766 171.156 106.993C169.894 105.637 168.934 104.028 168.34 102.272C167.768 100.573 167.602 98.7636 167.854 96.9884C167.972 96.3279 167.979 95.6326 168.104 94.9652C168.508 91.8933 169.985 89.0633 172.275 86.9766C174.662 84.9158 177.747 83.8461 180.897 83.9869C182.49 84.0387 184.059 84.3927 185.52 85.0298C187.065 85.708 188.412 86.7679 189.435 88.1099C189.8 88.6181 190.101 89.1691 190.331 89.7507C190.464 90.1122 190.603 90.4807 190.707 90.8561L190.964 91.9825C191.266 93.8497 191.092 95.763 190.457 97.5446C190.185 98.3686 189.846 99.1686 189.442 99.9363C189.035 100.741 188.549 101.503 187.988 102.21C187.367 102.994 186.626 103.674 185.791 104.226C184.859 104.822 183.804 105.198 182.704 105.325C181.636 105.434 180.557 105.323 179.534 104.998C178.608 104.702 177.729 104.278 176.92 103.739C176.296 103.324 175.722 102.839 175.209 102.293C174.448 101.503 173.772 100.633 173.193 99.6999C172.605 98.7562 172.116 97.7543 171.733 96.7103C171.465 95.9706 171.249 95.2133 171.087 94.4437C170.925 93.4292 171.004 92.391 171.316 91.4124C171.509 90.7998 171.795 90.2206 172.164 89.6951C172.439 89.321 172.741 88.9678 173.068 88.6383V88.6383Z" fill="#21467E"/>
<path d="M151.202 109.92C150.945 109.6 151.021 109.225 151.292 108.766C151.376 108.62 151.758 108.467 151.855 108.551C152.045 108.703 152.221 108.87 152.384 109.051C152.481 109.162 153.503 111.137 153.865 111.832C154.204 112.481 154.511 113.147 154.783 113.828L155.617 115.851C155.895 116.546 156.18 117.241 156.444 117.937C156.563 118.254 156.659 118.579 156.729 118.91C156.98 120.05 157.306 121.163 157.522 122.386C157.545 122.594 157.589 122.799 157.654 122.998C157.712 123.254 157.737 123.515 157.73 123.777C157.743 124.34 157.629 124.898 157.397 125.411C157.236 125.761 156.998 126.069 156.701 126.315C156.553 126.432 156.392 126.532 156.222 126.614C156.062 126.683 155.909 126.718 155.763 126.767C155.394 126.868 155.007 126.887 154.63 126.822C154.005 126.69 153.413 126.432 152.891 126.064C152.435 125.763 152.009 125.418 151.619 125.035C151.493 124.95 151.391 124.836 151.32 124.702C151.179 124.412 150.978 124.156 150.729 123.951C150.429 123.635 150.155 123.295 149.909 122.936C149.8 122.738 149.716 122.528 149.658 122.31C149.596 122.122 149.86 122.046 149.923 122.073C150.103 122.171 150.103 121.976 150.173 121.9C150.199 121.87 150.23 121.844 150.263 121.823C150.263 121.823 150.757 122.192 151.265 122.518L152.405 123.297C152.542 123.415 152.686 123.524 152.836 123.624C153.14 123.847 153.461 124.047 153.795 124.222C154.091 124.373 154.407 124.48 154.734 124.542C154.858 124.566 154.985 124.566 155.109 124.542C155.165 124.5 155.248 124.542 155.283 124.542L155.325 124.472C155.384 124.319 155.415 124.157 155.415 123.992C155.42 123.591 155.383 123.19 155.304 122.797C155.197 122.273 155.12 121.744 155.075 121.211C155.065 121.1 155.042 120.99 155.005 120.885C154.713 119.981 154.442 119.042 154.122 118.104C153.955 117.631 153.747 117.172 153.552 116.713C153.521 116.625 153.498 116.534 153.482 116.442C153.448 116.324 153.42 116.205 153.378 116.087C152.898 114.982 152.516 113.842 151.988 112.757C151.862 112.507 151.529 111.213 151.383 110.928C151.278 110.699 151.306 110.052 151.202 109.92Z" fill="#21467E"/>
<path d="M97.6809 84.4042C97.9451 84.6406 97.813 84.9952 97.4584 85.4401C97.3472 85.5792 96.9022 85.7808 96.7979 85.7182C96.6021 85.6093 96.416 85.4837 96.2417 85.3428C96.0177 85.0251 95.8112 84.6956 95.6229 84.3555C95.3518 83.841 95.0319 83.2639 94.8859 82.965C94.6072 82.3745 94.3973 81.754 94.2602 81.1156C93.9407 79.7934 93.7889 78.4362 93.8083 77.0761C93.8233 76.7698 93.8628 76.4652 93.9265 76.1653C94.0586 75.6578 94.1837 75.1502 94.295 74.6427C94.4062 74.1351 94.5314 73.6276 94.7052 73.1409C94.7786 72.9815 94.8188 72.8088 94.8234 72.6334C94.8456 72.427 94.8995 72.2253 94.9833 72.0354C95.1015 71.7504 95.2614 71.3958 95.4282 71.0412C95.6953 70.52 96.0095 70.0243 96.3669 69.5603C96.9705 68.9101 97.6063 68.2905 98.2719 67.7039C98.3692 67.6275 98.4387 67.5162 98.5778 67.4954C98.8516 67.4303 99.0961 67.2762 99.2731 67.0573C99.5405 66.7962 99.834 66.5632 100.149 66.3621C100.322 66.275 100.507 66.2141 100.698 66.1813C100.865 66.1396 101.004 66.4316 100.99 66.4872C100.935 66.668 101.122 66.6889 101.22 66.7723C101.256 66.8016 101.286 66.8369 101.31 66.8766C101.165 67.2061 100.988 67.5205 100.782 67.8152C100.497 68.2671 100.246 68.7607 100.163 68.8303L99.8571 69.1918L99.2661 69.9983C98.9486 70.4411 98.6629 70.9057 98.4109 71.3888C98.3342 71.5329 98.2357 71.6642 98.1189 71.7782C97.9365 72.1145 97.783 72.4657 97.66 72.828C97.5263 73.1812 97.4102 73.5409 97.3124 73.9057C97.1177 74.302 97.1386 74.747 96.8396 75.1224C96.7904 75.1963 96.7661 75.284 96.7701 75.3727C96.6728 76.1166 96.5337 76.8606 96.5059 77.6254C96.5028 78.0186 96.5307 78.4115 96.5893 78.8004C96.5962 78.872 96.5962 78.9442 96.5893 79.0159C96.5824 79.1061 96.5824 79.1968 96.5893 79.287C96.71 80.2383 96.9434 81.1719 97.2846 82.0681C97.3611 82.2767 97.5419 83.3474 97.66 83.5838C97.674 83.7437 97.5766 84.3068 97.6809 84.4042Z" fill="#21467E"/>
<path d="M210.042 30.1736C218.038 40.6025 221.271 51.7267 221.264 64.8255C221.264 66.3968 225.491 67.8638 225.491 66.0561C225.491 52.4429 221.966 40.8111 213.671 29.958C212.754 28.7552 208.499 28.1365 210.056 30.1736H210.042Z" fill="#21467E"/>
<path d="M230.316 56.0722C236.573 51.2471 243.526 45.3443 252.015 46.5471C253.871 46.8113 256.187 44.204 253.461 43.8147C243.456 42.3894 235.197 48.6815 227.702 54.4244C225.532 56.0861 228.828 57.2055 230.316 56.0722V56.0722Z" fill="#21467E"/>
<path d="M169.022 114.419C169.022 114.419 176.788 114.182 178.304 113.119C179.819 112.055 178.06 118.472 174.827 122.421C171.594 126.37 171.608 129.909 171.143 132.092C170.364 135.742 167.479 132.899 167.479 132.899C167.479 132.899 170.35 120.203 169.022 114.419Z" fill="#21467E"/>
<path d="M79.7985 147.624C80.4938 152.491 81.9608 157.184 82.7604 162.023C83.5599 166.862 84.3178 173.419 80.1253 176.992C78.5679 178.32 80.9666 179.419 82.1416 178.418C90.9853 170.874 84.2274 156.169 82.8368 146.811C82.6213 145.42 79.5969 146.15 79.8124 147.624H79.7985Z" fill="#21467E"/>
<path d="M153.378 137.634C153.203 138.126 152.915 138.571 152.537 138.934C152.231 139.216 151.884 139.451 151.508 139.629C151.222 139.806 150.91 139.937 150.583 140.018C149.956 140.105 149.317 139.98 148.769 139.664C148.29 139.38 147.912 138.955 147.684 138.447C147.489 138.056 147.35 137.64 147.274 137.209C147.177 136.688 147.156 136.007 147.698 135.742C147.865 135.652 148.484 136.097 149.089 136.514C149.375 136.703 149.672 136.875 149.979 137.029L150.152 137.112H150.111H150.041C149.951 137.082 149.853 137.082 149.763 137.112C149.727 137.127 149.697 137.154 149.68 137.189C149.638 137.244 149.714 137.251 149.596 136.966C149.534 136.82 149.596 136.904 149.596 136.897C149.629 136.893 149.661 136.893 149.693 136.897H149.805H149.881C149.947 136.922 150.014 136.94 150.083 136.952C150.124 136.964 150.167 136.964 150.208 136.952C150.208 136.952 150.208 136.952 150.257 136.952C150.305 136.952 150.305 136.855 150.305 136.869C150.358 137.072 150.481 137.249 150.653 137.369L150.771 137.481H150.82C150.875 137.543 150.639 137.439 149.721 137.05L149.096 136.792C148.4 136.514 147.858 136.132 147.83 135.722C147.823 135.395 147.9 135.072 148.053 134.783C148.271 134.413 148.583 134.106 148.957 133.893C149.172 133.761 149.407 133.663 149.652 133.601C149.915 133.532 150.186 133.502 150.458 133.511C151.007 133.52 151.543 133.679 152.009 133.97C152.621 134.354 153.092 134.928 153.351 135.604C153.609 136.28 153.641 137.022 153.441 137.717L153.378 137.634Z" fill="#21467E"/>
</svg>
