<svg width="320" height="80" viewBox="0 0 320 80" fill="none" xmlns="http://www.w3.org/2000/svg">
<g clip-path="url(#clip0_304_95406)">
<path d="M85.7671 18.4844L73.7786 58.9778L0 80L26.0896 0L85.7671 18.4844Z" fill="#F9FAFB"/>
<path fill-rule="evenodd" clip-rule="evenodd" d="M116.656 24.4267L125.549 11.5601H120.303L112.856 22.4489H109.844V11.5601H105.562V38.2045H109.844V26.5201H112.896L121.046 38.2045H126.371L116.656 24.4267ZM141.432 17.649L135.443 32.0001L129.074 17.649H124.571L133.321 36.7201L132.887 37.6712C132.143 39.3467 131.443 40.4445 130.839 40.9823C130.235 41.5201 129.248 41.7823 127.936 41.7823H126.223V45.5867H128.27C130.279 45.5867 131.885 45.0727 133.091 44.0445C134.296 43.0164 135.482 41.1956 136.647 38.5823L145.875 17.649H141.432ZM151.343 17.649H153.004H158.176H162.241V21.8001V38.2045H158.176V21.8001H153.904L146.718 38.2045H142.284L151.343 17.649ZM175.259 23.7423H170.982V17.649H166.918V38.2223H175.255C177.463 38.2223 179.251 37.5556 180.619 36.2223C181.298 35.5517 181.831 34.7425 182.184 33.8473C182.536 32.9522 182.701 31.9912 182.666 31.0267C182.702 30.0546 182.538 29.0857 182.187 28.1819C181.835 27.2781 181.302 26.4593 180.623 25.7778C179.259 24.4208 177.471 23.7423 175.259 23.7423ZM177.494 33.5778C176.744 34.2471 175.771 34.5957 174.777 34.5512H170.982V27.3956H174.777C175.46 27.3791 176.137 27.5316 176.75 27.8401C177.294 28.1317 177.745 28.5737 178.054 29.1156C178.371 29.6901 178.532 30.3407 178.52 31.0001C178.542 31.4802 178.462 31.9596 178.285 32.4048C178.108 32.8501 177.838 33.2504 177.494 33.5778ZM188.4 21.4578H181.293V17.6534H199.493V21.4578H192.421V38.2045H188.4V21.4578ZM212.173 32.0001L205.809 17.649H201.301L210.051 36.7201L209.617 37.6712C208.875 39.3452 208.192 40.449 207.569 40.9823C206.948 41.5156 205.983 41.7823 204.666 41.7823H202.953V45.5867H205C207.012 45.5867 208.618 45.0727 209.821 44.0445C211.024 43.0164 212.209 41.1956 213.377 38.5823L222.609 17.649H218.167L212.173 32.0001ZM235.224 17.1556C237.101 17.1264 238.951 17.6064 240.588 18.5467C242.15 19.4564 243.433 20.7941 244.291 22.4089C245.2 24.0992 245.667 26.0003 245.648 27.9289C245.689 29.3514 245.449 30.7678 244.94 32.0924C244.431 33.417 243.665 34.6224 242.687 35.6356C241.716 36.6437 240.552 37.436 239.268 37.9629C237.984 38.4898 236.607 38.74 235.224 38.6978C232.78 38.7492 230.405 37.8665 228.565 36.2223V44.0264L234.055 42.6667V46.8534L227.839 48.3734C223.547 49.4134 221.004 51.7097 220.21 55.2623C221.99 53.6466 224.307 52.788 226.687 52.8623C229.585 52.8623 231.948 53.7749 233.776 55.6001C235.605 57.4252 236.518 59.7956 236.515 62.7112C236.515 65.7304 235.553 68.1852 233.629 70.0756C231.704 71.966 229.192 72.9112 226.091 72.9112C222.814 72.9112 220.239 71.8638 218.367 69.7689C216.495 67.6741 215.557 64.8015 215.554 61.1512C215.554 56.1497 216.492 52.3497 218.367 49.7512C219.726 47.8677 221.747 46.3812 224.431 45.2916V17.6489H227.221L228.004 20.1645C228.94 19.1814 230.064 18.4067 231.306 17.8889C232.549 17.3711 233.883 17.1214 235.224 17.1556ZM234.909 34.6619C236.661 34.6619 238.347 33.9748 239.618 32.7423C240.231 32.1104 240.712 31.358 241.032 30.5307C241.351 29.7033 241.504 28.8182 241.479 27.9289C241.504 27.039 241.351 26.1532 241.032 25.3251C240.712 24.497 240.231 23.7438 239.618 23.1111C239.009 22.4768 238.277 21.9777 237.47 21.6451C236.663 21.3124 235.798 21.1534 234.928 21.1778C233.743 21.1677 232.576 21.4741 231.542 22.0667C230.545 22.6262 229.725 23.4649 229.177 24.4845C228.61 25.5388 228.321 26.7258 228.338 27.9289C228.314 28.8182 228.466 29.7033 228.786 30.5307C229.106 31.358 229.586 32.1104 230.199 32.7423C231.471 33.9748 233.156 34.6619 234.909 34.6619ZM266.53 17.6489L266.047 20.2C265.098 19.2006 263.956 18.4138 262.694 17.8897C261.431 17.3656 260.076 17.1156 258.714 17.1556C257.324 17.1183 255.94 17.3709 254.648 17.898C253.356 18.4252 252.183 19.2158 251.199 20.2217C250.216 21.2277 249.443 22.4278 248.928 23.7491C248.413 25.0703 248.166 26.4849 248.203 27.9067C248.164 29.3319 248.41 30.7504 248.925 32.0754C249.44 33.4004 250.213 34.6042 251.198 35.6134C252.175 36.6262 253.345 37.4226 254.636 37.9533C255.927 38.4839 257.31 38.7373 258.701 38.6978C260.049 38.7351 261.389 38.4871 262.638 37.9693C263.888 37.4514 265.019 36.6751 265.96 35.6889L266.369 38.2045H269.72V17.6489H266.53ZM263.722 32.76C263.111 33.3913 262.379 33.8866 261.571 34.2147C260.764 34.5429 259.9 34.6968 259.031 34.6667C258.159 34.693 257.29 34.537 256.478 34.2082C255.666 33.8794 254.928 33.3848 254.31 32.7545C253.692 32.1243 253.205 31.3716 252.881 30.5427C252.557 29.7137 252.401 28.8259 252.424 27.9334C252.41 26.7268 252.71 25.538 253.294 24.4889C253.847 23.4754 254.664 22.6384 255.654 22.0712C256.681 21.4774 257.843 21.1709 259.023 21.1823C259.893 21.1574 260.76 21.3157 261.568 21.6476C262.377 21.9794 263.11 22.4776 263.722 23.1112C264.33 23.7448 264.807 24.4981 265.123 25.3253C265.439 26.1526 265.588 27.0368 265.56 27.9245C265.585 28.8125 265.435 29.6966 265.119 30.5242C264.803 31.3518 264.328 32.1061 263.722 32.7423V32.76ZM226.091 68.9245C226.911 68.95 227.728 68.8057 228.492 68.5001C229.256 68.1946 229.952 67.7343 230.538 67.1467C231.119 66.5722 231.576 65.8803 231.88 65.1151C232.185 64.3498 232.33 63.5281 232.307 62.7023C232.323 61.574 232.041 60.4621 231.49 59.4845C230.951 58.5539 230.18 57.7869 229.256 57.2623C228.289 56.7105 227.198 56.4285 226.091 56.4445C224.979 56.4289 223.882 56.7108 222.909 57.2623C221.979 57.7793 221.206 58.5482 220.675 59.4845C220.133 60.4653 219.857 61.5761 219.875 62.7023C219.851 63.5283 219.996 64.3503 220.3 65.1157C220.605 65.8811 221.063 66.5729 221.644 67.1467C222.23 67.7343 222.926 68.1946 223.69 68.5001C224.454 68.8057 225.271 68.95 226.091 68.9245ZM105.562 45.7778H125.123V72.4445H120.802V49.8534H109.844V72.4445H105.562V45.7778ZM149.039 62.1867C149.039 62.5645 149.013 63.0356 148.966 63.5956H132.661C132.827 65.12 133.554 66.5227 134.695 67.519C135.835 68.5152 137.304 69.0304 138.803 68.96C139.562 68.9655 140.316 68.8439 141.037 68.6C141.707 68.3674 142.332 68.0136 142.88 67.5556C143.41 67.1063 143.852 66.559 144.184 65.9423H148.531C147.831 68.0057 146.511 69.7903 144.76 71.041C143.009 72.2918 140.917 72.9448 138.781 72.9067C137.408 72.9428 136.042 72.6873 134.77 72.1564C133.498 71.6256 132.348 70.8308 131.391 69.8223C129.489 67.7344 128.431 64.9869 128.431 62.1334C128.431 59.2799 129.489 56.5324 131.391 54.4445C132.348 53.4366 133.498 52.6425 134.77 52.1123C136.042 51.5822 137.408 51.3276 138.781 51.3645C140.667 51.3307 142.524 51.8389 144.141 52.8312C145.674 53.7731 146.924 55.1296 147.753 56.7512C148.615 58.4262 149.057 60.2939 149.039 62.1867ZM138.803 55.1823C137.387 55.1477 136.003 55.6192 134.891 56.5156C133.788 57.4455 133.032 58.7358 132.752 60.1689H144.923C144.703 59.2016 144.285 58.2927 143.697 57.5023C143.141 56.7672 142.419 56.1802 141.593 55.7912C140.719 55.379 139.766 55.171 138.803 55.1823ZM167.648 55.6756V51.8712H149.448V55.6756H156.559V72.4445H160.576V55.6756H167.648ZM188.652 62.1867C188.652 62.5645 188.626 63.0356 188.578 63.5956H172.264C172.431 65.12 173.158 66.5227 174.299 67.519C175.439 68.5152 176.908 69.0304 178.407 68.96C179.166 68.9655 179.92 68.8439 180.641 68.6C181.311 68.3725 181.935 68.0232 182.484 67.5689C183.015 67.1209 183.458 66.5733 183.788 65.9556H188.135C187.433 68.0186 186.112 69.8026 184.361 71.0531C182.609 72.3037 180.516 72.957 178.38 72.92C177.007 72.9556 175.642 72.6999 174.37 72.169C173.098 71.6382 171.947 70.8437 170.991 69.8356C169.091 67.7463 168.036 64.9993 168.036 62.1467C168.036 59.2941 169.091 56.5472 170.991 54.4578C171.948 53.4504 173.098 52.6565 174.37 52.1264C175.642 51.5963 177.007 51.3414 178.38 51.3778C180.266 51.3428 182.124 51.8511 183.74 52.8445C185.275 53.7852 186.525 55.142 187.352 56.7645C188.217 58.4344 188.664 60.2973 188.652 62.1867ZM178.415 55.1823L178.413 55.1822C179.373 55.1719 180.325 55.3799 181.197 55.7912C182.024 56.1781 182.746 56.7654 183.301 57.5023C183.891 58.2924 184.31 59.2012 184.531 60.1689H172.36C172.642 58.7355 173.399 57.4453 174.503 56.5156C175.614 55.6174 176.997 55.1456 178.413 55.1822L178.407 55.1823H178.415ZM208.074 52.7645C206.438 51.8271 204.589 51.3487 202.714 51.3778C201.372 51.3416 200.036 51.5898 198.792 52.1069C197.548 52.6239 196.422 53.3987 195.485 54.3823L194.703 51.8712H191.912V79.8089H196.042V70.4445C197.887 72.0892 200.266 72.9718 202.714 72.92C204.098 72.9622 205.475 72.7116 206.759 72.1838C208.043 71.6561 209.207 70.8627 210.177 69.8534C211.156 68.8406 211.922 67.6353 212.431 66.3106C212.94 64.9859 213.18 63.5693 213.138 62.1467C213.162 60.2212 212.701 58.3217 211.799 56.6312C210.935 55.0115 209.644 53.672 208.074 52.7645ZM202.399 68.8841C200.647 68.8841 198.961 68.1971 197.689 66.9645C197.078 66.3334 196.598 65.5824 196.278 64.7567C195.959 63.9311 195.806 63.0478 195.829 62.16C195.812 60.957 196.101 59.7702 196.668 58.7156C197.216 57.6983 198.034 56.8601 199.028 56.2978C200.063 55.7052 201.232 55.3988 202.418 55.4089C203.287 55.3839 204.152 55.5418 204.959 55.8728C205.766 56.2039 206.498 56.701 207.109 57.3334C208.304 58.6388 208.97 60.3604 208.97 62.1489C208.97 63.9375 208.304 65.6591 207.109 66.9645C205.837 68.1971 204.151 68.8841 202.399 68.8841ZM257.658 51.8712H253.228L247.234 66.2223L240.857 51.8712H236.35L245.1 70.9378L244.665 71.8889C243.922 73.5645 243.239 74.6667 242.618 75.2C241.996 75.7334 241.018 76 239.714 76H238.001V79.8089H240.049C242.051 79.8089 243.658 79.2949 244.869 78.2667C246.081 77.2386 247.266 75.4178 248.425 72.8045L257.658 51.8712ZM270.646 51.3778C272.527 51.3456 274.382 51.8241 276.023 52.7645C277.594 53.672 278.885 55.0115 279.748 56.6312C280.65 58.3217 281.111 60.2212 281.087 62.1467C281.13 63.5693 280.889 64.9859 280.381 66.3106C279.872 67.6354 279.105 68.8406 278.127 69.8534C277.157 70.8627 275.993 71.6561 274.709 72.1838C273.424 72.7116 272.047 72.9622 270.664 72.9201C268.219 72.9696 265.843 72.0872 264 70.4445V79.8089H259.87V51.8712H262.661L263.443 54.3823C264.377 53.402 265.499 52.6292 266.738 52.1123C267.978 51.5953 269.308 51.3453 270.646 51.3778ZM265.621 66.9645C266.893 68.1971 268.579 68.8841 270.331 68.8841C272.083 68.8841 273.769 68.1971 275.041 66.9645C276.237 65.6591 276.902 63.9375 276.902 62.1489C276.902 60.3604 276.237 58.6388 275.041 57.3334C274.432 56.7038 273.704 56.2083 272.901 55.8773C272.098 55.5464 271.238 55.3869 270.372 55.4089C269.186 55.3988 268.017 55.7052 266.982 56.2978C265.988 56.8601 265.17 57.6983 264.621 58.7156C264.055 59.7702 263.766 60.957 263.783 62.1601C263.757 63.0462 263.906 63.9286 264.222 64.7541C264.538 65.5797 265.014 66.3316 265.621 66.9645ZM297.223 55.64V51.8712H284.382V72.4445H288.438V55.64H297.223ZM316.618 51.8712H319.817V72.4445H316.449L316.04 69.9334C315.098 70.9191 313.967 71.6952 312.718 72.2129C311.469 72.7307 310.128 72.979 308.781 72.9423C307.389 72.9735 306.006 72.7153 304.715 72.1833C303.424 71.6512 302.252 70.8565 301.271 69.8473C300.29 68.8381 299.519 67.6355 299.006 66.3125C298.493 64.9895 298.249 63.5737 298.288 62.1512C298.246 60.7272 298.49 59.3096 299.003 57.9851C299.516 56.6607 300.288 55.4573 301.272 54.4487C302.256 53.4401 303.431 52.6476 304.725 52.1195C306.02 51.5915 307.405 51.3391 308.798 51.3778C310.16 51.3359 311.516 51.5851 312.779 52.1093C314.041 52.6335 315.183 53.4213 316.131 54.4223L316.618 51.8712ZM304.39 66.9823C305.009 67.6128 305.748 68.1073 306.56 68.4352C307.373 68.7631 308.242 68.9175 309.115 68.8889C309.985 68.918 310.85 68.7624 311.658 68.432C312.465 68.1015 313.196 67.6033 313.806 66.9689C314.415 66.3312 314.893 65.5742 315.209 64.7433C315.526 63.9124 315.676 63.0247 315.649 62.1334C315.675 61.2474 315.526 60.3651 315.209 59.54C314.892 58.7149 314.415 57.9642 313.806 57.3334C313.191 56.7016 312.456 56.2062 311.646 55.8781C310.836 55.55 309.969 55.3963 309.098 55.4267C307.918 55.4149 306.756 55.7215 305.729 56.3156C304.74 56.8852 303.922 57.7214 303.365 58.7334C302.784 59.7835 302.484 60.9715 302.495 62.1778C302.476 63.0655 302.635 63.9477 302.961 64.7707C303.287 65.5937 303.773 66.3402 304.39 66.9645V66.9823Z" fill="#E6E8F2"/>
<path fill-rule="evenodd" clip-rule="evenodd" d="M291.672 0.111326C292.401 0.0991227 293.121 0.284668 293.758 0.649103C294.366 1.0037 294.866 1.52372 295.201 2.15133C295.553 2.80892 295.733 3.54842 295.723 4.29799C295.74 4.8504 295.646 5.40048 295.448 5.91472C295.25 6.42896 294.952 6.89658 294.571 7.2891C294.194 7.68067 293.742 7.98853 293.243 8.19347C292.744 8.3984 292.209 8.49601 291.672 8.48021C290.716 8.5053 289.785 8.16273 289.064 7.52021V11.1602H287.455V0.302437H288.542L288.846 1.28021C289.212 0.894954 289.652 0.591976 290.138 0.390691C290.625 0.189406 291.147 0.0942525 291.672 0.111326ZM289.72 6.16466C290.213 6.64658 290.868 6.91557 291.55 6.91557C292.232 6.91557 292.887 6.64658 293.38 6.16466C293.618 5.91988 293.805 5.62814 293.929 5.30722C294.053 4.9863 294.112 4.64292 294.102 4.29799C294.112 3.95236 294.053 3.60821 293.929 3.28652C293.805 2.96483 293.618 2.67234 293.38 2.42688C293.143 2.18132 292.859 1.98831 292.545 1.85986C292.232 1.7314 291.896 1.67025 291.559 1.68021C291.103 1.67612 290.654 1.79247 290.255 2.01799C289.868 2.23532 289.55 2.56056 289.338 2.95577C289.119 3.36435 289.007 3.82345 289.012 4.2891C288.998 4.63393 289.052 4.97805 289.173 5.3005C289.293 5.62295 289.476 5.91697 289.711 6.16466H289.72ZM282.017 8.47949C283.124 8.47949 284.189 8.05464 285.004 7.28912C285.395 6.90258 285.703 6.43694 285.908 5.92193C286.113 5.40691 286.21 4.85384 286.195 4.29801C286.205 3.54612 286.019 2.80497 285.656 2.15134C285.299 1.51853 284.779 0.998671 284.152 0.649118C283.493 0.295993 282.761 0.111511 282.017 0.111511C281.274 0.111511 280.542 0.295993 279.883 0.649118C279.254 0.996196 278.733 1.51664 278.379 2.15134C278.014 2.80462 277.827 3.54574 277.836 4.29801C277.821 4.85416 277.919 5.40743 278.125 5.92247C278.331 6.4375 278.639 6.90297 279.031 7.28912C279.845 8.05464 280.911 8.47949 282.017 8.47949ZM283.321 6.58245C282.922 6.80662 282.473 6.92144 282.017 6.91578C281.679 6.92729 281.342 6.86732 281.027 6.73961C280.712 6.61191 280.426 6.41922 280.187 6.17356C279.95 5.92691 279.764 5.63347 279.641 5.31107C279.517 4.98866 279.459 4.644 279.47 4.29801C279.459 3.95131 279.517 3.60588 279.64 3.2827C279.763 2.95952 279.95 2.66534 280.187 2.41801C280.684 1.94405 281.338 1.68046 282.017 1.68046C282.697 1.68046 283.351 1.94405 283.847 2.41801C284.085 2.66876 284.269 2.96649 284.389 3.29287C284.51 3.61925 284.563 3.96737 284.547 4.31579C284.553 4.781 284.442 5.23998 284.226 5.64912C284.015 6.04044 283.702 6.36375 283.321 6.58245ZM276.562 0.30245H269.751V8.28912H271.355V1.77801H274.971V8.30245H276.562V0.30245ZM302.947 1.77801V0.30245H295.866V1.77801H298.627V8.28912H300.2V1.77801H302.947ZM310.224 0.30244H311.467V8.30244H310.163L310.007 7.32466C309.641 7.70804 309.201 8.00982 308.716 8.21099C308.23 8.41216 307.709 8.50837 307.186 8.49355C306.646 8.50562 306.109 8.40459 305.609 8.19669C305.109 7.98878 304.656 7.6784 304.278 7.28466C303.895 6.89197 303.595 6.42399 303.394 5.90908C303.194 5.39416 303.098 4.84304 303.113 4.28911C303.098 3.73686 303.194 3.18741 303.394 2.6742C303.594 2.161 303.894 1.69479 304.276 1.30394C304.658 0.9131 305.113 0.605808 305.615 0.400776C306.117 0.195744 306.654 0.0972635 307.194 0.111329C307.723 0.0955963 308.249 0.192582 308.739 0.396117C309.23 0.599652 309.673 0.905278 310.041 1.29355L310.224 0.30244ZM305.469 6.16466C305.71 6.41406 305.999 6.6096 306.317 6.73889C306.636 6.86818 306.978 6.92841 307.32 6.91577C307.658 6.9276 307.995 6.86688 308.309 6.73751C308.622 6.60814 308.906 6.413 309.142 6.16466C309.379 5.9177 309.565 5.62421 309.688 5.30188C309.811 4.97955 309.869 4.63504 309.859 4.28911C309.87 3.94379 309.812 3.59983 309.688 3.27815C309.565 2.95648 309.379 2.66383 309.142 2.418C308.904 2.17361 308.62 1.98196 308.306 1.85501C307.993 1.72807 307.657 1.66857 307.32 1.68022C306.864 1.67428 306.415 1.79075 306.016 2.018C305.633 2.23912 305.315 2.56343 305.099 2.95577C304.875 3.36261 304.76 3.82237 304.764 4.28911C304.75 4.63431 304.806 4.97877 304.927 5.30131C305.048 5.62385 305.232 5.91766 305.469 6.16466ZM320.017 0.30245H314.71L314.127 5.36023C314.02 6.33801 313.585 6.82689 312.823 6.82689H312.445V8.35578H312.723C313.097 8.38599 313.472 8.34027 313.828 8.22126C314.184 8.10226 314.513 7.91233 314.797 7.66245C315.279 7.19578 315.558 6.40467 315.666 5.28023L316.014 1.72467H318.439V8.30245H320.017V0.30245Z" fill="#E6E8F2"/>
</g>
<defs>
<clipPath id="clip0_304_95406">
<rect width="320" height="80" fill="white"/>
</clipPath>
</defs>
</svg>
