<svg width="196" height="48" viewBox="0 0 196 48" fill="none" xmlns="http://www.w3.org/2000/svg">
<g clip-path="url(#clip0_304_96065)">
<path d="M52.5324 11.0907L45.1894 35.3867L0 48L15.9799 0L52.5324 11.0907Z" fill="#151F6D"/>
<path fill-rule="evenodd" clip-rule="evenodd" d="M71.4515 14.656L76.8988 6.93604H73.6853L69.1245 13.4694H67.2795V6.93604H64.657V22.9227H67.2795V15.912H69.1485L74.1406 22.9227H77.402L71.4515 14.656ZM86.6274 10.5894L82.9585 19.2L79.0581 10.5894H76.2998L81.6593 22.032L81.393 22.6027C80.9378 23.608 80.5091 24.2667 80.139 24.5894C79.769 24.912 79.1646 25.0694 78.3605 25.0694H77.3115V27.352H78.5655C79.7956 27.352 80.7798 27.0436 81.5182 26.4267C82.2565 25.8098 82.9825 24.7174 83.696 23.1494L89.3484 10.5894H86.6274ZM92.6977 10.5894H93.7147H96.883H99.3724V13.08V22.9227H96.883V13.08H94.2658L89.8649 22.9227H87.1492L92.6977 10.5894ZM107.347 14.2454H104.727V10.5894H102.237V22.9334H107.344C108.696 22.9334 109.792 22.5334 110.629 21.7334C111.045 21.331 111.372 20.8455 111.588 20.3084C111.804 19.7713 111.904 19.1947 111.883 18.616C111.905 18.0328 111.805 17.4514 111.589 16.9091C111.374 16.3668 111.048 15.8755 110.632 15.4667C109.796 14.6525 108.701 14.2454 107.347 14.2454ZM108.715 20.1467C108.256 20.5483 107.66 20.7574 107.051 20.7307H104.727V16.4374H107.051C107.469 16.4274 107.884 16.5189 108.26 16.704C108.592 16.879 108.869 17.1442 109.058 17.4694C109.252 17.8141 109.351 18.2044 109.343 18.6C109.357 18.8881 109.308 19.1757 109.2 19.4429C109.091 19.71 108.926 19.9502 108.715 20.1467ZM115.395 12.8747H111.042V10.592H122.19V12.8747H117.858V22.9227H115.395V12.8747ZM129.956 19.2L126.058 10.5894H123.297L128.657 22.032L128.39 22.6027C127.936 23.6071 127.518 24.2694 127.136 24.5894C126.756 24.9094 126.165 25.0694 125.358 25.0694H124.309V27.352H125.563C126.795 27.352 127.779 27.0436 128.515 26.4267C129.252 25.8098 129.978 24.7174 130.693 23.1494L136.348 10.5894H133.627L129.956 19.2ZM144.075 10.2934C145.224 10.2759 146.358 10.5639 147.36 11.128C148.317 11.6739 149.103 12.4764 149.629 13.4454C150.185 14.4595 150.471 15.6002 150.459 16.7574C150.485 17.6108 150.337 18.4607 150.026 19.2554C149.714 20.0502 149.245 20.7734 148.646 21.3814C148.051 21.9862 147.338 22.4616 146.552 22.7777C145.765 23.0939 144.922 23.244 144.075 23.2187C142.578 23.2496 141.123 22.7199 139.996 21.7334V26.4159L143.358 25.6001V28.1121L139.551 29.0241C136.922 29.6481 135.365 31.0259 134.879 33.1574C135.969 32.188 137.388 31.6729 138.846 31.7174C140.621 31.7174 142.068 32.265 143.188 33.3601C144.308 34.4552 144.867 35.8774 144.865 37.6268C144.865 39.4383 144.276 40.9112 143.097 42.0454C141.919 43.1797 140.38 43.7468 138.481 43.7468C136.473 43.7468 134.896 43.1183 133.75 41.8614C132.603 40.6045 132.029 38.881 132.027 36.6908C132.027 33.6899 132.601 31.4099 133.75 29.8508C134.582 28.7207 135.82 27.8287 137.464 27.175V10.5894H139.173L139.652 12.0987C140.226 11.5088 140.914 11.044 141.675 10.7333C142.436 10.4227 143.253 10.2729 144.075 10.2934ZM143.882 20.7971C144.955 20.7971 145.987 20.3849 146.766 19.6454C147.142 19.2663 147.436 18.8148 147.632 18.3184C147.828 17.822 147.921 17.2909 147.906 16.7574C147.921 16.2234 147.828 15.6919 147.632 15.195C147.436 14.6982 147.142 14.2463 146.766 13.8667C146.393 13.4861 145.945 13.1866 145.451 12.987C144.956 12.7875 144.426 12.692 143.894 12.7067C143.168 12.7006 142.453 12.8844 141.82 13.24C141.209 13.5757 140.706 14.0789 140.371 14.6907C140.024 15.3233 139.847 16.0355 139.857 16.7574C139.842 17.2909 139.936 17.822 140.131 18.3184C140.327 18.8148 140.622 19.2663 140.997 19.6454C141.776 20.3849 142.808 20.7971 143.882 20.7971ZM163.249 10.5893L162.954 12.1199C162.373 11.5202 161.673 11.0482 160.9 10.7337C160.127 10.4193 159.297 10.2693 158.462 10.2933C157.611 10.2709 156.763 10.4224 155.972 10.7387C155.181 11.055 154.462 11.5294 153.86 12.1329C153.257 12.7365 152.784 13.4566 152.468 14.2493C152.153 15.0421 152.002 15.8908 152.025 16.7439C152.001 17.5991 152.151 18.4501 152.466 19.2451C152.782 20.0401 153.256 20.7624 153.859 21.3679C154.457 21.9756 155.174 22.4535 155.965 22.7719C156.755 23.0902 157.603 23.2423 158.454 23.2186C159.28 23.241 160.101 23.0921 160.866 22.7814C161.631 22.4708 162.324 22.0049 162.901 21.4133L163.151 22.9226H165.204V10.5893H163.249ZM161.53 19.6559C161.155 20.0347 160.707 20.3319 160.213 20.5287C159.718 20.7256 159.189 20.8179 158.657 20.7999C158.122 20.8157 157.59 20.7221 157.093 20.5248C156.596 20.3275 156.144 20.0308 155.765 19.6526C155.386 19.2745 155.088 18.8229 154.89 18.3255C154.691 17.8281 154.596 17.2954 154.61 16.7599C154.601 16.0359 154.785 15.3227 155.142 14.6933C155.481 14.0851 155.982 13.5829 156.588 13.2426C157.217 12.8864 157.929 12.7024 158.651 12.7093C159.185 12.6943 159.715 12.7893 160.211 12.9884C160.706 13.1875 161.155 13.4864 161.53 13.8666C161.902 14.2468 162.194 14.6987 162.388 15.1951C162.581 15.6915 162.673 16.222 162.656 16.7546C162.671 17.2874 162.579 17.8179 162.386 18.3144C162.192 18.811 161.901 19.2636 161.53 19.6453V19.6559ZM138.481 41.3548C138.983 41.3701 139.483 41.2835 139.951 41.1001C140.42 40.9168 140.846 40.6406 141.204 40.2881C141.56 39.9434 141.84 39.5282 142.027 39.0691C142.213 38.61 142.302 38.1169 142.288 37.6214C142.298 36.9444 142.125 36.2773 141.788 35.6908C141.458 35.1324 140.985 34.6722 140.419 34.3574C139.827 34.0264 139.159 33.8571 138.481 33.8668C137.8 33.8574 137.128 34.0265 136.532 34.3574C135.962 34.6677 135.489 35.129 135.163 35.6908C134.832 36.2792 134.663 36.9457 134.674 37.6214C134.659 38.117 134.747 38.6102 134.934 39.0695C135.121 39.5287 135.401 39.9438 135.757 40.2881C136.116 40.6406 136.542 40.9168 137.01 41.1001C137.478 41.2835 137.978 41.3701 138.481 41.3548ZM64.657 27.4666H76.6379V43.4666H73.9915V29.9119H67.2795V43.4666H64.657V27.4666ZM91.2866 37.3121C91.2866 37.5388 91.2706 37.8214 91.2413 38.1574H81.2545C81.3563 39.0721 81.8018 39.9137 82.5004 40.5114C83.1991 41.1092 84.0987 41.4183 85.0165 41.3761C85.4814 41.3794 85.9437 41.3064 86.385 41.1601C86.7957 41.0205 87.1781 40.8082 87.5139 40.5334C87.8385 40.2639 88.1094 39.9355 88.3126 39.5654H90.9751C90.5465 40.8035 89.7382 41.8742 88.6657 42.6247C87.5932 43.3751 86.3113 43.7669 85.0032 43.7441C84.1621 43.7657 83.3255 43.6125 82.5465 43.2939C81.7675 42.9754 81.0628 42.4985 80.4771 41.8934C79.3119 40.6407 78.6641 38.9922 78.6641 37.2801C78.6641 35.568 79.3119 33.9195 80.4771 32.6668C81.063 32.062 81.7677 31.5856 82.5467 31.2675C83.3258 30.9494 84.1622 30.7966 85.0032 30.8188C86.1582 30.7985 87.2956 31.1034 88.286 31.6988C89.2255 32.2639 89.9911 33.0778 90.4985 34.0508C91.0266 35.0558 91.2974 36.1764 91.2866 37.3121ZM85.0165 33.1094C84.1492 33.0887 83.3018 33.3716 82.6204 33.9094C81.9449 34.4674 81.4823 35.2416 81.3104 36.1014H88.7652C88.6305 35.521 88.3747 34.9757 88.0144 34.5014C87.6736 34.0604 87.2316 33.7082 86.7258 33.4748C86.1902 33.2275 85.6063 33.1027 85.0165 33.1094ZM102.684 33.4052V31.1226H91.5369V33.4052H95.8926V43.4666H98.3527V33.4052H102.684ZM115.549 37.3121C115.549 37.5388 115.533 37.8214 115.504 38.1574H105.512C105.614 39.0721 106.059 39.9137 106.758 40.5114C107.457 41.1092 108.356 41.4183 109.274 41.3761C109.739 41.3794 110.201 41.3064 110.643 41.1601C111.053 41.0236 111.435 40.814 111.771 40.5414C112.097 40.2726 112.368 39.944 112.57 39.5734H115.233C114.803 40.8112 113.994 41.8816 112.921 42.6319C111.848 43.3823 110.566 43.7743 109.258 43.7521C108.417 43.7734 107.581 43.62 106.802 43.3015C106.023 42.983 105.318 42.5063 104.732 41.9014C103.569 40.6478 102.922 38.9997 102.922 37.2881C102.922 35.5765 103.569 33.9284 104.732 32.6748C105.318 32.0703 106.023 31.594 106.802 31.2759C107.581 30.9579 108.417 30.8049 109.258 30.8268C110.413 30.8057 111.551 31.1107 112.541 31.7068C113.481 32.2712 114.247 33.0852 114.753 34.0588C115.283 35.0607 115.557 36.1784 115.549 37.3121ZM109.279 33.1094L109.278 33.1094C109.866 33.1032 110.449 33.228 110.983 33.4748C111.49 33.7069 111.932 34.0593 112.272 34.5014C112.633 34.9755 112.89 35.5208 113.025 36.1014H105.571C105.744 35.2414 106.207 34.4672 106.883 33.9094C107.564 33.3705 108.411 33.0874 109.278 33.1094L109.274 33.1094H109.279ZM127.445 31.6588C126.443 31.0964 125.311 30.8093 124.162 30.8268C123.34 30.805 122.522 30.954 121.76 31.2642C120.998 31.5745 120.309 32.0393 119.735 32.6295L119.255 31.1228H117.546V47.8855H120.075V42.2668C121.206 43.2536 122.663 43.7832 124.162 43.7521C125.01 43.7774 125.853 43.627 126.64 43.3104C127.427 42.9938 128.139 42.5177 128.734 41.9121C129.333 41.3045 129.802 40.5813 130.114 39.7865C130.426 38.9916 130.573 38.1417 130.547 37.2881C130.562 36.1328 130.279 34.9931 129.727 33.9788C129.198 33.007 128.407 32.2033 127.445 31.6588ZM123.969 41.3305C122.896 41.3305 121.863 40.9183 121.085 40.1788C120.71 39.8001 120.416 39.3495 120.221 38.8541C120.025 38.3587 119.931 37.8288 119.945 37.2961C119.935 36.5743 120.112 35.8622 120.459 35.2295C120.795 34.6191 121.296 34.1162 121.905 33.7788C122.539 33.4232 123.254 33.2394 123.981 33.2455C124.514 33.2304 125.043 33.3252 125.537 33.5238C126.032 33.7224 126.48 34.0207 126.854 34.4001C127.586 35.1834 127.994 36.2163 127.994 37.2895C127.994 38.3626 127.586 39.3955 126.854 40.1788C126.075 40.9183 125.043 41.3305 123.969 41.3305ZM157.815 31.1226H155.102L151.431 39.7332L147.525 31.1226H144.764L150.124 42.5626L149.857 43.1332C149.402 44.1386 148.984 44.7999 148.603 45.1199C148.223 45.4399 147.624 45.5999 146.825 45.5999H145.776V47.8852H147.03C148.256 47.8852 149.241 47.5768 149.983 46.9599C150.724 46.343 151.45 45.2506 152.16 43.6826L157.815 31.1226ZM165.771 30.8266C166.923 30.8073 168.059 31.0944 169.064 31.6586C170.026 32.2031 170.817 33.0069 171.346 33.9786C171.898 34.993 172.181 36.1326 172.166 37.288C172.192 38.1415 172.045 38.9915 171.733 39.7863C171.421 40.5812 170.952 41.3043 170.353 41.912C169.759 42.5176 169.046 42.9936 168.259 43.3102C167.472 43.6269 166.629 43.7773 165.781 43.752C164.284 43.7817 162.829 43.2522 161.7 42.2666V47.8853H159.171V31.1226H160.88L161.359 32.6293C161.931 32.0411 162.618 31.5775 163.377 31.2673C164.136 30.9571 164.951 30.8071 165.771 30.8266ZM162.693 40.1786C163.472 40.9182 164.504 41.3304 165.578 41.3304C166.651 41.3304 167.684 40.9182 168.463 40.1786C169.195 39.3954 169.603 38.3624 169.603 37.2893C169.603 36.2162 169.195 35.1832 168.463 34.4C168.09 34.0222 167.644 33.7249 167.152 33.5263C166.66 33.3277 166.133 33.2321 165.603 33.2453C164.876 33.2392 164.161 33.4231 163.526 33.7786C162.918 34.116 162.416 34.6189 162.081 35.2293C161.734 35.862 161.557 36.5742 161.567 37.296C161.551 37.8277 161.643 38.3571 161.836 38.8524C162.03 39.3478 162.321 39.7989 162.693 40.1786ZM182.049 33.3839V31.1226H174.184V43.4666H176.668V33.3839H182.049ZM193.929 31.1227H195.888V43.4667H193.825L193.575 41.96C192.998 42.5515 192.305 43.0171 191.54 43.3278C190.775 43.6384 189.954 43.7874 189.128 43.7654C188.276 43.7841 187.429 43.6292 186.638 43.31C185.847 42.9907 185.13 42.5139 184.529 41.9084C183.928 41.3028 183.456 40.5813 183.142 39.7875C182.827 38.9937 182.678 38.1442 182.701 37.2907C182.676 36.4363 182.825 35.5857 183.139 34.7911C183.454 33.9964 183.927 33.2744 184.529 32.6692C185.132 32.0641 185.852 31.5885 186.644 31.2717C187.437 30.9549 188.286 30.8034 189.139 30.8267C189.973 30.8016 190.804 30.951 191.577 31.2656C192.35 31.5801 193.05 32.0528 193.631 32.6534L193.929 31.1227ZM186.439 40.1894C186.818 40.5677 187.271 40.8644 187.768 41.0611C188.266 41.2579 188.799 41.3505 189.333 41.3334C189.866 41.3508 190.396 41.2575 190.89 41.0592C191.385 40.8609 191.833 40.562 192.206 40.1814C192.58 39.7987 192.872 39.3445 193.066 38.846C193.26 38.3474 193.351 37.8148 193.335 37.28C193.351 36.7484 193.26 36.2191 193.066 35.724C192.872 35.229 192.579 34.7785 192.206 34.4C191.83 34.0209 191.38 33.7237 190.884 33.5268C190.387 33.33 189.856 33.2378 189.323 33.256C188.6 33.2489 187.888 33.4329 187.259 33.7894C186.653 34.1311 186.152 34.6329 185.811 35.24C185.455 35.8701 185.272 36.5829 185.278 37.3067C185.267 37.8393 185.364 38.3686 185.564 38.8624C185.763 39.3562 186.061 39.8041 186.439 40.1787V40.1894Z" fill="black"/>
</g>
<defs>
<clipPath id="clip0_304_96065">
<rect width="196" height="48" fill="white"/>
</clipPath>
</defs>
</svg>
