<svg width="196" height="48" viewBox="0 0 196 48" fill="none" xmlns="http://www.w3.org/2000/svg">
<g clip-path="url(#clip0_704_88320)">
<path fill-rule="evenodd" clip-rule="evenodd" d="M71.4516 14.656L76.8989 6.93604H73.6854L69.1246 13.4694H67.2796V6.93604H64.6571V22.9227H67.2796V15.912H69.1486L74.1406 22.9227H77.4021L71.4516 14.656ZM86.6274 10.5894L82.9586 19.2L79.0582 10.5894H76.2999L81.6594 22.032L81.3931 22.6027C80.9378 23.608 80.5092 24.2667 80.1391 24.5894C79.769 24.912 79.1647 25.0694 78.3606 25.0694H77.3116V27.352H78.5656C79.7957 27.352 80.7799 27.0436 81.5182 26.4267C82.2566 25.8098 82.9826 24.7174 83.6961 23.1494L89.3484 10.5894H86.6274ZM92.6978 10.5894H93.7148H96.8831H99.3725V13.08V22.9227H96.8831V13.08H94.2659L89.8649 22.9227H87.1493L92.6978 10.5894ZM107.346 14.2454H104.727V10.5894H102.237V22.9334H107.344C108.696 22.9334 109.791 22.5334 110.629 21.7334C111.045 21.331 111.371 20.8455 111.588 20.3084C111.804 19.7713 111.904 19.1947 111.883 18.616C111.905 18.0328 111.805 17.4514 111.589 16.9091C111.374 16.3668 111.048 15.8756 110.632 15.4667C109.796 14.6525 108.701 14.2454 107.346 14.2454ZM108.715 20.1467C108.256 20.5483 107.66 20.7574 107.051 20.7307H104.727V16.4374H107.051C107.469 16.4275 107.884 16.5189 108.26 16.704C108.592 16.879 108.869 17.1442 109.058 17.4694C109.252 17.8141 109.351 18.2044 109.343 18.6C109.357 18.8881 109.308 19.1758 109.2 19.4429C109.091 19.7101 108.926 19.9502 108.715 20.1467ZM115.395 12.8747H111.042V10.592H122.189V12.8747H117.858V22.9227H115.395V12.8747ZM129.956 19.2L126.058 10.5894H123.297L128.657 22.032L128.39 22.6027C127.936 23.6071 127.518 24.2694 127.136 24.5894C126.756 24.9094 126.165 25.0694 125.358 25.0694H124.309V27.352H125.563C126.795 27.352 127.779 27.0436 128.515 26.4267C129.252 25.8098 129.978 24.7174 130.693 23.1494L136.348 10.5894H133.627L129.956 19.2ZM144.075 10.2934C145.224 10.2759 146.358 10.5639 147.36 11.128C148.317 11.6739 149.103 12.4764 149.628 13.4454C150.185 14.4595 150.471 15.6002 150.459 16.7574C150.485 17.6108 150.337 18.4607 150.026 19.2554C149.714 20.0502 149.245 20.7734 148.646 21.3814C148.051 21.9862 147.338 22.4616 146.552 22.7777C145.765 23.0939 144.922 23.244 144.075 23.2187C142.578 23.2495 141.123 22.7199 139.996 21.7334V26.4158L143.358 25.6V28.112L139.551 29.024C136.922 29.648 135.365 31.0258 134.879 33.1574C135.969 32.188 137.388 31.6728 138.846 31.7174C140.621 31.7174 142.068 32.2649 143.188 33.36C144.308 34.4551 144.867 35.8774 144.865 37.6267C144.865 39.4383 144.276 40.9111 143.098 42.0454C141.919 43.1796 140.38 43.7467 138.481 43.7467C136.473 43.7467 134.896 43.1183 133.75 41.8614C132.603 40.6045 132.029 38.8809 132.027 36.6907C132.027 33.6898 132.601 31.4098 133.75 29.8507C134.582 28.7206 135.82 27.8287 137.464 27.175V10.5894H139.173L139.652 12.0987C140.226 11.5088 140.914 11.044 141.675 10.7333C142.436 10.4227 143.253 10.2729 144.075 10.2934ZM143.882 20.7971C144.955 20.7971 145.987 20.3849 146.766 19.6454C147.142 19.2663 147.436 18.8148 147.632 18.3184C147.828 17.822 147.921 17.2909 147.906 16.7574C147.921 16.2234 147.828 15.6919 147.632 15.195C147.436 14.6982 147.142 14.2463 146.766 13.8667C146.393 13.4861 145.945 13.1866 145.451 12.987C144.956 12.7875 144.426 12.692 143.894 12.7067C143.168 12.7006 142.453 12.8844 141.82 13.24C141.209 13.5757 140.706 14.0789 140.371 14.6907C140.024 15.3233 139.847 16.0355 139.857 16.7574C139.842 17.2909 139.936 17.822 140.131 18.3184C140.327 18.8148 140.622 19.2663 140.997 19.6454C141.776 20.3849 142.808 20.7971 143.882 20.7971ZM163.249 10.5894L162.954 12.12C162.373 11.5204 161.673 11.0483 160.9 10.7338C160.127 10.4194 159.297 10.2694 158.462 10.2934C157.611 10.271 156.763 10.4225 155.972 10.7388C155.181 11.0551 154.462 11.5295 153.86 12.133C153.257 12.7366 152.784 13.4567 152.468 14.2494C152.153 15.0422 152.002 15.8909 152.025 16.744C152.001 17.5992 152.151 18.4502 152.466 19.2452C152.782 20.0402 153.256 20.7625 153.859 21.368C154.457 21.9757 155.174 22.4536 155.965 22.772C156.755 23.0903 157.603 23.2424 158.454 23.2187C159.28 23.2411 160.101 23.0922 160.866 22.7816C161.631 22.4709 162.324 22.0051 162.901 21.4134L163.151 22.9227H165.204V10.5894H163.249ZM161.53 19.656C161.155 20.0348 160.707 20.332 160.213 20.5288C159.718 20.7257 159.188 20.8181 158.657 20.8C158.122 20.8158 157.59 20.7222 157.093 20.5249C156.596 20.3277 156.144 20.0309 155.765 19.6527C155.386 19.2746 155.088 18.823 154.89 18.3256C154.691 17.8282 154.596 17.2955 154.61 16.76C154.601 16.0361 154.785 15.3228 155.142 14.6934C155.481 14.0852 155.982 13.583 156.588 13.2427C157.217 12.8865 157.929 12.7025 158.651 12.7094C159.185 12.6944 159.715 12.7894 160.211 12.9885C160.706 13.1876 161.155 13.4865 161.53 13.8667C161.902 14.2469 162.194 14.6988 162.388 15.1952C162.581 15.6916 162.673 16.2221 162.656 16.7547C162.671 17.2875 162.579 17.818 162.386 18.3145C162.192 18.8111 161.901 19.2637 161.53 19.6454V19.656ZM138.481 41.3547C138.983 41.37 139.483 41.2834 139.952 41.1001C140.42 40.9168 140.846 40.6406 141.205 40.288C141.56 39.9433 141.84 39.5282 142.027 39.069C142.213 38.6099 142.302 38.1169 142.288 37.6214C142.298 36.9444 142.125 36.2773 141.788 35.6907C141.458 35.1324 140.985 34.6721 140.419 34.3574C139.827 34.0263 139.159 33.8571 138.481 33.8667C137.8 33.8573 137.128 34.0265 136.532 34.3574C135.962 34.6676 135.489 35.1289 135.163 35.6907C134.832 36.2792 134.663 36.9456 134.674 37.6214C134.659 38.117 134.747 38.6102 134.934 39.0694C135.121 39.5286 135.401 39.9437 135.757 40.288C136.116 40.6406 136.542 40.9168 137.01 41.1001C137.478 41.2834 137.979 41.37 138.481 41.3547ZM64.6571 27.4667H76.638V43.4667H73.9915V29.912H67.2796V43.4667H64.6571V27.4667ZM91.2867 37.312C91.2867 37.5387 91.2707 37.8214 91.2414 38.1574H81.2547C81.3565 39.072 81.8019 39.9136 82.5006 40.5114C83.1992 41.1091 84.0988 41.4183 85.0167 41.376C85.4815 41.3793 85.9438 41.3063 86.3852 41.16C86.7958 41.0204 87.1782 40.8082 87.514 40.5334C87.8386 40.2638 88.1096 39.9354 88.3128 39.5654H90.9752C90.5466 40.8034 89.7383 41.8742 88.6658 42.6246C87.5933 43.3751 86.3115 43.7669 85.0034 43.744C84.1622 43.7657 83.3257 43.6124 82.5466 43.2939C81.7676 42.9753 81.0629 42.4985 80.4772 41.8934C79.312 40.6406 78.6642 38.9921 78.6642 37.28C78.6642 35.5679 79.312 33.9194 80.4772 32.6667C81.0631 32.062 81.7678 31.5855 82.5468 31.2674C83.3259 30.9493 84.1623 30.7965 85.0034 30.8187C86.1583 30.7984 87.2957 31.1033 88.2861 31.6987C89.2256 32.2639 89.9912 33.0777 90.4986 34.0507C91.0267 35.0557 91.2975 36.1763 91.2867 37.312ZM85.0167 33.1094C84.1493 33.0886 83.3019 33.3715 82.6205 33.9094C81.945 34.4673 81.4824 35.2415 81.3106 36.1014H88.7654C88.6307 35.5209 88.3748 34.9756 88.0146 34.5014C87.6737 34.0603 87.2317 33.7081 86.7259 33.4747C86.1903 33.2274 85.6064 33.1026 85.0167 33.1094ZM102.685 33.4054V31.1227H91.537V33.4054H95.8927V43.4667H98.3528V33.4054H102.685ZM115.549 37.312C115.549 37.5387 115.533 37.8214 115.504 38.1574H105.512C105.614 39.072 106.059 39.9136 106.758 40.5114C107.457 41.1091 108.356 41.4183 109.274 41.376C109.739 41.3793 110.201 41.3063 110.643 41.16C111.053 41.0235 111.435 40.8139 111.771 40.5414C112.097 40.2725 112.368 39.944 112.57 39.5734H115.233C114.803 40.8112 113.994 41.8815 112.921 42.6319C111.848 43.3822 110.566 43.7742 109.258 43.752C108.417 43.7734 107.581 43.6199 106.802 43.3014C106.023 42.9829 105.318 42.5062 104.732 41.9014C103.568 40.6478 102.922 38.9996 102.922 37.288C102.922 35.5765 103.568 33.9283 104.732 32.6747C105.318 32.0702 106.023 31.5939 106.802 31.2759C107.581 30.9578 108.417 30.8049 109.258 30.8267C110.413 30.8057 111.551 31.1106 112.541 31.7067C113.481 32.2711 114.247 33.0852 114.753 34.0587C115.283 35.0606 115.556 36.1784 115.549 37.312ZM109.279 33.1094L109.278 33.1093C109.866 33.1031 110.449 33.2279 110.983 33.4747C111.49 33.7068 111.932 34.0592 112.272 34.5014C112.633 34.9755 112.89 35.5207 113.025 36.1014H105.571C105.744 35.2413 106.207 34.4672 106.883 33.9094C107.563 33.3704 108.411 33.0874 109.278 33.1093L109.274 33.1094H109.279ZM127.445 31.6587C126.443 31.0963 125.311 30.8092 124.162 30.8267C123.34 30.805 122.522 30.9539 121.76 31.2641C120.998 31.5744 120.309 32.0392 119.735 32.6294L119.256 31.1227H117.546V47.8854H120.076V42.2667C121.206 43.2535 122.663 43.7831 124.162 43.752C125.01 43.7773 125.853 43.6269 126.64 43.3103C127.427 42.9937 128.139 42.5176 128.734 41.912C129.333 41.3044 129.802 40.5812 130.114 39.7864C130.426 38.9915 130.573 38.1416 130.547 37.288C130.562 36.1327 130.279 34.993 129.727 33.9787C129.198 33.0069 128.407 32.2032 127.445 31.6587ZM123.969 41.3305C122.896 41.3305 121.864 40.9182 121.085 40.1787C120.71 39.8 120.416 39.3494 120.221 38.854C120.025 38.3586 119.931 37.8287 119.945 37.296C119.935 36.5742 120.112 35.8621 120.459 35.2294C120.795 34.619 121.296 34.1161 121.905 33.7787C122.539 33.4231 123.255 33.2393 123.981 33.2454C124.514 33.2303 125.043 33.3251 125.537 33.5237C126.032 33.7223 126.48 34.0206 126.854 34.4C127.587 35.1833 127.994 36.2162 127.994 37.2894C127.994 38.3625 127.587 39.3955 126.854 40.1787C126.075 40.9182 125.043 41.3305 123.969 41.3305ZM157.815 31.1227H155.102L151.431 39.7334L147.525 31.1227H144.764L150.124 42.5627L149.857 43.1334C149.402 44.1387 148.984 44.8 148.603 45.12C148.223 45.44 147.624 45.6 146.825 45.6H145.776V47.8854H147.03C148.256 47.8854 149.241 47.5769 149.983 46.96C150.725 46.3431 151.45 45.2507 152.16 43.6827L157.815 31.1227ZM165.771 30.8267C166.923 30.8074 168.059 31.0945 169.064 31.6587C170.026 32.2032 170.817 33.0069 171.346 33.9787C171.898 34.993 172.181 36.1327 172.166 37.288C172.192 38.1416 172.045 38.9915 171.733 39.7864C171.421 40.5812 170.952 41.3044 170.353 41.912C169.759 42.5176 169.046 42.9937 168.259 43.3103C167.472 43.6269 166.629 43.7773 165.781 43.752C164.284 43.7818 162.829 43.2523 161.7 42.2667V47.8854H159.171V31.1227H160.88L161.359 32.6294C161.931 32.0412 162.618 31.5775 163.377 31.2674C164.136 30.9572 164.951 30.8072 165.771 30.8267ZM162.693 40.1787C163.472 40.9182 164.504 41.3305 165.578 41.3305C166.651 41.3305 167.684 40.9182 168.463 40.1787C169.195 39.3955 169.602 38.3625 169.602 37.2894C169.602 36.2162 169.195 35.1833 168.463 34.4C168.09 34.0223 167.644 33.725 167.152 33.5264C166.66 33.3278 166.133 33.2322 165.603 33.2454C164.876 33.2393 164.161 33.4231 163.526 33.7787C162.918 34.1161 162.416 34.619 162.081 35.2294C161.734 35.8621 161.557 36.5742 161.567 37.296C161.551 37.8277 161.643 38.3571 161.836 38.8525C162.03 39.3478 162.321 39.7989 162.693 40.1787ZM182.049 33.384V31.1227H174.184V43.4667H176.668V33.384H182.049ZM193.929 31.1227H195.888V43.4667H193.825L193.575 41.96C192.998 42.5515 192.305 43.0171 191.54 43.3278C190.775 43.6384 189.954 43.7874 189.128 43.7654C188.276 43.7841 187.429 43.6292 186.638 43.31C185.847 42.9907 185.13 42.5139 184.529 41.9084C183.928 41.3028 183.456 40.5813 183.141 39.7875C182.827 38.9937 182.677 38.1442 182.701 37.2907C182.676 36.4363 182.825 35.5857 183.139 34.7911C183.454 33.9964 183.927 33.2744 184.529 32.6692C185.132 32.0641 185.852 31.5885 186.644 31.2717C187.437 30.9549 188.286 30.8034 189.139 30.8267C189.973 30.8016 190.804 30.951 191.577 31.2656C192.35 31.5801 193.05 32.0528 193.63 32.6534L193.929 31.1227ZM186.439 40.1894C186.818 40.5677 187.27 40.8644 187.768 41.0611C188.266 41.2579 188.798 41.3505 189.333 41.3334C189.866 41.3508 190.396 41.2575 190.89 41.0592C191.385 40.8609 191.833 40.562 192.206 40.1814C192.579 39.7987 192.872 39.3445 193.066 38.846C193.26 38.3474 193.351 37.8148 193.335 37.28C193.351 36.7484 193.26 36.2191 193.065 35.724C192.871 35.229 192.579 34.7785 192.206 34.4C191.83 34.0209 191.38 33.7237 190.883 33.5268C190.387 33.33 189.856 33.2378 189.323 33.256C188.6 33.2489 187.888 33.4329 187.259 33.7894C186.653 34.1311 186.152 34.6329 185.811 35.24C185.455 35.8701 185.272 36.5829 185.278 37.3067C185.267 37.8393 185.364 38.3686 185.563 38.8624C185.763 39.3562 186.061 39.8041 186.439 40.1787V40.1894Z" fill="#1A236A"/>
<path fill-rule="evenodd" clip-rule="evenodd" d="M178.649 0.0666001C179.096 0.0592783 179.537 0.170605 179.927 0.389267C180.299 0.602023 180.605 0.914039 180.811 1.2906C181.026 1.68516 181.137 2.12886 181.13 2.5786C181.141 2.91004 181.083 3.24009 180.962 3.54864C180.841 3.85718 180.658 4.13775 180.425 4.37327C180.194 4.60821 179.917 4.79292 179.611 4.91588C179.306 5.03885 178.978 5.09741 178.649 5.08793C178.063 5.10298 177.493 4.89745 177.052 4.51193V6.69593H176.066V0.181267H176.732L176.918 0.767933C177.142 0.536777 177.412 0.354991 177.71 0.23422C178.008 0.113449 178.328 0.0563562 178.649 0.0666001ZM177.454 3.6986C177.755 3.98776 178.157 4.14915 178.574 4.14915C178.992 4.14915 179.394 3.98776 179.695 3.6986C179.841 3.55173 179.955 3.37669 180.031 3.18414C180.107 2.99159 180.143 2.78556 180.137 2.5786C180.144 2.37122 180.108 2.16473 180.032 1.97171C179.956 1.7787 179.841 1.60321 179.695 1.45593C179.55 1.3086 179.376 1.19279 179.184 1.11572C178.992 1.03865 178.786 1.00196 178.58 1.00793C178.301 1.00548 178.025 1.07528 177.781 1.2106C177.544 1.341 177.349 1.53614 177.219 1.77327C177.085 2.01842 177.017 2.29388 177.02 2.57327C177.011 2.78016 177.045 2.98663 177.118 3.1801C177.192 3.37357 177.304 3.54999 177.448 3.6986H177.454ZM172.736 5.0875C173.413 5.0875 174.066 4.83259 174.565 4.37328C174.804 4.14135 174.993 3.86197 175.118 3.55296C175.244 3.24395 175.304 2.91211 175.294 2.57861C175.301 2.12748 175.187 1.68279 174.964 1.29061C174.746 0.91092 174.427 0.599007 174.043 0.389276C173.64 0.1774 173.191 0.0667114 172.736 0.0667114C172.28 0.0667114 171.832 0.1774 171.428 0.389276C171.043 0.597522 170.724 0.909791 170.507 1.29061C170.284 1.68258 170.169 2.12725 170.174 2.57861C170.165 2.9123 170.225 3.24427 170.352 3.55329C170.478 3.8623 170.667 4.14158 170.907 4.37328C171.405 4.83259 172.058 5.0875 172.736 5.0875ZM173.534 3.94928C173.29 4.08378 173.015 4.15267 172.736 4.14928C172.528 4.15618 172.322 4.12019 172.129 4.04357C171.936 3.96695 171.761 3.85134 171.615 3.70394C171.469 3.55595 171.355 3.37989 171.28 3.18644C171.204 2.993 171.169 2.78621 171.176 2.57861C171.169 2.37059 171.204 2.16333 171.28 1.96943C171.355 1.77552 171.469 1.59901 171.615 1.45061C171.919 1.16624 172.32 1.00808 172.736 1.00808C173.152 1.00808 173.552 1.16624 173.857 1.45061C174.002 1.60106 174.115 1.7797 174.189 1.97553C174.262 2.17136 174.295 2.38023 174.285 2.58928C174.289 2.8684 174.221 3.14379 174.088 3.38928C173.959 3.62407 173.768 3.81805 173.534 3.94928ZM169.394 0.181274H165.222V4.97327H166.205V1.06661H168.42V4.98127H169.394V0.181274ZM185.555 1.06661V0.181274H181.218V1.06661H182.909V4.97327H183.873V1.06661H185.555ZM190.012 0.181269H190.774V4.98127H189.975L189.879 4.3946C189.655 4.62463 189.386 4.8057 189.088 4.9264C188.791 5.0471 188.472 5.10483 188.151 5.09594C187.821 5.10318 187.492 5.04256 187.186 4.91782C186.879 4.79308 186.602 4.60685 186.37 4.3706C186.136 4.13499 185.952 3.8542 185.829 3.54525C185.706 3.2363 185.648 2.90563 185.656 2.57327C185.648 2.24192 185.706 1.91225 185.829 1.60433C185.951 1.29641 186.135 1.01668 186.369 0.78217C186.603 0.547664 186.882 0.363289 187.189 0.24027C187.497 0.117251 187.826 0.0581628 188.156 0.0666022C188.48 0.0571625 188.803 0.115354 189.103 0.237475C189.403 0.359596 189.675 0.542972 189.9 0.775936L190.012 0.181269ZM187.099 3.6986C187.247 3.84824 187.424 3.96556 187.619 4.04314C187.815 4.12071 188.024 4.15685 188.234 4.14927C188.441 4.15637 188.647 4.11993 188.839 4.04231C189.031 3.96469 189.205 3.8476 189.349 3.6986C189.495 3.55043 189.608 3.37433 189.684 3.18093C189.759 2.98753 189.795 2.78083 189.789 2.57327C189.795 2.36608 189.76 2.1597 189.684 1.9667C189.609 1.77369 189.495 1.5981 189.349 1.4506C189.204 1.30397 189.029 1.18898 188.838 1.11281C188.646 1.03665 188.44 1.00095 188.234 1.00794C187.954 1.00437 187.679 1.07425 187.435 1.2106C187.2 1.34328 187.006 1.53786 186.873 1.77327C186.736 2.01737 186.665 2.29323 186.668 2.57327C186.66 2.78039 186.694 2.98706 186.768 3.18059C186.842 3.37411 186.955 3.5504 187.099 3.6986ZM196.011 0.181274H192.76L192.403 3.21594C192.337 3.80261 192.071 4.09594 191.604 4.09594H191.373V5.01327H191.543C191.772 5.0314 192.002 5.00397 192.22 4.93256C192.438 4.86116 192.639 4.7472 192.813 4.59727C193.109 4.31727 193.279 3.84261 193.346 3.16794L193.559 1.03461H195.044V4.98127H196.011V0.181274Z" fill="#1A236A"/>
</g>
<defs>
<clipPath id="clip0_704_88320">
<rect width="196" height="48" fill="white"/>
</clipPath>
</defs>
</svg>
