<svg width="24" height="24" viewBox="0 0 24 24" fill="none" xmlns="http://www.w3.org/2000/svg">
<rect width="24" height="6" fill="white"/>
<rect width="6" height="6" fill="#E5E7EB"/>
<rect x="6" width="6" height="6" fill="white"/>
<rect x="12" width="6" height="6" fill="#E5E7EB"/>
<rect x="18" width="6" height="6" fill="white"/>
<rect width="24" height="6" transform="translate(0 6)" fill="white"/>
<rect y="6" width="6" height="6" fill="white"/>
<rect x="6" y="6" width="6" height="6" fill="#E5E7EB"/>
<rect x="12" y="6" width="6" height="6" fill="white"/>
<rect x="18" y="6" width="6" height="6" fill="#E5E7EB"/>
<rect width="24" height="6" transform="translate(0 12)" fill="white"/>
<rect y="12" width="6" height="6" fill="#E5E7EB"/>
<rect x="6" y="12" width="6" height="6" fill="white"/>
<rect x="12" y="12" width="6" height="6" fill="#E5E7EB"/>
<rect x="18" y="12" width="6" height="6" fill="white"/>
<rect width="24" height="6" transform="translate(0 18)" fill="white"/>
<rect y="18" width="6" height="6" fill="white"/>
<rect x="6" y="18" width="6" height="6" fill="#E5E7EB"/>
<rect x="12" y="18" width="6" height="6" fill="white"/>
<rect x="18" y="18" width="6" height="6" fill="#E5E7EB"/>
</svg>
