<svg width="451" height="450" viewBox="0 0 451 450" fill="none" xmlns="http://www.w3.org/2000/svg">
<path d="M365.19 226.86C363.806 226.713 363.243 223.875 365.19 223.555C367.674 223.165 366.315 226.947 365.19 226.86Z" fill="#21467E"/>
<path d="M358.856 231.922C357.471 231.767 356.908 228.928 358.856 228.617C361.365 228.244 359.972 232.026 358.856 231.922Z" fill="#21467E"/>
<path d="M363.174 263.587C361.789 263.44 361.227 260.602 363.174 260.29C365.692 259.892 364.299 263.682 363.174 263.587Z" fill="#21467E"/>
<path d="M369.967 264.452C368.583 264.305 368.02 261.467 369.967 261.155C372.451 260.757 371.092 264.548 369.967 264.452Z" fill="#21467E"/>
<path d="M248.441 147.981C252.223 124.459 240.298 87.8623 228.633 96.5854C227.767 97.2691 223.06 93.2796 219.875 93.8162C202.567 96.6979 210.287 139.586 212.173 150.551C216.933 178.312 220.091 207.727 195.592 217.869C164.438 230.789 155.568 189.026 160.319 189.571C163.781 189.96 169.596 191.172 173.239 189.424C187.172 182.734 172.962 158.097 169.466 145.523C160.518 113.305 167.519 51.6287 215.825 74.2412C243.145 39.1239 273.096 119.518 248.441 147.981Z" fill="#21467E"/>
<path d="M168.592 135C169.02 137.892 169.598 140.76 170.323 143.593C171.035 146.423 171.931 149.204 173.006 151.918C175.082 157.448 177.332 162.978 178.925 168.81C179.774 171.75 180.28 174.779 180.431 177.836C180.503 179.42 180.363 181.006 180.015 182.553C179.665 184.163 178.984 185.684 178.016 187.018C177.024 188.35 175.735 189.431 174.252 190.177C173.522 190.593 172.735 190.899 171.915 191.085C171.13 191.264 170.331 191.377 169.527 191.423C167.982 191.502 166.433 191.45 164.897 191.267C164.144 191.189 163.391 191.094 162.656 190.99L160.665 190.722C160.637 190.715 160.607 190.715 160.579 190.72C160.55 190.726 160.523 190.737 160.499 190.753C160.474 190.769 160.454 190.79 160.438 190.814C160.422 190.839 160.411 190.866 160.406 190.895V190.973L160.354 191.284C160.32 191.511 160.3 191.739 160.293 191.968C160.278 192.974 160.356 193.979 160.527 194.971C160.871 197.038 161.416 199.067 162.154 201.028C163.819 205.712 166.526 209.955 170.072 213.438C173.581 216.867 178.208 218.916 183.105 219.21C187.463 219.354 191.795 218.48 195.757 216.657C197.763 215.803 199.677 214.744 201.468 213.499C203.246 212.253 204.87 210.8 206.306 209.172C207.741 207.532 208.973 205.725 209.975 203.789C211.004 201.86 211.834 199.83 212.45 197.731C213.684 193.476 214.384 189.084 214.535 184.655C214.942 175.751 213.912 166.785 212.588 157.915C211.931 153.467 211.126 149.045 210.425 144.579C209.724 140.114 209.153 135.631 208.737 131.123C208.374 127.125 208.149 123.101 208.149 119.068C208.109 115.007 208.448 110.951 209.161 106.953C209.524 104.932 210.105 102.956 210.892 101.059C211.686 99.1138 212.863 97.348 214.354 95.867C215.921 94.3671 217.912 93.3852 220.057 93.0545C221.17 92.9776 222.286 93.1582 223.319 93.5823C224.276 93.9515 225.21 94.3792 226.114 94.8631C226.633 95.1227 227.153 95.3996 227.646 95.616C227.835 95.7098 228.032 95.788 228.234 95.8496C228.298 95.8695 228.365 95.8728 228.431 95.8592C228.496 95.8456 228.556 95.8155 228.607 95.7718L229.351 95.3045C229.654 95.1497 229.966 95.0139 230.285 94.8977C230.441 94.8372 230.597 94.7679 230.761 94.716L231.272 94.6295C231.609 94.5489 231.955 94.5111 232.302 94.517C233.665 94.5215 234.995 94.9378 236.118 95.7112C238.153 97.1764 239.844 99.0661 241.077 101.25C243.558 105.473 245.453 110.015 246.71 114.75C248.025 119.431 248.951 124.212 249.48 129.046C250.023 133.876 250.104 138.747 249.722 143.593C249.635 144.389 249.549 145.081 249.471 145.653C249.393 146.224 249.281 146.691 249.203 147.054C249.03 147.773 248.9 148.084 248.805 148.015C248.709 147.946 248.623 146.284 248.58 143.628C248.423 134.718 247.227 125.857 245.014 117.225C243.832 112.355 242.028 107.658 239.649 103.249C238.531 101.152 237.011 99.2964 235.175 97.7881C234.38 97.1611 233.415 96.7873 232.406 96.715H232.059C231.943 96.7261 231.827 96.7463 231.713 96.7756C231.476 96.7944 231.243 96.8468 231.021 96.9314C230.796 97.0352 230.562 97.1045 230.337 97.217L229.472 97.7362C229.267 97.8598 229.049 97.9614 228.823 98.0391C228.588 98.0735 228.349 98.0735 228.113 98.0391C227.696 97.9831 227.288 97.8695 226.902 97.7016C226.365 97.4766 225.924 97.2429 225.474 97.0179C224.608 96.5593 223.743 96.1525 222.938 95.7804C222.198 95.4389 221.405 95.2253 220.593 95.1487C220.438 95.1346 220.281 95.1346 220.126 95.1487L219.529 95.2958C219.116 95.3658 218.714 95.4909 218.334 95.6679C215.193 96.8795 213.142 100.185 212.086 103.716C211.511 105.514 211.091 107.358 210.832 109.228C210.537 111.106 210.382 113.028 210.269 114.949C210.098 118.822 210.138 122.702 210.39 126.571C210.942 134.379 211.907 142.152 213.281 149.858C214.673 157.669 215.67 165.546 216.266 173.457C216.757 179.856 216.513 186.291 215.539 192.634C215.014 195.869 214.114 199.032 212.857 202.058C211.58 205.124 209.827 207.968 207.664 210.487C205.466 213.003 202.852 215.122 199.936 216.753C197.048 218.392 193.95 219.632 190.729 220.439C187.474 221.276 184.087 221.464 180.759 220.993C177.422 220.478 174.249 219.195 171.491 217.246C167.068 213.965 163.583 209.582 161.383 204.533C160.242 202.061 159.372 199.473 158.787 196.814C158.479 195.463 158.294 194.088 158.233 192.703C158.204 191.961 158.262 191.217 158.407 190.488C158.508 189.971 158.75 189.491 159.107 189.104C159.291 188.917 159.516 188.777 159.765 188.696C160.013 188.615 160.277 188.594 160.535 188.636L163.997 189.086C165.079 189.225 166.152 189.328 167.216 189.38C169.336 189.458 171.482 189.38 173.213 188.411C175.036 187.519 176.495 186.024 177.341 184.179C178.164 182.271 178.534 180.197 178.423 178.122C178.163 173.8 177.289 169.537 175.827 165.461C174.477 161.299 172.858 157.214 171.292 153.095C170.531 151.053 169.769 149.002 169.111 146.899C168.782 145.834 168.523 144.77 168.246 143.714C167.969 142.658 167.753 141.577 167.519 140.503C166.657 136.218 166.065 131.882 165.745 127.523C165.055 118.791 165.5 110.006 167.069 101.388C168.194 94.8043 170.451 88.4653 173.741 82.6525C175.442 79.7353 177.594 77.1065 180.119 74.8641C182.645 72.5991 185.633 70.9102 188.877 69.9141C189.674 69.6365 190.493 69.4281 191.326 69.291L192.563 69.0314C192.979 68.9629 193.398 68.9167 193.818 68.8929C194.683 68.8323 195.488 68.7285 196.328 68.7025L198.846 68.7891C199.682 68.8153 200.515 68.902 201.338 69.0487C202.16 69.1785 203 69.2477 203.813 69.4295L206.236 70.0179L207.448 70.3121L208.633 70.7102C210.215 71.2031 211.77 71.7809 213.289 72.441L215.366 73.3064C215.47 73.3064 215.582 73.4189 215.678 73.4102L215.903 73.142L216.578 72.2766C218.703 69.6739 221.358 67.5529 224.366 66.0545C226.797 64.9275 229.509 64.5509 232.155 64.9727C234.746 65.453 237.187 66.5415 239.277 68.1487C241.331 69.7012 243.173 71.5167 244.755 73.5487C246.333 75.5475 247.745 77.6719 248.978 79.9006C251.423 84.3403 253.387 89.0284 254.836 93.8852C256.306 98.7295 257.351 103.692 257.96 108.718C258.509 113.141 258.668 117.603 258.436 122.053C258.262 125.584 257.752 129.09 256.913 132.525C256.346 134.875 255.567 137.169 254.585 139.378C253.556 141.837 252.09 144.089 250.258 146.025C249.72 146.601 249.142 147.139 248.528 147.634C248.199 147.877 248.199 147.712 248.528 147.193C248.683 146.933 248.908 146.587 249.194 146.154L250.189 144.545C252.459 140.665 254.109 136.455 255.079 132.066C257.043 123.473 256.87 114.343 255.425 105.421C254.69 100.931 253.59 96.5087 252.136 92.1977C250.706 87.8587 248.829 83.6796 246.537 79.7275C244.218 75.8333 241.388 72.1468 237.806 69.5766C236.078 68.2829 234.082 67.3955 231.964 66.9804C229.88 66.6043 227.732 66.848 225.785 67.6814C223.74 68.5633 221.881 69.8261 220.307 71.4025C219.485 72.1791 218.705 72.9995 217.971 73.8602L217.244 74.7256L216.682 75.4093L216.405 75.7468L216.257 75.9198C216.189 75.9 216.122 75.8739 216.058 75.842L213.532 74.7689C212.458 74.3362 211.411 73.817 210.312 73.4535L207.032 72.3545C205.925 72.0516 204.8 71.8093 203.692 71.4891C203.137 71.3533 202.573 71.255 202.005 71.1948L200.274 70.9525C196.941 70.5505 193.562 70.7617 190.305 71.5756C187.097 72.4799 184.128 74.0782 181.607 76.2573C179.064 78.4837 176.906 81.1153 175.221 84.0458C173.545 87.0483 172.173 90.2112 171.128 93.4871C169.091 100.144 167.907 107.033 167.606 113.988C167.458 117.45 167.432 120.98 167.606 124.468C167.779 127.955 168.099 131.443 168.627 134.853L168.592 135Z" fill="#21467E"/>
<path d="M245.655 161.16C244.404 163.015 242.697 164.517 240.698 165.521C238.699 166.526 236.475 167 234.24 166.898C232.661 166.863 231.094 166.609 229.585 166.145C227 165.294 224.566 164.038 222.376 162.424C220.218 160.85 218.229 159.058 216.439 157.076C214.859 155.336 213.412 153.479 212.112 151.52C210.3 149.05 209.055 146.21 208.469 143.204C208.339 142.234 208.902 142.338 209.568 142.953C210.475 143.885 211.202 144.976 211.714 146.172C212.904 148.803 214.416 151.277 216.214 153.536C218.012 155.849 220.042 157.972 222.272 159.871C224.995 162.19 228.246 163.804 231.739 164.57C233.615 164.981 235.558 164.981 237.434 164.57C238.35 164.345 239.236 164.01 240.073 163.575C240.901 163.104 241.671 162.538 242.366 161.887C244.067 160.169 245.375 158.102 246.2 155.829C247.474 152.301 248.241 148.609 248.476 144.865C248.662 141.983 248.662 139.093 248.476 136.211L248.346 134.325C248.208 131.954 248.277 131.192 248.796 130.647C248.901 130.511 249.02 130.386 249.151 130.275C249.558 130.015 250.016 130.967 250.215 132.724C250.92 138.185 250.876 143.717 250.086 149.166C249.428 153.294 248.303 157.534 245.759 161.212L245.655 161.16Z" fill="#21467E"/>
<path d="M224.202 170.031C229.065 169.52 231.938 165.505 230.424 165.834C225.119 167.002 214.371 155.215 213.203 151.312C213.229 153.173 216.552 170.836 224.202 170.031Z" fill="#21467E"/>
<path d="M224.107 170.68C226.408 170.307 230.381 169.243 231.428 166.785C232.12 165.167 231.307 165.435 230.008 165.262C225.967 164.717 222.601 161.628 219.84 158.815C217.703 156.626 215.176 154.004 214.146 151.027C213.895 150.317 212.216 150.62 212.251 151.356C212.571 157.612 216.024 171.008 224.107 170.645C225.145 170.593 225.578 169.286 224.297 169.347C217.651 169.641 214.414 156.366 214.155 151.174L212.259 151.511C213.817 155.916 218.006 159.836 221.536 162.709C223.308 164.308 225.395 165.517 227.663 166.257C228.061 166.37 229.887 166.309 230.078 166.474C230.078 166.474 229.758 166.69 229.212 167.08C227.801 168.229 226.122 169.003 224.332 169.33C223.302 169.537 222.826 170.887 224.107 170.68Z" fill="#21467E"/>
<path d="M135.102 250.512C130.559 247.509 126.093 244.376 121.784 240.992C117.408 237.683 113.313 234.018 109.538 230.037C106.683 227.116 104.343 223.734 102.615 220.033C101.868 218.322 101.42 216.495 101.291 214.633C101.171 212.712 101.556 210.794 102.408 209.068C104.138 205.667 106.968 203.236 109.885 201.237C112.833 199.281 115.943 197.579 119.179 196.148C122.372 194.686 125.635 193.396 128.914 192.185C134.73 190.03 140.649 188.074 146.473 186.127C153.959 183.635 161.461 181.151 168.843 178.503C171.136 177.638 171.041 178.278 169.302 179.533C166.345 181.464 163.144 182.992 159.783 184.076C152.133 186.672 144.439 189.026 136.824 191.588C129.209 194.149 121.611 196.849 114.584 200.631C112.475 201.755 110.476 203.073 108.612 204.568C106.756 206.005 105.24 207.834 104.173 209.925C103.204 212.01 103.008 214.372 103.619 216.588C104.231 218.893 105.232 221.076 106.579 223.044C109.67 227.448 113.33 231.423 117.465 234.865C121.589 238.404 125.896 241.723 130.368 244.809C135.863 248.651 141.523 252.26 147.261 255.738C155.914 261 164.862 266.019 173.698 270.909C177.16 272.821 180.552 274.682 183.918 276.646C185.631 277.616 187.289 278.68 188.886 279.831C189.317 280.153 189.717 280.515 190.08 280.913C190.461 281.345 190.694 281.683 191.014 282.063C191.601 282.798 192.228 283.5 192.892 284.166C194.018 285.326 195.303 286.319 196.709 287.117C198.506 288.16 200.572 288.645 202.645 288.511C203.329 288.511 203.865 288.389 204.376 288.372C204.886 288.355 205.241 288.303 205.579 288.303C205.907 288.281 206.237 288.281 206.565 288.303C206.946 288.372 206.565 288.744 205.51 289.359C205.203 289.535 204.878 289.677 204.54 289.783C204.132 289.948 203.709 290.075 203.277 290.163C202.168 290.4 201.025 290.441 199.902 290.285C198.014 290.005 196.212 289.304 194.632 288.234C193.077 287.194 191.666 285.954 190.435 284.547C189.82 283.863 189.223 283.137 188.704 282.427C188.188 281.866 187.607 281.369 186.973 280.947C185.562 279.978 184.031 279.052 182.49 278.143C176.286 274.543 169.812 271.064 163.409 267.456C153.889 262.108 144.37 256.561 135.18 250.546L135.102 250.512Z" fill="#21467E"/>
<path d="M197.34 284.512C200.594 287.654 205.432 287.498 209.568 286.719C210.641 286.52 211.74 285.282 209.992 285.611C207.999 286.012 205.959 286.123 203.934 285.94C203.779 285.94 204.54 286.07 203.934 285.88C203.58 285.767 203.216 285.637 202.861 285.499C201.681 285.092 200.594 284.45 199.668 283.612C199.14 283.102 196.812 284.028 197.323 284.478L197.34 284.512Z" fill="#21467E"/>
<path d="M211.654 282.981C210.295 283.093 208.192 283.284 206.894 282.834C207.37 282.998 207.136 282.903 206.894 282.669C206.571 282.399 206.227 282.156 205.864 281.942C204.86 281.25 203.839 280.584 202.801 279.952C202.117 279.528 200.205 280.497 201.122 281.068C202.645 281.994 204.359 283.725 206.081 284.192C207.836 284.524 209.633 284.571 211.403 284.331C212.519 284.236 213.134 282.851 211.654 282.981Z" fill="#21467E"/>
<path d="M136.815 212.331L140.839 211.154C141.333 211.007 141.8 210.807 142.285 210.66C144.015 210.167 145.746 209.7 147.477 209.155C148.232 208.911 148.972 208.622 149.692 208.289C150.583 207.809 151.527 207.434 152.505 207.173C153.137 207.052 153.197 209.207 152.098 209.691C150.166 210.527 148.158 211.173 146.101 211.621C144.863 211.881 143.661 212.4 142.44 212.781L138.399 214.001L135.915 214.762C134.678 215.169 133.423 215.558 132.22 216.043C131.286 216.424 130.42 216.908 129.529 217.367C129.338 217.471 129.157 217.583 128.958 217.679C128.213 218.025 127.928 217.999 127.547 217.557C127.461 217.454 127.357 217.358 127.287 217.255C127.045 216.891 127.218 216.389 127.729 216.078C129.314 215.062 131.017 214.242 132.8 213.637C134.133 213.144 135.483 212.72 136.833 212.279L136.815 212.331Z" fill="#21467E"/>
<path d="M178.016 259.684L164.854 248.365L159.99 244.306C154.339 239.477 148.68 234.648 142.96 229.897C140.424 227.786 137.828 225.726 135.24 223.727C133.579 222.438 131.9 221.131 130.221 219.911L127.711 218.016C126.846 217.375 126.059 216.726 125.236 216.138C124.215 215.385 124.596 214.995 125.816 215.177C127.716 215.573 129.495 216.412 131.009 217.626C137.932 222.862 144.483 228.366 151.008 234.068C154.911 237.53 159.125 240.862 163.175 244.289L176.485 255.634L184.645 262.661L186.186 264.002L186.956 264.677L187.336 264.997L187.683 265.266C188.78 265.888 189.999 266.263 191.257 266.365C193.92 266.594 196.598 266.594 199.261 266.365C201.105 266.243 202.939 266.088 204.809 266.036C205.759 266.003 206.711 266.044 207.656 266.157C208.166 266.223 208.667 266.342 209.153 266.512C209.814 266.748 210.387 267.18 210.797 267.749C210.994 268.041 211.077 268.395 211.031 268.744C210.959 269.094 210.798 269.419 210.563 269.688C210.333 269.96 210.068 270.201 209.776 270.406L209.56 270.562L209.404 270.666L209.058 270.865C208.644 271.113 208.216 271.339 207.777 271.54C206.639 272.087 205.43 272.472 204.186 272.682C203.599 272.806 202.987 272.724 202.455 272.448C202.273 272.344 202.013 272.197 201.996 272.033C201.982 271.991 201.982 271.945 201.996 271.903C202.034 271.861 202.06 271.811 202.074 271.756C202.218 271.638 202.382 271.548 202.559 271.488C203.069 271.271 203.952 270.942 205.06 270.501C205.982 270.148 206.876 269.726 207.734 269.238C207.941 269.128 208.141 269.003 208.331 268.866C208.379 268.842 208.423 268.81 208.461 268.77L208.504 268.718C208.556 268.658 208.59 268.563 208.504 268.511C208.468 268.485 208.426 268.467 208.383 268.459C208.383 268.459 208.383 268.459 208.253 268.416L207.872 268.312C207.275 268.201 206.67 268.137 206.063 268.121C204.774 268.078 203.424 268.121 202.048 268.217C199.287 268.381 196.449 268.649 193.507 268.597C191.932 268.601 190.363 268.412 188.834 268.035C187.968 267.812 187.147 267.447 186.402 266.953L185.848 266.52L185.441 266.166L184.619 265.447L177.973 259.744L178.016 259.684Z" fill="#21467E"/>
<path d="M202.022 272.145C203.32 274.62 204.341 277.58 206.79 279.12C209.525 280.851 212.035 281.639 215.245 280.912C216.656 280.592 216.448 279.795 215.037 280.107C212.727 280.626 209.681 279.146 207.95 277.589C206.219 276.031 205.414 273.418 204.402 271.531C204.082 270.917 201.806 271.756 202.022 272.171V272.145Z" fill="#21467E"/>
<path d="M171.379 262.16C170.927 262.615 170.441 263.034 169.925 263.415C169.432 263.813 168.86 264.107 168.333 264.453C167.94 264.695 167.532 264.911 167.112 265.102C166.366 265.413 165.593 265.653 164.802 265.82C164.023 265.993 163.227 266.037 162.448 266.149C161.669 266.262 161.063 266.21 160.38 266.279C159.51 266.375 158.631 266.313 157.783 266.097C157.264 265.915 158.216 263.977 159.082 264.02C159.488 264.02 159.886 264.081 160.284 264.09C160.683 264.098 161.072 264.09 161.47 264.09C162.283 264.15 163.045 264.012 163.884 264.029C164.859 263.888 165.798 263.565 166.654 263.077C167.639 262.61 168.554 262.007 169.371 261.286C169.63 261.067 169.873 260.83 170.098 260.576C170.348 260.34 170.577 260.082 170.782 259.806C171.097 259.398 171.386 258.97 171.647 258.525C171.928 258.085 172.171 257.622 172.374 257.14C172.654 256.39 172.842 255.608 172.936 254.813C172.936 254.648 172.936 254.475 172.988 254.302C173.003 254.076 173.084 253.859 173.222 253.679C173.392 253.557 173.593 253.485 173.802 253.471C173.932 253.471 174.061 253.402 174.183 253.385C174.283 253.362 174.387 253.368 174.484 253.4C174.582 253.432 174.669 253.489 174.736 253.566C174.818 253.656 174.88 253.762 174.918 253.878C174.957 254.005 174.98 254.135 174.987 254.267C174.982 255.965 174.535 257.633 173.689 259.105C173.387 259.671 173.04 260.213 172.651 260.723C172.46 260.983 172.279 261.251 172.071 261.493L171.413 262.203L171.379 262.16Z" fill="#21467E"/>
<path d="M270.5 213.698C270.275 208.929 269.877 204.178 269.184 199.471C268.925 197.74 268.553 196.061 268.198 194.382C267.615 191.427 266.692 188.549 265.446 185.806L264.918 184.837L264.659 184.352L264.347 183.911L263.733 183.046L263.014 182.267C261.948 181.229 260.773 180.31 259.509 179.524C257.205 178.104 254.795 176.863 252.301 175.811C249.116 174.418 245.81 173.215 242.704 171.545C240.8 170.498 244.123 169.883 247.801 171.441C251.072 172.843 254.378 174.253 257.597 175.993C259.232 176.862 260.799 177.851 262.287 178.952C263.057 179.52 263.775 180.154 264.434 180.848C264.776 181.209 265.099 181.587 265.403 181.981L266.208 183.193C268.349 187.179 269.836 191.483 270.612 195.94C271.472 200.74 272.05 205.585 272.343 210.453C272.551 213.438 272.663 216.424 272.776 219.401C272.923 223.918 272.94 228.461 272.992 232.935C273.035 236.397 273.165 239.858 273.26 243.268L273.338 245.527C273.399 248.348 273.338 249.178 272.845 249.853C272.75 249.992 272.655 250.191 272.551 250.312C272.447 250.433 272.127 250.312 271.884 249.776C271.612 249.001 271.454 248.19 271.417 247.37C270.959 241.174 271.019 234.718 270.898 228.228C270.82 223.407 270.716 218.57 270.431 213.767L270.5 213.698Z" fill="#21467E"/>
<path d="M314.634 267.084C313.935 267.775 313.279 268.509 312.67 269.282C312.358 269.671 312.056 270.078 311.805 270.485L311.588 270.787C311.502 270.918 311.406 271.042 311.303 271.16C311.071 271.444 310.804 271.697 310.507 271.912C309.585 272.541 308.612 273.091 307.599 273.557C306.63 274.007 305.652 274.422 304.683 274.829C303.255 275.409 301.844 276.014 300.408 276.56C295.328 278.36 290.196 279.926 284.96 281.241C283.792 281.518 282.632 281.804 281.412 282.02C281.109 282.072 280.798 282.115 280.469 282.15C280.087 282.203 279.698 282.176 279.327 282.072C278.619 281.822 278.011 281.348 277.596 280.722C277.104 280.068 276.689 279.359 276.358 278.611C276.026 277.896 275.737 277.162 275.493 276.412C274.993 274.928 274.676 273.388 274.55 271.826C274.55 270.787 275.069 270.961 275.666 271.662C276.48 272.71 277.077 273.911 277.423 275.192C277.796 276.554 278.339 277.862 279.041 279.087C279.252 279.429 279.532 279.724 279.863 279.952C280.085 279.98 280.308 279.98 280.53 279.952C280.858 279.952 281.222 279.857 281.577 279.796C284.502 279.242 287.505 278.437 290.49 277.65C294.131 276.62 297.716 275.401 301.23 273.998C303.168 273.262 305.107 272.484 306.941 271.592C307.828 271.194 308.666 270.698 309.442 270.112C309.765 269.772 310.055 269.401 310.308 269.005C310.619 268.572 310.948 268.139 311.285 267.724C312.919 265.569 315.005 263.797 317.395 262.532L318.044 262.229L318.399 262.09C318.624 261.978 318.935 261.943 319.065 261.692C319.195 261.441 318.953 261.476 318.875 261.398L318.546 261.173L317.681 260.637C317.257 260.377 316.815 260.117 316.426 259.832C316.209 259.693 316.002 259.546 315.803 259.399L315.491 259.157C315.353 259.053 315.223 258.94 315.093 258.828C314.582 258.43 314.229 257.862 314.098 257.227C314.09 256.916 314.182 256.611 314.359 256.356C314.536 256.101 314.791 255.909 315.084 255.808C315.562 255.6 316.078 255.494 316.599 255.496C316.902 255.496 317.049 255.496 317.265 255.496C317.482 255.496 317.672 255.496 317.871 255.557C318.648 255.67 319.415 255.847 320.164 256.085C321.71 256.539 323.147 257.305 324.387 258.335C324.681 258.593 324.945 258.883 325.175 259.2C325.454 259.59 325.627 260.047 325.677 260.524C325.732 261.1 325.732 261.679 325.677 262.255C325.638 262.689 325.518 263.112 325.322 263.501C325.223 263.707 325.083 263.89 324.911 264.039C324.738 264.188 324.536 264.299 324.318 264.366C324.16 264.435 323.994 264.488 323.825 264.522C323.583 264.522 323.479 264.288 323.539 263.804C323.575 263.533 323.624 263.265 323.686 262.999C323.732 262.695 323.752 262.389 323.747 262.082C323.747 261.796 323.747 261.485 323.695 261.173C323.695 261.026 323.695 260.827 323.652 260.723C323.639 260.662 323.615 260.603 323.583 260.55C323.333 260.148 322.999 259.806 322.605 259.546C321.596 258.849 320.483 258.317 319.308 257.971C318.721 257.78 318.118 257.641 317.508 257.556C317.364 257.533 317.22 257.519 317.075 257.512H316.867H316.763L316.954 257.651L317.334 257.928C317.733 258.196 318.157 258.464 318.598 258.733L319.394 259.209C319.835 259.477 320.259 259.754 320.701 260.074C321.049 260.295 321.328 260.61 321.506 260.983L321.635 261.433C321.705 261.58 321.635 261.813 321.635 261.995C321.561 262.323 321.396 262.623 321.159 262.861C320.838 263.176 320.455 263.42 320.034 263.579L319.308 263.882L318.719 264.133L318.079 264.436C317.66 264.653 317.256 264.896 316.867 265.162C316.07 265.709 315.325 266.329 314.643 267.014L314.634 267.084Z" fill="#21467E"/>
<path d="M316.556 254.484C316.44 254.359 316.339 254.223 316.253 254.077C316.131 253.901 316.035 253.709 315.967 253.506L315.907 253.298C315.896 253.186 315.896 253.073 315.907 252.961C315.898 252.84 315.898 252.718 315.907 252.597C315.951 252.444 316.012 252.296 316.088 252.156C316.225 251.928 316.419 251.74 316.651 251.611C316.792 251.529 316.943 251.468 317.101 251.429C317.442 251.353 317.793 251.338 318.139 251.386C318.387 251.411 318.633 251.451 318.875 251.507C319.737 251.706 320.586 251.954 321.419 252.251C322.008 252.459 322.605 252.615 323.15 252.848C324.162 253.255 325.158 253.714 326.144 254.155C326.637 254.389 327.131 254.622 327.624 254.873C328.155 255.118 328.665 255.407 329.147 255.739C329.665 256.121 330.049 256.657 330.246 257.27C330.39 257.836 330.411 258.426 330.307 259.001C330.087 260.191 329.732 261.352 329.251 262.463C329.138 262.748 328.602 262.714 328.143 262.29C327.886 262.042 327.701 261.73 327.608 261.385C327.515 261.04 327.517 260.677 327.615 260.334C327.814 259.737 328.013 259.191 328.126 258.724C328.223 258.41 328.244 258.078 328.186 257.755C328.186 257.582 328.005 257.391 327.546 257.097C327.087 256.803 326.525 256.5 325.997 256.232C324.657 255.547 323.265 254.968 321.835 254.501C321.056 254.215 320.277 253.947 319.507 253.722C319.117 253.61 318.736 253.506 318.364 253.428C318.193 253.394 318.02 253.371 317.845 253.359C317.779 253.355 317.712 253.355 317.646 253.359C317.607 253.244 317.56 253.131 317.508 253.021C317.309 252.753 317.404 253.021 317.681 252.865H317.837H317.906L317.966 252.961C318.003 253.038 318.056 253.106 318.122 253.16C318.185 253.243 318.258 253.319 318.338 253.385C318.693 253.71 319.079 253.999 319.489 254.25C320.808 255.052 322.175 255.772 323.583 256.405L324.448 256.786L324.881 256.993C325.073 257.099 325.258 257.218 325.435 257.348C325.778 257.648 325.989 258.071 326.023 258.525C326.079 258.863 326.114 259.204 326.127 259.546C326.127 259.823 326.127 260.1 326.127 260.368C326.127 261.381 325.911 261.675 325.339 261.831C325.213 261.88 325.083 261.918 324.95 261.943C324.517 262.004 324.206 261.554 324.137 260.844C324.059 259.875 323.937 258.378 323.842 258.767C323.842 258.767 323.842 258.767 323.764 258.767L323.436 258.612L322.717 258.274L321.194 257.556C320.424 257.192 319.654 256.794 318.884 256.344C318.018 255.882 317.223 255.299 316.521 254.614L316.556 254.484Z" fill="#21467E"/>
<path d="M323.704 249.169L324.188 249.334L324.491 249.455L325.019 249.663L326.066 250.104C326.758 250.398 327.451 250.719 328.134 251.039C328.628 251.281 329.147 251.463 329.64 251.731C330.515 252.198 331.36 252.721 332.167 253.297C332.599 253.597 333.004 253.933 333.379 254.301C333.63 254.518 333.836 254.783 333.985 255.08C334.133 255.377 334.222 255.701 334.244 256.032C334.257 256.124 334.257 256.217 334.244 256.309L334.132 256.941L334.054 257.52C334.01 257.918 333.967 258.308 333.915 258.697C333.901 259.848 333.604 260.977 333.05 261.986C332.825 262.306 332.383 261.986 332.02 261.536C331.82 261.334 331.666 261.091 331.568 260.823C331.471 260.556 331.433 260.27 331.458 259.987C331.605 259.398 331.717 258.758 331.83 258.1L332.011 257.096L332.107 256.577L332.167 256.318V256.188C332.188 256.173 332.203 256.152 332.21 256.127C332.21 256.127 332.21 256.127 332.21 255.997C332.023 255.733 331.809 255.489 331.57 255.27C330.563 254.466 329.447 253.808 328.256 253.315C326.949 252.666 325.608 252.069 324.249 251.532L323.634 251.298L323.314 251.16L322.631 250.918C322.275 250.789 321.907 250.699 321.532 250.649C321.478 250.642 321.423 250.656 321.379 250.688C321.336 250.72 321.306 250.769 321.298 250.822C321.28 250.923 321.298 251.028 321.35 251.117C321.457 251.305 321.595 251.474 321.757 251.619C322.005 251.83 322.275 252.016 322.561 252.172C322.685 252.237 322.812 252.295 322.942 252.345L323.124 252.432L323.461 252.622C323.66 252.735 323.868 252.83 324.067 252.951C324.794 253.401 324.933 253.678 324.811 254.241C324.785 254.372 324.745 254.499 324.69 254.621C324.491 255.011 324.05 255.123 323.444 254.872C322.986 254.685 322.539 254.474 322.103 254.241C321.956 254.171 321.497 253.877 321.116 253.618C320.735 253.358 320.355 253.064 319.991 252.752C319.376 252.282 318.861 251.694 318.477 251.021C318.23 250.563 318.159 250.031 318.278 249.524C318.368 249.228 318.518 248.954 318.719 248.719L319.377 248.356C319.518 248.286 319.67 248.242 319.827 248.226C320.04 248.214 320.254 248.214 320.467 248.226C321.581 248.417 322.676 248.707 323.738 249.092L323.704 249.169Z" fill="#21467E"/>
<path d="M290.637 295.243C297.154 291.92 303.514 288.242 309.797 284.434C312.082 283.041 314.332 281.587 316.607 280.168L328.61 272.596L330.142 271.653C330.398 271.516 330.646 271.366 330.886 271.203L331.172 271.021L331.457 270.753C332.268 269.968 332.991 269.098 333.612 268.157C334.946 266.257 336.152 264.271 337.221 262.211C338.191 260.385 339.026 258.49 339.722 256.543C339.887 256.075 340.026 255.599 340.137 255.115V254.873C340.152 254.845 340.16 254.814 340.16 254.782C340.16 254.75 340.152 254.719 340.137 254.691C340.137 254.639 340.085 254.587 340.042 254.518L339.869 254.241C339.32 253.467 338.63 252.804 337.835 252.285C337.212 251.857 336.552 251.487 335.862 251.178L335.404 250.961L335.153 250.857L335.006 250.806L334.512 250.641C334.207 250.556 333.894 250.504 333.578 250.485C333.503 250.473 333.427 250.473 333.353 250.485C333.283 250.485 333.197 250.572 333.249 250.65C333.315 250.797 333.405 250.932 333.517 251.048C333.826 251.346 334.158 251.618 334.512 251.861C335.334 252.415 336.243 252.978 337.186 253.48C338.562 254.207 338.268 254.613 336.849 254.527C335.896 254.416 334.964 254.171 334.08 253.8L333.656 253.627L333.431 253.523L333.058 253.315C332.545 253.02 332.048 252.696 331.57 252.346C330.686 251.772 329.969 250.975 329.493 250.035C329.428 249.866 329.39 249.688 329.381 249.507C329.355 249.353 329.355 249.195 329.381 249.04C329.418 248.85 329.495 248.671 329.606 248.512C329.781 248.246 330.027 248.033 330.315 247.898C330.672 247.75 331.054 247.673 331.44 247.673C331.982 247.672 332.522 247.733 333.05 247.855C333.68 247.986 334.301 248.156 334.91 248.365C335.239 248.469 335.499 248.59 335.776 248.694L335.975 248.781L336.105 248.832L336.364 248.945C337.046 249.245 337.708 249.589 338.346 249.975C339.736 250.769 340.922 251.877 341.807 253.211L341.981 253.514C342.05 253.635 342.119 253.808 342.197 253.956L342.413 254.414C342.403 254.58 342.38 254.745 342.344 254.907L342.188 255.712L342.032 256.257C341.929 256.621 341.816 256.976 341.686 257.305C341.557 257.633 341.444 257.988 341.306 258.317C340.239 260.914 338.981 263.428 337.541 265.837C336.814 267.04 336.07 268.234 335.231 269.385C334.815 269.965 334.365 270.528 333.889 271.116C333.39 271.709 332.827 272.246 332.21 272.717C331.994 272.856 331.743 273.02 331.544 273.132L331.068 273.409L330.021 274.041L327.909 275.374L323.652 278.108C320.813 279.952 317.957 281.804 315.084 283.586C308.776 287.498 302.389 291.306 295.847 294.836C291.823 297.017 287.73 299.103 283.498 300.894C281.888 301.569 280.261 302.218 278.583 302.737C276.886 303.325 275.114 303.672 273.321 303.767C271.49 303.78 269.682 303.362 268.042 302.547C266.454 301.753 264.995 300.723 263.715 299.492C261.761 297.622 260.039 295.524 258.583 293.244C257.125 291.002 255.838 288.653 254.733 286.217C254.248 285.144 253.781 284.097 253.357 282.981C251.825 278.853 251.721 277.364 252.084 276.326C252.148 276.09 252.247 275.865 252.379 275.659C252.578 275.452 252.768 275.746 253.071 276.447C253.374 277.148 253.772 278.299 254.308 279.761C255.902 284.205 257.986 288.457 260.522 292.439C261.799 294.425 263.3 296.257 264.996 297.9C265.819 298.7 266.727 299.408 267.705 300.011C268.633 300.619 269.653 301.074 270.725 301.361C271.5 301.58 272.3 301.696 273.105 301.708C273.503 301.708 273.901 301.664 274.299 301.638L275.554 301.422C277.289 301.01 278.992 300.475 280.651 299.821C284.034 298.497 287.357 296.905 290.637 295.226V295.243Z" fill="#21467E"/>
<path d="M241.83 193.127C241.908 194.531 241.625 195.931 241.008 197.195C240.628 197.925 240.041 198.527 239.32 198.926C238.976 199.108 238.613 199.253 238.238 199.358C237.882 199.439 237.521 199.491 237.157 199.514C236.897 199.527 236.637 199.527 236.378 199.514C236.086 199.492 235.796 199.446 235.512 199.376L234.768 199.133C234.543 199.038 234.335 198.934 234.119 198.83C232.715 198.07 231.39 197.171 230.164 196.148C228.959 195.171 227.804 194.134 226.703 193.041C225.708 192.089 224.73 191.102 223.778 190.116C222.473 188.872 221.398 187.407 220.602 185.789C220.377 185.27 220.896 185.097 221.58 185.218C221.955 185.286 222.316 185.421 222.644 185.616C223.042 185.822 223.386 186.118 223.648 186.481C225.782 189.156 228.123 191.659 230.649 193.967C231.426 194.674 232.259 195.317 233.141 195.888C233.978 196.452 234.875 196.922 235.815 197.29C235.936 197.29 236.058 197.385 236.161 197.411C236.255 197.419 236.348 197.437 236.438 197.463C236.683 197.48 236.929 197.48 237.174 197.463C237.635 197.432 238.083 197.293 238.481 197.056C238.864 196.771 239.177 196.402 239.397 195.978C239.618 195.553 239.739 195.085 239.753 194.607C239.886 193.204 239.831 191.79 239.588 190.402C239.277 188.238 238.801 186.075 238.316 183.877C237.935 182.189 237.451 180.536 237.234 178.762C237.181 178.366 237.149 177.967 237.139 177.568C237.139 176.027 237.537 175.474 238.152 175.378C238.29 175.341 238.433 175.323 238.576 175.327C238.792 175.327 238.939 175.526 239.017 175.785C239.099 176.125 239.14 176.474 239.138 176.824C239.226 178.282 239.44 179.73 239.779 181.151C240.125 182.685 240.471 184.226 240.817 185.772C241.412 188.184 241.782 190.647 241.925 193.127H241.83Z" fill="#21467E"/>
<path d="M165.148 272.414L145.244 276.048L135.31 277.866L132.826 278.324L131.58 278.549L130.507 278.748L129.892 278.87H129.736C129.685 278.87 129.736 278.965 129.736 279.008V279.32V280.522V281.249V282.53C129.736 283.396 129.806 284.261 129.875 285.126C129.983 286.854 130.212 288.571 130.559 290.267C130.741 291.149 130.987 292.016 131.294 292.863L131.545 293.503C131.684 293.797 131.9 294.195 132.073 294.542L132.35 295.07V295.139C132.35 295.139 132.393 295.139 132.419 295.139H132.575L132.886 295.078L134.011 294.87L143.946 293.053L163.85 289.419C164.767 289.263 164.378 287.151 163.46 287.333L143.6 290.976L133.665 292.794H133.544C133.539 292.762 133.539 292.73 133.544 292.698L133.336 292.162C133.066 291.42 132.849 290.659 132.687 289.886C132.368 288.283 132.154 286.662 132.047 285.031C131.986 284.209 131.935 283.378 131.917 282.556V281.319V280.721L135.811 280.012L145.746 278.195L165.65 274.56C166.247 274.37 165.866 272.275 165.148 272.414Z" fill="#21467E"/>
<path d="M208.192 279.917C208.805 280.148 209.44 280.316 210.087 280.419C210.428 280.468 210.773 280.492 211.117 280.488C211.29 280.488 211.481 280.488 211.671 280.488C211.822 280.473 211.972 280.45 212.121 280.419L215.582 279.831L222.428 278.645C226.997 277.84 231.557 277.105 236.127 276.343L263.447 271.731L318.217 262.635C319.472 262.436 319.126 260.316 317.862 260.541L263.092 269.645L235.711 274.188C231.151 274.958 226.573 275.694 222.03 276.49L215.202 277.676L211.783 278.264C211.654 278.264 211.481 278.325 211.377 278.325C211.276 278.334 211.175 278.334 211.074 278.325C210.839 278.329 210.604 278.311 210.373 278.273C209.877 278.196 209.389 278.068 208.919 277.892C208.504 277.728 208.054 278.108 207.846 278.584C207.764 278.689 207.707 278.812 207.679 278.942C207.652 279.072 207.655 279.207 207.689 279.336C207.722 279.465 207.785 279.585 207.873 279.686C207.96 279.786 208.069 279.866 208.192 279.917Z" fill="#21467E"/>
<path d="M342.387 258.75L357.904 255.288L353.205 238.361L207.881 265.846C205.873 266.209 206.271 268.321 208.27 267.932L351.699 240.776L355.308 253.679L341.955 256.656C341.817 256.684 341.687 256.739 341.57 256.818C341.454 256.897 341.355 256.998 341.278 257.115C341.2 257.233 341.147 257.364 341.121 257.502C341.094 257.64 341.095 257.782 341.124 257.919C341.152 258.057 341.207 258.187 341.286 258.303C341.365 258.419 341.466 258.519 341.584 258.596C341.701 258.673 341.832 258.727 341.97 258.753C342.108 258.779 342.25 258.778 342.387 258.75Z" fill="#21467E"/>
<path d="M364.489 235.315C363.485 235.765 362.473 236.181 361.469 236.665C361.106 236.83 360.768 237.046 360.405 237.21C359.107 237.773 357.808 238.318 356.502 238.889C355.934 239.145 355.382 239.434 354.849 239.755C354.2 240.231 353.478 240.6 352.711 240.845C352.201 240.949 351.846 238.881 352.633 238.439C354.064 237.632 355.572 236.968 357.133 236.458C358.072 236.088 358.986 235.657 359.868 235.168L362.88 233.775C363.503 233.489 364.126 233.212 364.74 232.91C365.666 232.46 366.618 232.044 367.509 231.534C368.202 231.144 368.825 230.668 369.482 230.201C369.621 230.106 369.751 229.993 369.907 229.907C370.46 229.569 370.711 229.595 371.092 230.028C371.179 230.123 371.274 230.218 371.352 230.322C371.472 230.495 371.521 230.709 371.487 230.917C371.453 231.125 371.339 231.312 371.17 231.438C370.053 232.398 368.817 233.21 367.492 233.853C366.514 234.372 365.51 234.839 364.515 235.333L364.489 235.315Z" fill="#21467E"/>
<path d="M376.527 248.781L376.942 250.511L377.738 253.618L374.104 253.835C373.394 253.835 372.693 253.956 371.984 253.99L364.498 254.259C363.399 254.302 362.291 254.414 361.192 254.535C359.797 254.771 358.383 254.872 356.969 254.838C356.104 254.769 357.038 252.684 358.657 252.536C361.532 252.256 364.422 252.141 367.311 252.19C369.041 252.19 370.85 251.991 372.624 251.896L374.355 251.801H375.09L375.004 251.351L374.952 251.1L374.813 250.537L373.948 247.076C373.498 245.345 373.083 243.536 372.555 241.797C372.157 240.456 371.689 239.201 371.187 237.851C371.092 237.565 370.971 237.28 370.885 236.985C370.538 235.895 370.582 235.506 371.049 235.125C371.15 235.031 371.257 234.944 371.369 234.865C371.75 234.649 372.235 235.004 372.563 235.774C373.567 238.157 374.397 240.61 375.047 243.112C375.566 244.99 376.042 246.894 376.544 248.789L376.527 248.781Z" fill="#21467E"/>
<path d="M360.422 249.04C360.223 247.638 360.032 246.245 359.825 244.843C359.747 244.341 359.608 243.839 359.539 243.329C359.288 241.537 359.081 239.729 358.821 237.937C358.7 237.141 358.527 236.354 358.345 235.575C358.024 234.595 357.835 233.576 357.782 232.546C357.782 231.897 359.92 232.304 360.162 233.463C360.613 235.517 360.903 237.603 361.028 239.703C361.165 240.985 361.37 242.259 361.642 243.519C361.867 244.921 362.066 246.332 362.282 247.733C362.421 248.599 362.542 249.464 362.689 250.33C362.906 251.628 363.105 252.926 363.382 254.233C363.598 255.228 363.927 256.18 364.247 257.158C364.307 257.374 364.385 257.573 364.437 257.798C364.636 258.603 364.55 258.888 364.039 259.174C363.925 259.241 363.806 259.302 363.684 259.356C363.286 259.52 362.871 259.252 362.629 258.681C361.951 256.923 361.449 255.103 361.132 253.246C360.863 251.861 360.638 250.451 360.396 249.049L360.422 249.04Z" fill="#21467E"/>
<path d="M365.995 247.352C365.787 245.621 365.588 243.891 365.363 242.16C365.285 241.528 365.147 240.905 365.078 240.273C364.818 238.041 364.593 235.799 364.316 233.566C364.195 232.58 364.013 231.593 363.823 230.624C363.5 229.39 363.306 228.125 363.243 226.851C363.243 226.055 365.398 226.721 365.649 228.166C366.115 230.741 366.419 233.342 366.558 235.955C366.635 237.521 366.99 239.114 367.198 240.706C367.432 242.437 367.648 244.167 367.873 245.941C368.011 247.015 368.141 248.088 368.297 249.161C368.522 250.788 368.721 252.423 369.007 254.024C369.232 255.27 369.569 256.473 369.872 257.693C369.933 257.962 370.019 258.221 370.071 258.49C370.27 259.502 370.184 259.848 369.673 260.151C369.561 260.23 369.442 260.299 369.318 260.359C368.911 260.523 368.496 260.168 368.254 259.441C367.555 257.221 367.042 254.946 366.722 252.64C366.436 250.909 366.203 249.178 365.952 247.447L365.995 247.352Z" fill="#21467E"/>
<path d="M359.461 227.924C359.461 227.864 359.461 227.786 359.202 227.717C358.916 227.661 358.622 227.661 358.336 227.717C358.237 227.722 358.141 227.755 358.06 227.812C357.982 227.864 357.878 227.881 357.817 227.942C357.493 228.139 357.237 228.43 357.083 228.776C356.928 229.122 356.883 229.507 356.952 229.88C356.99 230.272 357.147 230.644 357.402 230.945C357.722 231.325 358.086 231.421 358.371 231.697C358.438 232.034 358.389 232.383 358.232 232.688C358.075 232.993 357.819 233.236 357.506 233.376C357.365 233.43 357.214 233.45 357.064 233.437C356.914 233.423 356.769 233.376 356.64 233.298C355.858 232.77 355.288 231.982 355.031 231.074C354.784 230.241 354.802 229.352 355.083 228.53C355.161 228.279 355.29 228.037 355.377 227.795C355.499 227.553 355.635 227.319 355.784 227.094C356.094 226.635 356.521 226.268 357.021 226.029L357.428 225.856L357.835 225.77C358.098 225.702 358.368 225.667 358.639 225.666C359.241 225.627 359.841 225.759 360.37 226.046C360.694 226.25 360.965 226.527 361.162 226.855C361.359 227.182 361.476 227.552 361.504 227.933C361.553 228.858 361.387 229.783 361.019 230.633C360.805 231.32 360.486 231.971 360.076 232.563C359.968 232.715 359.84 232.852 359.695 232.97C359.587 233.07 359.458 233.147 359.318 233.195C359.178 233.242 359.029 233.26 358.882 233.246C358.767 233.218 358.664 233.156 358.585 233.068C358.506 232.98 358.456 232.87 358.44 232.753C358.401 232.63 358.377 232.502 358.371 232.372C358.379 232.18 358.402 231.989 358.44 231.801C358.433 231.683 358.433 231.565 358.44 231.446C358.78 230.732 359.069 229.995 359.306 229.24C359.442 228.829 359.463 228.389 359.366 227.968L359.461 227.924Z" fill="#21467E"/>
<path d="M364.195 259.892C364.195 259.84 364.195 259.762 363.936 259.693C363.651 259.628 363.355 259.628 363.07 259.693C362.97 259.694 362.873 259.727 362.793 259.788C362.715 259.84 362.611 259.857 362.551 259.909C362.228 260.108 361.972 260.399 361.818 260.745C361.664 261.091 361.617 261.475 361.686 261.848C361.724 262.24 361.881 262.611 362.136 262.912C362.456 263.302 362.811 263.388 363.105 263.665C363.148 263.855 363.153 264.052 363.119 264.244C363.084 264.435 363.012 264.618 362.906 264.782C362.752 265.031 362.526 265.228 362.257 265.344C362.116 265.397 361.966 265.418 361.816 265.406C361.667 265.394 361.522 265.349 361.391 265.275C360.608 264.743 360.038 263.953 359.782 263.042C359.535 262.209 359.553 261.32 359.834 260.498C359.912 260.256 360.041 260.005 360.128 259.762C360.214 259.52 360.379 259.286 360.535 259.061C360.846 258.605 361.273 258.241 361.772 258.006L362.179 257.832C362.312 257.793 362.448 257.761 362.586 257.737C362.849 257.674 363.119 257.639 363.39 257.633C363.992 257.598 364.592 257.733 365.121 258.023C365.445 258.224 365.716 258.499 365.913 258.826C366.111 259.152 366.227 259.52 366.255 259.901C366.305 260.826 366.139 261.751 365.77 262.601C365.557 263.289 365.239 263.94 364.827 264.531C364.717 264.683 364.589 264.823 364.446 264.946C364.337 265.046 364.209 265.122 364.068 265.168C363.928 265.214 363.78 265.23 363.633 265.214C363.518 265.186 363.415 265.123 363.336 265.036C363.257 264.948 363.207 264.838 363.191 264.721C363.152 264.598 363.128 264.47 363.122 264.34C363.129 264.151 363.152 263.963 363.191 263.778C363.184 263.657 363.184 263.535 363.191 263.414C363.531 262.7 363.82 261.962 364.057 261.207C364.193 260.797 364.214 260.357 364.117 259.935L364.195 259.892Z" fill="#21467E"/>
<path d="M370.98 261.225C370.98 261.173 370.98 261.095 370.72 261.026C370.435 260.961 370.139 260.961 369.855 261.026C369.756 261.034 369.661 261.066 369.578 261.121C369.509 261.173 369.405 261.19 369.344 261.242C369.019 261.44 368.761 261.732 368.607 262.08C368.452 262.428 368.407 262.815 368.479 263.189C368.518 263.577 368.671 263.945 368.92 264.245C369.249 264.634 369.604 264.73 369.889 264.998C369.958 265.335 369.91 265.685 369.753 265.99C369.595 266.295 369.338 266.538 369.024 266.677C368.884 266.732 368.733 266.754 368.583 266.742C368.433 266.73 368.288 266.684 368.159 266.608C367.371 266.081 366.8 265.288 366.549 264.375C366.298 263.542 366.316 262.652 366.601 261.831C366.67 261.588 366.8 261.346 366.886 261.104C367.008 260.86 367.144 260.623 367.293 260.394C367.609 259.94 368.039 259.576 368.539 259.338L368.937 259.165L369.353 259.07C369.614 259.009 369.881 258.977 370.149 258.975C370.75 258.938 371.35 259.07 371.88 259.356C372.202 259.56 372.473 259.837 372.67 260.165C372.866 260.492 372.984 260.861 373.013 261.242C373.061 262.165 372.892 263.087 372.52 263.933C372.311 264.621 371.995 265.272 371.585 265.863C371.475 266.016 371.347 266.155 371.205 266.279C371.094 266.379 370.964 266.455 370.822 266.501C370.681 266.547 370.531 266.563 370.383 266.547C370.269 266.517 370.166 266.455 370.087 266.367C370.009 266.279 369.958 266.17 369.941 266.054C369.906 265.932 369.882 265.808 369.872 265.682C369.885 265.49 369.911 265.299 369.95 265.11C369.95 264.955 369.95 264.834 369.95 264.756C370.293 264.04 370.583 263.299 370.815 262.54C370.952 262.13 370.976 261.691 370.884 261.268L370.98 261.225Z" fill="#21467E"/>
<path d="M366.558 222.611C366.558 222.551 366.558 222.473 366.298 222.404C366.013 222.339 365.717 222.339 365.433 222.404C365.333 222.41 365.238 222.443 365.156 222.499C365.086 222.551 364.983 222.568 364.922 222.629C364.596 222.824 364.339 223.115 364.184 223.462C364.029 223.808 363.985 224.194 364.057 224.567C364.092 224.959 364.246 225.33 364.498 225.632C364.827 226.012 365.182 226.108 365.467 226.385C365.513 226.573 365.519 226.769 365.484 226.959C365.45 227.15 365.376 227.332 365.268 227.492C365.12 227.748 364.892 227.949 364.619 228.063C364.479 228.119 364.327 228.14 364.177 228.127C364.027 228.113 363.882 228.065 363.754 227.985C362.969 227.46 362.398 226.671 362.144 225.761C361.888 224.93 361.906 224.038 362.196 223.217C362.265 222.966 362.395 222.724 362.482 222.482C362.604 222.24 362.739 222.006 362.888 221.781C363.204 221.324 363.634 220.957 364.134 220.716L364.533 220.543L364.948 220.457C365.208 220.389 365.475 220.354 365.744 220.353C366.345 220.316 366.945 220.448 367.475 220.734C367.796 220.94 368.065 221.217 368.262 221.544C368.459 221.872 368.577 222.24 368.608 222.62C368.655 223.546 368.486 224.47 368.115 225.32C367.904 226.007 367.589 226.658 367.181 227.25C367.07 227.4 366.942 227.536 366.8 227.657C366.69 227.757 366.56 227.834 366.418 227.882C366.276 227.93 366.126 227.947 365.978 227.934C365.864 227.904 365.761 227.841 365.682 227.754C365.604 227.666 365.553 227.557 365.536 227.44C365.501 227.316 365.478 227.188 365.467 227.06C365.467 226.852 365.528 226.644 365.536 226.488C365.545 226.333 365.536 226.211 365.536 226.134C365.876 225.419 366.166 224.682 366.402 223.927C366.539 223.517 366.563 223.077 366.471 222.655L366.558 222.611Z" fill="#21467E"/>
<path d="M294.255 288.251C294.073 287.732 293.891 287.221 293.744 286.693C293.597 286.165 293.441 285.655 293.311 285.127C293.208 284.737 293.06 284.374 292.991 283.976C292.727 282.593 292.605 281.186 292.628 279.779C292.628 279.458 292.628 279.147 292.628 278.835V277.883C292.584 277.038 292.788 276.199 293.216 275.469C293.363 275.244 293.839 275.512 294.263 275.884C294.687 276.257 295.068 276.698 294.982 277.035C294.742 278.402 294.612 279.785 294.592 281.172C294.623 282.085 294.774 282.99 295.042 283.863L295.423 285.343C295.579 285.828 295.717 286.321 295.89 286.806C296.063 287.29 296.314 287.991 296.574 288.536C296.94 289.42 297.386 290.269 297.907 291.072C298.334 291.66 298.824 292.2 299.369 292.682C299.482 292.785 299.603 292.881 299.707 292.993C300.122 293.383 300.139 293.608 299.836 294.101C299.767 294.213 299.707 294.326 299.629 294.43C299.567 294.514 299.489 294.586 299.4 294.639C299.31 294.693 299.21 294.727 299.106 294.741C299.003 294.755 298.897 294.747 298.797 294.719C298.696 294.691 298.602 294.642 298.521 294.577C297.306 293.702 296.308 292.559 295.605 291.236C295.067 290.272 294.595 289.271 294.194 288.242L294.255 288.251Z" fill="#21467E"/>
<path d="M190.72 227.327C192.956 226.132 195.339 225.233 197.808 224.653L198.76 224.454L199.72 224.325C200.36 224.24 201.004 224.191 201.65 224.177C202.932 224.156 204.214 224.234 205.484 224.411C207.341 224.652 209.155 225.15 210.875 225.891C213.867 227.233 216.546 229.184 218.741 231.62C220.885 234.011 222.706 236.674 224.159 239.538C225.458 242.038 226.58 244.626 227.516 247.283C228.113 248.971 228.667 250.684 229.1 252.476C229.574 254.233 229.847 256.039 229.913 257.858C229.913 258.447 229.732 258.767 229.533 258.724C229.334 258.68 229.083 258.386 228.788 257.962C227.971 256.628 227.386 255.165 227.058 253.635C226.256 250.201 225.159 246.842 223.778 243.597C222.427 240.347 220.683 237.275 218.585 234.45C215.994 231.022 212.406 228.48 208.313 227.172C203.784 225.726 198.883 225.981 194.528 227.89C191.79 229.068 189.159 230.478 186.661 232.104C182.793 234.493 178.873 237.089 174.485 238.638C172.764 239.221 170.976 239.581 169.163 239.711C167.341 239.852 165.507 239.709 163.729 239.287C162.951 239.089 162.185 238.847 161.435 238.56C158.658 237.409 157.974 236.656 157.74 235.886C157.674 235.716 157.628 235.539 157.602 235.358C157.602 235.107 157.905 235.064 158.467 235.194C159.206 235.442 159.932 235.731 160.639 236.059C162 236.667 163.426 237.117 164.888 237.401C166.345 237.702 167.838 237.783 169.319 237.643C172.397 237.296 175.371 236.324 178.059 234.787C182.257 232.58 186.246 229.595 190.737 227.293L190.72 227.327Z" fill="#21467E"/>
<path d="M80.0633 309.669C77.9263 302.032 76.5209 294.208 75.8662 286.304C75.6499 283.422 75.4249 280.54 75.4335 277.65C75.3987 272.544 75.7895 267.443 76.6018 262.402C77.3893 257.342 78.805 252.4 80.8162 247.69C81.7185 245.587 82.7923 243.56 84.0268 241.633C85.2403 239.692 86.6622 237.89 88.2672 236.259C90.3292 234.151 92.7236 232.397 95.3547 231.066C97.9977 229.746 100.86 228.922 103.801 228.635C105.627 228.453 105.393 229.024 103.991 229.742C102.589 230.461 100.071 231.473 97.2412 232.685C92.1811 235.06 87.973 238.933 85.1864 243.779C82.3115 248.726 80.2652 254.111 79.1287 259.719C77.7224 266.693 77.2048 273.817 77.5883 280.921C77.8915 288.774 78.9581 296.579 80.773 304.226C81.8812 308.929 83.2977 313.555 85.0133 318.072C87.5161 324.946 91.0529 331.398 95.5018 337.206C99.0153 341.533 103.29 345.263 108.396 347.192C108.941 347.409 109.521 347.547 110.075 347.729C110.629 347.911 111.217 347.98 111.806 348.118C112.715 348.289 113.634 348.401 114.558 348.456L115.605 348.525H116.47C117.205 348.522 117.937 348.627 118.642 348.837C118.889 348.904 119.13 348.994 119.36 349.105C119.62 349.278 119.309 349.529 118.495 349.823C117.97 350.015 117.424 350.146 116.868 350.213L115.778 350.36C115.38 350.36 114.964 350.36 114.514 350.36C111.835 350.319 109.189 349.755 106.726 348.698C104.22 347.623 101.886 346.182 99.8028 344.423C95.6634 340.858 92.1529 336.622 89.4181 331.892C85.364 324.93 82.2284 317.472 80.0893 309.704L80.0633 309.669Z" fill="#21467E"/>
<path d="M129.97 290.518C129.676 288.882 129.477 287.238 129.347 285.585C129.295 284.988 129.209 284.391 129.191 283.785C129.129 281.649 129.263 279.511 129.589 277.399C129.719 276.464 129.875 275.521 130.057 274.586C130.226 273.339 130.695 272.151 131.424 271.125C131.675 270.804 132.099 271.125 132.41 271.67C132.573 271.937 132.69 272.23 132.757 272.535C132.848 272.816 132.848 273.119 132.757 273.401C132.045 275.538 131.549 277.741 131.277 279.977C131.129 281.416 131.129 282.866 131.277 284.304C131.368 285.899 131.542 287.487 131.796 289.064C131.943 290.033 132.142 291.002 132.367 291.963C132.694 293.411 133.149 294.827 133.726 296.195C134.183 297.202 134.781 298.14 135.5 298.981C135.647 299.172 135.82 299.293 135.967 299.466C136.538 300.028 136.573 300.124 136.504 300.729C136.504 300.859 136.504 301.006 136.504 301.136C136.495 301.246 136.446 301.35 136.367 301.426C136.287 301.503 136.182 301.548 136.071 301.551C135.704 301.59 135.336 301.488 135.041 301.266C134.064 300.551 133.258 299.629 132.679 298.566C132.107 297.566 131.632 296.514 131.259 295.425C130.707 293.83 130.268 292.2 129.944 290.544L129.97 290.518Z" fill="#21467E"/>
<path d="M166.766 271.437L184.939 280.705L189.855 286.157C189.855 286.157 178.925 304.235 164.11 291.444C161.167 288.935 154.236 274.777 166.766 271.437Z" fill="#21467E"/>
<path d="M228.165 306.926C228.737 304.902 229.165 302.84 229.446 300.756C229.55 299.994 229.576 299.215 229.654 298.454C229.948 295.729 230.078 292.99 230.043 290.25C230.01 289.034 229.912 287.821 229.749 286.615C229.541 285.084 229.186 283.56 229.065 282.063C229.065 281.613 229.55 281.501 230.164 281.786C230.532 281.975 230.851 282.246 231.097 282.577C231.343 282.909 231.51 283.293 231.584 283.699C232.108 286.943 232.236 290.238 231.964 293.512C231.809 295.468 231.826 297.502 231.618 299.501C231.396 301.701 231.026 303.884 230.51 306.035C230.208 307.359 229.801 308.631 229.368 309.955C228.69 311.917 227.797 313.798 226.703 315.562C225.904 316.973 224.92 318.271 223.778 319.422C223.534 319.689 223.267 319.935 222.982 320.158C222.705 320.365 222.48 320.53 222.281 320.651C222.104 320.748 221.915 320.821 221.718 320.867C221.58 320.902 221.436 320.906 221.297 320.877C221.158 320.849 221.026 320.789 220.913 320.703C220.792 320.636 220.678 320.555 220.576 320.461C220.282 320.132 220.576 319.595 221.216 319.033C222.163 318.154 223.031 317.196 223.812 316.168C224.618 315.079 225.324 313.921 225.924 312.707C226.833 310.844 227.555 308.896 228.079 306.891L228.165 306.926Z" fill="#21467E"/>
<path d="M270.837 303.317C265.1 302.901 258.038 292.396 258.038 292.396C249.255 297.726 230.986 297.025 230.986 297.025C230.986 297.025 229.758 317.95 220.602 320.546L237.684 324.64C237.684 324.64 257.251 304.987 270.837 303.317Z" fill="#21467E"/>
<path d="M227.274 323.481L223.059 322.425L219.468 321.56L217.694 321.118L217.27 321.014L217.002 320.928L216.457 320.746L218.663 319.959C219.529 319.682 220.022 319.448 220.645 319.206L221.562 318.842C221.805 318.721 221.917 318.6 222.107 318.487L222.609 318.124L222.86 317.951C222.93 317.899 222.947 317.864 222.99 317.83C223.644 317.218 224.224 316.532 224.721 315.787C225.754 314.218 226.588 312.526 227.205 310.751C227.958 308.521 228.545 306.239 228.961 303.923C229.195 302.772 229.394 301.621 229.567 300.462C229.654 299.885 229.732 299.308 229.801 298.731L229.922 297.554L230.034 296.031L231.982 296.1H233.236H235.495C237.001 296.1 238.515 296.031 240.021 295.936C243.025 295.766 246.014 295.396 248.969 294.828C249.739 294.689 250.492 294.499 251.245 294.3C251.998 294.101 252.733 293.867 253.469 293.634C254.199 293.383 254.915 293.094 255.615 292.768C255.981 292.615 256.336 292.439 256.68 292.24L258.263 291.375L259.051 292.5C259.354 292.933 259.501 293.114 259.682 293.365C261.111 295.238 262.685 296.994 264.39 298.618C265.974 300.239 267.87 301.523 269.963 302.391C271.192 302.677 271.157 303.213 269.712 303.49C269.289 303.532 268.863 303.532 268.44 303.49C267.901 303.392 267.371 303.247 266.857 303.058C265.622 302.543 264.484 301.823 263.49 300.929C262.231 299.779 261.046 298.55 259.942 297.251C259.388 296.611 258.86 295.953 258.35 295.278L257.588 294.265C257.223 294.47 256.844 294.649 256.455 294.802C255.65 295.122 254.862 295.477 254.049 295.711C253.235 295.944 252.422 296.221 251.608 296.403L250.38 296.697L249.142 296.939C245.867 297.53 242.552 297.877 239.225 297.978C237.866 297.978 236.499 298.056 235.123 298.073H233.055H231.886V298.497L231.757 299.665C231.661 300.531 231.549 301.327 231.428 302.158C231.168 303.819 230.848 305.472 230.45 307.099C229.815 309.812 228.868 312.443 227.629 314.939C226.985 316.216 226.186 317.408 225.249 318.487C225.011 318.762 224.756 319.022 224.487 319.266L224.288 319.465L224.176 319.552L223.951 319.734C223.708 319.914 223.443 320.062 223.163 320.175L222.904 320.192C222.904 320.192 222.696 320.244 222.817 320.253L223.181 320.357L223.951 320.556L235.452 323.412L237.451 323.905L238.654 322.771L240.142 321.395C241.146 320.487 242.158 319.587 243.188 318.713C245.231 316.947 247.313 315.245 249.436 313.607C253.17 310.631 257.141 307.965 261.309 305.637C262.235 305.123 263.189 304.661 264.165 304.252C264.93 303.898 265.723 303.608 266.536 303.387C267.085 303.208 267.646 303.072 268.215 302.98C268.874 302.873 269.549 302.933 270.18 303.153C270.386 303.218 270.583 303.308 270.768 303.421C270.976 303.594 270.708 303.854 270.067 304.139C269.427 304.425 268.406 304.693 267.133 305.23C263.232 306.824 259.525 308.856 256.082 311.287C252.48 313.787 249.008 316.471 245.681 319.327C244.486 320.357 243.292 321.387 242.124 322.451L240.393 324.052L239.528 324.865L238.126 326.233L227.282 323.576L227.274 323.481Z" fill="#21467E"/>
<path d="M281.404 353.942C283.824 347.643 285.238 341.002 285.592 334.263C277.034 324.649 232.475 325.782 221.831 320.936C140.121 283.725 128.88 314.61 133.605 329.928C140.121 351.017 216.552 352.471 281.404 353.942Z" fill="#21467E"/>
<path d="M146.36 342.259C144.236 341.398 142.184 340.368 140.225 339.179C138.197 337.969 136.379 336.437 134.842 334.644C134.058 333.701 133.406 332.656 132.904 331.537C132.452 330.421 132.118 329.261 131.908 328.076C131.463 325.766 131.385 323.4 131.675 321.066C132.222 316.327 134.51 311.959 138.096 308.812C139.855 307.269 141.851 306.018 144.007 305.108C144.524 304.854 145.059 304.637 145.607 304.459L147.243 303.897C148.351 303.603 149.467 303.308 150.583 303.083C153.849 302.486 157.164 302.196 160.483 302.218C163.768 302.279 167.046 302.545 170.297 303.014C175.995 303.858 181.626 305.107 187.146 306.753C188.531 307.125 189.898 307.566 191.265 307.999C192.632 308.431 194.008 308.864 195.358 309.331C198.058 310.301 200.784 311.201 203.441 312.265L207.448 313.814L211.411 315.467C214.068 316.549 216.682 317.717 219.286 318.885L221.251 319.751L222.229 320.183L223.155 320.555C224.473 320.998 225.816 321.359 227.179 321.637C229.939 322.208 232.76 322.606 235.573 322.97C245.603 324.216 255.788 324.934 265.775 326.483C268.977 326.985 272.187 327.574 275.363 328.387C276.963 328.791 278.538 329.288 280.08 329.876C281.669 330.455 283.178 331.234 284.571 332.195C284.936 332.453 285.278 332.743 285.592 333.06L286.232 333.675C286.57 333.856 286.432 334.237 286.44 334.54V335.302V335.916C286.44 336.331 286.388 336.738 286.336 337.145C286.189 338.789 285.947 340.416 285.644 342.026C285.042 345.238 284.198 348.4 283.117 351.484C282.442 353.405 281.957 354.167 281.793 354.08C281.629 353.994 281.732 352.93 282.027 351.242C282.321 349.555 282.762 347.183 283.195 344.319C283.42 342.891 283.636 341.342 283.827 339.706C283.922 338.841 284.008 338.036 284.069 337.18C284.112 336.747 284.138 336.314 284.164 335.873C284.164 335.648 284.164 335.431 284.164 335.206V334.904C284.164 334.834 284.164 334.904 284.164 334.904L284 334.756C283.732 334.509 283.442 334.286 283.134 334.09C282.841 333.867 282.528 333.67 282.2 333.502C281.88 333.294 281.544 333.112 281.196 332.956C279.782 332.264 278.315 331.685 276.808 331.226C273.703 330.312 270.544 329.59 267.35 329.062C260.911 327.946 254.369 327.236 247.809 326.518C241.25 325.8 234.647 325.203 228.027 323.974C226.34 323.673 224.675 323.262 223.042 322.745C221.311 322.148 219.875 321.404 218.36 320.746L213.834 318.704L209.274 316.73C201.869 313.588 194.283 310.889 186.557 308.648C184.602 308.111 182.646 307.54 180.664 307.107L177.705 306.415L174.719 305.835C172.729 305.411 170.721 305.178 168.722 304.875C167.727 304.736 166.714 304.676 165.719 304.563L164.213 304.425L162.707 304.364C158.327 304.077 153.927 304.412 149.64 305.359L148.057 305.757L146.516 306.277C145.503 306.643 144.509 307.062 143.539 307.531C141.628 308.524 139.878 309.799 138.347 311.313C135.383 314.45 133.666 318.561 133.518 322.875C133.42 325.025 133.66 327.177 134.228 329.253C134.799 331.284 135.926 333.115 137.482 334.54C139.446 336.359 141.679 337.865 144.102 339.005C146.547 340.198 149.075 341.213 151.665 342.043C156.883 343.704 162.206 345.02 167.597 345.98C175.766 347.495 184.039 348.533 192.338 349.355C200.637 350.178 208.928 350.766 217.192 351.207C230.034 351.891 242.643 352.177 255.356 352.428L263.715 352.575C274.186 352.791 277.509 352.999 279.751 353.605C280.261 353.743 280.928 353.881 281.222 354.011C282.217 354.461 277.942 354.73 270.275 354.678C247.532 354.505 223.544 353.985 199.452 352.081C190.521 351.346 181.573 350.394 172.625 348.983C168.177 348.274 163.729 347.434 159.324 346.387C154.883 345.369 150.527 344.015 146.291 342.337L146.36 342.259Z" fill="#21467E"/>
<path d="M285.211 341.904C328.757 328.621 307.175 305.956 299.698 303.127C276.653 294.403 242.314 318.946 238.939 324.052C238.939 324.052 270.638 323.325 285.99 334.254L285.211 341.904Z" fill="#21467E"/>
<path d="M249.289 314.03C257.172 308.914 265.757 304.973 274.775 302.33C278.085 301.368 281.477 300.719 284.909 300.392C287.961 300.116 291.035 300.209 294.064 300.669C294.825 300.773 295.579 300.921 296.323 301.11C297.075 301.279 297.817 301.487 298.547 301.733C299.3 301.976 300.037 302.265 300.754 302.599C301.464 302.951 302.147 303.356 302.796 303.81C305.32 305.602 307.496 307.84 309.217 310.413C311.008 312.974 312.102 315.956 312.393 319.067C312.493 320.465 312.388 321.87 312.082 323.238C311.747 324.589 311.228 325.887 310.541 327.098C309.153 329.456 307.34 331.536 305.193 333.233C299.785 337.56 293.355 340.303 286.864 342.181C284.831 342.778 284.952 342.181 286.475 341.126C289.004 339.574 291.645 338.211 294.376 337.05C297.428 335.723 300.33 334.072 303.03 332.126C303.69 331.642 304.322 331.122 304.925 330.568L305.79 329.746C306.076 329.46 306.335 329.157 306.604 328.88C307.141 328.291 307.638 327.666 308.092 327.011C308.317 326.682 308.49 326.336 308.698 325.999L308.992 325.488L309.226 324.96C310.538 322.089 310.677 318.82 309.615 315.848C308.518 312.75 306.71 309.952 304.336 307.678C303.635 306.97 302.88 306.316 302.078 305.723C301.306 305.13 300.47 304.625 299.585 304.217C297.689 303.466 295.711 302.94 293.692 302.651C289.565 302.098 285.377 302.2 281.283 302.953C276.75 303.762 272.31 305.029 268.034 306.735C263.722 308.421 259.538 310.414 255.511 312.698C253.028 314.1 250.596 315.588 248.242 317.189C247.065 317.994 245.897 318.807 244.781 319.673C244.201 320.097 243.656 320.538 243.102 320.979L242.288 321.663C242.029 321.871 241.691 322.182 241.613 322.251C241.397 322.442 241.189 322.65 240.982 322.857C240.774 323.065 240.774 323.074 240.679 323.186C240.584 323.299 240.393 323.472 240.635 323.42H242.133L243.483 323.463L244.91 323.515C246.814 323.593 248.718 323.714 250.613 323.861C254.404 324.147 258.177 324.605 261.907 325.202C268.544 326.319 275.104 327.686 281.248 330.559L283.264 331.511C283.913 331.875 284.545 332.273 285.194 332.671L286.215 333.311L286.856 333.709C286.856 333.752 287.003 333.752 286.977 333.83V334.012V334.367C286.899 335.068 286.83 335.7 286.769 336.279C286.657 337.223 286.544 338.01 286.432 338.607C286.318 339.486 286.045 340.336 285.627 341.117C285.497 341.373 285.343 341.616 285.168 341.844C284.692 342.328 284.562 340.113 284.839 336.089L284.909 335.033C284.909 334.938 284.969 334.808 284.831 334.782L284.675 334.704L284.216 334.436L283.282 333.882C282.97 333.701 282.659 333.51 282.338 333.337L281.343 332.87L279.344 331.944C277.968 331.399 276.575 330.862 275.164 330.377L273.001 329.72C272.283 329.495 271.564 329.278 270.82 329.114C264.852 327.624 258.775 326.611 252.647 326.085C250.432 325.895 248.216 325.73 245.984 325.626C244.867 325.575 243.76 325.531 242.643 325.514H242.176H239.58H236.118L237.953 323.1L239.026 321.879C239.426 321.451 239.848 321.044 240.289 320.659L240.696 320.296L241.051 319.993L241.769 319.396L243.223 318.245C245.187 316.739 247.204 315.337 249.281 314.004L249.289 314.03Z" fill="#21467E"/>
<path d="M263.369 353.942C243.69 353.942 182.888 369.423 168.22 367.433C164.239 366.888 152.6 347.945 152.6 344.647C181.755 352.471 258.834 353.864 263.369 353.942Z" fill="#21467E"/>
<path d="M171.768 349.494C168.783 349.018 165.797 348.628 162.829 348.057L158.372 347.192L154.599 346.326L154.409 346.274H154.313C154.309 346.306 154.309 346.338 154.313 346.37C154.323 346.432 154.34 346.493 154.365 346.551V346.664V346.733L154.434 346.88C155.006 348.204 155.681 349.52 156.382 350.809C157.809 353.405 159.367 355.941 161.029 358.39C162.257 360.155 163.587 361.848 165.009 363.461C165.675 364.247 166.404 364.977 167.19 365.642C167.506 365.912 167.863 366.131 168.246 366.291H168.324C168.324 366.291 168.376 366.291 168.454 366.291L168.843 366.334L169.613 366.403C173.404 366.51 177.198 366.316 180.959 365.823C184.775 365.391 188.583 364.846 192.382 364.257C199.988 363.072 207.586 361.722 215.176 360.354L235.365 356.642C239.692 355.872 244.019 355.101 248.346 354.452C252.689 353.758 257.07 353.327 261.465 353.163C264.234 353.163 263.828 353.717 261.56 354.297C257.819 355.245 254.028 355.994 250.207 356.538C241.432 357.793 232.674 359.394 223.89 360.951C215.107 362.509 206.297 364.11 197.401 365.486C192.087 366.351 186.653 367.165 181.149 367.831C178.397 368.151 175.628 368.437 172.815 368.523C172.106 368.523 171.405 368.567 170.695 368.523H169.622L168.54 368.42C168.346 368.41 168.152 368.387 167.96 368.35C167.718 368.303 167.482 368.224 167.259 368.117C166.882 367.943 166.525 367.728 166.195 367.476C165.61 367.026 165.06 366.531 164.551 365.997C162.454 363.728 160.553 361.288 158.865 358.701C157.178 356.157 155.603 353.552 154.158 350.852C153.803 350.169 153.457 349.485 153.128 348.793C152.955 348.447 152.799 348.092 152.643 347.728C152.574 347.59 152.461 347.287 152.358 347.019C152.24 346.755 152.142 346.483 152.063 346.205C151.899 345.696 151.788 345.171 151.734 344.639C151.734 344.397 151.674 344.137 151.648 343.86V343.773H151.743H151.925L152.297 343.817C152.831 343.852 153.361 343.933 153.881 344.059L155.447 344.431L157.636 344.95L158.735 345.21L159.843 345.418L164.274 346.24C171.586 347.46 178.985 348.429 186.35 349.147C197.539 350.272 208.85 351.112 219.987 351.692C228.641 352.159 237.183 352.358 245.767 352.557L251.409 352.67C258.48 352.834 260.721 353.007 262.227 353.596C262.572 353.699 262.908 353.832 263.231 353.994C263.897 354.426 261.007 354.747 255.823 354.738C240.445 354.738 224.228 354.089 207.976 353.007C195.86 352.194 183.745 351.146 171.734 349.494H171.768Z" fill="#21467E"/>
<path d="M132.307 363.055C128.6 361.066 125.319 358.37 122.649 355.119C122.125 354.496 121.667 353.82 121.282 353.103C121.05 352.674 120.895 352.209 120.823 351.727C120.718 351.093 120.867 350.443 121.238 349.918C121.561 349.503 121.988 349.181 122.476 348.984C122.851 348.84 123.239 348.736 123.635 348.672C124.34 348.567 125.053 348.53 125.764 348.56C127.098 348.606 128.427 348.733 129.745 348.941C132.341 349.321 134.937 349.806 137.447 350.342C139.706 350.792 141.982 351.208 144.223 351.519C145.668 351.718 147.113 351.874 148.55 351.978C149.259 351.978 149.969 352.056 150.653 352.047C151.275 352.07 151.897 351.994 152.496 351.822C152.587 351.775 152.689 351.756 152.791 351.766C152.892 351.777 152.988 351.818 153.067 351.883C153.214 352.004 153.318 352.367 153.015 352.826C152.606 353.356 152.044 353.749 151.406 353.951C150.61 354.222 149.77 354.337 148.931 354.289C145.887 354.041 142.863 353.593 139.879 352.947L131.069 351.13C129.32 350.77 127.541 350.567 125.756 350.524C124.946 350.492 124.136 350.591 123.358 350.818C123.03 350.957 122.952 351.026 122.883 351.173C122.865 351.244 122.865 351.318 122.883 351.39C122.901 351.537 122.936 351.682 122.986 351.822C123.349 352.654 123.842 353.423 124.449 354.098C125.072 354.853 125.739 355.569 126.448 356.244C127.875 357.62 129.431 358.854 131.095 359.931C133.134 361.282 135.335 362.373 137.646 363.176C141.142 364.422 144.839 365.009 148.55 364.907L150.687 364.751C151.394 364.677 152.096 364.565 152.79 364.414C153.483 364.266 154.175 364.154 154.858 363.99L156.892 363.384C157.489 363.202 158.078 363.046 158.666 362.83C160.838 361.965 161.583 361.878 162.266 362.224C162.427 362.286 162.58 362.364 162.725 362.458C163.106 362.769 162.327 363.436 160.691 364.189C155.58 366.426 149.989 367.345 144.431 366.863C140.185 366.434 136.067 365.167 132.315 363.133L132.307 363.055Z" fill="#21467E"/>
<path d="M320.831 353.024C323.094 352.351 325.279 351.437 327.347 350.298L328.619 349.554L328.784 349.459L328.862 349.407C328.905 349.364 328.965 349.32 328.965 349.251C328.965 349.182 328.81 349.07 328.697 349.026C328.255 348.894 327.804 348.793 327.347 348.723C325.66 348.438 323.886 348.351 322.155 348.213C319.039 347.979 315.898 347.832 312.748 347.668C309.598 347.503 306.439 347.33 303.229 346.906C302.507 346.817 301.79 346.687 301.083 346.517C300.686 346.431 300.298 346.309 299.923 346.153C299.464 345.92 299.265 345.755 298.945 345.565C297.805 344.826 296.61 344.175 295.371 343.618C293.856 342.914 292.204 342.556 290.534 342.57C288.899 342.625 287.306 343.096 285.904 343.938C285.038 344.448 284.753 343.938 285.272 343.003C285.641 342.359 286.153 341.808 286.769 341.394C287.656 340.787 288.684 340.421 289.755 340.329C291.807 340.182 293.863 340.541 295.743 341.376C297.483 342.154 299.146 343.093 300.711 344.18C300.981 344.331 301.273 344.442 301.576 344.509C301.957 344.604 302.372 344.691 302.796 344.769C303.662 344.916 304.527 345.028 305.392 345.123C307.175 345.322 308.992 345.47 310.81 345.617C315.18 345.971 319.749 345.954 324.275 346.344C325.521 346.456 326.767 346.595 328.031 346.828C328.368 346.889 328.637 346.941 329.026 347.045L329.329 347.122L329.684 347.244C329.91 347.321 330.133 347.411 330.35 347.512C330.744 347.712 331.081 348.01 331.328 348.377C331.444 348.553 331.517 348.754 331.539 348.963C331.562 349.172 331.534 349.384 331.458 349.58C331.086 350.331 330.478 350.939 329.727 351.311L328.818 351.865L328.368 352.133L327.944 352.358C326.834 352.955 325.693 353.493 324.526 353.968C321.647 355.131 318.631 355.922 315.552 356.321C310.923 356.856 306.245 356.809 301.628 356.183C298.08 355.776 294.618 355.257 291.165 354.85C290.404 354.764 289.668 354.712 288.907 354.643C286.112 354.444 285.333 354.504 284.64 354.045C284.472 353.964 284.313 353.865 284.164 353.751C283.974 353.57 284.164 353.336 284.675 353.076C285.477 352.75 286.336 352.586 287.202 352.592C290.466 352.636 293.722 352.943 296.937 353.509C300.148 353.968 303.385 354.374 306.621 354.565C311.4 354.895 316.2 354.389 320.805 353.068L320.831 353.024Z" fill="#21467E"/>
<path d="M238.204 213.542C237.376 213.859 236.494 214.009 235.608 213.983C235.297 214.009 234.984 214.009 234.673 213.983C233.573 213.802 232.551 213.302 231.731 212.547C231.366 212.215 231.033 211.85 230.735 211.457C230.519 211.226 230.352 210.953 230.245 210.656C230.138 210.358 230.093 210.041 230.112 209.726C230.112 209.518 230.684 209.492 231.22 209.527C231.757 209.561 232.285 209.631 232.362 209.795C232.625 210.459 233.04 211.052 233.574 211.526C234.015 211.832 234.543 211.987 235.08 211.967C235.691 212.036 236.31 211.992 236.906 211.837C237.275 211.747 237.626 211.595 237.944 211.387C238.43 211.115 238.804 210.68 239 210.158C239.099 209.752 239.066 209.324 238.905 208.938C238.905 208.852 238.818 208.774 238.801 208.687C238.706 208.367 238.801 208.237 239.311 207.986L239.658 207.813C239.82 207.715 240.015 207.683 240.201 207.725C240.386 207.767 240.548 207.879 240.653 208.038C240.982 208.582 241.139 209.212 241.103 209.847C241.057 210.542 240.83 211.213 240.445 211.794C239.89 212.602 239.111 213.231 238.204 213.603V213.542Z" fill="#21467E"/>
<path d="M238.23 210.288C238.23 211.275 237.762 212.798 236.499 212.798C235.235 212.798 233.704 211.275 233.704 210.288C233.819 209.776 234.105 209.319 234.514 208.991C234.924 208.663 235.433 208.484 235.958 208.484C236.483 208.484 236.992 208.663 237.402 208.991C237.811 209.319 238.097 209.776 238.212 210.288H238.23Z" fill="#21467E"/>
<path d="M240.964 222.291C240.135 222.603 239.254 222.752 238.368 222.732C237.654 222.788 236.937 222.685 236.267 222.433C235.597 222.18 234.991 221.783 234.491 221.27C234.124 220.943 233.791 220.581 233.496 220.188C233.28 219.957 233.113 219.684 233.006 219.387C232.899 219.089 232.854 218.773 232.873 218.457C232.873 218.258 233.444 218.232 233.981 218.267C234.517 218.301 235.045 218.37 235.123 218.535C235.385 219.199 235.8 219.792 236.334 220.266C236.775 220.572 237.304 220.727 237.84 220.707C238.452 220.776 239.071 220.732 239.666 220.577C240.035 220.487 240.386 220.335 240.705 220.127C241.193 219.854 241.567 219.415 241.76 218.89C241.855 218.486 241.821 218.062 241.665 217.678C241.665 217.592 241.579 217.505 241.561 217.427C241.466 217.107 241.561 216.969 242.072 216.726L242.409 216.553C242.574 216.454 242.77 216.422 242.957 216.464C243.144 216.506 243.307 216.619 243.413 216.778C243.743 217.321 243.9 217.952 243.863 218.587C243.817 219.282 243.591 219.953 243.206 220.534C242.648 221.34 241.87 221.968 240.964 222.343V222.291Z" fill="#21467E"/>
<path d="M240.99 218.994C240.99 219.989 240.523 221.513 239.26 221.513C237.996 221.513 236.464 219.989 236.464 218.994C236.579 218.482 236.865 218.025 237.275 217.697C237.685 217.369 238.194 217.19 238.719 217.19C239.243 217.19 239.753 217.369 240.162 217.697C240.572 218.025 240.858 218.482 240.973 218.994H240.99Z" fill="#21467E"/>
<path d="M302.363 370.038C303.218 369.532 304.166 369.202 305.15 369.069L305.712 368.965L306.145 368.896L307.01 368.774C308.17 368.619 309.312 368.506 310.472 368.411C312.748 368.221 315.024 368.091 317.291 367.97C321.826 367.745 326.36 367.572 330.878 367.381C334.184 367.234 337.472 367.026 340.76 366.853C346.1 366.585 351.431 366.265 356.718 365.694C359.347 365.429 361.961 365.03 364.55 364.499C365.823 364.26 367.074 363.912 368.288 363.461C369.422 363.028 370.53 362.249 370.339 361.73C370.205 360.996 369.827 360.328 369.266 359.835C368.36 359.082 367.304 358.531 366.168 358.217C364.977 357.841 363.755 357.572 362.516 357.412C359.994 357.087 357.453 356.922 354.909 356.919C351.647 356.919 348.359 357.023 345.061 357.118C341.726 357.301 338.381 357.226 335.058 356.893C333.976 356.72 333.526 356.373 333.63 356.174C333.734 355.975 334.305 355.828 335.17 355.638C338.019 355.046 340.915 354.704 343.824 354.617C348.705 354.487 353.629 354.323 358.631 354.617C361.184 354.741 363.719 355.127 366.194 355.768C367.541 356.116 368.821 356.684 369.984 357.447C370.296 357.654 370.586 357.891 370.85 358.156C371.144 358.417 371.411 358.707 371.646 359.022C371.89 359.36 372.093 359.726 372.252 360.112C372.397 360.513 372.512 360.923 372.598 361.341C372.659 361.77 372.624 362.208 372.494 362.622C372.375 363.019 372.174 363.387 371.906 363.703C371.499 364.18 371.009 364.578 370.46 364.88C369.561 365.37 368.609 365.756 367.622 366.031C365.785 366.548 363.914 366.936 362.023 367.191C357.947 367.788 353.802 368.177 349.639 368.523C345.477 368.87 341.288 369.129 337.143 369.328L323.461 369.934C318.909 370.142 314.358 370.332 309.849 370.748C308.551 370.869 307.253 371.016 305.998 371.232L305.479 371.327C305.332 371.327 305.176 371.397 305.02 371.449C304.867 371.492 304.725 371.569 304.605 371.673C304.458 371.803 304.605 371.968 304.665 372.098C304.905 372.372 305.221 372.568 305.574 372.66L305.859 372.747C306.024 372.747 306.188 372.842 306.361 372.876C306.708 372.946 307.054 373.024 307.409 373.067C308.843 373.262 310.288 373.374 311.735 373.404C315.95 373.534 320.208 373.283 324.534 373.595C325.661 373.653 326.775 373.857 327.849 374.2C328.184 374.324 328.504 374.486 328.801 374.685C328.948 374.798 329.086 374.927 329.216 375.049C329.346 375.17 329.415 375.36 329.51 375.507C329.66 375.843 329.713 376.214 329.663 376.578C329.612 376.942 329.46 377.285 329.225 377.567C328.976 377.855 328.684 378.103 328.359 378.302C328.11 378.462 327.85 378.604 327.581 378.726C327.069 378.964 326.54 379.161 325.997 379.315C324.959 379.618 323.904 379.864 322.838 380.05C321.211 380.353 319.576 380.578 318.001 380.864C317.611 380.933 317.222 381.011 316.876 381.106L316.651 381.184C316.575 381.211 316.503 381.246 316.434 381.288L315.941 381.53C315.727 381.638 315.529 381.775 315.353 381.937C315.272 381.996 315.207 382.072 315.162 382.161C315.117 382.25 315.093 382.348 315.093 382.448C315.123 382.543 315.173 382.63 315.24 382.703C315.308 382.776 315.39 382.834 315.483 382.872C315.684 382.97 315.896 383.045 316.114 383.097C316.835 383.301 317.574 383.437 318.321 383.503C319.865 383.61 321.417 383.532 322.942 383.27C324.318 383.062 325.668 382.759 327.105 382.499C329.016 382.081 330.976 381.933 332.929 382.058C333.464 382.101 333.991 382.218 334.495 382.404C334.852 382.523 335.184 382.708 335.473 382.949C335.709 383.116 335.926 383.308 336.122 383.521C336.442 384.161 334.391 383.676 330.713 384.187C327.953 384.533 325.14 385.355 322.059 385.727C320.457 385.948 318.833 385.948 317.231 385.727C316.817 385.669 316.407 385.588 316.002 385.485C315.794 385.442 315.586 385.373 315.379 385.312C315.234 385.271 315.092 385.219 314.955 385.156L314.479 384.966C313.857 384.711 313.315 384.292 312.912 383.754C312.735 383.497 312.613 383.206 312.555 382.899C312.497 382.592 312.504 382.276 312.575 381.972C312.75 381.336 313.127 380.775 313.648 380.371C313.934 380.172 314.245 379.903 314.513 379.782C314.782 379.661 315.041 379.462 315.206 379.393C315.37 379.324 315.543 379.22 315.837 379.099C316.082 379.005 316.334 378.929 316.59 378.873C317.023 378.77 317.456 378.692 317.81 378.623C319.359 378.354 320.839 378.155 322.302 377.887C323.703 377.665 325.08 377.309 326.412 376.823C326.679 376.719 326.934 376.589 327.174 376.433H327.226L326.932 376.329C326.759 376.269 326.525 376.225 326.326 376.174C325.876 376.087 325.4 376.018 324.915 375.966C323.929 375.871 322.899 375.827 321.869 375.801C319.792 375.758 317.681 375.801 315.552 375.801C313.423 375.801 311.225 375.801 309.061 375.628C307.926 375.551 306.798 375.392 305.686 375.152L305.245 375.04C305.005 374.986 304.771 374.911 304.544 374.815L303.852 374.521C303.625 374.444 303.409 374.336 303.211 374.2C302.511 373.773 301.947 373.154 301.584 372.418L301.446 371.751C301.437 371.519 301.472 371.287 301.55 371.068C301.705 370.666 301.976 370.319 302.329 370.073L302.363 370.038Z" fill="#21467E"/>
<path d="M99.1537 368.351C102.174 368.766 105.211 369.13 108.214 369.294C109.322 369.381 110.421 369.294 111.52 369.355H114.436L117.344 369.225C118.305 369.121 119.265 369.043 120.234 368.931C121.204 368.818 122.182 368.671 123.151 368.524C124.882 368.256 126.612 367.901 128.274 367.503C130.446 366.992 132.601 366.326 134.773 366.006C136.158 365.798 135.033 368.42 132.488 369.052C128.006 370.182 123.434 370.917 118.824 371.25C116.02 371.432 113.112 371.674 110.257 371.588C107.124 371.51 104.008 371.233 100.919 370.852C99.0152 370.618 97.12 370.35 95.2335 370.082C92.3691 369.675 89.5133 369.216 86.6748 368.862C84.4681 368.602 82.2873 368.489 80.1066 368.377C79.6306 368.377 79.1546 368.377 78.67 368.316C76.8787 368.213 76.3248 368.022 75.9787 367.373C75.8982 367.231 75.8343 367.08 75.7883 366.923C75.6412 366.439 76.4027 366.101 77.7527 366.058C81.8644 366.05 85.9703 366.365 90.0325 367.001C93.096 367.416 96.1595 367.866 99.2056 368.264L99.1537 368.351Z" fill="#21467E"/>
<path d="M347.078 245.051C341.063 245.847 335.196 246.963 329.268 247.993L311.536 251.195L276.099 257.746L205.267 271.03C203.632 271.324 203.787 272.137 205.414 271.826L276.246 258.551L311.675 251.991L329.407 248.789C335.309 247.768 341.254 246.643 347.138 245.864C348.385 245.769 348.436 244.904 347.078 245.051Z" fill="#21467E"/>
<path d="M176.736 276.377L155.205 280.384L144.439 282.357C140.857 282.989 137.239 283.681 133.674 284.175C133.44 284.175 132.982 285.04 133.752 284.988C137.421 284.477 140.978 283.794 144.578 283.153L155.352 281.189L176.883 277.182C177.272 277.104 177.125 276.299 176.736 276.377Z" fill="#21467E"/>
<path d="M349.873 248.754C347.926 248.884 346.091 249.178 344.213 249.438C342.335 249.697 340.483 250.009 338.623 250.303C338.493 250.303 338.623 251.168 338.761 251.099C340.613 250.788 342.474 250.485 344.334 250.234C346.195 249.983 348.082 249.689 349.89 249.559C349.977 249.567 349.994 248.745 349.873 248.754Z" fill="#21467E"/>
<path d="M316.305 254.466L206.158 275.011C204.886 275.244 205.042 276.058 206.306 275.815L316.452 255.289C317.456 255.081 317.309 254.276 316.305 254.466Z" fill="#21467E"/>
<path d="M181.729 280.168C174.056 281.605 166.374 282.992 158.683 284.331L147.139 286.269C143.288 286.875 139.411 287.533 135.586 288C135.301 288 134.851 288.866 135.647 288.814C139.576 288.364 143.435 287.706 147.269 287.083L158.865 285.127C166.561 283.794 174.246 282.407 181.919 280.965C182.291 280.895 182.144 280.091 181.729 280.168Z" fill="#21467E"/>
<path d="M259.726 108.32C258.544 108.346 257.393 107.946 256.481 107.195C256.18 106.986 255.891 106.761 255.615 106.52C255.191 106.071 254.798 105.594 254.438 105.092C254.109 104.59 253.772 104.105 253.46 103.603C253.149 103.101 252.889 102.738 252.595 102.314C252.251 101.766 251.961 101.187 251.73 100.583C251.634 100.436 251.652 100.393 251.73 100.583C251.825 100.73 252.214 100.825 252.595 101.024C253.161 101.39 253.707 101.785 254.231 102.21C254.721 102.625 255.17 103.086 255.572 103.586C255.807 103.883 256.077 104.15 256.377 104.382C256.671 104.642 256.983 104.841 257.242 105.066C257.542 105.31 257.854 105.538 258.177 105.749C258.476 105.922 258.796 106.056 259.129 106.148C259.521 106.268 259.94 106.268 260.332 106.148C261.026 105.862 261.647 105.425 262.149 104.867C262.556 104.399 262.91 103.898 263.326 103.422L263.611 103.11C263.975 102.721 264.148 102.634 264.217 102.548C264.235 102.53 264.25 102.51 264.26 102.487C264.201 102.668 264.158 102.853 264.131 103.041C263.943 104.328 263.479 105.559 262.772 106.649C262.435 107.106 262.023 107.501 261.552 107.818C261.287 108.005 260.995 108.151 260.686 108.25C260.378 108.376 260.05 108.449 259.717 108.467L259.726 108.32Z" fill="#21467E"/>
<path d="M212.709 119.76C212.355 117.432 211.991 115.078 211.697 112.69C211.593 111.824 211.411 110.959 211.342 110.093C211.211 108.528 211.161 106.956 211.195 105.386C211.209 103.796 211.374 102.211 211.688 100.652C211.932 99.2529 212.387 97.8989 213.038 96.6367C213.871 95.0296 215.209 93.7405 216.846 92.9674C217.339 92.7338 217.244 92.7165 216.889 93.0194C216.654 93.2281 216.432 93.4506 216.223 93.6857C215.981 94.0059 215.738 94.3953 215.444 94.7674C214.559 96.1597 213.986 97.7275 213.765 99.3626C213.534 101.017 213.419 102.685 213.419 104.356C213.472 106.485 213.698 108.607 214.094 110.699L215.115 117.778C215.306 119.249 215.479 120.729 215.608 122.217C215.839 124.483 215.871 126.765 215.704 129.037C215.633 130.809 215.188 132.546 214.397 134.134C214.189 134.471 213.999 134.8 213.765 135.12C213.298 135.692 212.753 136.196 212.147 136.617L212 136.747C212.33 136.381 212.62 135.981 212.865 135.553C213.581 134.221 213.97 132.738 213.999 131.226C214.046 129.702 213.967 128.177 213.765 126.666C213.488 124.381 213.099 122.07 212.692 119.742L212.709 119.76Z" fill="#21467E"/>
<path d="M215.115 124.658C216.266 128.362 219.676 134.498 224.47 131.997C228.304 129.998 226.651 124.13 225.673 120.946C225.361 119.916 223.232 120.487 223.544 121.517C224.254 123.836 225.552 127.627 224.184 129.911C221.761 133.953 217.798 125.87 217.261 124.087C216.941 123.057 214.812 123.637 215.124 124.658H215.115Z" fill="#21467E"/>
<path d="M228.157 119.821C229.671 123.075 231.108 130.206 235.945 129.617C241.059 128.994 239.337 121.639 238.463 118.307C238.29 117.649 236.161 118.212 236.334 118.878C236.741 120.427 238.463 129.643 235.322 128.25C233.712 127.532 232.726 125.169 232.085 123.69C231.445 122.21 230.952 120.695 230.277 119.25C229.965 118.584 227.888 119.25 228.148 119.821H228.157Z" fill="#21467E"/>
<path d="M229.282 124.892C228.478 122.801 227.898 120.631 227.551 118.419C227.397 117.606 227.29 116.786 227.231 115.961C227.175 114.46 227.38 112.961 227.836 111.53C228.325 110.062 229.208 108.756 230.389 107.757C231.429 106.91 232.626 106.278 233.911 105.896L235.123 105.576C235.528 105.487 235.939 105.423 236.352 105.386C237.164 105.265 237.989 105.265 238.801 105.386C239.311 105.455 239.199 105.992 238.801 106.511C238.314 107.11 237.612 107.495 236.845 107.584C233.92 107.818 231.324 108.839 230.026 111.357C229.311 113.028 229.077 114.865 229.351 116.662C229.558 118.751 230.014 120.808 230.71 122.789C231.133 124.026 231.624 125.24 232.181 126.423C233.016 128.222 234.025 129.935 235.192 131.538C236.095 132.723 237.155 133.78 238.342 134.679L239.112 135.181C239.311 135.288 239.502 135.41 239.684 135.545C239.818 135.599 239.939 135.682 240.038 135.787C240.207 135.963 240.327 136.181 240.385 136.419C240.385 136.557 240.497 136.687 240.532 136.825C240.566 136.964 240.532 137.232 240.185 137.345C239.992 137.416 239.785 137.446 239.58 137.431C239.321 137.406 239.066 137.354 238.818 137.275C237.381 136.642 236.097 135.707 235.054 134.532C234.017 133.416 233.093 132.202 232.293 130.906C231.09 128.985 230.067 126.958 229.238 124.848L229.282 124.892Z" fill="#21467E"/>
<path d="M214.847 108.173C215.262 108.052 215.712 107.93 216.093 107.844C216.474 107.757 216.959 107.671 217.348 107.61C217.633 107.534 217.922 107.473 218.213 107.428C219.317 107.358 220.425 107.431 221.51 107.645C221.753 107.697 221.995 107.723 222.237 107.757L222.982 107.896C223.314 107.951 223.641 108.035 223.96 108.147C224.289 108.278 224.572 108.504 224.773 108.796C224.911 108.986 224.453 109.462 223.96 109.903C223.466 110.345 222.99 110.769 222.835 110.691C222.16 110.414 221.303 110.154 220.238 109.826C219.927 109.749 219.605 109.729 219.286 109.765C218.966 109.765 218.655 109.886 218.326 109.912L217.261 110.077C216.907 110.163 216.543 110.224 216.197 110.328C215.761 110.444 215.334 110.589 214.916 110.76C214.292 111.006 213.709 111.344 213.185 111.764C212.81 112.105 212.515 112.525 212.32 112.993C212.277 113.088 212.242 113.183 212.199 113.27C212.06 113.59 211.853 113.581 211.204 113.348L210.762 113.183C210.539 113.137 210.343 113.005 210.217 112.816C210.091 112.626 210.044 112.394 210.087 112.171C210.442 110.944 211.253 109.9 212.355 109.254C213.104 108.784 213.902 108.395 214.735 108.095L214.847 108.173Z" fill="#21467E"/>
<path d="M230.329 149.97C231.783 151.944 234.716 153.7 237.252 153.112C239.969 152.489 240.436 149.65 240.462 147.262C240.462 146.396 238.342 146.803 238.334 147.521C238.334 148.664 238.334 151.563 236.975 152.004C236.283 152.22 234.898 151.329 234.327 150.974C233.55 150.488 232.872 149.86 232.328 149.122C231.886 148.534 229.827 149.261 230.346 149.988L230.329 149.97Z" fill="#21467E"/>
<path d="M78.471 311.356C76.3213 303.721 74.91 295.896 74.2566 287.991C74.0316 285.109 73.8153 282.227 73.8239 279.337C73.7835 274.237 74.1685 269.142 74.9749 264.106C75.7521 259.047 77.1592 254.105 79.1633 249.395C80.0588 247.289 81.1299 245.263 82.3653 243.337C83.5759 241.402 84.995 239.606 86.597 237.98C88.6529 235.873 91.0415 234.119 93.6672 232.788C96.3026 231.478 99.1515 230.652 102.079 230.348C103.896 230.166 103.671 230.677 102.252 231.334C100.833 231.992 98.297 232.918 95.4499 234.173C90.3609 236.561 86.1307 240.459 83.3345 245.336C80.4477 250.3 78.4009 255.706 77.2768 261.337C75.8776 268.318 75.363 275.447 75.7451 282.556C76.0473 290.431 77.1197 298.256 78.947 305.922C80.0583 310.626 81.4807 315.252 83.2047 319.768C85.7134 326.648 89.256 333.106 93.7105 338.919C97.2239 343.246 101.499 347.002 106.613 348.949C107.167 349.174 107.747 349.312 108.344 349.494C108.941 349.676 109.495 349.753 110.075 349.892C110.989 350.067 111.915 350.179 112.844 350.229L113.891 350.299H114.757C115.488 350.293 116.217 350.374 116.929 350.541C117.169 350.598 117.403 350.676 117.63 350.775C117.889 350.922 117.569 351.155 116.764 351.424C116.238 351.609 115.692 351.734 115.137 351.796L114.056 351.926C113.658 351.926 113.242 351.926 112.801 351.926C110.121 351.875 107.475 351.305 105.012 350.247C102.527 349.165 100.213 347.728 98.1412 345.98C94.0304 342.418 90.5465 338.191 87.8345 333.476C83.7879 326.528 80.6526 319.088 78.5057 311.339L78.471 311.356Z" fill="#21467E"/>
<path d="M174.97 236.068C177.226 235.256 179.408 234.254 181.495 233.074C182.265 232.641 183.018 232.165 183.788 231.715C186.523 230.166 189.284 228.565 192.209 227.267C193.498 226.678 194.805 226.151 196.172 225.683C197.9 225.032 199.735 224.712 201.581 224.74C202.16 224.74 202.074 225.181 201.633 225.605C201.378 225.854 201.086 226.061 200.767 226.22C200.368 226.426 199.939 226.569 199.495 226.644C196.039 227.384 192.702 228.599 189.578 230.252C187.622 231.204 185.718 232.468 183.771 233.593C181.622 234.873 179.387 236.004 177.082 236.976C175.642 237.565 174.154 238.025 172.634 238.352C170.31 238.826 167.918 238.865 165.581 238.465C163.798 238.153 162.057 237.642 160.388 236.942L159.307 236.44C157.991 235.748 157.671 235.367 157.628 234.848C157.619 234.73 157.619 234.611 157.628 234.493C157.697 234.147 158.346 234.225 159.263 234.675C159.947 235.021 160.674 235.289 161.375 235.601C162.076 235.912 162.82 236.163 163.564 236.353C165.045 236.82 166.582 237.082 168.134 237.132C170.474 237.194 172.804 236.815 175.005 236.016L174.97 236.068Z" fill="#21467E"/>
<path d="M360.933 248.434L367.25 248.382C368.02 248.382 368.773 248.218 369.543 248.218C370.041 248.325 370.543 248.406 371.049 248.46C371.058 247.949 371.015 247.439 370.919 246.937C370.615 245.761 370.236 244.604 369.786 243.476C369.232 242.03 368.444 240.706 368.496 238.958C368.496 238.197 369.742 238.309 370.936 238.361C372.131 238.413 373.411 238.777 373.688 239.59C374.164 241.035 374.606 242.524 374.969 244.038L375.22 245.18L375.281 245.466L375.402 245.959L375.67 247.024C376.016 248.434 376.319 249.776 376.536 250.987C376.613 251.403 376.709 251.852 376.812 252.251C375.307 252.251 373.939 252.38 372.555 252.493L370.478 252.666L369.612 252.727H368.998L362.646 252.874H360.69L357.861 253.012L356.346 253.09C356.156 251.904 355.974 250.727 355.784 249.542L355.541 248.166C355.472 247.768 355.386 247.37 355.299 246.98C354.906 245.515 354.438 244.071 353.897 242.653C353.785 242.333 353.637 242.03 353.56 241.71C353.248 240.507 353.482 240.057 354.641 239.573C354.91 239.46 355.169 239.33 355.437 239.244C355.85 239.09 356.304 239.093 356.715 239.252C357.125 239.412 357.462 239.717 357.662 240.109C358.308 241.355 358.827 242.662 359.211 244.012C359.401 244.687 359.574 245.371 359.73 246.063L359.955 247.102L360.145 248.071C360.145 248.071 360.145 248.071 360.145 248.123C360.139 248.132 360.135 248.142 360.135 248.153C360.135 248.164 360.139 248.174 360.145 248.183H360.5H360.95L360.933 248.434Z" fill="#21467E"/>
</svg>
