<svg width="250" height="250" viewBox="0 0 250 250" fill="none" xmlns="http://www.w3.org/2000/svg">
<path opacity="0.25" d="M124.466 160.096C124.678 160.096 121.668 161.538 121.668 161.538L110.264 161.389C110.053 161.389 113.308 160.101 113.308 160.101L124.466 160.096Z" fill="#151F6D"/>
<g opacity="0.25">
<path d="M114.043 69.5528L104.99 110.442C103.49 117.26 102.048 124.135 100.966 131.067C100.702 132.798 100.433 134.529 100.192 136.264L99.3798 142.125L99.202 143.423L99.1587 143.745C99.1587 143.769 99.1587 143.803 99.1587 143.822H99.4039H100.058L102.462 143.861L105.082 143.899L110.317 143.976L152.192 144.457L173.135 144.668L183.606 144.745L188.846 144.774H192.784H194.476L195.039 144.63C195.222 144.558 195.387 144.444 195.519 144.298C195.796 143.991 196.009 143.631 196.144 143.24C196.245 143.01 196.264 142.937 196.313 142.817L196.428 142.49L196.635 141.846C196.889 140.99 197.115 140.154 197.327 139.317C197.75 137.639 198.13 135.952 198.5 134.298C199.231 130.933 199.904 127.606 200.558 124.255C201.84 117.546 203.055 110.83 204.202 104.106C205.341 97.3749 206.418 90.6442 207.356 83.8701C207.813 80.4759 208.264 77.0961 208.529 73.6249C208.563 73.1923 208.587 72.7548 208.606 72.3076V71.6298V71.2788V70.8846C208.597 70.4688 208.524 70.0569 208.389 69.6634C208.323 69.478 208.221 69.3068 208.091 69.1586C208.063 69.1201 208.01 69.0961 207.986 69.0576L207.846 68.9951L207.572 68.8798C207.212 68.7259 206.817 68.548 206.481 68.399L205.803 68.2692C204.005 67.9374 202.303 67.7884 200.582 67.6394C193.721 67.1057 186.909 66.9134 180.087 66.7211C173.264 66.5288 166.447 66.4471 159.625 66.3701C145.99 66.2195 132.357 66.1746 118.726 66.2355C114.913 66.2355 114.928 68.9855 118.726 68.9519C132.345 68.9102 145.966 68.9535 159.591 69.0817C166.399 69.1586 173.207 69.2644 180.01 69.4374C186.813 69.6105 193.62 69.8221 200.351 70.3461C202.024 70.4855 203.716 70.6442 205.274 70.9326L205.846 71.0432H205.889V71.2836V71.6346V72.2307C205.889 72.6346 205.851 73.048 205.822 73.4615C205.567 76.7884 205.12 80.1682 204.668 83.5288C203.736 90.2596 202.659 96.9903 201.529 103.683C200.399 110.375 199.188 117.091 197.889 123.764C197.24 127.101 196.572 130.433 195.846 133.745C195.481 135.399 195.106 137.053 194.692 138.678C194.486 139.49 194.274 140.303 194.034 141.082L193.851 141.654L193.76 141.928L193.692 142.101H192.769H188.856L183.625 142.077L173.159 141.995L152.226 141.788L110.356 141.308L102.274 141.187L102.904 136.683C103.144 134.957 103.385 133.24 103.673 131.524C104.74 124.663 106.163 117.87 107.668 111.053L116.721 70.1874C117.346 67.1971 114.683 66.6153 114.043 69.5528Z" fill="#151F6D"/>
</g>
<path d="M39.8174 131.904C39.8174 131.962 39.726 131.937 39.6251 131.87C39.5801 131.835 39.5453 131.789 39.5241 131.736C39.5191 131.697 39.5191 131.658 39.5241 131.62C39.5241 131.62 39.7164 131.385 39.7741 131.308C39.8313 131.237 39.8976 131.174 39.9712 131.12L40.4039 130.764C40.4373 130.739 40.4727 130.717 40.5097 130.697C40.6394 130.637 40.7581 130.556 40.8607 130.457C40.8714 130.451 40.8808 130.442 40.8882 130.432C40.8957 130.422 40.901 130.411 40.9039 130.399C41.0107 130.283 41.1319 130.181 41.2645 130.096C41.3847 130.043 41.4905 129.986 41.6059 129.928C41.6142 129.924 41.6232 129.922 41.6323 129.922C41.6414 129.922 41.6504 129.924 41.6587 129.928C41.7164 129.928 41.7405 129.928 41.7741 129.889C41.819 129.861 41.8655 129.835 41.9135 129.813C41.9454 129.808 41.9778 129.808 42.0097 129.813C42.0434 129.813 42.077 129.88 42.077 129.889C42.077 129.899 42.1059 129.937 42.1251 129.957V129.981C42.0808 130.096 42.021 130.204 41.9472 130.303C41.9472 130.303 41.6203 130.62 41.5866 130.659C41.5678 130.677 41.5447 130.69 41.5193 130.697C41.5193 130.697 41.2549 130.957 41.2405 130.966C41.226 130.976 41.1347 131.072 41.053 131.082H41.0145C40.9181 131.165 40.8152 131.241 40.7068 131.308C40.655 131.345 40.6053 131.385 40.5578 131.428C40.5578 131.428 40.5337 131.428 40.5241 131.428H40.4857C40.3655 131.529 40.2357 131.611 40.1251 131.721C40.1251 131.745 39.9376 131.812 39.9135 131.841C39.8895 131.87 39.8222 131.88 39.8174 131.904Z" fill="#151F6D"/>
<path d="M41.8269 131.817C41.8797 131.817 41.8557 131.894 41.7836 131.995C41.7462 132.038 41.7004 132.072 41.649 132.096H41.5432C41.5432 132.096 41.3317 131.932 41.2596 131.884C41.1976 131.834 41.1412 131.778 41.0913 131.716C40.9951 131.591 40.8894 131.466 40.7884 131.341C40.7647 131.314 40.7453 131.283 40.7307 131.25C40.6824 131.135 40.6122 131.03 40.524 130.942C40.524 130.942 40.524 130.908 40.4759 130.904C40.3715 130.815 40.2808 130.711 40.2067 130.596C40.1682 130.49 40.1201 130.394 40.0721 130.293C40.0721 130.293 40.0721 130.269 40.0721 130.245C40.0769 130.226 40.0767 130.207 40.0717 130.188C40.0666 130.17 40.0568 130.153 40.0432 130.139C40.0167 130.101 39.9956 130.059 39.9807 130.014C39.9807 130.014 39.9807 129.956 39.9807 129.928C39.9807 129.899 40.048 129.865 40.0576 129.865C40.0672 129.865 40.1057 129.831 40.1249 129.812H40.149C40.2529 129.847 40.3516 129.895 40.4423 129.956L40.7547 130.264C40.7716 130.281 40.7832 130.303 40.7884 130.327C40.7884 130.327 41.0192 130.553 41.024 130.562C41.0288 130.572 41.1153 130.654 41.1249 130.731C41.1346 130.807 41.1249 130.731 41.1249 130.759C41.196 130.844 41.2603 130.934 41.3172 131.029C41.3499 131.074 41.3852 131.117 41.423 131.158C41.4251 131.168 41.4251 131.178 41.423 131.187C41.4204 131.2 41.4204 131.213 41.423 131.226C41.501 131.332 41.5845 131.435 41.673 131.533C41.673 131.533 41.7499 131.702 41.7788 131.721C41.8076 131.74 41.8269 131.812 41.8269 131.817Z" fill="#151F6D"/>
<path d="M40.625 132.288C40.625 132.341 40.5769 132.365 40.4567 132.375C40.4001 132.37 40.3448 132.356 40.2933 132.332C40.2716 132.301 40.2523 132.269 40.2356 132.235C40.2356 132.235 40.2356 131.952 40.2356 131.86C40.237 131.774 40.2483 131.689 40.2692 131.606C40.3077 131.437 40.3414 131.264 40.3798 131.096C40.3892 131.059 40.4038 131.023 40.4231 130.99C40.4824 130.871 40.5214 130.743 40.5385 130.61C40.5385 130.586 40.5385 130.567 40.5385 130.543C40.5464 130.395 40.5755 130.25 40.625 130.11C40.6875 130.005 40.7308 129.899 40.7837 129.793C40.7837 129.793 40.7837 129.759 40.8125 129.745C40.8414 129.731 40.8702 129.687 40.8798 129.654C40.8945 129.605 40.9156 129.558 40.9423 129.514C40.9634 129.492 40.9877 129.472 41.0144 129.457C41.0144 129.457 41.1058 129.457 41.1106 129.457C41.1154 129.457 41.1635 129.457 41.1923 129.481H41.2212C41.2569 129.591 41.2795 129.706 41.2885 129.822C41.2885 129.822 41.2308 130.245 41.2308 130.303C41.2262 130.327 41.2164 130.35 41.2019 130.37C41.2019 130.37 41.1587 130.716 41.1587 130.731C41.1587 130.745 41.1587 130.865 41.0817 130.923C41.0048 130.981 41.0817 130.923 41.0817 130.961C41.0593 131.078 41.0271 131.192 40.9856 131.303C40.9856 131.36 40.9856 131.423 40.9471 131.481V131.509C40.9471 131.509 40.9471 131.533 40.9471 131.548C40.9077 131.686 40.8756 131.825 40.851 131.966C40.851 132 40.7644 132.144 40.7596 132.183C40.7548 132.221 40.6154 132.269 40.625 132.288Z" fill="#151F6D"/>
<path d="M42.077 130.692C42.1202 130.663 42.1539 130.726 42.1779 130.846C42.191 130.9 42.191 130.956 42.1779 131.01C42.1573 131.041 42.1313 131.069 42.101 131.091C42.101 131.091 41.8414 131.139 41.7597 131.159C41.6814 131.168 41.6023 131.168 41.5241 131.159H41.0433C41.0082 131.163 40.9726 131.163 40.9375 131.159C40.8198 131.12 40.6961 131.102 40.5722 131.106C40.5521 131.097 40.5297 131.097 40.5097 131.106C40.3741 131.125 40.2365 131.125 40.101 131.106C40 131.062 39.8943 131.038 39.7885 131.005C39.7885 131.005 39.7548 131.005 39.7452 131.005C39.7346 130.989 39.7202 130.977 39.7034 130.968C39.6866 130.96 39.6679 130.956 39.6491 130.957C39.6015 130.948 39.5548 130.935 39.5097 130.918C39.4865 130.902 39.4655 130.882 39.4472 130.861C39.4398 130.845 39.436 130.827 39.436 130.81C39.436 130.793 39.4398 130.775 39.4472 130.76C39.4472 130.76 39.4472 130.707 39.4472 130.673V130.644C39.5426 130.59 39.6443 130.548 39.75 130.519L40.1875 130.495C40.2114 130.491 40.2358 130.491 40.2597 130.495C40.2597 130.495 40.577 130.495 40.5914 130.495C40.6562 130.491 40.7208 130.505 40.7789 130.534C40.7913 130.538 40.8049 130.538 40.8173 130.534C40.9271 130.535 41.0365 130.547 41.1443 130.567C41.202 130.567 41.2548 130.567 41.3125 130.567H41.3414H41.3798C41.5127 130.577 41.646 130.577 41.7789 130.567C41.8077 130.567 41.952 130.625 41.9856 130.62C42.0193 130.615 42.0577 130.707 42.077 130.692Z" fill="#151F6D"/>
<path d="M45.5674 102.846C45.5674 102.899 45.476 102.88 45.3751 102.812C45.331 102.776 45.2963 102.73 45.2741 102.678C45.2688 102.639 45.2688 102.601 45.2741 102.562C45.2741 102.538 45.4616 102.327 45.5241 102.25C45.5825 102.179 45.6486 102.114 45.7212 102.058L46.1539 101.707C46.1861 101.68 46.2216 101.657 46.2597 101.639C46.3894 101.58 46.5081 101.498 46.6106 101.399C46.6106 101.399 46.6491 101.37 46.6539 101.341C46.7594 101.224 46.8808 101.122 47.0145 101.038L47.3558 100.87C47.3558 100.87 47.3558 100.846 47.4087 100.87C47.4616 100.894 47.4904 100.87 47.5241 100.832C47.5679 100.801 47.6146 100.776 47.6635 100.755C47.6954 100.75 47.7278 100.75 47.7597 100.755C47.7933 100.755 47.827 100.822 47.8222 100.832C47.8174 100.841 47.8558 100.88 47.8751 100.899V100.923C47.8298 101.037 47.77 101.146 47.6972 101.245C47.6972 101.245 47.3702 101.558 47.3366 101.601C47.316 101.619 47.2912 101.632 47.2645 101.639L46.9904 101.908C46.9387 101.962 46.8742 102.002 46.8029 102.024C46.8029 102.024 46.7741 102.024 46.7645 102.048C46.6683 102.13 46.5654 102.204 46.4568 102.269C46.405 102.308 46.3552 102.35 46.3077 102.394H46.2741H46.2308C46.1068 102.485 45.9881 102.583 45.8751 102.687C45.8751 102.687 45.6876 102.774 45.6587 102.808C45.6299 102.841 45.5722 102.822 45.5674 102.846Z" fill="#151F6D"/>
<path d="M47.5961 102.755C47.649 102.755 47.625 102.837 47.5529 102.937C47.5302 102.98 47.4928 103.013 47.4476 103.03C47.4024 103.047 47.3526 103.046 47.3077 103.029C47.3077 103.029 47.0961 102.87 47.0288 102.822C46.9657 102.772 46.9091 102.714 46.8605 102.649L46.5529 102.279C46.5324 102.248 46.5147 102.216 46.5 102.183C46.4486 102.071 46.3787 101.968 46.2932 101.88C46.2932 101.88 46.2932 101.846 46.2404 101.841C46.1387 101.749 46.0498 101.644 45.9759 101.529C45.9375 101.428 45.8846 101.327 45.8413 101.226C45.8413 101.226 45.8413 101.226 45.8413 101.183C45.8466 101.164 45.8468 101.144 45.8417 101.126C45.8366 101.107 45.8265 101.09 45.8125 101.077C45.7859 101.038 45.7649 100.996 45.75 100.952C45.7451 100.923 45.7451 100.894 45.75 100.865C45.7573 100.85 45.7681 100.836 45.7814 100.825C45.7947 100.815 45.8102 100.807 45.8269 100.803C45.8557 100.803 45.875 100.769 45.8942 100.75C45.9972 100.785 46.0957 100.831 46.1875 100.889C46.1875 100.889 46.4663 101.173 46.5 101.202C46.5168 101.219 46.5284 101.241 46.5336 101.264C46.5336 101.264 46.7644 101.486 46.7692 101.495C46.774 101.505 46.8605 101.587 46.8702 101.663C46.8661 101.674 46.8661 101.686 46.8702 101.697C46.9397 101.783 47.0039 101.873 47.0625 101.966C47.0951 102.012 47.1304 102.055 47.1682 102.096C47.1682 102.096 47.1682 102.096 47.1682 102.125C47.1682 102.154 47.1682 102.154 47.1682 102.159C47.2462 102.267 47.3297 102.371 47.4182 102.471C47.4423 102.471 47.4952 102.635 47.5192 102.659C47.5432 102.683 47.5673 102.75 47.5961 102.755Z" fill="#151F6D"/>
<path d="M46.375 103.231C46.375 103.284 46.327 103.308 46.2068 103.313C46.1501 103.312 46.0944 103.299 46.0433 103.274C46.0202 103.244 45.9993 103.211 45.9808 103.178C45.9808 103.178 45.9808 102.894 45.9808 102.803C45.9795 102.717 45.9908 102.631 46.0145 102.548C46.0529 102.38 46.0866 102.207 46.125 102.039C46.1303 101.999 46.1399 101.96 46.1539 101.923C46.2139 101.804 46.2529 101.676 46.2693 101.543C46.2741 101.533 46.2765 101.521 46.2765 101.51C46.2765 101.498 46.2741 101.487 46.2693 101.476C46.2772 101.33 46.3063 101.186 46.3558 101.048C46.4183 100.942 46.4616 100.832 46.5145 100.726C46.5145 100.726 46.5145 100.692 46.5433 100.683C46.5722 100.673 46.5962 100.625 46.6106 100.591C46.6245 100.542 46.6455 100.495 46.6731 100.452C46.6731 100.452 46.7164 100.414 46.7452 100.394C46.7741 100.375 46.8318 100.394 46.8414 100.394C46.851 100.394 46.8943 100.394 46.9231 100.394H46.952C46.9881 100.505 47.0107 100.62 47.0193 100.736C47.0193 100.736 46.9616 101.159 46.9616 101.216C46.9543 101.241 46.9429 101.263 46.9279 101.284C46.9279 101.284 46.8895 101.63 46.8847 101.639C46.8799 101.649 46.8847 101.779 46.8125 101.837C46.7404 101.894 46.8125 101.861 46.8125 101.875C46.7872 101.991 46.7551 102.105 46.7164 102.216C46.6985 102.274 46.6856 102.334 46.6779 102.394V102.423C46.6771 102.436 46.6771 102.449 46.6779 102.462C46.6401 102.599 46.6096 102.739 46.5866 102.88C46.5866 102.914 46.5 103.053 46.4952 103.091C46.4904 103.13 46.3654 103.207 46.375 103.231Z" fill="#151F6D"/>
<path d="M47.8222 101.634C47.8703 101.606 47.9039 101.668 47.928 101.788C47.9408 101.842 47.9408 101.898 47.928 101.952L47.851 102.029C47.851 102.029 47.5914 102.082 47.5097 102.101C47.4298 102.11 47.3491 102.11 47.2693 102.101H46.7885C46.7534 102.105 46.7179 102.105 46.6828 102.101C46.5648 102.063 46.4411 102.047 46.3174 102.053C46.2971 102.046 46.2751 102.046 46.2549 102.053C46.1195 102.074 45.9816 102.074 45.8462 102.053C45.7453 102.009 45.6395 101.985 45.5337 101.952C45.5337 101.952 45.5001 101.952 45.4857 101.952C45.4712 101.952 45.4232 101.904 45.3895 101.899C45.3432 101.894 45.2979 101.883 45.2549 101.865C45.2306 101.848 45.2094 101.827 45.1924 101.803C45.1924 101.803 45.1924 101.711 45.1924 101.707C45.1924 101.702 45.1924 101.649 45.1924 101.62V101.591C45.2868 101.535 45.3888 101.493 45.4953 101.466H45.9328C45.9546 101.459 45.9782 101.459 46.0001 101.466C46.0001 101.466 46.3222 101.466 46.3366 101.466C46.351 101.466 46.4616 101.466 46.5241 101.505C46.5866 101.543 46.5241 101.505 46.5626 101.505C46.6723 101.51 46.7815 101.523 46.8895 101.543C46.9472 101.543 47.0001 101.543 47.0578 101.543H47.0866H47.1251C47.258 101.55 47.3912 101.55 47.5241 101.543C47.553 101.543 47.6972 101.601 47.7308 101.596C47.7645 101.591 47.8078 101.649 47.8222 101.634Z" fill="#151F6D"/>
<path d="M89.5001 84.8268C89.5001 84.8845 89.4087 84.8605 89.3078 84.7932C89.2628 84.758 89.2279 84.7116 89.2068 84.6585C89.2042 84.6201 89.2042 84.5816 89.2068 84.5432C89.2068 84.5432 89.3991 84.3076 89.4568 84.2307C89.5169 84.1594 89.5846 84.0949 89.6587 84.0384L90.0866 83.6874C90.12 83.6622 90.1554 83.6397 90.1924 83.6201C90.3221 83.5604 90.4408 83.4791 90.5434 83.3797C90.5654 83.3664 90.5823 83.3461 90.5914 83.322C90.6954 83.2051 90.8152 83.1031 90.9472 83.0191C91.0674 82.9662 91.178 82.9085 91.2885 82.8509C91.2885 82.8509 91.3174 82.8268 91.3414 82.8509C91.3655 82.8749 91.4232 82.8509 91.4568 82.8124C91.5027 82.7829 91.551 82.7572 91.601 82.7355C91.6329 82.7304 91.6653 82.7304 91.6972 82.7355C91.726 82.7355 91.7597 82.8028 91.7597 82.8124C91.7597 82.822 91.7885 82.8605 91.8126 82.8797C91.7654 82.9933 91.7057 83.1014 91.6347 83.2018C91.6347 83.2018 91.303 83.5191 91.2693 83.5576C91.2505 83.5759 91.2274 83.5892 91.202 83.5961C91.202 83.5961 90.9376 83.8557 90.928 83.8653C90.9184 83.8749 90.8222 83.971 90.7357 83.9807H90.6972C90.6008 84.064 90.4979 84.1396 90.3895 84.2066C90.3377 84.244 90.288 84.2841 90.2405 84.3268C90.2405 84.3268 90.2164 84.3268 90.2068 84.3268C90.1941 84.3242 90.181 84.3242 90.1684 84.3268C90.0444 84.4178 89.9256 84.5157 89.8126 84.6201C89.8126 84.6441 89.6203 84.7114 89.5962 84.7403C89.5722 84.7691 89.5097 84.8028 89.5001 84.8268Z" fill="#151F6D"/>
<path d="M91.5241 84.7404C91.577 84.7404 91.5529 84.8173 91.4808 84.9183C91.445 84.9606 91.4008 84.995 91.351 85.0192H91.2404C91.2404 85.0192 91.0289 84.8558 90.9616 84.8077C90.8974 84.7603 90.8407 84.7036 90.7933 84.6394L90.4856 84.2644C90.462 84.237 90.4425 84.2062 90.4279 84.1731C90.3796 84.0581 90.3094 83.9536 90.2212 83.8654C90.2212 83.8654 90.2212 83.8318 90.1731 83.8269C90.0689 83.7393 89.9796 83.6354 89.9087 83.5193C89.8654 83.4135 89.8174 83.3173 89.7693 83.2164C89.7693 83.2164 89.7693 83.1923 89.7693 83.1683C89.7693 83.1443 89.7693 83.0914 89.7404 83.0625C89.7158 83.0229 89.6949 82.981 89.6779 82.9375C89.671 82.9091 89.671 82.8794 89.6779 82.851C89.6779 82.8221 89.7404 82.7885 89.75 82.7885C89.7597 82.7885 89.7981 82.7548 89.8174 82.7356C89.9228 82.7698 90.0231 82.8183 90.1154 82.8798C90.1154 82.8798 90.3895 83.1587 90.4231 83.1875C90.4399 83.2048 90.4516 83.2265 90.4568 83.25C90.4568 83.25 90.6875 83.476 90.6972 83.4856C90.7068 83.4952 90.7885 83.5769 90.7933 83.6491C90.7981 83.7212 90.7933 83.6731 90.7933 83.6827C90.8644 83.7673 90.9287 83.8573 90.9856 83.9519C91.0193 84 91.0577 84.0385 91.0914 84.0818V84.1106C91.0914 84.1106 91.0914 84.1394 91.0914 84.1491C91.1708 84.2561 91.2559 84.3588 91.3462 84.4567C91.3462 84.4567 91.4183 84.625 91.4472 84.6442C91.476 84.6635 91.5048 84.7356 91.5241 84.7404Z" fill="#151F6D"/>
<path d="M90.3078 85.2114C90.3078 85.2642 90.2645 85.2883 90.1395 85.2979C90.0843 85.2941 90.0303 85.2794 89.9808 85.2546C89.9577 85.2241 89.9368 85.192 89.9183 85.1585C89.9183 85.1585 89.9183 84.8748 89.9183 84.7835C89.9197 84.6975 89.931 84.612 89.952 84.5287C89.9905 84.3604 90.0241 84.1873 90.0626 84.0191C90.072 83.9819 90.0865 83.9463 90.1058 83.9133C90.1639 83.7931 90.2043 83.6652 90.226 83.5335C90.226 83.5094 90.226 83.4902 90.226 83.4662C90.2316 83.3182 90.2608 83.1722 90.3126 83.0335C90.3703 82.9277 90.4183 82.8219 90.4712 82.7162C90.4712 82.7162 90.4712 82.6777 90.4953 82.6681C90.5193 82.6585 90.5529 82.6104 90.5626 82.5767C90.5722 82.5431 90.601 82.4854 90.6251 82.4373C90.6461 82.4146 90.6704 82.3952 90.6972 82.3796C90.7212 82.3796 90.7885 82.3796 90.7933 82.3796C90.7981 82.3796 90.8462 82.3796 90.8751 82.4037H90.9039C90.942 82.5138 90.9646 82.6287 90.9712 82.745C90.9712 82.745 90.9135 83.1681 90.9135 83.2258C90.909 83.2501 90.8991 83.273 90.8847 83.2931C90.8847 83.2931 90.8462 83.6393 90.8414 83.6489C90.8347 83.7205 90.8081 83.7888 90.7645 83.846C90.7645 83.846 90.7645 83.846 90.7645 83.8844C90.7443 84.0012 90.7121 84.1156 90.6683 84.2258C90.6683 84.2835 90.6443 84.346 90.6299 84.4037V84.4325C90.6299 84.4325 90.6299 84.4325 90.6299 84.471C90.5905 84.6086 90.5584 84.7482 90.5337 84.8892C90.5337 84.9229 90.4472 85.0623 90.4472 85.1056C90.4472 85.1489 90.3029 85.1873 90.3078 85.2114Z" fill="#151F6D"/>
<path d="M91.7597 83.6153C91.8029 83.5864 91.8366 83.6489 91.8606 83.7691C91.878 83.8141 91.8783 83.8639 91.8615 83.9091C91.8447 83.9542 91.8118 83.9917 91.7693 84.0143C91.7693 84.0143 91.5145 84.0624 91.4279 84.0816C91.3497 84.0913 91.2706 84.0913 91.1923 84.0816H90.7116C90.6752 84.08 90.6393 84.0719 90.6058 84.0576C90.4873 84.0224 90.364 84.0062 90.2404 84.0095C90.2404 84.0095 90.202 84.0095 90.1827 84.0095C90.0472 84.0289 89.9096 84.0289 89.7741 84.0095C89.6683 83.9662 89.5625 83.9422 89.4568 83.9085C89.4568 83.9085 89.4231 83.9085 89.4135 83.9085C89.4039 83.9085 89.351 83.8653 89.3173 83.8605C89.2712 83.8528 89.226 83.8399 89.1827 83.822C89.1587 83.822 89.1395 83.7835 89.1154 83.7595C89.0914 83.7355 89.1154 83.673 89.1154 83.6634C89.1154 83.6537 89.1154 83.6057 89.1154 83.5768C89.1132 83.5673 89.1132 83.5574 89.1154 83.548C89.2104 83.4931 89.3123 83.4511 89.4183 83.423L89.8558 83.3989C89.8558 83.3989 89.8991 83.3989 89.9231 83.3989C89.9471 83.3989 90.2404 83.3989 90.2548 83.3989C90.2693 83.3989 90.3846 83.3989 90.4423 83.4374C90.4548 83.4414 90.4683 83.4414 90.4808 83.4374C90.5906 83.4388 90.7 83.4501 90.8077 83.471C90.8654 83.471 90.9231 83.471 90.976 83.471H91.0048H91.0433C91.1761 83.4806 91.3095 83.4806 91.4423 83.471C91.4712 83.471 91.6154 83.5287 91.6491 83.5239C91.6827 83.5191 91.7404 83.6537 91.7597 83.6153Z" fill="#151F6D"/>
<g opacity="0.6">
<path d="M69.3942 116.423C69.423 116.423 69.3942 116.471 69.3702 116.534C69.3461 116.596 69.3028 116.596 69.2884 116.591H69.2307C69.2307 116.591 69.0961 116.486 69.0529 116.457C69.0152 116.422 68.9798 116.385 68.9471 116.346L68.75 116.106C68.7344 116.087 68.7215 116.066 68.7115 116.043C68.6791 115.97 68.6335 115.903 68.5769 115.846C68.5675 115.843 68.5574 115.843 68.548 115.846C68.4805 115.79 68.4221 115.723 68.375 115.649C68.3485 115.582 68.318 115.516 68.2836 115.452C68.2811 115.447 68.2798 115.443 68.2798 115.437C68.2798 115.432 68.2811 115.427 68.2836 115.423C68.2903 115.414 68.2938 115.403 68.2938 115.392C68.2938 115.381 68.2903 115.37 68.2836 115.361L68.2404 115.279C68.2379 115.261 68.2379 115.243 68.2404 115.226C68.2404 115.226 68.2788 115.183 68.2884 115.187C68.298 115.192 68.3173 115.187 68.3269 115.154C68.3926 115.179 68.4555 115.211 68.5144 115.25C68.5144 115.25 68.6875 115.433 68.7115 115.447C68.7124 115.461 68.7124 115.476 68.7115 115.49C68.7115 115.49 68.8557 115.635 68.8605 115.639C68.8913 115.67 68.913 115.708 68.923 115.75V115.75C68.9689 115.804 69.0107 115.862 69.048 115.923C69.048 115.952 69.0961 115.976 69.1153 116.005C69.1346 116.034 69.1153 116.005 69.1153 116.005C69.1153 116.005 69.1153 116.005 69.1153 116.029C69.1153 116.053 69.2163 116.168 69.2788 116.226C69.3413 116.284 69.3269 116.332 69.3461 116.346C69.3654 116.361 69.3798 116.418 69.3942 116.423Z" fill="#151F6D"/>
<path d="M68.6057 116.721C68.6057 116.755 68.5769 116.769 68.5048 116.774C68.4733 116.783 68.4401 116.783 68.4086 116.774C68.3931 116.755 68.3801 116.734 68.3702 116.712C68.3702 116.712 68.3702 116.534 68.3702 116.471C68.3655 116.417 68.3655 116.362 68.3702 116.308C68.399 116.202 68.4183 116.091 68.4423 115.981C68.449 115.957 68.4587 115.935 68.4711 115.913C68.5083 115.836 68.5326 115.753 68.5433 115.668C68.548 115.654 68.548 115.639 68.5433 115.625C68.5464 115.53 68.5642 115.436 68.5961 115.346C68.6346 115.279 68.6634 115.207 68.6971 115.139C68.7307 115.072 68.6971 115.115 68.6971 115.111C68.6971 115.106 68.7307 115.072 68.7404 115.048C68.7512 115.018 68.764 114.989 68.7788 114.962C68.7908 114.946 68.8055 114.933 68.8221 114.923C68.8221 114.923 68.875 114.923 68.8798 114.923C68.8846 114.923 68.9134 114.923 68.9279 114.923C68.9489 114.994 68.9618 115.066 68.9663 115.139C68.9663 115.139 68.9279 115.413 68.9231 115.442C68.9182 115.471 68.9231 115.471 68.9231 115.49C68.9231 115.51 68.8942 115.712 68.8894 115.716C68.8875 115.761 68.8724 115.805 68.8461 115.841C68.844 115.846 68.8429 115.851 68.8429 115.856C68.8429 115.861 68.844 115.866 68.8461 115.87C68.8298 115.944 68.8089 116.016 68.7836 116.087C68.7709 116.124 68.7628 116.163 68.7596 116.202C68.7596 116.202 68.7596 116.202 68.7596 116.226C68.7358 116.315 68.7165 116.405 68.7019 116.495C68.7019 116.495 68.6442 116.611 68.6442 116.635C68.6442 116.659 68.6009 116.707 68.6057 116.721Z" fill="#151F6D"/>
<path d="M69.548 115.702C69.5769 115.702 69.6009 115.702 69.6154 115.793C69.6231 115.826 69.6231 115.861 69.6154 115.894L69.5673 115.937C69.4944 115.956 69.4206 115.97 69.3461 115.981C69.2951 115.988 69.2433 115.988 69.1923 115.981H68.8846H68.8125C68.7367 115.955 68.6568 115.944 68.5769 115.947C68.5644 115.943 68.5509 115.943 68.5384 115.947C68.4507 115.959 68.3617 115.959 68.274 115.947L68.0721 115.889C68.0721 115.889 68.0721 115.889 68.0432 115.889C68.0144 115.889 68.0048 115.889 67.9807 115.86C67.952 115.865 67.9229 115.865 67.8942 115.86C67.8776 115.852 67.8629 115.841 67.8509 115.827C67.8431 115.807 67.8431 115.784 67.8509 115.764C67.8509 115.764 67.8509 115.735 67.8509 115.716C67.9111 115.683 67.9759 115.659 68.0432 115.644H68.3269C68.3269 115.644 68.3557 115.644 68.3702 115.644C68.3846 115.644 68.5769 115.644 68.5865 115.644C68.626 115.635 68.6672 115.635 68.7067 115.644C68.7067 115.644 68.7067 115.644 68.7307 115.644C68.8012 115.639 68.8718 115.639 68.9423 115.644H69.0721H69.0961C69.181 115.649 69.2661 115.649 69.3509 115.644C69.395 115.658 69.44 115.669 69.4855 115.678C69.4855 115.678 69.5384 115.711 69.548 115.702Z" fill="#151F6D"/>
</g>
<g opacity="0.6">
<path d="M74.1154 182.438C74.1154 182.476 74.0577 182.438 73.9952 182.438C73.9327 182.438 73.9327 182.37 73.9375 182.356C73.9352 182.332 73.9352 182.308 73.9375 182.284C73.9375 182.284 74.0625 182.135 74.101 182.087C74.1382 182.04 74.1819 182 74.2308 181.966L74.5193 181.731L74.5866 181.688C74.6676 181.645 74.7435 181.594 74.8125 181.534C74.8258 181.524 74.8358 181.511 74.8414 181.495C74.9082 181.42 74.986 181.355 75.0721 181.303C75.1491 181.269 75.2164 181.226 75.2885 181.188C75.3606 181.149 75.2885 181.188 75.3221 181.188C75.3558 181.188 75.375 181.188 75.3943 181.163C75.423 181.143 75.4536 181.125 75.4856 181.111H75.5481C75.5481 181.111 75.5866 181.149 75.5866 181.154C75.5866 181.159 75.5866 181.183 75.6154 181.197C75.5815 181.268 75.5413 181.335 75.4952 181.399L75.2596 181.625C75.2596 181.625 75.2308 181.625 75.2164 181.654C75.202 181.683 75.0433 181.817 75.0385 181.822C75.0038 181.858 74.9608 181.884 74.9135 181.899C74.9135 181.899 74.9135 181.899 74.9135 181.899C74.8531 181.954 74.787 182.002 74.7164 182.043L74.6202 182.125H74.5914C74.5128 182.183 74.4373 182.246 74.3654 182.313C74.3654 182.313 74.2452 182.37 74.226 182.389C74.2068 182.409 74.1202 182.423 74.1154 182.438Z" fill="#151F6D"/>
<path d="M75.4183 182.394C75.4519 182.394 75.4183 182.442 75.3943 182.505C75.3737 182.531 75.3474 182.553 75.3173 182.567H75.25C75.25 182.567 75.1154 182.461 75.0721 182.433C75.0321 182.401 74.9965 182.363 74.9664 182.322L74.7644 182.082C74.7504 182.062 74.7391 182.041 74.7308 182.019C74.6949 181.948 74.6497 181.881 74.5962 181.822C74.588 181.81 74.5761 181.802 74.5625 181.798C74.4978 181.74 74.4412 181.674 74.3943 181.601C74.3654 181.534 74.3318 181.471 74.3029 181.409C74.2741 181.346 74.3029 181.409 74.3029 181.375C74.3029 181.341 74.3029 181.327 74.3029 181.312C74.2848 181.287 74.2702 181.26 74.2596 181.231C74.2572 181.213 74.2572 181.195 74.2596 181.178C74.2596 181.178 74.2981 181.139 74.3029 181.139C74.3077 181.139 74.3318 181.139 74.3462 181.106C74.4108 181.13 74.4722 181.162 74.5289 181.202C74.5289 181.202 74.7068 181.385 74.7308 181.399C74.7334 181.413 74.7334 181.428 74.7308 181.442L74.8846 181.591C74.9154 181.622 74.9371 181.66 74.9471 181.702C74.9471 181.702 75.0289 181.817 75.0721 181.875C75.0931 181.903 75.1156 181.931 75.1394 181.957V181.981C75.1899 182.05 75.2444 182.116 75.3029 182.178C75.3029 182.178 75.351 182.284 75.3654 182.303C75.3798 182.322 75.4039 182.389 75.4183 182.394Z" fill="#151F6D"/>
<path d="M74.6346 182.692C74.6346 182.726 74.6058 182.74 74.5337 182.745C74.4985 182.746 74.4638 182.738 74.4327 182.721C74.4187 182.702 74.4074 182.681 74.399 182.659C74.399 182.659 74.399 182.481 74.399 182.418C74.4003 182.363 74.4084 182.308 74.4231 182.255L74.4952 181.928C74.5003 181.904 74.5084 181.882 74.5192 181.86C74.5579 181.783 74.5839 181.701 74.5962 181.615C74.5995 181.609 74.6013 181.601 74.6013 181.594C74.6013 181.586 74.5995 181.579 74.5962 181.572C74.6033 181.477 74.6227 181.383 74.6539 181.293C74.6898 181.226 74.7219 181.157 74.75 181.086C74.75 181.086 74.75 181.062 74.75 181.058C74.75 181.053 74.7837 181.019 74.7933 180.995C74.802 180.965 74.815 180.936 74.8317 180.909C74.8413 180.891 74.8566 180.878 74.875 180.87C74.875 180.87 74.9279 180.87 74.9327 180.87C74.9375 180.87 74.9616 180.87 74.9808 180.87C75.0002 180.941 75.0115 181.013 75.0144 181.086C75.0144 181.086 74.976 181.361 74.976 181.389C74.9805 181.405 74.9805 181.422 74.976 181.437C74.976 181.437 74.9519 181.659 74.9471 181.663C74.9423 181.668 74.9471 181.755 74.899 181.788C74.851 181.822 74.899 181.788 74.899 181.817C74.8843 181.89 74.8651 181.963 74.8414 182.034C74.8295 182.071 74.8199 182.11 74.8125 182.149C74.7871 182.238 74.7663 182.327 74.75 182.418C74.75 182.442 74.6971 182.534 74.6923 182.558C74.6875 182.582 74.6298 182.692 74.6346 182.692Z" fill="#151F6D"/>
<path d="M75.5769 181.673C75.6058 181.673 75.625 181.673 75.6442 181.764C75.652 181.798 75.652 181.832 75.6442 181.865L75.5961 181.909C75.5961 181.909 75.4279 181.942 75.375 181.952C75.324 181.959 75.2722 181.959 75.2211 181.952H74.9086H74.8413C74.7655 181.927 74.6857 181.915 74.6058 181.918C74.5934 181.913 74.5797 181.913 74.5673 181.918C74.4796 181.93 74.3906 181.93 74.3029 181.918L74.101 181.86C74.101 181.86 74.0769 181.86 74.0721 181.86C74.0673 181.86 74.0288 181.836 74.0096 181.832C73.9797 181.828 73.9505 181.82 73.9231 181.808C73.9065 181.799 73.8918 181.788 73.8798 181.774C73.8747 181.765 73.8721 181.755 73.8721 181.745C73.8721 181.735 73.8747 181.725 73.8798 181.716C73.8798 181.716 73.8798 181.683 73.8798 181.663C73.942 181.631 74.0083 181.607 74.0769 181.591H74.3606C74.3606 181.591 74.3894 181.591 74.4038 181.591C74.4183 181.591 74.6106 181.591 74.6154 181.591C74.6585 181.587 74.7018 181.596 74.7404 181.615H74.7644C74.8354 181.619 74.906 181.627 74.9759 181.639H75.0817H75.1058C75.1906 181.644 75.2757 181.644 75.3606 181.639C75.3846 181.639 75.4759 181.678 75.4952 181.673C75.5144 181.668 75.5625 181.683 75.5769 181.673Z" fill="#151F6D"/>
</g>
<path d="M76.7836 110.75C76.7836 110.784 76.726 110.75 76.6635 110.75C76.638 110.728 76.6182 110.7 76.6058 110.668C76.6031 110.644 76.6031 110.62 76.6058 110.596C76.6058 110.596 76.7308 110.447 76.7692 110.399C76.8088 110.354 76.8523 110.312 76.899 110.274C76.9952 110.202 77.0865 110.125 77.1779 110.048C77.1984 110.031 77.221 110.016 77.2452 110.005C77.3288 109.965 77.4052 109.911 77.4711 109.846C77.4711 109.846 77.4952 109.846 77.5 109.812C77.569 109.738 77.6465 109.672 77.7308 109.615C77.8077 109.582 77.875 109.543 77.9471 109.505C78.0192 109.466 77.9471 109.505 77.9808 109.505C78.0144 109.505 78.0336 109.505 78.0577 109.481L78.149 109.433C78.149 109.433 78.1875 109.433 78.2067 109.433C78.2259 109.433 78.2452 109.471 78.2452 109.476C78.2452 109.481 78.2452 109.505 78.274 109.519C78.2408 109.59 78.2006 109.658 78.1538 109.721L77.9183 109.947H77.875L77.6971 110.12C77.6586 110.149 77.6298 110.187 77.5769 110.197C77.5144 110.25 77.4471 110.293 77.3798 110.341C77.3125 110.389 77.3125 110.394 77.2788 110.418C77.2019 110.486 77.1154 110.534 77.0481 110.606C76.9808 110.678 76.9279 110.668 76.9086 110.687C76.8894 110.707 76.7885 110.736 76.7836 110.75Z" fill="#151F6D"/>
<path d="M78.0865 110.702C78.1202 110.702 78.0865 110.755 78.0865 110.817C78.0629 110.841 78.0353 110.861 78.0048 110.875H77.9375C77.9375 110.875 77.8029 110.769 77.7596 110.735C77.7173 110.706 77.6813 110.668 77.6539 110.625C77.5865 110.543 77.5192 110.466 77.4567 110.384C77.4412 110.367 77.4282 110.348 77.4183 110.327C77.3847 110.254 77.3392 110.187 77.2837 110.13C77.2837 110.13 77.2837 110.13 77.2548 110.106C77.186 110.049 77.1275 109.98 77.0817 109.904C77.0562 109.837 77.0256 109.773 76.9904 109.711C76.9904 109.711 76.9904 109.711 76.9904 109.683C76.9963 109.672 76.9994 109.661 76.9994 109.649C76.9994 109.637 76.9963 109.625 76.9904 109.615L76.9471 109.538C76.9447 109.519 76.9447 109.5 76.9471 109.481C76.9471 109.481 76.9856 109.442 76.9952 109.442C77.0048 109.442 76.9952 109.442 77.0337 109.413C77.0994 109.439 77.1622 109.471 77.2212 109.509C77.2212 109.509 77.3942 109.692 77.4183 109.711C77.4192 109.724 77.4192 109.737 77.4183 109.75C77.4183 109.75 77.5625 109.899 77.5673 109.904C77.5721 109.909 77.625 109.961 77.6298 110.009V110.034C77.6768 110.085 77.7186 110.142 77.7548 110.202C77.7745 110.233 77.7971 110.262 77.8221 110.288V110.288C77.8798 110.351 77.9231 110.428 77.9856 110.485C78.0481 110.543 78.0337 110.591 78.0529 110.606C78.0721 110.62 78.0769 110.702 78.0865 110.702Z" fill="#151F6D"/>
<path d="M77.3029 111C77.3029 111.034 77.2741 111.053 77.202 111.058C77.1685 111.057 77.1357 111.048 77.1058 111.034L77.0673 110.971C77.0673 110.971 77.0673 110.788 77.0673 110.731C77.0624 110.676 77.0624 110.622 77.0673 110.567C77.0962 110.457 77.1154 110.346 77.1395 110.24C77.147 110.215 77.1566 110.191 77.1683 110.168C77.2045 110.091 77.2289 110.008 77.2404 109.923C77.2438 109.916 77.2456 109.909 77.2456 109.901C77.2456 109.894 77.2438 109.886 77.2404 109.88C77.2485 109.785 77.2679 109.691 77.2981 109.601C77.3366 109.534 77.3654 109.466 77.3991 109.399C77.4327 109.332 77.3991 109.375 77.3991 109.37C77.3991 109.365 77.4327 109.332 77.4423 109.308C77.451 109.276 77.4639 109.245 77.4808 109.216C77.493 109.202 77.5077 109.191 77.5241 109.183C77.5241 109.183 77.577 109.183 77.5818 109.183C77.5866 109.183 77.6154 109.183 77.6298 109.183C77.6513 109.253 77.6642 109.326 77.6683 109.399C77.6683 109.399 77.6298 109.668 77.625 109.702C77.6287 109.716 77.6287 109.731 77.625 109.745C77.625 109.745 77.625 109.966 77.5962 109.976C77.5935 110.021 77.5785 110.064 77.5529 110.101C77.5512 110.105 77.5503 110.109 77.5503 110.113C77.5503 110.117 77.5512 110.121 77.5529 110.125C77.5372 110.2 77.5163 110.274 77.4904 110.346C77.4785 110.384 77.4689 110.422 77.4616 110.461C77.4355 110.55 77.4162 110.64 77.4039 110.731C77.3818 110.776 77.3625 110.822 77.3462 110.87C77.3462 110.87 77.2981 110.99 77.3029 111Z" fill="#151F6D"/>
<path d="M78.2453 109.985C78.2741 109.985 78.2934 109.985 78.3126 110.077C78.3201 110.108 78.3201 110.141 78.3126 110.173C78.2991 110.191 78.2829 110.208 78.2645 110.221C78.1915 110.238 78.1177 110.25 78.0434 110.259C77.9923 110.267 77.9405 110.267 77.8895 110.259H77.5818H77.5097C77.4331 110.238 77.3537 110.228 77.2741 110.231C77.2617 110.226 77.2481 110.226 77.2357 110.231C77.1481 110.245 77.0588 110.245 76.9712 110.231L76.7693 110.168C76.7648 110.17 76.7599 110.171 76.7549 110.171C76.7499 110.171 76.745 110.17 76.7405 110.168C76.734 110.158 76.7247 110.149 76.7135 110.144C76.7024 110.139 76.6901 110.137 76.678 110.139L76.5914 110.115C76.5914 110.115 76.5626 110.115 76.5482 110.077C76.5337 110.038 76.5482 110.024 76.5482 110.019C76.5482 110.014 76.5482 109.985 76.5482 109.966C76.6081 109.931 76.6729 109.905 76.7405 109.889H77.0241H77.0674C77.0674 109.889 77.2741 109.889 77.2837 109.889C77.3253 109.886 77.367 109.894 77.4039 109.913H77.428C77.4989 109.917 77.5696 109.925 77.6395 109.937H77.7645H77.7885C77.875 109.942 77.9617 109.942 78.0482 109.937C78.0924 109.95 78.1373 109.959 78.1828 109.966C78.1828 109.966 78.2357 109.99 78.2453 109.985Z" fill="#151F6D"/>
<path d="M57.601 176.923C57.601 176.957 57.5433 176.923 57.4808 176.923C57.4541 176.901 57.4327 176.873 57.4183 176.841C57.4156 176.817 57.4156 176.793 57.4183 176.769C57.4183 176.769 57.5433 176.62 57.5818 176.572C57.6202 176.526 57.6637 176.484 57.7116 176.447L57.9856 176.221L58.0577 176.178C58.138 176.137 58.2124 176.085 58.2789 176.024C58.2789 176.024 58.2789 176.024 58.3077 175.985C58.3774 175.91 58.4566 175.844 58.5433 175.788L58.7597 175.678C58.7597 175.678 58.7597 175.678 58.7933 175.678C58.8067 175.679 58.8201 175.676 58.8326 175.671C58.8451 175.666 58.8563 175.659 58.8654 175.649L58.9568 175.601C58.9568 175.601 58.9952 175.601 59.0193 175.601C59.0433 175.601 59.0577 175.639 59.0529 175.644C59.0481 175.649 59.0529 175.673 59.0866 175.687C59.0544 175.758 59.0158 175.826 58.9712 175.889C58.9712 175.889 58.7549 176.091 58.7356 176.115C58.7235 176.127 58.7086 176.135 58.6924 176.139L58.5097 176.312C58.4712 176.341 58.4424 176.38 58.3895 176.389C58.3366 176.399 58.3895 176.389 58.3895 176.389C58.329 176.444 58.263 176.493 58.1924 176.534L58.0962 176.615H58.0722C58 176.678 57.9135 176.731 57.8414 176.798C57.7693 176.865 57.7212 176.86 57.7068 176.88C57.6924 176.899 57.6058 176.894 57.601 176.923Z" fill="#151F6D"/>
<path d="M58.9039 176.865C58.9376 176.865 58.9039 176.913 58.9039 176.976C58.8823 177 58.8562 177.02 58.827 177.034H58.7549L58.5818 176.899C58.5414 176.866 58.5044 176.829 58.4712 176.788C58.4087 176.707 58.3414 176.625 58.2741 176.548C58.2601 176.529 58.2487 176.508 58.2404 176.485C58.2069 176.413 58.1614 176.346 58.1058 176.288C58.0967 176.278 58.0852 176.27 58.0722 176.264C58.0062 176.206 57.9495 176.138 57.9039 176.062C57.8751 176 57.8414 175.937 57.8126 175.87C57.7837 175.803 57.8126 175.87 57.8126 175.841C57.8126 175.812 57.8126 175.793 57.8126 175.779C57.7944 175.754 57.7799 175.726 57.7693 175.697C57.7644 175.678 57.7644 175.658 57.7693 175.639C57.7693 175.639 57.8077 175.601 57.8126 175.606C57.8174 175.61 57.8414 175.606 57.8558 175.572C57.9222 175.592 57.9841 175.625 58.0385 175.668L58.2356 175.865C58.2398 175.879 58.2398 175.894 58.2356 175.909L58.3847 176.058C58.3847 176.091 58.4472 176.12 58.452 176.163C58.4494 176.171 58.4494 176.18 58.452 176.187C58.499 176.241 58.5408 176.299 58.577 176.36L58.6491 176.442C58.6491 176.442 58.6491 176.442 58.6491 176.466C58.6978 176.535 58.7508 176.601 58.8078 176.663C58.8078 176.663 58.8606 176.769 58.8751 176.784C58.8895 176.798 58.8895 176.86 58.9039 176.865Z" fill="#151F6D"/>
<path d="M58.1202 177.163C58.1202 177.197 58.0914 177.211 58.0144 177.216C57.9808 177.217 57.9476 177.209 57.9183 177.192C57.9035 177.174 57.8921 177.152 57.8846 177.13C57.8846 177.13 57.8846 176.947 57.8846 176.889C57.8776 176.835 57.8776 176.78 57.8846 176.726L57.9568 176.399C57.9626 176.374 57.9706 176.35 57.9808 176.327C58.02 176.252 58.046 176.17 58.0577 176.086C58.0602 176.07 58.0602 176.054 58.0577 176.038C58.063 175.945 58.0825 175.852 58.1154 175.764C58.1491 175.697 58.1779 175.625 58.2116 175.558C58.2452 175.49 58.2116 175.534 58.2116 175.529C58.2116 175.524 58.2452 175.49 58.25 175.466C58.2608 175.437 58.2737 175.408 58.2885 175.38C58.3005 175.364 58.3152 175.351 58.3318 175.341C58.3409 175.337 58.3507 175.335 58.3606 175.335C58.3705 175.335 58.3803 175.337 58.3894 175.341C58.3894 175.341 58.4231 175.341 58.4423 175.341C58.4656 175.411 58.4786 175.484 58.4808 175.558C58.4808 175.558 58.4423 175.832 58.4423 175.86C58.4423 175.889 58.4423 175.889 58.4423 175.904C58.4423 175.918 58.4135 176.125 58.4135 176.134C58.4135 176.144 58.4135 176.226 58.3654 176.259V176.284C58.3519 176.359 58.331 176.433 58.3029 176.505C58.3029 176.543 58.3029 176.582 58.3029 176.62C58.3029 176.659 58.3029 176.62 58.3029 176.62C58.3029 176.711 58.2548 176.798 58.2452 176.889C58.2356 176.981 58.1875 177.005 58.1875 177.029C58.1875 177.053 58.1154 177.149 58.1202 177.163Z" fill="#151F6D"/>
<path d="M59.0577 176.144C59.0914 176.144 59.1106 176.144 59.125 176.236C59.1351 176.268 59.1351 176.304 59.125 176.336C59.1086 176.352 59.0909 176.367 59.0721 176.38C59.0009 176.398 58.9287 176.413 58.8558 176.423C58.8048 176.43 58.753 176.43 58.7019 176.423H58.3894C58.3673 176.428 58.3443 176.428 58.3221 176.423C58.2455 176.402 58.1661 176.392 58.0866 176.394C58.0725 176.39 58.0574 176.39 58.0433 176.394C57.9572 176.406 57.8698 176.406 57.7837 176.394C57.7164 176.37 57.6491 176.356 57.5769 176.336C57.5048 176.317 57.5769 176.336 57.5481 176.336C57.5193 176.336 57.5096 176.312 57.4904 176.308C57.4588 176.305 57.428 176.297 57.3991 176.284C57.3991 176.284 57.3991 176.284 57.3606 176.25C57.3221 176.216 57.3606 176.192 57.3606 176.187C57.3606 176.183 57.3606 176.154 57.3606 176.139C57.4228 176.107 57.4891 176.083 57.5577 176.067H57.8366C57.8366 176.067 57.8654 176.067 57.8798 176.067H58.0962C58.1376 176.066 58.1787 176.074 58.2164 176.091C58.2874 176.094 58.3581 176.102 58.4279 176.115H58.5577H58.5818C58.6666 176.12 58.7517 176.12 58.8366 176.115C58.8366 176.115 58.9471 176.149 58.9712 176.149C58.9952 176.149 59.0481 176.149 59.0577 176.144Z" fill="#151F6D"/>
<path d="M102.043 111.716L104.385 100.221C104.663 98.8172 104.938 97.4182 105.216 96.0239L108.37 81.2787C108.851 79.0961 109.274 76.8989 109.692 74.7259C110.24 71.9374 110.726 69.1201 111.442 66.3653C111.889 64.6537 112.639 67.1057 111.986 70.3124C110.832 75.9999 109.62 81.6682 108.298 87.3701C107.505 90.7787 106.856 94.3653 106.13 97.8701C105.351 101.716 104.569 105.575 103.784 109.447C103.303 111.822 102.822 114.197 102.385 116.577C101.692 120.178 101 123.788 100.394 127.389C100.163 128.784 99.9519 130.168 99.7452 131.548C99.5385 132.928 99.3654 134.312 99.1779 135.697C99.0962 136.308 99.0144 136.904 98.9375 137.519C98.6298 139.798 98.4567 140.51 98.0288 140.952C97.9443 141.057 97.851 141.155 97.75 141.245C97.4567 141.428 97.375 140.466 97.5385 138.784C98.0192 133.784 98.8894 128.567 99.8221 123.346C100.51 119.471 101.264 115.586 102.01 111.711L102.043 111.716Z" fill="#151F6D"/>
<path d="M199.361 137.5C200.861 130.769 202.116 123.986 203.332 117.192C204.548 110.399 205.668 103.577 206.721 96.7547C207.491 91.774 208.164 86.7836 208.832 81.798C209.116 79.5961 209.39 77.3942 209.62 75.1971C209.731 74.0961 209.837 72.9951 209.923 71.8942C210.01 70.7932 210.072 69.6922 210.043 68.6346C210.043 68.5047 210.043 68.3749 210.043 68.2499V68.0721V68.0096C210.039 67.9677 210.02 67.9286 209.991 67.899C209.946 67.8779 209.899 67.8617 209.851 67.8509C209.356 67.692 208.85 67.5699 208.337 67.4855C207.269 67.298 206.178 67.1442 205.082 67.0288C202.89 66.7788 200.678 66.5961 198.467 66.4374C189.62 65.8221 180.741 65.4759 171.866 65.1971C163.991 64.9471 156.063 64.7932 148.241 64.673C138.192 64.5288 128.101 64.4951 118.063 64.2788C111.813 64.1538 119.75 62.9471 131.337 63.0721C141.593 63.1842 151.864 63.3701 162.149 63.6297C172.433 63.9086 182.731 64.2547 193.077 64.8797C196.168 65.0769 199.293 65.2836 202.438 65.5576C204.01 65.7067 205.587 65.8557 207.173 66.0817L208.366 66.2596L209.567 66.5047C209.779 66.5553 209.988 66.6179 210.192 66.6922L210.616 66.8317C210.764 66.888 210.894 66.9846 210.991 67.1105C211.081 67.2436 211.146 67.3918 211.183 67.548C211.206 67.6286 211.223 67.7105 211.236 67.7932C211.236 67.8894 211.26 67.9471 211.265 67.9999C211.29 68.2121 211.305 68.4256 211.308 68.6394C211.315 70.2546 211.236 71.869 211.072 73.4759C210.933 75.0672 210.765 76.6538 210.592 78.2355C210.231 81.4038 209.813 84.5624 209.375 87.6971C208.414 94.5945 207.348 101.486 206.178 108.37C205.029 115.24 203.817 122.101 202.491 128.942C201.952 131.697 201.394 134.452 200.784 137.192C200.481 138.567 200.164 139.937 199.822 141.303C199.644 141.986 199.457 142.663 199.245 143.346C199.135 143.687 199.019 144.029 198.88 144.375C198.741 144.721 198.467 145.409 197.918 145.336H195.587H193.366L188.923 145.308L150.034 144.851L120.308 144.62L113.798 144.567C105.654 144.471 103.063 144.341 101.298 143.971C100.899 143.885 100.375 143.798 100.144 143.716C99.3704 143.442 102.692 143.279 108.659 143.293C126.351 143.322 145.01 143.534 163.741 143.75L180.755 143.942L189.274 144.024L193.529 144.053H195.659H197.582L197.625 143.957C197.736 143.702 197.837 143.413 197.933 143.12C198.125 142.529 198.293 141.913 198.457 141.293C198.784 140.058 199.077 138.803 199.361 137.543V137.5Z" fill="#151F6D"/>
<path d="M154.947 140.5L179.577 140.942L191.894 141.159H192.375C192.404 141.159 192.413 141.13 192.428 141.106V141.072L192.486 140.942C192.671 140.488 192.832 140.024 192.966 139.553C193.255 138.591 193.51 137.601 193.755 136.61C194.236 134.625 194.688 132.625 195.115 130.625C196.365 124.769 197.452 118.88 198.529 112.995C199.792 106.075 200.973 99.1409 202.072 92.1922C202.615 88.7163 203.135 85.2355 203.591 81.7547C203.822 80.0143 204.034 78.2691 204.207 76.5288C204.293 75.6538 204.37 74.7836 204.413 73.9182C204.437 73.4855 204.452 73.0528 204.442 72.6345V72.322C204.442 72.2307 204.442 72.0961 204.442 72.0672C204.442 72.0384 204.418 71.8701 204.317 71.8605L203.837 71.7115L203.212 71.5817C202.793 71.4903 202.365 71.423 201.933 71.3653C201.077 71.2307 200.207 71.1442 199.337 71.048C197.596 70.8701 195.846 70.7307 194.091 70.6105C190.591 70.3653 187.077 70.1922 183.567 70.0336C174.212 69.6249 164.817 69.399 155.5 69.2307L119.63 68.7499C112.192 68.6297 121.635 67.5432 135.404 67.7067C146.942 67.8461 158.457 68.0528 170.019 68.399C175.788 68.572 181.558 68.7884 187.356 69.0865C190.24 69.2403 193.125 69.4086 196.043 69.6442C196.764 69.697 197.486 69.7643 198.216 69.8317C198.947 69.899 199.659 69.9711 200.394 70.0624C201.13 70.1538 201.837 70.2451 202.577 70.3557C202.942 70.399 203.317 70.4951 203.683 70.5672C203.874 70.5983 204.064 70.6417 204.25 70.697L204.962 70.9326C205.09 70.9944 205.203 71.0852 205.29 71.1978C205.378 71.3104 205.438 71.4418 205.466 71.5817C205.502 71.7225 205.53 71.8654 205.548 72.0095C205.548 72.1057 205.548 72.2018 205.548 72.2932C205.548 72.6634 205.548 73.0095 205.548 73.3605C205.524 74.0528 205.476 74.7403 205.418 75.423C205.082 79.1105 204.562 82.7932 204.038 86.4807C203.514 90.1682 202.923 93.9086 202.322 97.6345C201.115 105.086 199.817 112.572 198.409 119.966C197.635 124.034 196.827 128.091 195.947 132.139C195.505 134.168 195.048 136.187 194.505 138.202C194.252 139.226 193.944 140.235 193.582 141.226L193.5 141.418C193.471 141.481 193.452 141.543 193.394 141.649C193.308 141.832 193.186 141.996 193.034 142.13C192.961 142.197 192.868 142.237 192.769 142.245C192.671 142.267 192.571 142.277 192.471 142.274H191.99L190.442 142.25L165.62 141.817L135.072 141.293L111.923 140.904L106.154 140.808L103.014 140.755H102.562C102.562 140.755 102.562 140.716 102.562 140.697L102.635 140.187L102.769 139.26L102.981 137.817C103.534 134.005 104.188 130.221 104.846 126.447C106.938 114.726 109.173 103.274 111.495 91.7451C112.01 89.2067 112.519 86.7211 113.043 84.1634C115.029 74.6826 115.769 71.6922 116.51 69.7403C116.683 69.2932 116.88 68.697 116.99 68.4422C117.423 67.5865 116.76 71.4807 115.351 78.4278C113.255 88.7307 111.115 99.3124 109.034 110.062C107.992 115.437 106.982 120.849 106.005 126.298C105.524 129.024 105.043 131.755 104.62 134.471C104.389 135.836 104.187 137.211 103.995 138.582L103.846 139.611H105.168L154.875 140.418L154.947 140.5Z" fill="#151F6D"/>
<path d="M199.519 145.043C197.813 145.774 194.899 144.99 194.894 144.846C195.922 144.797 196.941 144.636 197.933 144.365C200.063 143.567 212.409 69.2932 210.534 67.4422C210.135 67.0383 210.442 67.2883 209.322 66.9614C211.115 66.9614 211.548 67.5432 211.981 67.8509C214.029 69.3316 200.837 144.476 199.519 145.043Z" fill="#151F6D"/>
<path d="M210.428 80.4807C210.721 78.3557 211 76.2307 211.231 74.1009C211.346 73.0384 211.452 71.9759 211.524 70.9182C211.563 70.3893 211.592 69.8605 211.596 69.3413C211.596 69.0816 211.596 68.8268 211.596 68.5865C211.596 68.4807 211.567 68.3365 211.558 68.2932C211.548 68.2499 211.558 68.2499 211.524 68.2403C211.251 67.9836 210.922 67.7942 210.563 67.6874C210.162 67.586 209.75 67.5376 209.337 67.5432L209.486 66.4086C209.683 66.4615 209.875 66.5095 210.063 66.548L210.241 66.5816C210.335 66.5948 210.427 66.6206 210.515 66.6586C210.679 66.7486 210.825 66.8675 210.947 67.0095C211.133 67.2376 211.243 67.5186 211.26 67.8124C211.285 68.0118 211.3 68.2124 211.303 68.4134C211.303 68.8028 211.303 69.1778 211.303 69.548C211.274 70.2932 211.217 71.0288 211.159 71.7643C211.034 73.2066 210.875 74.6922 210.707 76.1489C210.337 79.2643 209.942 82.3989 209.5 85.4759C207.909 96.4038 206.072 107.288 204.116 118.168C203.241 122.976 202.356 127.832 201.414 132.591C200.933 135.106 200.409 137.62 199.813 140.13C199.533 141.402 199.175 142.656 198.741 143.885C198.712 143.961 198.673 144.043 198.64 144.125C198.597 144.221 198.547 144.315 198.491 144.404C198.428 144.515 198.343 144.612 198.241 144.687C198.137 144.756 198.021 144.805 197.899 144.832C197.569 144.924 197.234 144.995 196.894 145.043C196.245 145.144 195.601 145.207 194.971 145.26L194.947 144.846C194.986 144.846 195.072 144.74 195.13 144.625L195.183 144.534L195.25 144.562C195.307 144.585 195.364 144.605 195.423 144.62C195.543 144.659 195.673 144.692 195.803 144.726C196.063 144.788 196.327 144.836 196.596 144.875C197.124 144.958 197.659 144.988 198.192 144.966C198.88 144.928 199.241 144.827 199.394 144.841C199.548 144.856 199.5 144.971 199.202 145.163C198.7 145.439 198.144 145.603 197.572 145.644C197.142 145.678 196.709 145.678 196.279 145.644C196.039 145.644 195.798 145.601 195.529 145.562L195.13 145.485C195.055 145.468 194.981 145.448 194.909 145.423L194.774 145.38L194.678 145.332L194.582 145.26C194.552 145.228 194.525 145.194 194.5 145.159C194.448 145.073 194.416 144.975 194.409 144.875V144.394L194.923 144.312C195.611 144.202 196.366 144.086 197.12 143.918L197.394 143.851L197.524 143.817L197.616 143.788C197.616 143.788 197.616 143.817 197.649 143.711C197.801 143.335 197.935 142.952 198.048 142.562C198.491 141.077 198.851 139.524 199.202 137.981C199.553 136.437 199.88 134.875 200.202 133.317C200.842 130.202 201.447 127.067 202.039 123.942C203.221 117.673 204.364 111.377 205.467 105.053C206.784 97.4855 207.967 89.5768 209.024 81.7932C209.351 79.3893 209.659 76.9855 209.923 74.5816C210.053 73.3797 210.173 72.1778 210.26 70.9711C210.308 70.3701 210.342 69.7691 210.356 69.173C210.356 68.8797 210.356 68.5816 210.356 68.298C210.351 68.1611 210.338 68.0247 210.317 67.8893C210.313 67.8451 210.303 67.8016 210.289 67.7595C210.281 67.7307 210.266 67.7042 210.245 67.6826C210.214 67.6481 210.178 67.6175 210.14 67.5913H210.082H209.938C209.712 67.548 209.495 67.4951 209.284 67.4374L206.106 66.5768L209.394 66.6057C209.899 66.601 210.401 66.6624 210.89 66.7884C211.277 66.897 211.641 67.0781 211.962 67.322L212.269 67.5624C212.454 67.7156 212.573 67.9343 212.601 68.173C212.633 68.3398 212.653 68.5084 212.664 68.6778C212.664 68.9999 212.664 69.3124 212.664 69.6393C212.664 70.2595 212.616 70.8701 212.567 71.4807C212.476 72.7018 212.346 73.9134 212.212 75.1201C211.596 80.4086 210.803 85.697 209.995 90.947C208.755 98.9134 207.394 106.894 206.034 114.779C204.976 120.904 203.957 126.918 202.832 132.961C202.582 134.293 202.351 135.596 202.077 136.937C201.082 141.904 200.606 143.471 200.029 144.447C199.921 144.669 199.774 144.871 199.596 145.043C199.567 145.043 199.553 145.043 199.553 145.043C199.553 145.043 199.553 145.086 199.553 145.043C199.542 145.021 199.528 145.002 199.51 144.985C199.506 144.958 199.506 144.931 199.51 144.904C199.543 144.716 199.601 144.423 199.683 143.985C199.856 143.082 200.135 141.678 200.486 139.87C201.539 134.49 202.524 128.933 203.524 123.303C204.524 117.673 205.515 111.952 206.476 106.216C207.918 97.7018 209.303 89.1393 210.476 80.572L210.428 80.4807Z" fill="#151F6D"/>
<path d="M199.038 145.514C198.875 146.24 198.731 147.731 198.394 147.966C192.207 152.24 155.726 168.404 155.726 168.404L63.4423 167.442L62.8894 165.216C75.5288 165.38 129.894 165.5 155.779 166.106L199.038 145.514Z" fill="#151F6D"/>
<path d="M197.01 145.721L155.625 165.433L144.173 165.216L132.558 165.067L109.332 164.856L62.0193 164.529L62.9135 168.115L133.313 168.851L150.784 169.034L155.149 169.077H155.817C155.909 169.077 155.986 169.014 156.072 168.986L156.231 168.918L156.481 168.803L157.476 168.361L159.471 167.471L167.438 163.875C172.726 161.471 178.014 159.024 183.303 156.519C185.933 155.264 188.563 154.005 191.168 152.673C192.476 152.029 193.769 151.341 195.067 150.663L196.99 149.596C197.313 149.428 197.63 149.212 197.952 149.019L198.433 148.721L198.668 148.572C198.81 148.488 198.933 148.375 199.029 148.24C199.092 148.161 199.144 148.074 199.183 147.981C199.212 147.913 199.231 147.856 199.255 147.793C199.279 147.731 199.317 147.572 199.337 147.476C199.374 147.302 199.399 147.125 199.414 146.947C199.442 146.685 199.442 146.421 199.414 146.159C199.356 145.745 199.231 145.524 199.063 145.486C198.894 145.447 198.683 145.62 198.49 146C198.378 146.228 198.283 146.464 198.207 146.707L198.067 147.139L197.995 147.346L197.962 147.428L197.245 147.875C196.938 148.058 196.654 148.255 196.332 148.423L194.414 149.519C193.125 150.188 191.851 150.87 190.543 151.51C187.952 152.817 185.327 154.077 182.702 155.327C177.452 157.827 172.173 160.276 166.865 162.673L158.909 166.264L156.914 167.154L155.918 167.596L155.577 167.75H155.154L150.789 167.707L133.317 167.524L63.9664 166.798L63.7501 165.937L109.322 166.24L132.543 166.447L144.149 166.601L155.918 166.817L197.596 146.947C199.899 145.856 199.313 144.625 197.01 145.721Z" fill="#151F6D"/>
<path d="M156.447 167.269L199.149 147.216C199.63 146.995 198.865 145.337 198.38 145.577L155.678 165.635C155.288 165.813 156.063 167.457 156.447 167.269Z" fill="#151F6D"/>
<path d="M99.7019 160.01C98.6426 159.965 97.5914 159.803 96.5673 159.529C95.5721 159.293 94.6058 159.048 93.6394 158.745L87.9087 157.024C87.2116 156.822 86.5144 156.639 85.8221 156.476C85.4808 156.399 85.1346 156.322 84.7981 156.269C84.4978 156.208 84.1909 156.183 83.8846 156.197C83.3161 156.277 82.7622 156.438 82.2404 156.678C81.6683 156.913 81.0962 157.159 80.5241 157.457L77.0769 159.159C74.755 160.299 72.3622 161.29 69.9135 162.125C67.7394 162.863 65.5159 163.446 63.2596 163.87C61.8166 164.146 60.3591 164.34 58.8942 164.452C57.43 164.575 55.9574 164.564 54.4952 164.418C53.5817 164.332 53.726 164.096 54.4952 163.856C54.8798 163.731 55.4231 163.615 56.0721 163.476C56.8053 163.348 57.5454 163.263 58.2885 163.221C61.1902 163.03 64.0653 162.546 66.8702 161.779C69.6983 160.995 72.4601 159.988 75.1298 158.769C76.75 158.053 78.351 157.207 79.9952 156.365C80.8327 155.924 81.6984 155.539 82.5866 155.212C83.0819 155.032 83.6031 154.935 84.1298 154.923C84.6252 154.953 85.1173 155.023 85.601 155.135C87.6106 155.591 89.5144 156.212 91.4423 156.788C93.3702 157.365 95.2885 157.952 97.2116 158.385C97.7969 158.519 98.3891 158.622 98.9856 158.692C99.2694 158.728 99.5554 158.742 99.8414 158.736C100.018 158.745 100.194 158.701 100.346 158.611C100.406 158.563 100.447 158.496 100.461 158.421C100.475 158.346 100.462 158.268 100.423 158.202C100.386 158.124 100.339 158.051 100.284 157.986C100.196 157.882 100.101 157.784 100 157.692C99.5698 157.285 99.1031 156.918 98.6058 156.596C97.0525 155.593 95.4298 154.701 93.75 153.928C92.075 153.131 90.3577 152.427 88.6058 151.817C87.9387 151.583 87.2599 151.384 86.5721 151.221C86.2572 151.14 85.9352 151.091 85.6106 151.072C85.2885 151.072 84.9231 151.072 84.5817 151.13C83.1894 151.261 81.8109 151.512 80.4616 151.88L78.6539 152.361C76.3702 152.957 75.5817 153 75.0241 152.755C74.8972 152.709 74.7748 152.651 74.6587 152.582C74.399 152.346 75.2981 152.01 76.9327 151.543C79.3366 150.865 81.9135 150 84.7116 149.832C84.8846 149.832 85.0577 149.832 85.2356 149.808H85.4952C85.6041 149.801 85.7133 149.801 85.8221 149.808C86.2 149.842 86.5746 149.907 86.9423 150C87.6346 150.168 88.2933 150.375 88.9471 150.596C90.2452 151.038 91.5192 151.558 92.7933 152.087C94.6765 152.892 96.5085 153.812 98.2789 154.841C99.2095 155.373 100.081 156.001 100.88 156.716C101.137 156.95 101.36 157.219 101.543 157.514C101.673 157.714 101.766 157.936 101.817 158.168C101.865 158.392 101.865 158.623 101.817 158.846C101.746 159.063 101.628 159.261 101.472 159.427C101.316 159.593 101.125 159.723 100.913 159.808C100.706 159.888 100.49 159.946 100.269 159.981L99.9808 160.014H99.7548L99.7019 160.01Z" fill="#151F6D"/>
<path d="M107.212 156.039C107.245 156.039 107.26 155.995 107.24 155.938C107.142 155.686 107.007 155.449 106.841 155.236L106.721 155.096C106.679 155.04 106.629 154.989 106.572 154.947L106.202 154.615C105.957 154.399 105.663 154.188 105.399 153.976C104.279 153.139 103.101 152.346 101.904 151.572C101.024 151.024 100.12 150.514 99.2259 149.99C97.6538 149.072 96.0577 148.178 94.4182 147.37C92.8048 146.544 91.128 145.848 89.4038 145.289C89.024 145.197 88.6346 145.063 88.2548 145.01C87.8718 144.944 87.4846 144.905 87.0961 144.894C86.2935 144.874 85.4904 144.907 84.6923 144.995C82.6731 145.216 80.6971 145.894 78.6058 146.168C77.9519 146.245 77.9952 145.995 78.4759 145.62C79.2341 145.051 80.1015 144.643 81.024 144.423C82.0794 144.141 83.1522 143.929 84.2356 143.789C85.3382 143.661 86.4499 143.632 87.5577 143.702L88.4375 143.827C88.7192 143.872 88.9972 143.938 89.2692 144.024C89.8056 144.153 90.3338 144.313 90.8509 144.505C91.8733 144.887 92.8747 145.324 93.8509 145.813C96.1731 146.957 98.5721 148.159 100.846 149.5C102.087 150.25 103.327 151.005 104.529 151.827C104.832 152.024 105.13 152.236 105.428 152.447C105.726 152.659 106.024 152.865 106.312 153.096C106.601 153.327 106.899 153.543 107.183 153.803C107.496 154.062 107.773 154.363 108.005 154.697C108.137 154.907 108.253 155.127 108.351 155.356L108.433 155.563L108.495 155.808C108.525 155.967 108.525 156.13 108.495 156.289C108.46 156.45 108.389 156.602 108.288 156.733C108.186 156.863 108.057 156.969 107.909 157.043C107.656 157.175 107.383 157.264 107.101 157.308C106.149 157.434 105.181 157.335 104.274 157.019C102.975 156.606 101.703 156.112 100.466 155.539C99.2356 154.99 98.0192 154.428 96.7933 153.909C94.9274 153.099 92.9977 152.444 91.024 151.952C90.5961 151.851 90.1731 151.774 89.7404 151.697C88.9423 151.553 88.4182 151.486 88.0529 151.404C87.7696 151.357 87.505 151.232 87.2884 151.043C87.2004 150.975 87.1199 150.898 87.0481 150.813C86.8654 150.567 87.5769 150.269 88.8798 150.332C90.8078 150.509 92.7022 150.95 94.5096 151.644C96.3365 152.303 98.1202 153.087 99.8894 153.889C101.197 154.466 102.505 155.058 103.812 155.519C104.437 155.747 105.081 155.919 105.736 156.034C106.02 156.078 106.309 156.088 106.596 156.063C106.737 156.051 106.877 156.027 107.014 155.99L107.125 155.957L107.212 156.039Z" fill="#151F6D"/>
<path d="M44.7885 170.12C45.5145 169.639 46.2308 169.159 46.952 168.678C47.2116 168.5 47.4327 168.288 47.7068 168.11C48.6202 167.481 49.5433 166.856 50.4039 166.159C50.7933 165.856 51.1395 165.505 51.5 165.197C51.9231 164.733 52.3794 164.301 52.8654 163.904C53.0241 163.788 53.1779 163.957 53.2356 164.235C53.2706 164.401 53.2703 164.573 53.2347 164.738C53.199 164.904 53.1289 165.06 53.0289 165.197C52.6104 165.71 52.1557 166.192 51.6683 166.639C51.1704 167.075 50.6435 167.477 50.0914 167.841C49.4279 168.279 48.827 168.846 48.1683 169.317C47.5097 169.788 46.726 170.327 45.9904 170.822L44.6443 171.731C43.9712 172.211 43.2837 172.644 42.6347 173.13C42.1539 173.51 41.6731 173.947 41.226 174.36C41.125 174.452 41.0241 174.538 40.9135 174.625C40.5049 174.923 40.3174 174.952 40.0481 174.784C39.9904 174.745 39.9231 174.711 39.8702 174.668C39.6924 174.524 39.7404 174.245 39.9808 173.937C40.3393 173.477 40.749 173.06 41.202 172.692C41.6491 172.312 42.1154 171.947 42.5962 171.601C43.3077 171.086 44.0385 170.601 44.7597 170.101L44.7885 170.12Z" fill="#151F6D"/>
<path d="M36.2693 172.317C35.8798 171.933 35.5097 171.524 35.1491 171.115C34.7885 170.707 34.4279 170.293 34.077 169.875C33.8173 169.572 33.5433 169.284 33.3029 168.966C32.4548 167.85 31.6684 166.688 30.9472 165.485L29.9616 163.904C29.4776 163.248 29.1368 162.498 28.9616 161.702C28.9231 161.442 29.2116 161.394 29.5673 161.481C29.972 161.556 30.33 161.79 30.5625 162.13C31.2308 163.471 32.0337 164.808 32.8173 166.183C33.333 167 33.9134 167.775 34.5529 168.5C34.8847 168.913 35.2356 169.312 35.577 169.726L36.6491 170.909C37.1298 171.365 37.5577 171.87 38.0577 172.284C38.7846 172.962 39.5626 173.584 40.3847 174.144C40.6942 174.354 41.0152 174.547 41.3462 174.721L42.3606 175.202C42.5048 175.279 42.6683 175.317 42.8414 175.384C43.3991 175.63 43.5337 175.793 43.5193 176.168C43.5242 176.251 43.5242 176.335 43.5193 176.418C43.4712 176.687 43.1443 176.774 42.6779 176.634C41.9762 176.422 41.2993 176.135 40.6587 175.779C40.3318 175.596 40.0241 175.389 39.6972 175.187C39.3702 174.985 39.077 174.764 38.7837 174.534C38.3345 174.202 37.9029 173.847 37.4904 173.471L36.8654 172.918L36.2693 172.336V172.317Z" fill="#151F6D"/>
<path d="M47.9471 149.827C53.3559 146.835 58.9938 144.277 64.8077 142.178C65.3414 141.995 65.8702 141.793 66.4039 141.615L68.0193 141.101C69.0866 140.735 70.1827 140.452 71.2741 140.168C75.14 139.155 79.1105 138.594 83.1058 138.495C83.5866 138.495 84.0962 138.457 84.6154 138.495C85.1346 138.534 85.6394 138.577 86.1394 138.649C87.1385 138.801 88.1263 139.019 89.0962 139.303C91.016 139.863 92.8927 140.562 94.7116 141.394C97.9119 142.867 101.006 144.56 103.971 146.461C105.893 147.651 107.723 148.981 109.447 150.442C109.668 150.635 109.878 150.838 110.077 151.053C110.115 151.096 110.202 151.187 110.274 151.274L110.471 151.534C110.589 151.696 110.672 151.881 110.716 152.077C110.743 152.166 110.739 152.261 110.706 152.348C110.673 152.435 110.613 152.509 110.534 152.558L110.303 152.726C110.226 152.793 110.136 152.844 110.038 152.875L109.726 152.99L109.572 153.048C109.524 153.048 109.49 153.048 109.452 153.082C109.298 153.106 109.144 153.154 108.971 153.163C107.784 153.238 106.598 152.997 105.534 152.466C104.889 152.192 104.654 152.062 104.692 151.986C104.731 151.909 105.096 151.875 105.692 151.986C106.458 152.145 107.237 152.232 108.019 152.245C108.247 152.241 108.474 152.215 108.697 152.168C108.811 152.146 108.924 152.115 109.034 152.077L109.202 152.024C109.25 152.024 109.202 152.024 109.236 152C109.269 151.976 109.236 151.971 109.236 151.961L109.173 151.894C108.377 151.139 107.532 150.437 106.644 149.793C105.74 149.125 104.813 148.486 103.875 147.87C101.99 146.636 100.053 145.481 98.0625 144.404C96.0802 143.324 94.0367 142.361 91.9423 141.519C89.8784 140.66 87.7161 140.059 85.5048 139.731C84.845 139.645 84.179 139.618 83.5145 139.649L81.4568 139.707C80.7693 139.76 80.0818 139.836 79.3894 139.904C79.0481 139.942 78.7019 139.966 78.3558 140.014L77.3269 140.183C74.5635 140.625 71.833 141.253 69.1539 142.062C66.2116 142.928 63.3318 143.986 60.5 145.168C57.6683 146.351 54.875 147.659 52.1298 149.062C48.7548 150.796 45.4471 152.655 42.2068 154.639C39.7452 156.125 37.3318 157.702 34.9375 159.293C32.5433 160.885 30.1635 162.553 27.8846 164.25C24.3125 166.889 20.9327 169.63 17.5673 172.423L15.3654 174.288C12.6058 176.62 11.6827 177.317 10.8654 177.553C10.6888 177.618 10.5071 177.667 10.3221 177.702C9.89426 177.702 10.8654 176.615 12.8414 174.817C18.9496 169.371 25.3847 164.302 32.1106 159.639C34.6587 157.87 37.2532 156.159 39.8943 154.505C42.5353 152.851 45.2196 151.272 47.9471 149.769V149.827Z" fill="#151F6D"/>
<path d="M33.351 175.149C31.4279 176.591 29.5048 178.101 27.5096 179.538C26.5144 180.255 25.5096 180.981 24.4471 181.635C23.9038 181.985 23.3421 182.306 22.7644 182.596C22.4398 182.761 22.1021 182.9 21.7548 183.01C21.5166 183.086 21.2692 183.129 21.0192 183.139C20.8175 183.149 20.6156 183.123 20.4231 183.062C20.2879 183.018 20.1587 182.956 20.0385 182.88C19.9071 182.785 19.7905 182.672 19.6923 182.543C19.5388 182.334 19.4397 182.089 19.4039 181.832C19.4039 181.74 19.4039 181.644 19.4039 181.558V181.341C19.4388 181.091 19.5017 180.846 19.5914 180.611C19.674 180.401 19.7788 180.201 19.9039 180.014L20.0865 179.755C20.149 179.673 20.2115 179.606 20.2789 179.529C20.7592 179.014 21.3056 178.564 21.9039 178.192C22.4567 177.832 23.0096 177.524 23.5481 177.231C24.0865 176.937 24.6346 176.659 25.0769 176.38C27.091 175.131 29.0184 173.748 30.8462 172.24C31.4526 171.722 31.9891 171.127 32.4423 170.471L32.5914 170.245L32.6971 170.019C32.7643 169.884 32.8159 169.743 32.851 169.596V169.543H32.9471H32.9808H33.0529C33.1009 169.548 33.1492 169.548 33.1971 169.543H33.351C33.3829 169.548 33.4152 169.548 33.4471 169.543C33.4992 169.538 33.5507 169.529 33.601 169.514C33.601 169.514 33.6683 169.476 33.6442 169.514C33.6316 169.53 33.6218 169.548 33.6154 169.567C33.6132 169.586 33.6132 169.606 33.6154 169.625C33.6154 169.649 33.6154 169.697 33.6154 169.731C33.6106 169.767 33.6106 169.805 33.6154 169.841V169.976C33.6158 170.084 33.6287 170.192 33.6539 170.298H33.5865C33.5128 170.323 33.4406 170.352 33.3702 170.385C32.6285 170.748 31.9135 171.165 31.2308 171.63C30.5096 172.111 29.7885 172.591 29.0673 173.106C27.2885 174.346 25.5289 175.63 23.75 176.904L22.1154 178.12C21.3558 178.654 20.5962 179.178 19.875 179.63C19.3146 180.014 18.7028 180.316 18.0577 180.529C17.6922 180.623 17.3144 180.66 16.9375 180.639C16.8487 180.63 16.7614 180.609 16.6779 180.577C16.5558 180.514 16.4453 180.431 16.351 180.332C16.1479 180.138 16.0059 179.889 15.9423 179.615C15.8695 179.178 15.935 178.73 16.1298 178.332C16.3366 177.864 16.6103 177.428 16.9423 177.038C17.4027 176.491 17.9094 175.984 18.4567 175.524C18.7548 175.26 19.0721 175 19.4183 174.745L19.899 174.365L20.3125 174.048L21.5577 173.144C22.3894 172.548 23.2308 171.971 24.0673 171.399C25.7404 170.25 27.4327 169.135 29 167.909C29.3786 167.623 29.7383 167.313 30.0769 166.981C30.1482 166.912 30.2141 166.838 30.274 166.76C30.2986 166.732 30.3211 166.704 30.3414 166.673V166.649C30.3823 166.665 30.4224 166.682 30.4615 166.702C30.5686 166.75 30.6864 166.768 30.8029 166.755V166.755L30.6442 166.836C30.6442 166.836 30.6971 166.793 30.6731 166.836C30.649 166.88 30.6731 166.836 30.6731 166.875C30.6525 166.91 30.6394 166.95 30.6346 166.99C30.6156 167.056 30.6059 167.124 30.6058 167.192C30.6058 167.192 30.6058 167.192 30.6058 167.192C30.4394 167.212 30.2772 167.257 30.125 167.327C29.9279 167.413 29.7164 167.51 29.5048 167.625C29.0865 167.846 28.6635 168.106 28.25 168.37C27.1106 169.106 25.9952 169.918 24.8846 170.736C23.774 171.553 22.649 172.37 21.5481 173.211C20.4471 174.053 19.3221 174.875 18.1827 175.673C17.6106 176.072 17.0337 176.466 16.4375 176.841C15.8249 177.238 15.1819 177.585 14.5144 177.88C14.2728 177.985 14.0216 178.067 13.7644 178.125C13.6065 178.159 13.4453 178.177 13.2837 178.178C13.0513 178.176 12.8237 178.111 12.625 177.99C12.5662 177.951 12.5114 177.906 12.4615 177.856L12.3846 177.779C12.3208 177.698 12.2705 177.607 12.2356 177.51C12.1769 177.301 12.1974 177.079 12.2933 176.885C12.3647 176.732 12.457 176.589 12.5673 176.461C12.7156 176.27 12.8762 176.089 13.0481 175.918C13.7164 175.269 14.399 174.702 15.0865 174.13C16.4519 172.99 17.7981 171.841 19.2019 170.764L23.3702 167.51C24.0577 166.957 24.7596 166.428 25.4519 165.894C26.1442 165.361 26.8221 164.803 27.5096 164.264C28.3654 163.596 28.7548 163.303 28.8173 163.428C28.8798 163.553 28.6154 164.014 28.0721 164.808C27.3045 165.874 26.4644 166.886 25.5577 167.836C24.2712 169.163 22.898 170.403 21.4471 171.548C20.7404 172.111 20.0433 172.683 19.3317 173.231L17.1827 174.851C16.4664 175.385 15.7885 175.966 15.1298 176.538C14.8077 176.822 14.4856 177.115 14.2212 177.394C14.1578 177.456 14.0984 177.522 14.0433 177.591L13.976 177.668L13.9039 177.62L13.6779 177.495C13.5962 177.452 13.5625 177.423 13.4952 177.394C13.4365 177.364 13.3754 177.338 13.3125 177.317C13.25 177.317 13.226 177.279 13.1779 177.264C13.1298 177.25 13.0337 177.231 12.9808 177.264L13.2308 177.058C13.2897 176.953 13.3226 176.836 13.3269 176.716C13.339 176.574 13.339 176.431 13.3269 176.288H13.3606L13.524 176.245C13.6881 176.187 13.8486 176.12 14.0048 176.043C14.3725 175.865 14.7303 175.668 15.0769 175.452C15.8029 175.01 16.5192 174.49 17.25 174.01C18.6923 172.981 20.1346 171.894 21.5769 170.817C23.0192 169.74 24.4615 168.63 25.976 167.582C26.7356 167.062 27.5096 166.548 28.3798 166.072C28.8415 165.792 29.3314 165.562 29.8414 165.385L30.0914 165.322C30.1915 165.301 30.2925 165.285 30.3942 165.274C30.7215 165.231 31.0542 165.279 31.3558 165.413C31.5775 165.511 31.7709 165.663 31.9183 165.856C32.0006 165.956 32.0686 166.068 32.1202 166.187C32.186 166.34 32.2251 166.503 32.2356 166.668C32.2415 166.797 32.2318 166.926 32.2067 167.053C32.1631 167.27 32.0782 167.478 31.9567 167.663C31.7806 167.931 31.5741 168.178 31.3414 168.399C31.1442 168.582 30.9567 168.75 30.7644 168.904C30.3894 169.216 30.0144 169.505 29.6346 169.774L27.3558 171.332C25.851 172.356 24.3462 173.356 22.8702 174.389L21.9087 175.058L21.4279 175.399L21.2115 175.558L21.149 175.606C20.9574 175.737 20.7728 175.878 20.5962 176.029C20.3993 176.187 20.2247 176.372 20.0769 176.577C20.0368 176.627 20.0072 176.685 19.9899 176.747C19.9726 176.809 19.9678 176.874 19.976 176.937C19.9805 176.968 19.9921 176.997 20.0099 177.022C20.0276 177.047 20.0509 177.067 20.078 177.082C20.1051 177.096 20.1352 177.104 20.1659 177.105C20.1966 177.106 20.227 177.1 20.2548 177.086C20.651 176.886 21.029 176.651 21.3846 176.385L24.2692 174.308C25.4231 173.461 26.5865 172.611 27.7596 171.779C28.9327 170.947 30.1202 170.12 31.399 169.375C31.6731 169.216 31.9567 169.058 32.2596 168.894C32.4135 168.817 32.5721 168.745 32.7404 168.678C32.9492 168.594 33.167 168.534 33.3894 168.5C33.6056 168.465 33.8272 168.484 34.0337 168.558C34.1172 168.587 34.1964 168.627 34.2692 168.678C34.3593 168.74 34.4402 168.814 34.5096 168.899C34.57 168.975 34.6186 169.059 34.6539 169.149C34.6539 169.197 34.6923 169.24 34.7067 169.284C34.7086 169.317 34.7086 169.351 34.7067 169.385C34.7225 169.498 34.7225 169.613 34.7067 169.726C34.7049 169.801 34.6936 169.875 34.6731 169.947L34.5914 170.236C34.5459 170.425 34.4764 170.607 34.3846 170.779C34.3097 170.943 34.2262 171.104 34.1346 171.26C33.4037 172.361 32.4975 173.335 31.4519 174.144C30.4904 174.952 29.4567 175.673 28.4327 176.365L26.9231 177.404L26.1635 177.885C25.8702 178.082 25.5962 178.226 25.3221 178.365C24.2658 178.892 23.2516 179.5 22.2885 180.183C21.89 180.456 21.5607 180.818 21.3269 181.24C21.274 181.327 21.2885 181.404 21.2548 181.481C21.2212 181.558 21.2548 181.548 21.2548 181.534C21.2028 181.539 21.1513 181.548 21.101 181.562H21.0048L20.9135 181.601C20.8993 181.597 20.8843 181.597 20.8702 181.601C20.8077 181.649 20.8702 181.601 20.8702 181.543C20.8994 181.483 20.9158 181.418 20.9183 181.351C20.923 181.303 20.923 181.255 20.9183 181.207C20.9981 181.2 21.077 181.186 21.1539 181.163C21.6727 180.981 22.1707 180.744 22.6394 180.457C23.1442 180.163 23.649 179.841 24.149 179.495C25.149 178.832 26.1346 178.12 27.1154 177.399C28.3173 176.51 29.5192 175.596 30.7067 174.687C31.8942 173.779 33.1106 172.851 34.3606 171.971C34.5192 171.861 34.6827 171.75 34.8414 171.644C34.9362 171.585 35.0341 171.53 35.1346 171.481C35.2586 171.412 35.3912 171.36 35.5289 171.327C35.8055 171.258 36.0928 171.244 36.375 171.284C36.6243 171.321 36.8525 171.445 37.0192 171.635C37.2117 171.82 37.3239 172.074 37.3317 172.341C37.3316 172.658 37.2415 172.968 37.0721 173.236C36.9491 173.44 36.804 173.63 36.6394 173.803C36.3375 174.09 36.0162 174.357 35.6779 174.601C34.4567 175.529 33.2308 176.385 32.0048 177.26C30.149 178.582 28.2837 179.894 26.476 181.255C26.024 181.598 25.5817 181.944 25.149 182.293C24.9375 182.471 24.7308 182.649 24.5385 182.832C24.4471 182.918 24.351 183.014 24.2837 183.091L24.2115 183.183L24.0914 183.125C24.0287 183.091 23.9626 183.063 23.8942 183.043C23.8173 183.043 23.8125 183.014 23.7596 183.043L24.2404 182.976H24.1827C24.1568 182.989 24.1293 182.999 24.101 183.005C24.0673 183.019 24.0351 183.037 24.0048 183.058V183.058C24.0209 183.025 24.0338 182.992 24.0433 182.957C24.0408 182.928 24.0408 182.899 24.0433 182.87V182.812H24.0673H24.1779C24.4049 182.744 24.624 182.653 24.8317 182.538C25.311 182.277 25.7748 181.988 26.2212 181.673C28.0577 180.389 29.8173 178.937 31.6058 177.529C32.4952 176.822 33.3942 176.12 34.3173 175.437C34.7981 175.096 35.25 174.764 35.7596 174.442C36.0048 174.288 36.2404 174.13 36.5289 173.961C36.8221 173.8 37.1336 173.674 37.4567 173.586C37.6472 173.549 37.8432 173.549 38.0337 173.586C38.176 173.619 38.3086 173.685 38.4205 173.778C38.5325 173.872 38.6207 173.991 38.6779 174.125C38.769 174.339 38.7875 174.577 38.7308 174.803C38.6921 174.958 38.6356 175.108 38.5625 175.25C38.3189 175.677 38.0234 176.073 37.6827 176.428C37.0577 177.096 36.399 177.692 35.7596 178.274C34.4327 179.437 33.0769 180.534 31.7452 181.639C30.4161 182.703 29.145 183.838 27.9375 185.038C27.6842 185.293 27.4644 185.579 27.2837 185.889C27.2774 185.909 27.2693 185.929 27.2596 185.947C27.2596 185.947 27.2596 185.947 27.2596 185.947C27.2596 185.947 27.1394 185.913 27.0721 185.909C26.8365 185.875 26.7789 185.966 26.8606 185.909C26.8884 185.884 26.9113 185.855 26.9279 185.822V185.822C26.9615 185.76 26.6106 186.327 26.7596 186.086C26.7596 186.086 26.7596 186.086 26.7596 186.034C26.77 185.967 26.77 185.899 26.7596 185.832C26.7526 185.737 26.7365 185.644 26.7115 185.553V185.514H26.7452L26.8317 185.471C27.1692 185.286 27.4908 185.074 27.7933 184.836C28.125 184.586 28.4567 184.322 28.7837 184.048C29.9375 183.086 31.0289 182.072 32.1491 181.043C36.3654 177.197 37.875 176.067 39.2212 175.755C39.5144 175.692 39.9471 175.577 40.0962 175.697C40.1298 175.697 40.0962 175.779 40.0962 175.731C40.0962 175.683 40.0962 175.731 40.0962 175.731C40.0945 175.742 40.0945 175.753 40.0962 175.764C40.1004 175.793 40.1004 175.822 40.0962 175.851C40.0938 175.878 40.0938 175.905 40.0962 175.933V175.971C39.8828 176.223 39.6549 176.462 39.4135 176.687C38.7067 177.399 37.5577 178.538 36.0481 179.971L32.6923 183.115C31.524 184.187 30.3606 185.26 29.0337 186.284C28.6683 186.563 28.2844 186.816 27.8846 187.043C27.7557 187.114 27.6224 187.177 27.4856 187.231L27.3606 187.279L27.2019 187.327H27.1202H27.0048C26.9137 187.336 26.8219 187.336 26.7308 187.327C26.5915 187.322 26.4538 187.296 26.3221 187.25C26.239 187.22 26.1586 187.183 26.0817 187.139L25.9471 187.053C25.8677 186.992 25.7937 186.925 25.726 186.851C25.6491 186.765 25.5814 186.672 25.524 186.572C25.341 186.231 25.2881 185.834 25.375 185.457C25.4633 185.111 25.6149 184.785 25.8221 184.495C25.976 184.274 26.125 184.096 26.274 183.918C26.5769 183.572 26.8798 183.269 27.1875 182.957C28.4087 181.798 29.6635 180.779 30.9183 179.745C32.1731 178.711 33.4327 177.702 34.6298 176.654C35.2212 176.135 35.8077 175.601 36.3077 175.067C36.5251 174.843 36.7199 174.599 36.8894 174.336C36.9183 174.293 36.9327 174.26 36.9279 174.26C37.0044 174.291 37.0832 174.317 37.1635 174.336C37.2262 174.36 37.2904 174.379 37.3558 174.394C37.461 174.421 37.5693 174.434 37.6779 174.433C37.8221 174.433 37.851 174.38 37.7933 174.433L37.8894 174.341C37.8781 174.361 37.8684 174.382 37.8606 174.404C37.8606 174.404 37.8606 174.476 37.8606 174.529C37.8573 174.585 37.8573 174.641 37.8606 174.697C37.8616 174.858 37.876 175.019 37.9039 175.178L37.9327 175.312C37.8863 175.326 37.8413 175.344 37.7981 175.365C37.6827 175.413 37.5337 175.49 37.3846 175.572C37.0817 175.745 36.7644 175.952 36.4231 176.168C35.7837 176.606 35.1394 177.086 34.5 177.582C33.2212 178.567 31.9471 179.606 30.6539 180.63C29.6923 181.394 28.7308 182.154 27.6827 182.889C27.1496 183.276 26.5959 183.634 26.024 183.961C25.6876 184.155 25.3335 184.316 24.9664 184.442C24.669 184.549 24.3543 184.6 24.0385 184.591C23.7294 184.578 23.4292 184.484 23.1683 184.317C23.0068 184.213 22.8651 184.082 22.75 183.928C22.6506 183.796 22.5712 183.65 22.5144 183.495C22.4707 183.377 22.4385 183.254 22.4183 183.13V183.086C22.4183 183.086 22.4183 182.995 22.4183 182.947C22.4088 182.842 22.4088 182.735 22.4183 182.63C22.4392 182.514 22.473 182.401 22.5192 182.293C22.5999 182.119 22.7051 181.957 22.8317 181.812C22.9629 181.642 23.1059 181.482 23.2596 181.332C23.5192 181.082 23.7692 180.851 24.0192 180.663C24.5 180.25 25.0096 179.87 25.5048 179.49C26.5 178.74 27.5 178.019 28.5 177.303C30.4904 175.861 32.5241 174.471 34.4327 173.034C34.6683 172.856 34.9135 172.673 35.0962 172.505L35.2212 172.394L35.3029 172.308C35.3534 172.253 35.3985 172.193 35.4375 172.13V172.091L35.5385 172.13L35.6779 172.178L35.8221 172.211L35.9375 172.24H36.0625H36.1587H36.25H36.2981C36.3798 172.211 36.3414 172.211 36.2981 172.264C36.2671 172.308 36.2443 172.357 36.2308 172.409C36.1976 172.487 36.1766 172.569 36.1683 172.654C36.1683 172.726 36.1346 172.875 36.1346 172.981V173.067C36.1346 173.101 36.1346 173.135 36.1346 173.12H36.0577H36.024L35.875 173.207L35.5385 173.428C35.3029 173.586 35.0577 173.76 34.8221 173.933L33.3798 175.019L33.351 175.149Z" fill="#151F6D"/>
<path d="M131.904 109.74C131.999 108.712 131.847 107.675 131.462 106.716C131.083 105.762 130.517 104.892 129.798 104.159C128.343 102.713 126.424 101.827 124.38 101.659C123.363 101.574 122.34 101.685 121.365 101.986C120.387 102.271 119.47 102.734 118.659 103.351C117.84 103.977 117.166 104.772 116.683 105.683C116.21 106.595 115.932 107.595 115.865 108.62C115.714 110.676 116.354 112.713 117.654 114.312C118.302 115.107 119.105 115.761 120.014 116.236C120.922 116.703 121.908 116.997 122.923 117.101C123.935 117.217 124.959 117.152 125.947 116.909C126.939 116.651 127.869 116.199 128.683 115.577C130.321 114.331 131.436 112.519 131.808 110.495C131.914 109.928 130.995 109.851 130.918 110.332C130.586 112.132 129.595 113.745 128.139 114.856C127.424 115.403 126.607 115.804 125.736 116.034C124.852 116.252 123.937 116.307 123.034 116.197C122.132 116.116 121.255 115.857 120.454 115.436C119.653 115.014 118.943 114.438 118.365 113.74C117.217 112.318 116.651 110.511 116.784 108.687C116.841 107.785 117.084 106.904 117.5 106.101C117.92 105.305 118.509 104.611 119.226 104.067C120.687 102.965 122.497 102.429 124.322 102.558C126.147 102.717 127.858 103.513 129.154 104.808C129.797 105.437 130.295 106.198 130.613 107.039C130.932 107.88 131.064 108.781 131 109.678C130.976 110.048 131.875 110.202 131.904 109.74Z" fill="#151F6D"/>
<path d="M135.308 85.827C135.405 84.7965 135.253 83.7577 134.865 82.7981C134.487 81.8448 133.921 80.9768 133.202 80.2452C131.749 78.7979 129.832 77.9107 127.788 77.7404C126.772 77.6592 125.749 77.7718 124.774 78.0722C123.795 78.3566 122.876 78.8177 122.063 79.4327C121.245 80.0606 120.573 80.8576 120.091 81.7693C119.619 82.6816 119.339 83.6816 119.269 84.7068C119.124 86.7577 119.763 88.7871 121.058 90.3847C121.709 91.1766 122.511 91.8304 123.418 92.3077C124.326 92.776 125.315 93.068 126.332 93.1683C127.343 93.2885 128.367 93.2249 129.356 92.9808C130.347 92.722 131.276 92.2694 132.091 91.6491C133.728 90.4003 134.842 88.5872 135.216 86.5625C135.317 86 134.404 85.9183 134.327 86.3991C133.994 88.2021 133.002 89.8165 131.543 90.9279C130.826 91.4717 130.009 91.8702 129.139 92.101C128.26 92.3329 127.346 92.403 126.442 92.3077C125.541 92.2268 124.664 91.968 123.862 91.5463C123.061 91.1247 122.351 90.5485 121.774 89.851C120.622 88.4276 120.055 86.6195 120.188 84.7933C120.247 83.8921 120.492 83.013 120.909 82.2116C121.33 81.4166 121.917 80.7215 122.63 80.1731C124.094 79.0748 125.905 78.5406 127.731 78.6683C129.558 78.8207 131.273 79.6142 132.572 80.9087C133.216 81.5367 133.716 82.2981 134.034 83.1394C134.353 83.9807 134.484 84.8816 134.418 85.7789C134.385 86.1347 135.284 86.2837 135.308 85.827Z" fill="#151F6D"/>
<path d="M169.99 88.7596L175.447 88.9664L176.356 85.0529L176.553 84.1875V84.0721V84.0192C176.553 84.0192 176.524 84.0192 176.51 84.0192L175.115 83.976L161.707 83.4423C159.726 83.3654 157.731 83.3173 155.764 83.2789C153.231 83.2308 150.692 83.2356 148.168 83.0529C146.591 82.9375 148.591 82.0048 151.51 82.0914C156.678 82.2212 161.846 82.4087 167.053 82.6971C168.611 82.7837 170.202 82.8365 171.798 82.8846L176.75 83.0337H177.461C177.573 83.0284 177.684 83.0365 177.793 83.0577L177.716 83.4087L177.433 84.649L177.053 86.3173L176.211 89.9952L172.202 89.8558L165.731 89.6298C162.466 89.524 159.187 89.4039 155.942 89.3269C153.423 89.2692 150.952 89.274 148.461 89.25H147.639H146.591H145.74C145.817 88.9135 145.885 88.6058 145.947 88.3173C146.01 88.0289 146.058 87.8654 146.101 87.6683C146.178 87.3846 146.245 87.1539 146.312 86.9615C146.398 86.6761 146.545 86.4133 146.745 86.1923C146.818 86.1023 146.9 86.0202 146.99 85.9471C147.115 85.875 147.178 86.0529 147.173 86.4279C147.169 86.6675 147.151 86.9066 147.12 87.1442C147.12 87.2885 147.082 87.4423 147.058 87.625L146.981 88.1058V88.3077H147.192H149.548L152.808 88.3414C154.995 88.3798 157.216 88.4327 159.437 88.4904L169.966 88.8173L169.99 88.7596Z" fill="#151F6D"/>
<path d="M165.322 115.034L170.779 115.245L171.688 111.332L171.885 110.466L171.909 110.351V110.298C171.909 110.298 171.88 110.298 171.87 110.298L170.476 110.255L157.067 109.716C155.082 109.644 153.087 109.596 151.12 109.558C148.591 109.51 146.053 109.51 143.524 109.332C141.947 109.216 143.947 108.284 146.865 108.37C152.034 108.495 157.202 108.687 162.413 108.976C163.966 109.062 165.558 109.115 167.159 109.163L172.106 109.312H172.817C172.929 109.308 173.04 109.318 173.149 109.341L173.072 109.692L172.793 110.933L172.409 112.601L171.567 116.279L167.558 116.139L161.091 115.913C157.822 115.808 154.543 115.683 151.303 115.611C148.784 115.553 146.308 115.558 143.817 115.534H143H141.952H141.096C141.173 115.197 141.24 114.885 141.308 114.601C141.375 114.317 141.413 114.149 141.462 113.952C141.519 113.713 141.59 113.477 141.673 113.245C141.756 112.959 141.904 112.695 142.106 112.476C142.178 112.385 142.26 112.303 142.351 112.231C142.471 112.159 142.534 112.337 142.529 112.712C142.524 112.951 142.507 113.19 142.476 113.428L142.413 113.909L142.341 114.389V114.591H142.548H144.904L148.163 114.625C150.356 114.659 152.572 114.716 154.798 114.774L165.327 115.101L165.322 115.034Z" fill="#151F6D"/>
<path d="M129.38 84.096C129.38 86.9325 125.428 86.6681 125.428 83.8172C125.428 83.2332 125.66 82.6731 126.073 82.2602C126.486 81.8472 127.046 81.6152 127.63 81.6152C128.846 81.6152 129.375 82.8797 129.38 84.096Z" fill="#151F6D"/>
<path d="M129.736 83.9998C129.737 83.3865 129.584 82.7827 129.289 82.245C129.125 81.9558 128.894 81.7102 128.615 81.5287C128.326 81.3518 127.993 81.257 127.654 81.2546C127.008 81.2536 126.386 81.4952 125.911 81.9316C125.435 82.368 125.141 82.9672 125.087 83.6104C125.044 84.2464 125.213 84.8787 125.567 85.4085C125.752 85.6713 125.987 85.895 126.258 86.0667C126.53 86.2383 126.832 86.3545 127.149 86.4085C127.473 86.4678 127.805 86.4554 128.123 86.3724C128.441 86.2893 128.737 86.1375 128.99 85.9277C129.233 85.7115 129.426 85.4462 129.558 85.1494C129.69 84.8527 129.757 84.5313 129.755 84.2066C129.755 84.0287 129.039 84.0527 129.029 84.1729C129.038 84.3984 128.996 84.623 128.908 84.8308C128.82 85.0386 128.687 85.2243 128.519 85.3748C128.347 85.5133 128.145 85.6121 127.93 85.6645C127.715 85.7168 127.491 85.7213 127.274 85.6777C127.051 85.64 126.838 85.5585 126.646 85.4381C126.455 85.3176 126.289 85.1605 126.159 84.9758C125.91 84.5799 125.792 84.1156 125.822 83.6489C125.863 83.1886 126.074 82.76 126.414 82.447C126.754 82.1338 127.201 81.962 127.664 81.9662C127.876 81.9663 128.085 82.0257 128.266 82.1378C128.447 82.2499 128.593 82.4102 128.688 82.6008C128.921 83.0299 129.042 83.5113 129.039 83.9998C129.014 84.1345 129.74 84.1345 129.736 83.9998Z" fill="#151F6D"/>
<path d="M129.808 89.423C130.01 88.3221 128.914 85.9903 127.087 85.923C125.019 85.8413 124.096 89.3413 124.096 89.3413C124.096 89.3413 129.707 90.0577 129.808 89.423Z" fill="#151F6D"/>
<path d="M129.601 89.3077C129.577 89.2789 129.567 89.2404 129.548 89.2164H129.505C129.464 89.2304 129.422 89.2401 129.38 89.2452C129.276 89.2637 129.172 89.2765 129.067 89.2837C128.846 89.2837 128.615 89.2837 128.385 89.2837C127.904 89.2837 127.457 89.2501 126.986 89.2212C126.514 89.1924 126.048 89.1443 125.582 89.0962L124.62 88.9904L124.668 88.8558C124.736 88.6731 124.808 88.4952 124.885 88.3222C125.038 87.9764 125.221 87.645 125.433 87.3318C125.598 87.0311 125.835 86.7751 126.121 86.5859C126.407 86.3966 126.735 86.2797 127.077 86.2452C128.428 86.2452 129.543 87.9039 129.51 89.2164C129.51 89.3318 130.207 89.5193 130.231 89.2837C130.257 88.8277 130.183 88.3716 130.014 87.9472C129.864 87.5369 129.653 87.1513 129.389 86.8029C129.128 86.4269 128.785 86.1156 128.385 85.8931C127.985 85.6705 127.539 85.5427 127.082 85.5193C126.602 85.523 126.136 85.6778 125.75 85.9616C125.391 86.224 125.083 86.5499 124.841 86.9231C124.603 87.2728 124.395 87.6428 124.221 88.0289C124.139 88.2212 124.058 88.4135 123.986 88.6106L123.933 88.7597C123.899 88.8558 123.87 88.952 123.841 89.0433L123.683 89.6058L124.817 89.7452L125.529 89.8222C126.01 89.8702 126.49 89.9135 126.971 89.9472C127.452 89.9808 127.933 90.0049 128.414 90.0097C128.654 90.0097 128.894 90.0097 129.154 90.0097C129.284 90.0019 129.414 89.9874 129.543 89.9664C129.717 89.9378 129.882 89.8687 130.024 89.7645C130.042 89.7525 130.056 89.7369 130.067 89.7186C130.078 89.7003 130.085 89.6799 130.087 89.6587C130.104 89.6155 130.104 89.5673 130.087 89.5241C130.054 89.4836 130.01 89.4528 129.961 89.435C129.912 89.4173 129.859 89.4131 129.808 89.4231H129.688C129.648 89.3944 129.617 89.3542 129.601 89.3077V89.3077Z" fill="#151F6D"/>
<path d="M126.111 112.591C126.192 112.062 126.236 111.577 126.279 111.067L126.327 110.308C126.327 110.038 126.327 109.875 126.327 109.346L126.221 109.077V109.043C126.082 109.173 126.183 109.077 126.149 109.106L126.111 109.053L126.019 108.947C125.914 108.903 125.801 108.882 125.688 108.885H125.418L124.683 108.856C124.202 108.856 123.721 108.856 123.216 108.856C122.971 108.856 122.736 108.856 122.471 108.856L122.087 108.885H121.986C121.927 108.892 121.869 108.903 121.813 108.918C121.699 108.935 121.589 108.975 121.49 109.034C121.406 109.109 121.338 109.201 121.289 109.303C121.241 109.406 121.213 109.517 121.207 109.63C121.183 109.793 121.178 109.904 121.168 110.038C121.168 110.293 121.168 110.519 121.168 110.793C121.168 111.274 121.168 111.755 121.236 112.284C121.236 112.356 121.236 112.394 121.236 112.495C121.246 112.613 121.275 112.728 121.322 112.836C121.367 112.94 121.44 113.029 121.533 113.095C121.625 113.16 121.733 113.199 121.846 113.207C121.986 113.236 122.039 113.24 122.101 113.25L122.293 113.274L122.668 113.312C123.149 113.351 123.654 113.37 124.154 113.365C124.404 113.365 124.635 113.365 124.914 113.336C125.043 113.336 125.173 113.336 125.313 113.288C125.48 113.264 125.643 113.212 125.793 113.135C125.839 113.106 125.874 113.064 125.894 113.014C125.909 112.959 125.909 112.901 125.894 112.846C125.875 112.793 125.841 112.746 125.795 112.712C125.75 112.678 125.696 112.658 125.639 112.654L125.548 112.63C125.548 112.63 125.514 112.63 125.49 112.577C125.475 112.561 125.462 112.544 125.452 112.524L125.389 112.428C125.377 112.408 125.365 112.387 125.356 112.365H125.308L125.173 112.394L124.851 112.433C124.63 112.433 124.394 112.457 124.164 112.457C123.683 112.457 123.202 112.457 122.755 112.404L122.409 112.37L122.139 112.336V112.187C122.096 111.731 122.077 111.255 122.077 110.784C122.077 110.553 122.077 110.303 122.077 110.091C122.081 109.985 122.09 109.879 122.106 109.774C122.106 109.774 122.106 109.774 122.106 109.774H122.188L122.524 109.75C122.755 109.75 123.005 109.75 123.226 109.75C123.707 109.75 124.188 109.75 124.668 109.75L125.476 109.788V110.308L125.428 111.038C125.389 111.519 125.341 112.024 125.269 112.481C125.202 112.5 126.077 112.779 126.111 112.591Z" fill="#151F6D"/>
<path d="M126.308 109.255C126.269 108.612 126.131 107.98 125.899 107.38C125.771 107.053 125.585 106.752 125.351 106.49C125.228 106.351 125.087 106.228 124.933 106.125C124.784 106.029 124.625 105.952 124.452 105.865C124.095 105.712 123.701 105.664 123.317 105.726C122.942 105.799 122.595 105.973 122.312 106.231C121.828 106.699 121.459 107.273 121.236 107.909C121.192 108.005 122.072 108.274 122.087 108.221C122.259 107.727 122.542 107.278 122.913 106.909C123.065 106.758 123.259 106.657 123.469 106.619C123.68 106.581 123.897 106.609 124.091 106.697C124.995 107.038 125.293 108.221 125.385 109.327C125.694 109.371 126.009 109.346 126.308 109.255V109.255Z" fill="#151F6D"/>
<path d="M124.188 110.649V109.615C124.188 109.615 123.279 109.615 123.284 109.615V110.668C123.284 110.668 124.192 110.659 124.188 110.649Z" fill="#151F6D"/>
<path d="M114.654 159.014L110.808 160.543L110.327 160.736C110.253 160.765 110.186 160.809 110.129 160.865C110.073 160.921 110.029 160.988 110 161.063C109.966 161.138 109.949 161.22 109.949 161.303C109.949 161.386 109.966 161.468 110 161.543C110.032 161.618 110.079 161.685 110.139 161.739C110.198 161.794 110.269 161.836 110.346 161.861C110.414 161.883 110.486 161.892 110.558 161.889H121.798C121.904 161.9 122.01 161.9 122.115 161.889C122.217 161.858 122.315 161.818 122.409 161.769L122.644 161.664L123.606 161.226L125.529 160.361L126.01 160.144L126.25 160.034C126.378 159.983 126.485 159.89 126.553 159.769C126.59 159.704 126.612 159.632 126.616 159.557C126.62 159.482 126.606 159.407 126.576 159.339C126.546 159.27 126.501 159.209 126.443 159.161C126.386 159.113 126.318 159.08 126.245 159.063C126.206 159.051 126.166 159.041 126.125 159.034H125.644H123.567L115.245 158.99C115.207 158.985 115.167 158.988 115.13 159C115.092 159.011 115.058 159.03 115.029 159.056C114.999 159.082 114.976 159.113 114.959 159.149C114.943 159.184 114.935 159.223 114.935 159.262C114.935 159.301 114.943 159.34 114.959 159.375C114.976 159.411 114.999 159.443 115.029 159.468C115.058 159.494 115.092 159.513 115.13 159.524C115.167 159.536 115.207 159.539 115.245 159.534L123.457 159.572H125.51H125.962L125.197 159.918L123.346 160.755L122.423 161.173L122.192 161.279L122.01 161.361H111.221C110.904 161.361 110.399 161.361 110.51 161.332C110.51 161.293 110.51 161.284 110.538 161.269L111.019 161.077L114.865 159.543C114.986 159.495 115.106 158.904 114.654 159.014Z" fill="#151F6D"/>
<path d="M117.692 149.586C118.909 149.481 120.163 149.562 121.385 149.553L121.303 149.255C120.825 149.526 120.328 149.763 119.817 149.966C119.481 150.11 119.909 149.99 119.764 149.995C119.622 150.002 119.479 150.002 119.337 149.995C118.313 149.995 117.284 149.966 116.26 150.033L116.418 150.332C116.899 150.077 117.38 149.759 117.861 149.548C118.26 149.38 117.899 149.134 117.606 149.259C117.058 149.495 116.543 149.836 116.019 150.115C115.769 150.255 115.986 150.428 116.183 150.413C117.303 150.341 118.486 150.519 119.596 150.413C120.353 150.257 121.07 149.946 121.702 149.5C121.87 149.389 121.832 149.197 121.62 149.197C120.346 149.197 119.038 149.125 117.774 149.235C117.452 149.231 117.26 149.62 117.692 149.586Z" fill="#151F6D"/>
<path d="M125.875 149.543H129.659L129.596 149.298L128.255 150C128.135 150.062 127.582 150.433 128.024 150.187C128.308 150.029 128.11 150.149 127.822 150.13C126.812 150.058 125.788 150.077 124.774 150.048V150.288L126.279 149.447C126.721 149.197 126.029 149.192 125.827 149.308L124.322 150.149C124.207 150.216 124.062 150.385 124.322 150.394C125.437 150.423 126.582 150.538 127.687 150.486C128.529 150.442 129.332 149.827 130.067 149.447C130.288 149.332 130.235 149.202 130 149.202H126.216C125.961 149.192 125.37 149.543 125.875 149.543Z" fill="#151F6D"/>
<path d="M133.707 149.519H137.5V149.298L136.173 150C136.067 150.053 135.462 150.389 135.942 150.183C136.293 150.038 135.976 150.144 135.74 150.125C134.731 150.053 133.707 150.072 132.697 150.043L132.673 150.264L134.178 149.418C134.62 149.173 133.918 149.197 133.731 149.303L132.212 150.154C132.101 150.216 131.947 150.365 132.212 150.375C133.327 150.404 134.476 150.524 135.577 150.466C136.418 150.423 137.221 149.807 137.957 149.423C138.067 149.365 138.221 149.207 137.981 149.207H134.197C134.029 149.207 133.332 149.519 133.707 149.519Z" fill="#151F6D"/>
<path d="M141.615 149.519H145.399L145.332 149.279L143.995 150C143.875 150.058 143.313 150.423 143.764 150.183C144.058 150.029 143.846 150.149 143.563 150.125C142.553 150.058 141.529 150.072 140.514 150.043V150.284L142.019 149.442C142.466 149.192 141.769 149.192 141.572 149.303L140.063 150.149C139.952 150.212 139.803 150.38 140.063 150.385C141.183 150.418 142.327 150.534 143.428 150.476C144.274 150.438 145.072 149.822 145.832 149.442C146.053 149.327 146 149.202 145.769 149.202H141.986C141.707 149.197 141.106 149.519 141.615 149.519Z" fill="#151F6D"/>
<path d="M149.726 149.519H153.51L153.442 149.274L152.101 150C152 150.058 151.466 150.264 151.798 150.197C152.13 150.13 151.601 150.154 151.519 150.149C150.505 150.077 149.486 150.091 148.471 150.067L148.539 150.308L150.043 149.466C150.409 149.26 149.851 149.202 149.659 149.308L148.154 150.149C147.971 150.25 148.024 150.389 148.221 150.394C149.322 150.423 150.462 150.553 151.563 150.485C152.351 150.433 153.13 149.827 153.827 149.466C154.01 149.37 153.957 149.221 153.76 149.221H150C149.76 149.202 149.308 149.519 149.726 149.519Z" fill="#151F6D"/>
<path d="M157.914 149.519H160.899C161.121 149.538 161.345 149.538 161.567 149.519C161.75 149.481 161.774 149.37 161.539 149.418C161.002 149.582 160.5 149.843 160.058 150.187C159.841 150.389 160.5 150.226 160.25 150.149C160.017 150.122 159.781 150.122 159.548 150.149L157.659 150.101C157.455 150.089 157.251 150.089 157.048 150.101C156.832 150.101 156.962 150.216 157.154 150.139C157.605 149.928 158.04 149.686 158.457 149.413C158.774 149.235 158.01 149.322 157.87 149.413L156.365 150.26C156.24 150.327 156.264 150.409 156.409 150.413C157.524 150.447 158.673 150.572 159.774 150.505C160.615 150.457 161.418 149.846 162.149 149.466C162.26 149.409 162.418 149.269 162.183 149.269H158.414C158.255 149.216 157.548 149.519 157.914 149.519Z" fill="#151F6D"/>
<path d="M166.659 149.558H170.442V149.221L169.101 149.918C169.019 149.961 168.514 150.197 168.76 150.13C169.005 150.062 168.534 150.13 168.442 150.101C167.433 150.053 166.413 150.048 165.399 150.019L165.476 150.317L166.986 149.471C167.351 149.269 166.808 149.139 166.587 149.259L165.082 150.106C164.899 150.207 164.962 150.394 165.163 150.404C166.25 150.433 167.365 150.534 168.452 150.49C169.25 150.461 170 149.87 170.697 149.529C170.87 149.437 170.976 149.197 170.697 149.197H166.913C166.639 149.178 166.236 149.558 166.659 149.558Z" fill="#151F6D"/>
<path d="M111.952 154.505H115.736V154.178L114.394 154.87C114.313 154.913 113.808 155.149 114.053 155.086C114.298 155.024 113.827 155.062 113.736 155.058C112.726 155.005 111.707 155 110.692 154.971L110.769 155.264L112.274 154.423C112.644 154.216 112.096 154.091 111.88 154.216L110.375 155.058C110.192 155.163 110.255 155.341 110.452 155.351C111.543 155.38 112.654 155.481 113.745 155.437C114.538 155.409 115.289 154.817 115.986 154.476C116.159 154.389 116.269 154.149 115.986 154.149H112.202C111.942 154.13 111.539 154.505 111.952 154.505Z" fill="#151F6D"/>
<path d="M120.226 154.5H124.01L123.942 154.24L122.596 154.937C122.471 155 121.918 155.202 122.322 155.12C122.726 155.038 122.183 155.072 122.082 155.062C121.072 154.985 120.043 155.01 119.034 154.981L119.101 155.24L120.611 154.394C121.053 154.144 120.361 154.125 120.154 154.24L118.649 155.082C118.428 155.207 118.481 155.336 118.716 155.341C119.817 155.37 120.957 155.495 122.058 155.433C122.875 155.389 123.678 154.764 124.39 154.394C124.615 154.279 124.558 154.135 124.322 154.135H120.539C120.303 154.135 119.712 154.5 120.226 154.5Z" fill="#151F6D"/>
<path d="M128.188 154.514H131.966V154.168L130.625 154.861C130.543 154.904 130.038 155.139 130.284 155.077C130.529 155.014 130.063 155.053 129.966 155.048C128.957 154.995 127.938 154.99 126.923 154.962L127.005 155.274L128.51 154.433C128.88 154.226 128.341 154.077 128.111 154.207L126.606 155.048C126.418 155.154 126.486 155.351 126.688 155.361C127.779 155.389 128.889 155.49 129.981 155.447C130.774 155.418 131.529 154.832 132.226 154.486C132.399 154.389 132.505 154.135 132.226 154.135H128.442C128.159 154.12 127.764 154.514 128.188 154.514Z" fill="#151F6D"/>
<path d="M136.01 154.524H139.793V154.159L138.452 154.851C138.375 154.894 137.865 155.13 138.111 155.067C138.356 155.005 137.889 155.043 137.798 155.038C136.784 154.986 135.764 154.981 134.75 154.957V155.322L136.255 154.476C136.63 154.269 136.288 153.995 135.99 154.159L134.486 155C134.312 155.101 134.212 155.361 134.486 155.365C135.577 155.394 136.687 155.495 137.774 155.457C138.572 155.428 139.322 154.841 140.019 154.495C140.197 154.404 140.293 154.13 140.019 154.13H136.24C135.966 154.111 135.577 154.524 136.01 154.524Z" fill="#151F6D"/>
<path d="M144.043 154.505H147.827L147.75 154.231L146.414 154.928C146.289 154.99 145.736 155.192 146.14 155.11C146.543 155.029 145.995 155.062 145.894 155.053C144.885 154.981 143.861 155 142.851 154.971L142.923 155.245L144.428 154.404C144.875 154.154 144.188 154.11 143.947 154.231L142.438 155.077C142.216 155.197 142.274 155.346 142.515 155.351C143.615 155.38 144.755 155.5 145.856 155.442C146.673 155.399 147.471 154.774 148.188 154.404C148.414 154.288 148.351 154.13 148.115 154.13H144.332C144.101 154.13 143.529 154.505 144.043 154.505Z" fill="#151F6D"/>
<path d="M152.265 154.481H156.048L156.072 154.26L154.731 154.952C154.625 155.01 154.019 155.346 154.5 155.139C154.846 154.99 154.539 155.096 154.298 155.082C153.289 155.01 152.265 155.024 151.255 155L151.231 155.221L152.736 154.375C153.178 154.13 152.476 154.154 152.289 154.26L150.784 155.101C150.668 155.163 150.519 155.317 150.76 155.322C151.875 155.356 153.024 155.476 154.125 155.418C154.966 155.37 155.769 154.76 156.505 154.375C156.616 154.317 156.765 154.154 156.529 154.154H152.745C152.587 154.154 151.89 154.481 152.265 154.481Z" fill="#21467E"/>
<path d="M160.875 154.471H163.861C164.083 154.493 164.307 154.493 164.529 154.471C164.731 154.428 164.716 154.337 164.5 154.365C163.96 154.524 163.456 154.785 163.014 155.135C162.803 155.337 163.462 155.173 163.207 155.096C162.974 155.07 162.738 155.07 162.505 155.096L160.62 155.043C160.416 155.024 160.209 155.024 160.005 155.043C159.788 155.087 159.928 155.159 160.115 155.091C160.567 154.88 161.002 154.636 161.418 154.361C161.736 154.183 160.976 154.26 160.832 154.361L159.327 155.202C159.197 155.274 159.226 155.365 159.37 155.37C160.486 155.399 161.635 155.524 162.736 155.462C163.577 155.413 164.38 154.803 165.111 154.418C165.226 154.361 165.38 154.216 165.139 154.216H161.361C161.212 154.163 160.505 154.471 160.875 154.471Z" fill="#21467E"/>
<path d="M145.332 110.986C143.505 114.351 148.856 112.385 145.611 110.986C145.13 111.327 145.183 111.62 145.101 112.159" fill="#21467E"/>
<path d="M149.611 110.986C147.784 114.351 153.135 112.385 149.889 110.986C149.409 111.327 149.462 111.62 149.38 112.159" fill="#21467E"/>
<path d="M153.774 110.986C151.947 114.351 157.298 112.385 154.053 110.986C153.572 111.327 153.625 111.62 153.543 112.159" fill="#21467E"/>
<path d="M157.692 111.236C155.865 114.601 161.216 112.635 157.971 111.236C157.49 111.577 157.543 111.87 157.462 112.409" fill="#21467E"/>
<path d="M149.726 84.875C147.899 88.2404 153.25 86.274 150.005 84.875C149.524 85.2163 149.572 85.5096 149.49 86.0481" fill="#21467E"/>
<path d="M153.885 85.125C152.058 88.4904 157.409 86.524 154.163 85.125C153.683 85.4615 153.736 85.7596 153.654 86.2981" fill="#21467E"/>
<path d="M157.822 85.125C156 88.4904 161.351 86.524 158.101 85.125C157.62 85.4615 157.673 85.7596 157.591 86.2981" fill="#21467E"/>
<path d="M217.601 140.236C219.442 140.404 221.284 140.538 223.125 140.625C223.798 140.659 224.467 140.654 225.14 140.692C227.505 140.827 229.87 140.971 232.241 141.072C233.289 141.115 234.346 141.135 235.39 141.163C236.726 141.187 238.072 141.226 239.409 141.303C239.827 141.303 239.769 141.356 239.409 141.413C239.048 141.471 238.404 141.567 237.63 141.62C234.894 141.774 232.164 141.904 229.409 141.861C227.76 141.827 226.043 141.913 224.356 141.933H218.793C217.649 141.933 216.51 141.933 215.366 141.933C213.64 141.909 211.904 141.808 210.188 141.769C208.851 141.736 207.543 141.769 206.226 141.678C205.938 141.678 205.654 141.644 205.361 141.615C204.797 141.576 204.24 141.476 203.697 141.317L203.543 141.274C203.91 141.145 204.291 141.062 204.678 141.029C207.102 140.557 209.554 140.247 212.019 140.101C213.877 140.009 215.738 140.039 217.592 140.192L217.601 140.236Z" fill="#21467E"/>
<path d="M52.101 142.846C50.8174 142.687 49.5289 142.562 48.2549 142.485C47.7741 142.452 47.3174 142.461 46.8462 142.423C45.1924 142.298 43.5385 142.163 41.8895 142.077C41.1539 142.038 40.4183 142.019 39.6875 142C38.7549 142 37.8125 141.947 36.8799 141.88C36.5866 141.856 36.625 141.822 36.8799 141.769C37.2868 141.671 37.6995 141.599 38.1154 141.553C40.0325 141.362 41.9581 141.271 43.8847 141.279C45.0337 141.279 46.2356 141.207 47.4135 141.183L51.2981 141.149C52.0962 141.149 52.8895 141.149 53.702 141.149C54.9087 141.149 56.1058 141.255 57.3222 141.288C58.2549 141.312 59.1635 141.288 60.0866 141.36C60.2885 141.36 60.4856 141.389 60.6924 141.423C61.0926 141.459 61.485 141.556 61.8558 141.711L61.9616 141.75C62.0337 141.774 61.726 141.851 61.1731 142C60.351 142.207 59.5049 142.433 58.6491 142.601C57.7894 142.769 56.9211 142.889 56.0481 142.961C54.7524 143.062 53.4502 143.039 52.1587 142.894L52.101 142.846Z" fill="#21467E"/>
</svg>
